<?xml version="1.0" standalone="no"?>
<!DOCTYPE svg PUBLIC "-//W3C//DTD SVG 1.1//EN" "http://www.w3.org/Graphics/SVG/1.1/DTD/svg11.dtd">
<svg width="21.153207858075in" height="21.199307182781in"
 viewBox="0 0 21.153207858075 21.199307182781"
 xmlns="http://www.w3.org/2000/svg" version="1.1"
 xmlns:xlink="http://www.w3.org/1999/xlink">
<desc>Output from Flights of Ideas SVG Sketchup Plugin</desc>

  <g id="face0" fill="none" stroke="rgb(0,0,255)" stroke-width="1" stroke-miterlimit="4" stroke-dasharray="none" stroke-linejoin="round" stroke-linecap="round">
    <line x1="10.2453766289438" y1="10.1038451649297" x2="10.2406286270738" y2="10.102541334716"/>
    <line x1="10.2406286270738" y1="10.102541334716" x2="10.2076441559941" y2="10.1265059557192"/>
    <line x1="10.2076441559941" y1="10.1265059557192" x2="10.2074169589477" y2="10.1314244795308"/>
    <line x1="10.2074169589477" y1="10.1314244795308" x2="10.2082816903644" y2="10.1753539696966"/>
    <line x1="10.2082816903644" y1="10.1753539696966" x2="10.2135274689049" y2="10.2121603513781"/>
    <line x1="10.2135274689049" y1="10.2121603513781" x2="10.2214454119159" y2="10.2415304180911"/>
    <line x1="10.2214454119159" y1="10.2415304180911" x2="10.2303276550118" y2="10.2634587962814"/>
    <line x1="10.2303276550118" y1="10.2634587962814" x2="10.2385165130437" y2="10.2782415783526"/>
    <line x1="10.2385165130437" y1="10.2782415783526" x2="10.24445193065" y2="10.286462621205"/>
    <line x1="10.24445193065" y1="10.286462621205" x2="10.2854112391172" y2="10.3254149781163"/>
    <line x1="10.2854112391172" y1="10.3254149781163" x2="10.2896838111133" y2="10.3323281485066"/>
    <line x1="10.2896838111133" y1="10.3323281485066" x2="10.2899273818062" y2="10.3404514156834"/>
    <line x1="10.2899273818062" y1="10.3404514156834" x2="10.2860766866255" y2="10.3476081567667"/>
    <line x1="10.2860766866255" y1="10.3476081567667" x2="10.2471166208019" y2="10.4012320869867"/>
    <line x1="10.2471166208019" y1="10.4012320869867" x2="10.2415000858102" y2="10.4071058703496"/>
    <line x1="10.2415000858102" y1="10.4071058703496" x2="10.2336991321447" y2="10.4093844484624"/>
    <line x1="10.2336991321447" y1="10.4093844484624" x2="10.2258040190402" y2="10.4074572781598"/>
    <line x1="10.2258040190402" y1="10.4074572781598" x2="10.1761010037804" y2="10.3805396011957"/>
    <line x1="10.1761010037804" y1="10.3805396011957" x2="10.1664481824959" y2="10.3774351255572"/>
    <line x1="10.1664481824959" y1="10.3774351255572" x2="10.1498584249816" y2="10.3742151896491"/>
    <line x1="10.1498584249816" y1="10.3742151896491" x2="10.1262585339472" y2="10.3725439159933"/>
    <line x1="10.1262585339472" y1="10.3725439159933" x2="10.0958791616649" y2="10.3740893544372"/>
    <line x1="10.0958791616649" y1="10.3740893544372" x2="10.0592531778078" y2="10.3804741200143"/>
    <line x1="10.0592531778078" y1="10.3804741200143" x2="10.0172065332247" y2="10.3932266705811"/>
    <line x1="10.0172065332247" y1="10.3932266705811" x2="10.0125989468515" y2="10.3949626552575"/>
    <line x1="10.0125989468515" y1="10.3949626552575" x2="10.0" y2="10.4337382265682"/>
    <line x1="10.0" y1="10.4337382265682" x2="10.002707229488" y2="10.4378509389922"/>
    <line x1="10.002707229488" y1="10.4378509389922" x2="10.0292279183598" y2="10.4728823667167"/>
    <line x1="10.0292279183598" y1="10.4728823667167" x2="10.0551060906904" y2="10.4995759637356"/>
    <line x1="10.0551060906904" y1="10.4995759637356" x2="10.0787751332196" y2="10.5186827967019"/>
    <line x1="10.0787751332196" y1="10.5186827967019" x2="10.0988501961392" y2="10.5312023758179"/>
    <line x1="10.0988501961392" y1="10.5312023758179" x2="10.1141642227409" y2="10.5383486077534"/>
    <line x1="10.1141642227409" y1="10.5383486077534" x2="10.1237982842002" y2="10.5415108201973"/>
    <line x1="10.1237982842002" y1="10.5415108201973" x2="10.1798306817625" y2="10.5489486614484"/>
    <line x1="10.1798306817625" y1="10.5489486614484" x2="10.187350724719" y2="10.5520301789705"/>
    <line x1="10.187350724719" y1="10.5520301789705" x2="10.1923225141959" y2="10.5584588729052"/>
    <line x1="10.1923225141959" y1="10.5584588729052" x2="10.1934138632178" y2="10.5665121799042"/>
    <line x1="10.1934138632178" y1="10.5665121799042" x2="10.1934138632178" y2="10.6327950028768"/>
    <line x1="10.1934138632178" y1="10.6327950028768" x2="10.1923225141959" y2="10.6408483098758"/>
    <line x1="10.1923225141959" y1="10.6408483098758" x2="10.187350724719" y2="10.6472770038105"/>
    <line x1="10.187350724719" y1="10.6472770038105" x2="10.1798306817625" y2="10.6503585213326"/>
    <line x1="10.1798306817625" y1="10.6503585213326" x2="10.1237982842002" y2="10.6577963625837"/>
    <line x1="10.1237982842002" y1="10.6577963625837" x2="10.1141642227409" y2="10.6609585750276"/>
    <line x1="10.1141642227409" y1="10.6609585750276" x2="10.0988501961392" y2="10.6681048069631"/>
    <line x1="10.0988501961392" y1="10.6681048069631" x2="10.0787751332196" y2="10.6806243860791"/>
    <line x1="10.0787751332196" y1="10.6806243860791" x2="10.0551060906904" y2="10.6997312190454"/>
    <line x1="10.0551060906904" y1="10.6997312190454" x2="10.0292279183598" y2="10.7264248160643"/>
    <line x1="10.0292279183598" y1="10.7264248160643" x2="10.002707229488" y2="10.7614562437888"/>
    <line x1="10.002707229488" y1="10.7614562437888" x2="10.0" y2="10.7655689562128"/>
    <line x1="10.0" y1="10.7655689562128" x2="10.0125989468515" y2="10.8043445275235"/>
    <line x1="10.0125989468515" y1="10.8043445275235" x2="10.0172065332247" y2="10.8060805121999"/>
    <line x1="10.0172065332247" y1="10.8060805121999" x2="10.0592531778078" y2="10.8188330627667"/>
    <line x1="10.0592531778078" y1="10.8188330627667" x2="10.0958791616649" y2="10.8252178283438"/>
    <line x1="10.0958791616649" y1="10.8252178283438" x2="10.1262585339472" y2="10.8267632667877"/>
    <line x1="10.1262585339472" y1="10.8267632667877" x2="10.1498584249816" y2="10.8250919931319"/>
    <line x1="10.1498584249816" y1="10.8250919931319" x2="10.1664481824959" y2="10.8218720572239"/>
    <line x1="10.1664481824959" y1="10.8218720572239" x2="10.1761010037804" y2="10.8187675815853"/>
    <line x1="10.1761010037804" y1="10.8187675815853" x2="10.2258040190402" y2="10.7918499046212"/>
    <line x1="10.2258040190402" y1="10.7918499046212" x2="10.2336991321447" y2="10.7899227343186"/>
    <line x1="10.2336991321447" y1="10.7899227343186" x2="10.2415000858102" y2="10.7922013124314"/>
    <line x1="10.2415000858102" y1="10.7922013124314" x2="10.2471166208019" y2="10.7980750957943"/>
    <line x1="10.2471166208019" y1="10.7980750957943" x2="10.2860766866255" y2="10.8516990260143"/>
    <line x1="10.2860766866255" y1="10.8516990260143" x2="10.2899273818062" y2="10.8588557670976"/>
    <line x1="10.2899273818062" y1="10.8588557670976" x2="10.2896838111133" y2="10.8669790342744"/>
    <line x1="10.2896838111133" y1="10.8669790342744" x2="10.2854112391172" y2="10.8738922046647"/>
    <line x1="10.2854112391172" y1="10.8738922046647" x2="10.24445193065" y2="10.912844561576"/>
    <line x1="10.24445193065" y1="10.912844561576" x2="10.2385165130437" y2="10.9210656044284"/>
    <line x1="10.2385165130437" y1="10.9210656044284" x2="10.2303276550118" y2="10.9358483864997"/>
    <line x1="10.2303276550118" y1="10.9358483864997" x2="10.2214454119159" y2="10.9577767646899"/>
    <line x1="10.2214454119159" y1="10.9577767646899" x2="10.2135274689049" y2="10.9871468314029"/>
    <line x1="10.2135274689049" y1="10.9871468314029" x2="10.2082816903644" y2="11.0239532130844"/>
    <line x1="10.2082816903644" y1="11.0239532130844" x2="10.2074169589477" y2="11.0678827032502"/>
    <line x1="10.2074169589477" y1="11.0678827032502" x2="10.2076441559941" y2="11.0728012270618"/>
    <line x1="10.2076441559941" y1="11.0728012270618" x2="10.2406286270738" y2="11.096765848065"/>
    <line x1="10.2406286270738" y1="11.096765848065" x2="10.2453766289438" y2="11.0954620178514"/>
    <line x1="10.2453766289438" y1="11.0954620178514" x2="10.2868888401202" y2="11.0810646503872"/>
    <line x1="10.2868888401202" y1="11.0810646503872" x2="10.3202727545419" y2="11.0647018210823"/>
    <line x1="10.3202727545419" y1="11.0647018210823" x2="10.3457585689224" y2="11.0480955600457"/>
    <line x1="10.3457585689224" y1="11.0480955600457" x2="10.3638689318272" y2="11.0328718033502"/>
    <line x1="10.3638689318272" y1="11.0328718033502" x2="10.3753976967487" y2="11.0205156056738"/>
    <line x1="10.3753976967487" y1="11.0205156056738" x2="10.3813822282151" y2="11.0123302461295"/>
    <line x1="10.3813822282151" y1="11.0123302461295" x2="10.4057709986865" y2="10.9613386886523"/>
    <line x1="10.4057709986865" y1="10.9613386886523" x2="10.411025517078" y2="10.9551389440785"/>
    <line x1="10.411025517078" y1="10.9551389440785" x2="10.4186759357766" y2="10.9523970669763"/>
    <line x1="10.4186759357766" y1="10.9523970669763" x2="10.4266723312703" y2="10.9538477411011"/>
    <line x1="10.4266723312703" y1="10.9538477411011" x2="10.4897110419769" y2="10.9743302598348"/>
    <line x1="10.4897110419769" y1="10.9743302598348" x2="10.4970329466814" y2="10.9778568031572"/>
    <line x1="10.4970329466814" y1="10.9778568031572" x2="10.5016106304984" y2="10.9845718316143"/>
    <line x1="10.5016106304984" y1="10.9845718316143" x2="10.5022175067459" y2="10.9926760587537"/>
    <line x1="10.5022175067459" y1="10.9926760587537" x2="10.4919763510526" y2="11.048264454927"/>
    <line x1="10.4919763510526" y1="11.048264454927" x2="10.4920067050875" y2="11.0584041692413"/>
    <line x1="10.4920067050875" y1="11.0584041692413" x2="10.4940708810645" y2="11.0751769811453"/>
    <line x1="10.4940708810645" y1="11.0751769811453" x2="10.4997741727587" y2="11.0981382632594"/>
    <line x1="10.4997741727587" y1="11.0981382632594" x2="10.510631714375" y2="11.1265531964865"/>
    <line x1="10.510631714375" y1="11.1265531964865" x2="10.5280220387297" y2="11.1594135760311"/>
    <line x1="10.5280220387297" y1="11.1594135760311" x2="10.5531435627782" y2="11.1954615565034"/>
    <line x1="10.5531435627782" y1="11.1954615565034" x2="10.5562184048093" y2="11.199307182781"/>
    <line x1="10.5562184048093" y1="11.199307182781" x2="10.5969894532657" y2="11.199307182781"/>
    <line x1="10.5969894532657" y1="11.199307182781" x2="10.6000642952968" y2="11.1954615565034"/>
    <line x1="10.6000642952968" y1="11.1954615565034" x2="10.6251858193453" y2="11.1594135760311"/>
    <line x1="10.6251858193453" y1="11.1594135760311" x2="10.6425761437" y2="11.1265531964865"/>
    <line x1="10.6425761437" y1="11.1265531964865" x2="10.6534336853163" y2="11.0981382632594"/>
    <line x1="10.6534336853163" y1="11.0981382632594" x2="10.6591369770105" y2="11.0751769811453"/>
    <line x1="10.6591369770105" y1="11.0751769811453" x2="10.6612011529875" y2="11.0584041692413"/>
    <line x1="10.6612011529875" y1="11.0584041692413" x2="10.6612315070224" y2="11.048264454927"/>
    <line x1="10.6612315070224" y1="11.048264454927" x2="10.6509903513291" y2="10.9926760587537"/>
    <line x1="10.6509903513291" y1="10.9926760587537" x2="10.6515972275766" y2="10.9845718316143"/>
    <line x1="10.6515972275766" y1="10.9845718316143" x2="10.6561749113936" y2="10.9778568031572"/>
    <line x1="10.6561749113936" y1="10.9778568031572" x2="10.6634968160981" y2="10.9743302598348"/>
    <line x1="10.6634968160981" y1="10.9743302598348" x2="10.7265355268047" y2="10.9538477411011"/>
    <line x1="10.7265355268047" y1="10.9538477411011" x2="10.7345319222984" y2="10.9523970669763"/>
    <line x1="10.7345319222984" y1="10.9523970669763" x2="10.742182340997" y2="10.9551389440785"/>
    <line x1="10.742182340997" y1="10.9551389440785" x2="10.7474368593886" y2="10.9613386886523"/>
    <line x1="10.7474368593886" y1="10.9613386886523" x2="10.7718256298599" y2="11.0123302461295"/>
    <line x1="10.7718256298599" y1="11.0123302461295" x2="10.7778101613263" y2="11.0205156056738"/>
    <line x1="10.7778101613263" y1="11.0205156056738" x2="10.7893389262478" y2="11.0328718033502"/>
    <line x1="10.7893389262478" y1="11.0328718033502" x2="10.8074492891526" y2="11.0480955600457"/>
    <line x1="10.8074492891526" y1="11.0480955600457" x2="10.8329351035331" y2="11.0647018210823"/>
    <line x1="10.8329351035331" y1="11.0647018210823" x2="10.8663190179548" y2="11.0810646503872"/>
    <line x1="10.8663190179548" y1="11.0810646503872" x2="10.9078312291312" y2="11.0954620178514"/>
    <line x1="10.9078312291312" y1="11.0954620178514" x2="10.9125792310012" y2="11.096765848065"/>
    <line x1="10.9125792310012" y1="11.096765848065" x2="10.9455637020809" y2="11.0728012270618"/>
    <line x1="10.9455637020809" y1="11.0728012270618" x2="10.9457908991273" y2="11.0678827032502"/>
    <line x1="10.9457908991273" y1="11.0678827032502" x2="10.9449261677106" y2="11.0239532130844"/>
    <line x1="10.9449261677106" y1="11.0239532130844" x2="10.9396803891701" y2="10.9871468314029"/>
    <line x1="10.9396803891701" y1="10.9871468314029" x2="10.9317624461591" y2="10.9577767646899"/>
    <line x1="10.9317624461591" y1="10.9577767646899" x2="10.9228802030632" y2="10.9358483864997"/>
    <line x1="10.9228802030632" y1="10.9358483864997" x2="10.9146913450313" y2="10.9210656044284"/>
    <line x1="10.9146913450313" y1="10.9210656044284" x2="10.908755927425" y2="10.912844561576"/>
    <line x1="10.908755927425" y1="10.912844561576" x2="10.8677966189578" y2="10.8738922046647"/>
    <line x1="10.8677966189578" y1="10.8738922046647" x2="10.8635240469617" y2="10.8669790342744"/>
    <line x1="10.8635240469617" y1="10.8669790342744" x2="10.8632804762688" y2="10.8588557670976"/>
    <line x1="10.8632804762688" y1="10.8588557670976" x2="10.8671311714495" y2="10.8516990260143"/>
    <line x1="10.8671311714495" y1="10.8516990260143" x2="10.9060912372731" y2="10.7980750957943"/>
    <line x1="10.9060912372731" y1="10.7980750957943" x2="10.9117077722648" y2="10.7922013124314"/>
    <line x1="10.9117077722648" y1="10.7922013124314" x2="10.9195087259304" y2="10.7899227343186"/>
    <line x1="10.9195087259304" y1="10.7899227343186" x2="10.9274038390348" y2="10.7918499046212"/>
    <line x1="10.9274038390348" y1="10.7918499046212" x2="10.9771068542946" y2="10.8187675815853"/>
    <line x1="10.9771068542946" y1="10.8187675815853" x2="10.9867596755791" y2="10.8218720572239"/>
    <line x1="10.9867596755791" y1="10.8218720572239" x2="11.0033494330934" y2="10.8250919931319"/>
    <line x1="11.0033494330934" y1="10.8250919931319" x2="11.0269493241278" y2="10.8267632667877"/>
    <line x1="11.0269493241278" y1="10.8267632667877" x2="11.0573286964101" y2="10.8252178283438"/>
    <line x1="11.0573286964101" y1="10.8252178283438" x2="11.0939546802672" y2="10.8188330627667"/>
    <line x1="11.0939546802672" y1="10.8188330627667" x2="11.1360013248503" y2="10.8060805121999"/>
    <line x1="11.1360013248503" y1="10.8060805121999" x2="11.1406089112235" y2="10.8043445275235"/>
    <line x1="11.1406089112235" y1="10.8043445275235" x2="11.153207858075" y2="10.7655689562128"/>
    <line x1="11.153207858075" y1="10.7655689562128" x2="11.150500628587" y2="10.7614562437888"/>
    <line x1="11.150500628587" y1="10.7614562437888" x2="11.1239799397152" y2="10.7264248160643"/>
    <line x1="11.1239799397152" y1="10.7264248160643" x2="11.0981017673846" y2="10.6997312190454"/>
    <line x1="11.0981017673846" y1="10.6997312190454" x2="11.0744327248555" y2="10.6806243860791"/>
    <line x1="11.0744327248555" y1="10.6806243860791" x2="11.0543576619358" y2="10.6681048069631"/>
    <line x1="11.0543576619358" y1="10.6681048069631" x2="11.0390436353341" y2="10.6609585750276"/>
    <line x1="11.0390436353341" y1="10.6609585750276" x2="11.0294095738748" y2="10.6577963625837"/>
    <line x1="11.0294095738748" y1="10.6577963625837" x2="10.9733771763125" y2="10.6503585213326"/>
    <line x1="10.9733771763125" y1="10.6503585213326" x2="10.965857133356" y2="10.6472770038105"/>
    <line x1="10.965857133356" y1="10.6472770038105" x2="10.9608853438791" y2="10.6408483098758"/>
    <line x1="10.9608853438791" y1="10.6408483098758" x2="10.9597939948572" y2="10.6327950028768"/>
    <line x1="10.9597939948572" y1="10.6327950028768" x2="10.9597939948572" y2="10.5665121799042"/>
    <line x1="10.9597939948572" y1="10.5665121799042" x2="10.9608853438791" y2="10.5584588729052"/>
    <line x1="10.9608853438791" y1="10.5584588729052" x2="10.965857133356" y2="10.5520301789705"/>
    <line x1="10.965857133356" y1="10.5520301789705" x2="10.9733771763125" y2="10.5489486614484"/>
    <line x1="10.9733771763125" y1="10.5489486614484" x2="11.0294095738748" y2="10.5415108201973"/>
    <line x1="11.0294095738748" y1="10.5415108201973" x2="11.0390436353341" y2="10.5383486077534"/>
    <line x1="11.0390436353341" y1="10.5383486077534" x2="11.0543576619358" y2="10.5312023758179"/>
    <line x1="11.0543576619358" y1="10.5312023758179" x2="11.0744327248555" y2="10.5186827967019"/>
    <line x1="11.0744327248555" y1="10.5186827967019" x2="11.0981017673846" y2="10.4995759637356"/>
    <line x1="11.0981017673846" y1="10.4995759637356" x2="11.1239799397152" y2="10.4728823667167"/>
    <line x1="11.1239799397152" y1="10.4728823667167" x2="11.150500628587" y2="10.4378509389922"/>
    <line x1="11.150500628587" y1="10.4378509389922" x2="11.153207858075" y2="10.4337382265682"/>
    <line x1="11.153207858075" y1="10.4337382265682" x2="11.1406089112235" y2="10.3949626552575"/>
    <line x1="11.1406089112235" y1="10.3949626552575" x2="11.1360013248503" y2="10.3932266705811"/>
    <line x1="11.1360013248503" y1="10.3932266705811" x2="11.0939546802672" y2="10.3804741200143"/>
    <line x1="11.0939546802672" y1="10.3804741200143" x2="11.0573286964101" y2="10.3740893544372"/>
    <line x1="11.0573286964101" y1="10.3740893544372" x2="11.0269493241278" y2="10.3725439159933"/>
    <line x1="11.0269493241278" y1="10.3725439159933" x2="11.0033494330934" y2="10.3742151896491"/>
    <line x1="11.0033494330934" y1="10.3742151896491" x2="10.9867596755791" y2="10.3774351255572"/>
    <line x1="10.9867596755791" y1="10.3774351255572" x2="10.9771068542946" y2="10.3805396011957"/>
    <line x1="10.9771068542946" y1="10.3805396011957" x2="10.9274038390348" y2="10.4074572781598"/>
    <line x1="10.9274038390348" y1="10.4074572781598" x2="10.9195087259304" y2="10.4093844484624"/>
    <line x1="10.9195087259304" y1="10.4093844484624" x2="10.9117077722648" y2="10.4071058703496"/>
    <line x1="10.9117077722648" y1="10.4071058703496" x2="10.9060912372731" y2="10.4012320869867"/>
    <line x1="10.9060912372731" y1="10.4012320869867" x2="10.8671311714495" y2="10.3476081567667"/>
    <line x1="10.8671311714495" y1="10.3476081567667" x2="10.8632804762688" y2="10.3404514156834"/>
    <line x1="10.8632804762688" y1="10.3404514156834" x2="10.8635240469617" y2="10.3323281485066"/>
    <line x1="10.8635240469617" y1="10.3323281485066" x2="10.8677966189578" y2="10.3254149781163"/>
    <line x1="10.8677966189578" y1="10.3254149781163" x2="10.908755927425" y2="10.286462621205"/>
    <line x1="10.908755927425" y1="10.286462621205" x2="10.9146913450313" y2="10.2782415783526"/>
    <line x1="10.9146913450313" y1="10.2782415783526" x2="10.9228802030632" y2="10.2634587962814"/>
    <line x1="10.9228802030632" y1="10.2634587962814" x2="10.9317624461591" y2="10.2415304180911"/>
    <line x1="10.9317624461591" y1="10.2415304180911" x2="10.9396803891701" y2="10.2121603513781"/>
    <line x1="10.9396803891701" y1="10.2121603513781" x2="10.9449261677106" y2="10.1753539696966"/>
    <line x1="10.9449261677106" y1="10.1753539696966" x2="10.9457908991273" y2="10.1314244795308"/>
    <line x1="10.9457908991273" y1="10.1314244795308" x2="10.9455637020809" y2="10.1265059557192"/>
    <line x1="10.9455637020809" y1="10.1265059557192" x2="10.9125792310012" y2="10.102541334716"/>
    <line x1="10.9125792310012" y1="10.102541334716" x2="10.9078312291312" y2="10.1038451649297"/>
    <line x1="10.9078312291312" y1="10.1038451649297" x2="10.8663190179548" y2="10.1182425323938"/>
    <line x1="10.8663190179548" y1="10.1182425323938" x2="10.8329351035331" y2="10.1346053616987"/>
    <line x1="10.8329351035331" y1="10.1346053616987" x2="10.8074492891526" y2="10.1512116227353"/>
    <line x1="10.8074492891526" y1="10.1512116227353" x2="10.7893389262478" y2="10.1664353794308"/>
    <line x1="10.7893389262478" y1="10.1664353794308" x2="10.7778101613263" y2="10.1787915771072"/>
    <line x1="10.7778101613263" y1="10.1787915771072" x2="10.7718256298599" y2="10.1869769366515"/>
    <line x1="10.7718256298599" y1="10.1869769366515" x2="10.7474368593886" y2="10.2379684941287"/>
    <line x1="10.7474368593886" y1="10.2379684941287" x2="10.742182340997" y2="10.2441682387026"/>
    <line x1="10.742182340997" y1="10.2441682387026" x2="10.7345319222984" y2="10.2469101158047"/>
    <line x1="10.7345319222984" y1="10.2469101158047" x2="10.7265355268047" y2="10.24545944168"/>
    <line x1="10.7265355268047" y1="10.24545944168" x2="10.6634968160981" y2="10.2249769229463"/>
    <line x1="10.6634968160981" y1="10.2249769229463" x2="10.6561749113936" y2="10.2214503796238"/>
    <line x1="10.6561749113936" y1="10.2214503796238" x2="10.6515972275766" y2="10.2147353511668"/>
    <line x1="10.6515972275766" y1="10.2147353511668" x2="10.6509903513291" y2="10.2066311240273"/>
    <line x1="10.6509903513291" y1="10.2066311240273" x2="10.6612315070224" y2="10.151042727854"/>
    <line x1="10.6612315070224" y1="10.151042727854" x2="10.6612011529875" y2="10.1409030135398"/>
    <line x1="10.6612011529875" y1="10.1409030135398" x2="10.6591369770105" y2="10.1241302016357"/>
    <line x1="10.6591369770105" y1="10.1241302016357" x2="10.6534336853163" y2="10.1011689195217"/>
    <line x1="10.6534336853163" y1="10.1011689195217" x2="10.6425761437" y2="10.0727539862946"/>
    <line x1="10.6425761437" y1="10.0727539862946" x2="10.6251858193453" y2="10.0398936067499"/>
    <line x1="10.6251858193453" y1="10.0398936067499" x2="10.6000642952968" y2="10.0038456262776"/>
    <line x1="10.6000642952968" y1="10.0038456262776" x2="10.5969894532657" y2="10.0"/>
    <line x1="10.5969894532657" y1="10.0" x2="10.5562184048093" y2="10.0"/>
    <line x1="10.5562184048093" y1="10.0" x2="10.5531435627782" y2="10.0038456262776"/>
    <line x1="10.5531435627782" y1="10.0038456262776" x2="10.5280220387297" y2="10.0398936067499"/>
    <line x1="10.5280220387297" y1="10.0398936067499" x2="10.510631714375" y2="10.0727539862946"/>
    <line x1="10.510631714375" y1="10.0727539862946" x2="10.4997741727587" y2="10.1011689195217"/>
    <line x1="10.4997741727587" y1="10.1011689195217" x2="10.4940708810645" y2="10.1241302016357"/>
    <line x1="10.4940708810645" y1="10.1241302016357" x2="10.4920067050875" y2="10.1409030135398"/>
    <line x1="10.4920067050875" y1="10.1409030135398" x2="10.4919763510526" y2="10.151042727854"/>
    <line x1="10.4919763510526" y1="10.151042727854" x2="10.5022175067459" y2="10.2066311240273"/>
    <line x1="10.5022175067459" y1="10.2066311240273" x2="10.5016106304984" y2="10.2147353511668"/>
    <line x1="10.5016106304984" y1="10.2147353511668" x2="10.4970329466814" y2="10.2214503796238"/>
    <line x1="10.4970329466814" y1="10.2214503796238" x2="10.4897110419769" y2="10.2249769229463"/>
    <line x1="10.4897110419769" y1="10.2249769229463" x2="10.4266723312703" y2="10.24545944168"/>
    <line x1="10.4266723312703" y1="10.24545944168" x2="10.4186759357766" y2="10.2469101158047"/>
    <line x1="10.4186759357766" y1="10.2469101158047" x2="10.411025517078" y2="10.2441682387026"/>
    <line x1="10.411025517078" y1="10.2441682387026" x2="10.4057709986865" y2="10.2379684941287"/>
    <line x1="10.4057709986865" y1="10.2379684941287" x2="10.3813822282151" y2="10.1869769366515"/>
    <line x1="10.3813822282151" y1="10.1869769366515" x2="10.3753976967487" y2="10.1787915771072"/>
    <line x1="10.3753976967487" y1="10.1787915771072" x2="10.3638689318272" y2="10.1664353794308"/>
    <line x1="10.3638689318272" y1="10.1664353794308" x2="10.3457585689224" y2="10.1512116227353"/>
    <line x1="10.3457585689224" y1="10.1512116227353" x2="10.3202727545419" y2="10.1346053616987"/>
    <line x1="10.3202727545419" y1="10.1346053616987" x2="10.2868888401202" y2="10.1182425323938"/>
    <line x1="10.2868888401202" y1="10.1182425323938" x2="10.2453766289438" y2="10.1038451649297"/>
    <line x1="10.5766039290375" y1="10.474653591518" x2="10.5929197030484" y2="10.4757229838452"/>
    <line x1="10.5929197030484" y1="10.4757229838452" x2="10.6089563096423" y2="10.4789128632275"/>
    <line x1="10.6089563096423" y1="10.4789128632275" x2="10.6244393580343" y2="10.4841686499444"/>
    <line x1="10.6244393580343" y1="10.4841686499444" x2="10.6391039289738" y2="10.4914004160279"/>
    <line x1="10.6391039289738" y1="10.4914004160279" x2="10.652699107586" y2="10.5004844239553"/>
    <line x1="10.652699107586" y1="10.5004844239553" x2="10.6649922765957" y2="10.5112652438323"/>
    <line x1="10.6649922765957" y1="10.5112652438323" x2="10.6757730964728" y2="10.523558412842"/>
    <line x1="10.6757730964728" y1="10.523558412842" x2="10.6848571044001" y2="10.5371535914543"/>
    <line x1="10.6848571044001" y1="10.5371535914543" x2="10.6920888704836" y2="10.5518181623937"/>
    <line x1="10.6920888704836" y1="10.5518181623937" x2="10.6973446572005" y2="10.5673012107857"/>
    <line x1="10.6973446572005" y1="10.5673012107857" x2="10.7005345365828" y2="10.5833378173796"/>
    <line x1="10.7005345365828" y1="10.5833378173796" x2="10.70160392891" y2="10.5996535913905"/>
    <line x1="10.70160392891" y1="10.5996535913905" x2="10.7005345365828" y2="10.6159693654014"/>
    <line x1="10.7005345365828" y1="10.6159693654014" x2="10.6973446572005" y2="10.6320059719953"/>
    <line x1="10.6973446572005" y1="10.6320059719953" x2="10.6920888704836" y2="10.6474890203874"/>
    <line x1="10.6920888704836" y1="10.6474890203874" x2="10.6848571044001" y2="10.6621535913268"/>
    <line x1="10.6848571044001" y1="10.6621535913268" x2="10.6757730964728" y2="10.675748769939"/>
    <line x1="10.6757730964728" y1="10.675748769939" x2="10.6649922765957" y2="10.6880419389487"/>
    <line x1="10.6649922765957" y1="10.6880419389487" x2="10.652699107586" y2="10.6988227588258"/>
    <line x1="10.652699107586" y1="10.6988227588258" x2="10.6391039289738" y2="10.7079067667532"/>
    <line x1="10.6391039289738" y1="10.7079067667532" x2="10.6244393580343" y2="10.7151385328366"/>
    <line x1="10.6244393580343" y1="10.7151385328366" x2="10.6089563096423" y2="10.7203943195535"/>
    <line x1="10.6089563096423" y1="10.7203943195535" x2="10.5929197030484" y2="10.7235841989358"/>
    <line x1="10.5929197030484" y1="10.7235841989358" x2="10.5766039290375" y2="10.724653591263"/>
    <line x1="10.5766039290375" y1="10.724653591263" x2="10.5602881550266" y2="10.7235841989358"/>
    <line x1="10.5602881550266" y1="10.7235841989358" x2="10.5442515484327" y2="10.7203943195535"/>
    <line x1="10.5442515484327" y1="10.7203943195535" x2="10.5287685000407" y2="10.7151385328366"/>
    <line x1="10.5287685000407" y1="10.7151385328366" x2="10.5141039291012" y2="10.7079067667532"/>
    <line x1="10.5141039291012" y1="10.7079067667532" x2="10.500508750489" y2="10.6988227588258"/>
    <line x1="10.500508750489" y1="10.6988227588258" x2="10.4882155814793" y2="10.6880419389487"/>
    <line x1="10.4882155814793" y1="10.6880419389487" x2="10.4774347616023" y2="10.675748769939"/>
    <line x1="10.4774347616023" y1="10.675748769939" x2="10.4683507536749" y2="10.6621535913268"/>
    <line x1="10.4683507536749" y1="10.6621535913268" x2="10.4611189875914" y2="10.6474890203874"/>
    <line x1="10.4611189875914" y1="10.6474890203874" x2="10.4558632008745" y2="10.6320059719953"/>
    <line x1="10.4558632008745" y1="10.6320059719953" x2="10.4526733214922" y2="10.6159693654014"/>
    <line x1="10.4526733214922" y1="10.6159693654014" x2="10.451603929165" y2="10.5996535913905"/>
    <line x1="10.451603929165" y1="10.5996535913905" x2="10.4526733214922" y2="10.5833378173796"/>
    <line x1="10.4526733214922" y1="10.5833378173796" x2="10.4558632008745" y2="10.5673012107857"/>
    <line x1="10.4558632008745" y1="10.5673012107857" x2="10.4611189875914" y2="10.5518181623937"/>
    <line x1="10.4611189875914" y1="10.5518181623937" x2="10.4683507536749" y2="10.5371535914543"/>
    <line x1="10.4683507536749" y1="10.5371535914543" x2="10.4774347616023" y2="10.523558412842"/>
    <line x1="10.4774347616023" y1="10.523558412842" x2="10.4882155814793" y2="10.5112652438323"/>
    <line x1="10.4882155814793" y1="10.5112652438323" x2="10.500508750489" y2="10.5004844239553"/>
    <line x1="10.500508750489" y1="10.5004844239553" x2="10.5141039291012" y2="10.4914004160279"/>
    <line x1="10.5141039291012" y1="10.4914004160279" x2="10.5287685000407" y2="10.4841686499444"/>
    <line x1="10.5287685000407" y1="10.4841686499444" x2="10.5442515484327" y2="10.4789128632275"/>
    <line x1="10.5442515484327" y1="10.4789128632275" x2="10.5602881550266" y2="10.4757229838452"/>
    <line x1="10.5602881550266" y1="10.4757229838452" x2="10.5766039290375" y2="10.474653591518"/>
  </g>
</svg>
