<?xml version="1.0" standalone="no"?>
<!DOCTYPE svg PUBLIC "-//W3C//DTD SVG 1.1//EN" "http://www.w3.org/Graphics/SVG/1.1/DTD/svg11.dtd">
<svg width="22.2484614313593in" height="22.2484614313593in"
 viewBox="0 0 22.2484614313593 22.2484614313593"
 xmlns="http://www.w3.org/2000/svg" version="1.1"
 xmlns:xlink="http://www.w3.org/1999/xlink">
<desc>Output from Flights of Ideas SVG Sketchup Plugin</desc>

  <g id="face0" fill="none" stroke="rgb(0,0,255)" stroke-width="1" stroke-miterlimit="4" stroke-dasharray="none" stroke-linejoin="round" stroke-linecap="round">
    <line x1="10.7548173958618" y1="10.0868969420606" x2="10.73243669621" y2="10.0696585542199"/>
    <line x1="10.73243669621" y1="10.0696585542199" x2="10.6555757970562" y2="10.1014953810656"/>
    <line x1="10.6555757970562" y1="10.1014953810656" x2="10.6519396335036" y2="10.129510306496"/>
    <line x1="10.6519396335036" y1="10.129510306496" x2="10.6490224503916" y2="10.1925211357597"/>
    <line x1="10.6490224503916" y1="10.1925211357597" x2="10.6527114418767" y2="10.2414432462243"/>
    <line x1="10.6527114418767" y1="10.2414432462243" x2="10.6595454724891" y2="10.2758141324154"/>
    <line x1="10.6595454724891" y1="10.2758141324154" x2="10.6660744263502" y2="10.2958013295123"/>
    <line x1="10.6660744263502" y1="10.2958013295123" x2="10.7003033783445" y2="10.3587827350186"/>
    <line x1="10.7003033783445" y1="10.3587827350186" x2="10.7027573575262" y2="10.3686405291637"/>
    <line x1="10.7027573575262" y1="10.3686405291637" x2="10.6999536687653" y2="10.3784046189094"/>
    <line x1="10.6999536687653" y1="10.3784046189094" x2="10.6926435582013" y2="10.3854587242937"/>
    <line x1="10.6926435582013" y1="10.3854587242937" x2="10.606855648434" y2="10.4427803729919"/>
    <line x1="10.606855648434" y1="10.4427803729919" x2="10.5975410466477" y2="10.4468345452617"/>
    <line x1="10.5975410466477" y1="10.4468345452617" x2="10.5874472787398" y2="10.4456882605455"/>
    <line x1="10.5874472787398" y1="10.4456882605455" x2="10.5792789616696" y2="10.4396486649074"/>
    <line x1="10.5792789616696" y1="10.4396486649074" x2="10.534190583029" y2="10.3839232963062"/>
    <line x1="10.534190583029" y1="10.3839232963062" x2="10.5182233431922" y2="10.3702425602769"/>
    <line x1="10.5182233431922" y1="10.3702425602769" x2="10.4890840552176" y2="10.3507755705685"/>
    <line x1="10.4890840552176" y1="10.3507755705685" x2="10.4452976345957" y2="10.3286457056886"/>
    <line x1="10.4452976345957" y1="10.3286457056886" x2="10.3859668614661" y2="10.3072276310396"/>
    <line x1="10.3859668614661" y1="10.3072276310396" x2="10.3586929457072" y2="10.2998661603015"/>
    <line x1="10.3586929457072" y1="10.2998661603015" x2="10.2998661603015" y2="10.3586929457072"/>
    <line x1="10.2998661603015" y1="10.3586929457072" x2="10.3072276310396" y2="10.3859668614661"/>
    <line x1="10.3072276310396" y1="10.3859668614661" x2="10.3286457056886" y2="10.4452976345957"/>
    <line x1="10.3286457056886" y1="10.4452976345957" x2="10.3507755705685" y2="10.4890840552176"/>
    <line x1="10.3507755705685" y1="10.4890840552176" x2="10.3702425602769" y2="10.5182233431922"/>
    <line x1="10.3702425602769" y1="10.5182233431922" x2="10.3839232963062" y2="10.534190583029"/>
    <line x1="10.3839232963062" y1="10.534190583029" x2="10.4396486649074" y2="10.5792789616696"/>
    <line x1="10.4396486649074" y1="10.5792789616696" x2="10.4456882605455" y2="10.5874472787398"/>
    <line x1="10.4456882605455" y1="10.5874472787398" x2="10.4468345452617" y2="10.5975410466477"/>
    <line x1="10.4468345452617" y1="10.5975410466477" x2="10.4427803729919" y2="10.606855648434"/>
    <line x1="10.4427803729919" y1="10.606855648434" x2="10.3854587242937" y2="10.6926435582013"/>
    <line x1="10.3854587242937" y1="10.6926435582013" x2="10.3784046189094" y2="10.6999536687653"/>
    <line x1="10.3784046189094" y1="10.6999536687653" x2="10.3686405291637" y2="10.7027573575262"/>
    <line x1="10.3686405291637" y1="10.7027573575262" x2="10.3587827350186" y2="10.7003033783445"/>
    <line x1="10.3587827350186" y1="10.7003033783445" x2="10.2958013295123" y2="10.6660744263502"/>
    <line x1="10.2958013295123" y1="10.6660744263502" x2="10.2758141324154" y2="10.6595454724891"/>
    <line x1="10.2758141324154" y1="10.6595454724891" x2="10.2414432462243" y2="10.6527114418767"/>
    <line x1="10.2414432462243" y1="10.6527114418767" x2="10.1925211357597" y2="10.6490224503916"/>
    <line x1="10.1925211357597" y1="10.6490224503916" x2="10.129510306496" y2="10.6519396335037"/>
    <line x1="10.129510306496" y1="10.6519396335037" x2="10.1014953810656" y2="10.6555757970562"/>
    <line x1="10.1014953810656" y1="10.6555757970562" x2="10.0696585542199" y2="10.73243669621"/>
    <line x1="10.0696585542199" y1="10.73243669621" x2="10.0868969420606" y2="10.7548173958618"/>
    <line x1="10.0868969420606" y1="10.7548173958618" x2="10.1293895667607" y2="10.8014355404829"/>
    <line x1="10.1293895667607" y1="10.8014355404829" x2="10.166591233715" y2="10.8334201856474"/>
    <line x1="10.166591233715" y1="10.8334201856474" x2="10.195727509805" y2="10.8528916829598"/>
    <line x1="10.195727509805" y1="10.8528916829598" x2="10.2144772599583" y2="10.8624080980146"/>
    <line x1="10.2144772599583" y1="10.8624080980146" x2="10.2832153629486" y2="10.8827391528687"/>
    <line x1="10.2832153629486" y1="10.8827391528687" x2="10.2919211013564" y2="10.887974440636"/>
    <line x1="10.2919211013564" y1="10.887974440636" x2="10.2968428480926" y2="10.8968612020424"/>
    <line x1="10.2968428480926" y1="10.8968612020424" x2="10.296661825094" y2="10.9070182365459"/>
    <line x1="10.296661825094" y1="10.9070182365459" x2="10.276533138857" y2="11.0082119757894"/>
    <line x1="10.276533138857" y1="11.0082119757894" x2="10.272813453474" y2="11.0176651265807"/>
    <line x1="10.272813453474" y1="11.0176651265807" x2="10.2648655360425" y2="11.0239919526201"/>
    <line x1="10.2648655360425" y1="11.0239919526201" x2="10.25481902462" y2="11.0254971859799"/>
    <line x1="10.25481902462" y1="11.0254971859799" x2="10.1835329403085" y2="11.0179756982474"/>
    <line x1="10.1835329403085" y1="11.0179756982474" x2="10.1625686555251" y2="11.0195925005949"/>
    <line x1="10.1625686555251" y1="11.0195925005949" x2="10.1281988269672" y2="11.0264318482886"/>
    <line x1="10.1281988269672" y1="11.0264318482886" x2="10.0815889744983" y2="11.041745345711"/>
    <line x1="10.0815889744983" y1="11.041745345711" x2="10.0244909166611" y2="11.0685536718997"/>
    <line x1="10.0244909166611" y1="11.0685536718997" x2="10.0" y2="11.0826338968039"/>
    <line x1="10.0" y1="11.0826338968039" x2="10.0" y2="11.1658275345554"/>
    <line x1="10.0" y1="11.1658275345554" x2="10.0244909166611" y2="11.1799077594596"/>
    <line x1="10.0244909166611" y1="11.1799077594596" x2="10.0815889744983" y2="11.2067160856483"/>
    <line x1="10.0815889744983" y1="11.2067160856483" x2="10.1281988269672" y2="11.2220295830706"/>
    <line x1="10.1281988269672" y1="11.2220295830706" x2="10.1625686555251" y2="11.2288689307644"/>
    <line x1="10.1625686555251" y1="11.2288689307644" x2="10.1835329403085" y2="11.2304857331118"/>
    <line x1="10.1835329403085" y1="11.2304857331118" x2="10.25481902462" y2="11.2229642453793"/>
    <line x1="10.25481902462" y1="11.2229642453793" x2="10.2648655360425" y2="11.2244694787391"/>
    <line x1="10.2648655360425" y1="11.2244694787391" x2="10.272813453474" y2="11.2307963047786"/>
    <line x1="10.272813453474" y1="11.2307963047786" x2="10.276533138857" y2="11.2402494555698"/>
    <line x1="10.276533138857" y1="11.2402494555698" x2="10.296661825094" y2="11.3414431948134"/>
    <line x1="10.296661825094" y1="11.3414431948134" x2="10.2968428480926" y2="11.3516002293168"/>
    <line x1="10.2968428480926" y1="11.3516002293168" x2="10.2919211013564" y2="11.3604869907233"/>
    <line x1="10.2919211013564" y1="11.3604869907233" x2="10.2832153629486" y2="11.3657222784905"/>
    <line x1="10.2832153629486" y1="11.3657222784905" x2="10.2144772599584" y2="11.3860533333446"/>
    <line x1="10.2144772599584" y1="11.3860533333446" x2="10.195727509805" y2="11.3955697483995"/>
    <line x1="10.195727509805" y1="11.3955697483995" x2="10.166591233715" y2="11.4150412457119"/>
    <line x1="10.166591233715" y1="11.4150412457119" x2="10.1293895667607" y2="11.4470258908764"/>
    <line x1="10.1293895667607" y1="11.4470258908764" x2="10.0868969420606" y2="11.4936440354975"/>
    <line x1="10.0868969420606" y1="11.4936440354975" x2="10.0696585542199" y2="11.5160247351493"/>
    <line x1="10.0696585542199" y1="11.5160247351493" x2="10.1014953810656" y2="11.5928856343031"/>
    <line x1="10.1014953810656" y1="11.5928856343031" x2="10.129510306496" y2="11.5965217978556"/>
    <line x1="10.129510306496" y1="11.5965217978556" x2="10.1925211357597" y2="11.5994389809677"/>
    <line x1="10.1925211357597" y1="11.5994389809677" x2="10.2414432462243" y2="11.5957499894825"/>
    <line x1="10.2414432462243" y1="11.5957499894825" x2="10.2758141324154" y2="11.5889159588702"/>
    <line x1="10.2758141324154" y1="11.5889159588702" x2="10.2958013295123" y2="11.5823870050091"/>
    <line x1="10.2958013295123" y1="11.5823870050091" x2="10.3587827350186" y2="11.5481580530148"/>
    <line x1="10.3587827350186" y1="11.5481580530148" x2="10.3686405291637" y2="11.5457040738331"/>
    <line x1="10.3686405291637" y1="11.5457040738331" x2="10.3784046189094" y2="11.5485077625939"/>
    <line x1="10.3784046189094" y1="11.5485077625939" x2="10.3854587242937" y2="11.555817873158"/>
    <line x1="10.3854587242937" y1="11.555817873158" x2="10.4427803729919" y2="11.6416057829252"/>
    <line x1="10.4427803729919" y1="11.6416057829252" x2="10.4468345452617" y2="11.6509203847115"/>
    <line x1="10.4468345452617" y1="11.6509203847115" x2="10.4456882605455" y2="11.6610141526195"/>
    <line x1="10.4456882605455" y1="11.6610141526195" x2="10.4396486649074" y2="11.6691824696896"/>
    <line x1="10.4396486649074" y1="11.6691824696896" x2="10.3839232963062" y2="11.7142708483303"/>
    <line x1="10.3839232963062" y1="11.7142708483303" x2="10.3702425602769" y2="11.730238088167"/>
    <line x1="10.3702425602769" y1="11.730238088167" x2="10.3507755705685" y2="11.7593773761417"/>
    <line x1="10.3507755705685" y1="11.7593773761417" x2="10.3286457056886" y2="11.8031637967636"/>
    <line x1="10.3286457056886" y1="11.8031637967636" x2="10.3072276310396" y2="11.8624945698932"/>
    <line x1="10.3072276310396" y1="11.8624945698932" x2="10.2998661603015" y2="11.8897684856521"/>
    <line x1="10.2998661603015" y1="11.8897684856521" x2="10.3586929457072" y2="11.9485952710578"/>
    <line x1="10.3586929457072" y1="11.9485952710578" x2="10.3859668614661" y2="11.9412338003196"/>
    <line x1="10.3859668614661" y1="11.9412338003196" x2="10.4452976345957" y2="11.9198157256707"/>
    <line x1="10.4452976345957" y1="11.9198157256707" x2="10.4890840552176" y2="11.8976858607908"/>
    <line x1="10.4890840552176" y1="11.8976858607908" x2="10.5182233431922" y2="11.8782188710824"/>
    <line x1="10.5182233431922" y1="11.8782188710824" x2="10.534190583029" y2="11.8645381350531"/>
    <line x1="10.534190583029" y1="11.8645381350531" x2="10.5792789616696" y2="11.8088127664519"/>
    <line x1="10.5792789616696" y1="11.8088127664519" x2="10.5874472787398" y2="11.8027731708137"/>
    <line x1="10.5874472787398" y1="11.8027731708137" x2="10.5975410466477" y2="11.8016268860976"/>
    <line x1="10.5975410466477" y1="11.8016268860976" x2="10.606855648434" y2="11.8056810583674"/>
    <line x1="10.606855648434" y1="11.8056810583674" x2="10.6926435582013" y2="11.8630027070656"/>
    <line x1="10.6926435582013" y1="11.8630027070656" x2="10.6999536687653" y2="11.8700568124498"/>
    <line x1="10.6999536687653" y1="11.8700568124498" x2="10.7027573575262" y2="11.8798209021956"/>
    <line x1="10.7027573575262" y1="11.8798209021956" x2="10.7003033783445" y2="11.8896786963406"/>
    <line x1="10.7003033783445" y1="11.8896786963406" x2="10.6660744263502" y2="11.952660101847"/>
    <line x1="10.6660744263502" y1="11.952660101847" x2="10.6595454724891" y2="11.9726472989438"/>
    <line x1="10.6595454724891" y1="11.9726472989438" x2="10.6527114418767" y2="12.007018185135"/>
    <line x1="10.6527114418767" y1="12.007018185135" x2="10.6490224503916" y2="12.0559402955995"/>
    <line x1="10.6490224503916" y1="12.0559402955995" x2="10.6519396335037" y2="12.1189511248633"/>
    <line x1="10.6519396335037" y1="12.1189511248633" x2="10.6555757970562" y2="12.1469660502937"/>
    <line x1="10.6555757970562" y1="12.1469660502937" x2="10.73243669621" y2="12.1788028771394"/>
    <line x1="10.73243669621" y1="12.1788028771394" x2="10.7548173958618" y2="12.1615644892986"/>
    <line x1="10.7548173958618" y1="12.1615644892986" x2="10.8014355404829" y2="12.1190718645986"/>
    <line x1="10.8014355404829" y1="12.1190718645986" x2="10.8334201856474" y2="12.0818701976442"/>
    <line x1="10.8334201856474" y1="12.0818701976442" x2="10.8528916829598" y2="12.0527339215542"/>
    <line x1="10.8528916829598" y1="12.0527339215542" x2="10.8624080980146" y2="12.0339841714009"/>
    <line x1="10.8624080980146" y1="12.0339841714009" x2="10.8827391528687" y2="11.9652460684107"/>
    <line x1="10.8827391528687" y1="11.9652460684107" x2="10.887974440636" y2="11.9565403300029"/>
    <line x1="10.887974440636" y1="11.9565403300029" x2="10.8968612020424" y2="11.9516185832666"/>
    <line x1="10.8968612020424" y1="11.9516185832666" x2="10.9070182365459" y2="11.9517996062653"/>
    <line x1="10.9070182365459" y1="11.9517996062653" x2="11.0082119757894" y2="11.9719282925022"/>
    <line x1="11.0082119757894" y1="11.9719282925022" x2="11.0176651265807" y2="11.9756479778853"/>
    <line x1="11.0176651265807" y1="11.9756479778853" x2="11.0239919526201" y2="11.9835958953167"/>
    <line x1="11.0239919526201" y1="11.9835958953167" x2="11.0254971859799" y2="11.9936424067393"/>
    <line x1="11.0254971859799" y1="11.9936424067393" x2="11.0179756982474" y2="12.0649284910508"/>
    <line x1="11.0179756982474" y1="12.0649284910508" x2="11.0195925005949" y2="12.0858927758341"/>
    <line x1="11.0195925005949" y1="12.0858927758341" x2="11.0264318482886" y2="12.1202626043921"/>
    <line x1="11.0264318482886" y1="12.1202626043921" x2="11.041745345711" y2="12.166872456861"/>
    <line x1="11.041745345711" y1="12.166872456861" x2="11.0685536718997" y2="12.2239705146982"/>
    <line x1="11.0685536718997" y1="12.2239705146982" x2="11.0826338968039" y2="12.2484614313593"/>
    <line x1="11.0826338968039" y1="12.2484614313593" x2="11.1658275345554" y2="12.2484614313593"/>
    <line x1="11.1658275345554" y1="12.2484614313593" x2="11.1799077594596" y2="12.2239705146982"/>
    <line x1="11.1799077594596" y1="12.2239705146982" x2="11.2067160856483" y2="12.166872456861"/>
    <line x1="11.2067160856483" y1="12.166872456861" x2="11.2220295830706" y2="12.1202626043921"/>
    <line x1="11.2220295830706" y1="12.1202626043921" x2="11.2288689307644" y2="12.0858927758341"/>
    <line x1="11.2288689307644" y1="12.0858927758341" x2="11.2304857331118" y2="12.0649284910508"/>
    <line x1="11.2304857331118" y1="12.0649284910508" x2="11.2229642453793" y2="11.9936424067393"/>
    <line x1="11.2229642453793" y1="11.9936424067393" x2="11.2244694787391" y2="11.9835958953167"/>
    <line x1="11.2244694787391" y1="11.9835958953167" x2="11.2307963047786" y2="11.9756479778853"/>
    <line x1="11.2307963047786" y1="11.9756479778853" x2="11.2402494555698" y2="11.9719282925022"/>
    <line x1="11.2402494555698" y1="11.9719282925022" x2="11.3414431948134" y2="11.9517996062653"/>
    <line x1="11.3414431948134" y1="11.9517996062653" x2="11.3516002293168" y2="11.9516185832666"/>
    <line x1="11.3516002293168" y1="11.9516185832666" x2="11.3604869907233" y2="11.9565403300029"/>
    <line x1="11.3604869907233" y1="11.9565403300029" x2="11.3657222784905" y2="11.9652460684107"/>
    <line x1="11.3657222784905" y1="11.9652460684107" x2="11.3860533333446" y2="12.0339841714009"/>
    <line x1="11.3860533333446" y1="12.0339841714009" x2="11.3955697483995" y2="12.0527339215542"/>
    <line x1="11.3955697483995" y1="12.0527339215542" x2="11.4150412457119" y2="12.0818701976442"/>
    <line x1="11.4150412457119" y1="12.0818701976442" x2="11.4470258908764" y2="12.1190718645986"/>
    <line x1="11.4470258908764" y1="12.1190718645986" x2="11.4936440354975" y2="12.1615644892986"/>
    <line x1="11.4936440354975" y1="12.1615644892986" x2="11.5160247351493" y2="12.1788028771394"/>
    <line x1="11.5160247351493" y1="12.1788028771394" x2="11.5928856343031" y2="12.1469660502937"/>
    <line x1="11.5928856343031" y1="12.1469660502937" x2="11.5965217978556" y2="12.1189511248633"/>
    <line x1="11.5965217978556" y1="12.1189511248633" x2="11.5994389809677" y2="12.0559402955995"/>
    <line x1="11.5994389809677" y1="12.0559402955995" x2="11.5957499894825" y2="12.007018185135"/>
    <line x1="11.5957499894825" y1="12.007018185135" x2="11.5889159588702" y2="11.9726472989438"/>
    <line x1="11.5889159588702" y1="11.9726472989438" x2="11.5823870050091" y2="11.952660101847"/>
    <line x1="11.5823870050091" y1="11.952660101847" x2="11.5481580530148" y2="11.8896786963406"/>
    <line x1="11.5481580530148" y1="11.8896786963406" x2="11.5457040738331" y2="11.8798209021956"/>
    <line x1="11.5457040738331" y1="11.8798209021956" x2="11.5485077625939" y2="11.8700568124498"/>
    <line x1="11.5485077625939" y1="11.8700568124498" x2="11.555817873158" y2="11.8630027070656"/>
    <line x1="11.555817873158" y1="11.8630027070656" x2="11.6416057829252" y2="11.8056810583674"/>
    <line x1="11.6416057829252" y1="11.8056810583674" x2="11.6509203847115" y2="11.8016268860976"/>
    <line x1="11.6509203847115" y1="11.8016268860976" x2="11.6610141526195" y2="11.8027731708137"/>
    <line x1="11.6610141526195" y1="11.8027731708137" x2="11.6691824696896" y2="11.8088127664519"/>
    <line x1="11.6691824696896" y1="11.8088127664519" x2="11.7142708483303" y2="11.8645381350531"/>
    <line x1="11.7142708483303" y1="11.8645381350531" x2="11.730238088167" y2="11.8782188710824"/>
    <line x1="11.730238088167" y1="11.8782188710824" x2="11.7593773761417" y2="11.8976858607908"/>
    <line x1="11.7593773761417" y1="11.8976858607908" x2="11.8031637967636" y2="11.9198157256707"/>
    <line x1="11.8031637967636" y1="11.9198157256707" x2="11.8624945698932" y2="11.9412338003196"/>
    <line x1="11.8624945698932" y1="11.9412338003196" x2="11.8897684856521" y2="11.9485952710578"/>
    <line x1="11.8897684856521" y1="11.9485952710578" x2="11.9485952710578" y2="11.8897684856521"/>
    <line x1="11.9485952710578" y1="11.8897684856521" x2="11.9412338003197" y2="11.8624945698932"/>
    <line x1="11.9412338003197" y1="11.8624945698932" x2="11.9198157256707" y2="11.8031637967636"/>
    <line x1="11.9198157256707" y1="11.8031637967636" x2="11.8976858607908" y2="11.7593773761417"/>
    <line x1="11.8976858607908" y1="11.7593773761417" x2="11.8782188710824" y2="11.730238088167"/>
    <line x1="11.8782188710824" y1="11.730238088167" x2="11.8645381350531" y2="11.7142708483303"/>
    <line x1="11.8645381350531" y1="11.7142708483303" x2="11.8088127664519" y2="11.6691824696896"/>
    <line x1="11.8088127664519" y1="11.6691824696896" x2="11.8027731708137" y2="11.6610141526195"/>
    <line x1="11.8027731708137" y1="11.6610141526195" x2="11.8016268860976" y2="11.6509203847115"/>
    <line x1="11.8016268860976" y1="11.6509203847115" x2="11.8056810583674" y2="11.6416057829252"/>
    <line x1="11.8056810583674" y1="11.6416057829252" x2="11.8630027070656" y2="11.555817873158"/>
    <line x1="11.8630027070656" y1="11.555817873158" x2="11.8700568124498" y2="11.5485077625939"/>
    <line x1="11.8700568124498" y1="11.5485077625939" x2="11.8798209021956" y2="11.5457040738331"/>
    <line x1="11.8798209021956" y1="11.5457040738331" x2="11.8896786963406" y2="11.5481580530148"/>
    <line x1="11.8896786963406" y1="11.5481580530148" x2="11.952660101847" y2="11.5823870050091"/>
    <line x1="11.952660101847" y1="11.5823870050091" x2="11.9726472989438" y2="11.5889159588702"/>
    <line x1="11.9726472989438" y1="11.5889159588702" x2="12.007018185135" y2="11.5957499894825"/>
    <line x1="12.007018185135" y1="11.5957499894825" x2="12.0559402955995" y2="11.5994389809677"/>
    <line x1="12.0559402955995" y1="11.5994389809677" x2="12.1189511248633" y2="11.5965217978556"/>
    <line x1="12.1189511248633" y1="11.5965217978556" x2="12.1469660502937" y2="11.5928856343031"/>
    <line x1="12.1469660502937" y1="11.5928856343031" x2="12.1788028771394" y2="11.5160247351493"/>
    <line x1="12.1788028771394" y1="11.5160247351493" x2="12.1615644892986" y2="11.4936440354975"/>
    <line x1="12.1615644892986" y1="11.4936440354975" x2="12.1190718645986" y2="11.4470258908764"/>
    <line x1="12.1190718645986" y1="11.4470258908764" x2="12.0818701976442" y2="11.4150412457119"/>
    <line x1="12.0818701976442" y1="11.4150412457119" x2="12.0527339215542" y2="11.3955697483995"/>
    <line x1="12.0527339215542" y1="11.3955697483995" x2="12.0339841714009" y2="11.3860533333446"/>
    <line x1="12.0339841714009" y1="11.3860533333446" x2="11.9652460684107" y2="11.3657222784905"/>
    <line x1="11.9652460684107" y1="11.3657222784905" x2="11.9565403300029" y2="11.3604869907233"/>
    <line x1="11.9565403300029" y1="11.3604869907233" x2="11.9516185832666" y2="11.3516002293168"/>
    <line x1="11.9516185832666" y1="11.3516002293168" x2="11.9517996062653" y2="11.3414431948134"/>
    <line x1="11.9517996062653" y1="11.3414431948134" x2="11.9719282925022" y2="11.2402494555698"/>
    <line x1="11.9719282925022" y1="11.2402494555698" x2="11.9756479778853" y2="11.2307963047786"/>
    <line x1="11.9756479778853" y1="11.2307963047786" x2="11.9835958953167" y2="11.2244694787391"/>
    <line x1="11.9835958953167" y1="11.2244694787391" x2="11.9936424067393" y2="11.2229642453793"/>
    <line x1="11.9936424067393" y1="11.2229642453793" x2="12.0649284910508" y2="11.2304857331118"/>
    <line x1="12.0649284910508" y1="11.2304857331118" x2="12.0858927758341" y2="11.2288689307644"/>
    <line x1="12.0858927758341" y1="11.2288689307644" x2="12.1202626043921" y2="11.2220295830706"/>
    <line x1="12.1202626043921" y1="11.2220295830706" x2="12.166872456861" y2="11.2067160856483"/>
    <line x1="12.166872456861" y1="11.2067160856483" x2="12.2239705146982" y2="11.1799077594596"/>
    <line x1="12.2239705146982" y1="11.1799077594596" x2="12.2484614313593" y2="11.1658275345554"/>
    <line x1="12.2484614313593" y1="11.1658275345554" x2="12.2484614313593" y2="11.0826338968039"/>
    <line x1="12.2484614313593" y1="11.0826338968039" x2="12.2239705146982" y2="11.0685536718997"/>
    <line x1="12.2239705146982" y1="11.0685536718997" x2="12.166872456861" y2="11.041745345711"/>
    <line x1="12.166872456861" y1="11.041745345711" x2="12.1202626043921" y2="11.0264318482886"/>
    <line x1="12.1202626043921" y1="11.0264318482886" x2="12.0858927758341" y2="11.0195925005949"/>
    <line x1="12.0858927758341" y1="11.0195925005949" x2="12.0649284910508" y2="11.0179756982474"/>
    <line x1="12.0649284910508" y1="11.0179756982474" x2="11.9936424067393" y2="11.0254971859799"/>
    <line x1="11.9936424067393" y1="11.0254971859799" x2="11.9835958953167" y2="11.0239919526201"/>
    <line x1="11.9835958953167" y1="11.0239919526201" x2="11.9756479778853" y2="11.0176651265807"/>
    <line x1="11.9756479778853" y1="11.0176651265807" x2="11.9719282925022" y2="11.0082119757894"/>
    <line x1="11.9719282925022" y1="11.0082119757894" x2="11.9517996062653" y2="10.9070182365459"/>
    <line x1="11.9517996062653" y1="10.9070182365459" x2="11.9516185832666" y2="10.8968612020424"/>
    <line x1="11.9516185832666" y1="10.8968612020424" x2="11.9565403300029" y2="10.887974440636"/>
    <line x1="11.9565403300029" y1="10.887974440636" x2="11.9652460684107" y2="10.8827391528687"/>
    <line x1="11.9652460684107" y1="10.8827391528687" x2="12.0339841714009" y2="10.8624080980146"/>
    <line x1="12.0339841714009" y1="10.8624080980146" x2="12.0527339215542" y2="10.8528916829598"/>
    <line x1="12.0527339215542" y1="10.8528916829598" x2="12.0818701976442" y2="10.8334201856474"/>
    <line x1="12.0818701976442" y1="10.8334201856474" x2="12.1190718645986" y2="10.8014355404829"/>
    <line x1="12.1190718645986" y1="10.8014355404829" x2="12.1615644892986" y2="10.7548173958618"/>
    <line x1="12.1615644892986" y1="10.7548173958618" x2="12.1788028771394" y2="10.73243669621"/>
    <line x1="12.1788028771394" y1="10.73243669621" x2="12.1469660502937" y2="10.6555757970562"/>
    <line x1="12.1469660502937" y1="10.6555757970562" x2="12.1189511248633" y2="10.6519396335037"/>
    <line x1="12.1189511248633" y1="10.6519396335037" x2="12.0559402955995" y2="10.6490224503916"/>
    <line x1="12.0559402955995" y1="10.6490224503916" x2="12.007018185135" y2="10.6527114418767"/>
    <line x1="12.007018185135" y1="10.6527114418767" x2="11.9726472989438" y2="10.6595454724891"/>
    <line x1="11.9726472989438" y1="10.6595454724891" x2="11.952660101847" y2="10.6660744263502"/>
    <line x1="11.952660101847" y1="10.6660744263502" x2="11.8896786963406" y2="10.7003033783445"/>
    <line x1="11.8896786963406" y1="10.7003033783445" x2="11.8798209021956" y2="10.7027573575262"/>
    <line x1="11.8798209021956" y1="10.7027573575262" x2="11.8700568124498" y2="10.6999536687653"/>
    <line x1="11.8700568124498" y1="10.6999536687653" x2="11.8630027070656" y2="10.6926435582013"/>
    <line x1="11.8630027070656" y1="10.6926435582013" x2="11.8056810583674" y2="10.606855648434"/>
    <line x1="11.8056810583674" y1="10.606855648434" x2="11.8016268860976" y2="10.5975410466478"/>
    <line x1="11.8016268860976" y1="10.5975410466478" x2="11.8027731708137" y2="10.5874472787398"/>
    <line x1="11.8027731708137" y1="10.5874472787398" x2="11.8088127664519" y2="10.5792789616696"/>
    <line x1="11.8088127664519" y1="10.5792789616696" x2="11.8645381350531" y2="10.534190583029"/>
    <line x1="11.8645381350531" y1="10.534190583029" x2="11.8782188710824" y2="10.5182233431922"/>
    <line x1="11.8782188710824" y1="10.5182233431922" x2="11.8976858607908" y2="10.4890840552176"/>
    <line x1="11.8976858607908" y1="10.4890840552176" x2="11.9198157256707" y2="10.4452976345957"/>
    <line x1="11.9198157256707" y1="10.4452976345957" x2="11.9412338003196" y2="10.3859668614661"/>
    <line x1="11.9412338003196" y1="10.3859668614661" x2="11.9485952710578" y2="10.3586929457072"/>
    <line x1="11.9485952710578" y1="10.3586929457072" x2="11.8897684856521" y2="10.2998661603015"/>
    <line x1="11.8897684856521" y1="10.2998661603015" x2="11.8624945698932" y2="10.3072276310396"/>
    <line x1="11.8624945698932" y1="10.3072276310396" x2="11.8031637967636" y2="10.3286457056886"/>
    <line x1="11.8031637967636" y1="10.3286457056886" x2="11.7593773761417" y2="10.3507755705685"/>
    <line x1="11.7593773761417" y1="10.3507755705685" x2="11.730238088167" y2="10.3702425602769"/>
    <line x1="11.730238088167" y1="10.3702425602769" x2="11.7142708483303" y2="10.3839232963062"/>
    <line x1="11.7142708483303" y1="10.3839232963062" x2="11.6691824696896" y2="10.4396486649074"/>
    <line x1="11.6691824696896" y1="10.4396486649074" x2="11.6610141526195" y2="10.4456882605455"/>
    <line x1="11.6610141526195" y1="10.4456882605455" x2="11.6509203847115" y2="10.4468345452617"/>
    <line x1="11.6509203847115" y1="10.4468345452617" x2="11.6416057829252" y2="10.4427803729919"/>
    <line x1="11.6416057829252" y1="10.4427803729919" x2="11.555817873158" y2="10.3854587242937"/>
    <line x1="11.555817873158" y1="10.3854587242937" x2="11.5485077625939" y2="10.3784046189094"/>
    <line x1="11.5485077625939" y1="10.3784046189094" x2="11.5457040738331" y2="10.3686405291637"/>
    <line x1="11.5457040738331" y1="10.3686405291637" x2="11.5481580530148" y2="10.3587827350186"/>
    <line x1="11.5481580530148" y1="10.3587827350186" x2="11.5823870050091" y2="10.2958013295123"/>
    <line x1="11.5823870050091" y1="10.2958013295123" x2="11.5889159588702" y2="10.2758141324154"/>
    <line x1="11.5889159588702" y1="10.2758141324154" x2="11.5957499894825" y2="10.2414432462243"/>
    <line x1="11.5957499894825" y1="10.2414432462243" x2="11.5994389809677" y2="10.1925211357597"/>
    <line x1="11.5994389809677" y1="10.1925211357597" x2="11.5965217978556" y2="10.129510306496"/>
    <line x1="11.5965217978556" y1="10.129510306496" x2="11.5928856343031" y2="10.1014953810656"/>
    <line x1="11.5928856343031" y1="10.1014953810656" x2="11.5160247351493" y2="10.0696585542199"/>
    <line x1="11.5160247351493" y1="10.0696585542199" x2="11.4936440354975" y2="10.0868969420606"/>
    <line x1="11.4936440354975" y1="10.0868969420606" x2="11.4470258908764" y2="10.1293895667607"/>
    <line x1="11.4470258908764" y1="10.1293895667607" x2="11.4150412457119" y2="10.166591233715"/>
    <line x1="11.4150412457119" y1="10.166591233715" x2="11.3955697483995" y2="10.195727509805"/>
    <line x1="11.3955697483995" y1="10.195727509805" x2="11.3860533333446" y2="10.2144772599583"/>
    <line x1="11.3860533333446" y1="10.2144772599583" x2="11.3657222784905" y2="10.2832153629486"/>
    <line x1="11.3657222784905" y1="10.2832153629486" x2="11.3604869907233" y2="10.2919211013564"/>
    <line x1="11.3604869907233" y1="10.2919211013564" x2="11.3516002293168" y2="10.2968428480926"/>
    <line x1="11.3516002293168" y1="10.2968428480926" x2="11.3414431948134" y2="10.296661825094"/>
    <line x1="11.3414431948134" y1="10.296661825094" x2="11.2402494555698" y2="10.276533138857"/>
    <line x1="11.2402494555698" y1="10.276533138857" x2="11.2307963047786" y2="10.272813453474"/>
    <line x1="11.2307963047786" y1="10.272813453474" x2="11.2244694787391" y2="10.2648655360425"/>
    <line x1="11.2244694787391" y1="10.2648655360425" x2="11.2229642453793" y2="10.25481902462"/>
    <line x1="11.2229642453793" y1="10.25481902462" x2="11.2304857331118" y2="10.1835329403085"/>
    <line x1="11.2304857331118" y1="10.1835329403085" x2="11.2288689307644" y2="10.1625686555251"/>
    <line x1="11.2288689307644" y1="10.1625686555251" x2="11.2220295830706" y2="10.1281988269672"/>
    <line x1="11.2220295830706" y1="10.1281988269672" x2="11.2067160856483" y2="10.0815889744983"/>
    <line x1="11.2067160856483" y1="10.0815889744983" x2="11.1799077594596" y2="10.024490916661"/>
    <line x1="11.1799077594596" y1="10.024490916661" x2="11.1658275345554" y2="10.0"/>
    <line x1="11.1658275345554" y1="10.0" x2="11.0826338968039" y2="10.0"/>
    <line x1="11.0826338968039" y1="10.0" x2="11.0685536718997" y2="10.024490916661"/>
    <line x1="11.0685536718997" y1="10.024490916661" x2="11.041745345711" y2="10.0815889744983"/>
    <line x1="11.041745345711" y1="10.0815889744983" x2="11.0264318482886" y2="10.1281988269672"/>
    <line x1="11.0264318482886" y1="10.1281988269672" x2="11.0195925005949" y2="10.1625686555251"/>
    <line x1="11.0195925005949" y1="10.1625686555251" x2="11.0179756982474" y2="10.1835329403085"/>
    <line x1="11.0179756982474" y1="10.1835329403085" x2="11.0254971859799" y2="10.25481902462"/>
    <line x1="11.0254971859799" y1="10.25481902462" x2="11.0239919526201" y2="10.2648655360425"/>
    <line x1="11.0239919526201" y1="10.2648655360425" x2="11.0176651265807" y2="10.272813453474"/>
    <line x1="11.0176651265807" y1="10.272813453474" x2="11.0082119757894" y2="10.276533138857"/>
    <line x1="11.0082119757894" y1="10.276533138857" x2="10.9070182365459" y2="10.296661825094"/>
    <line x1="10.9070182365459" y1="10.296661825094" x2="10.8968612020424" y2="10.2968428480926"/>
    <line x1="10.8968612020424" y1="10.2968428480926" x2="10.887974440636" y2="10.2919211013564"/>
    <line x1="10.887974440636" y1="10.2919211013564" x2="10.8827391528687" y2="10.2832153629486"/>
    <line x1="10.8827391528687" y1="10.2832153629486" x2="10.8624080980146" y2="10.2144772599583"/>
    <line x1="10.8624080980146" y1="10.2144772599583" x2="10.8528916829598" y2="10.195727509805"/>
    <line x1="10.8528916829598" y1="10.195727509805" x2="10.8334201856474" y2="10.166591233715"/>
    <line x1="10.8334201856474" y1="10.166591233715" x2="10.8014355404829" y2="10.1293895667607"/>
    <line x1="10.8014355404829" y1="10.1293895667607" x2="10.7548173958618" y2="10.0868969420606"/>
    <line x1="11.1242307156796" y1="10.9992307158071" x2="11.1405464896905" y2="11.0003001081343"/>
    <line x1="11.1405464896905" y1="11.0003001081343" x2="11.1565830962845" y2="11.0034899875167"/>
    <line x1="11.1565830962845" y1="11.0034899875167" x2="11.1720661446765" y2="11.0087457742335"/>
    <line x1="11.1720661446765" y1="11.0087457742335" x2="11.1867307156159" y2="11.015977540317"/>
    <line x1="11.1867307156159" y1="11.015977540317" x2="11.2003258942281" y2="11.0250615482444"/>
    <line x1="11.2003258942281" y1="11.0250615482444" x2="11.2126190632378" y2="11.0358423681215"/>
    <line x1="11.2126190632378" y1="11.0358423681215" x2="11.2233998831149" y2="11.0481355371312"/>
    <line x1="11.2233998831149" y1="11.0481355371312" x2="11.2324838910423" y2="11.0617307157434"/>
    <line x1="11.2324838910423" y1="11.0617307157434" x2="11.2397156571257" y2="11.0763952866828"/>
    <line x1="11.2397156571257" y1="11.0763952866828" x2="11.2449714438426" y2="11.0918783350748"/>
    <line x1="11.2449714438426" y1="11.0918783350748" x2="11.248161323225" y2="11.1079149416688"/>
    <line x1="11.248161323225" y1="11.1079149416688" x2="11.2492307155521" y2="11.1242307156796"/>
    <line x1="11.2492307155521" y1="11.1242307156796" x2="11.248161323225" y2="11.1405464896905"/>
    <line x1="11.248161323225" y1="11.1405464896905" x2="11.2449714438426" y2="11.1565830962844"/>
    <line x1="11.2449714438426" y1="11.1565830962844" x2="11.2397156571257" y2="11.1720661446765"/>
    <line x1="11.2397156571257" y1="11.1720661446765" x2="11.2324838910423" y2="11.1867307156159"/>
    <line x1="11.2324838910423" y1="11.1867307156159" x2="11.2233998831149" y2="11.2003258942281"/>
    <line x1="11.2233998831149" y1="11.2003258942281" x2="11.2126190632378" y2="11.2126190632378"/>
    <line x1="11.2126190632378" y1="11.2126190632378" x2="11.2003258942281" y2="11.2233998831149"/>
    <line x1="11.2003258942281" y1="11.2233998831149" x2="11.1867307156159" y2="11.2324838910423"/>
    <line x1="11.1867307156159" y1="11.2324838910423" x2="11.1720661446765" y2="11.2397156571257"/>
    <line x1="11.1720661446765" y1="11.2397156571257" x2="11.1565830962845" y2="11.2449714438426"/>
    <line x1="11.1565830962845" y1="11.2449714438426" x2="11.1405464896905" y2="11.248161323225"/>
    <line x1="11.1405464896905" y1="11.248161323225" x2="11.1242307156796" y2="11.2492307155521"/>
    <line x1="11.1242307156796" y1="11.2492307155521" x2="11.1079149416688" y2="11.248161323225"/>
    <line x1="11.1079149416688" y1="11.248161323225" x2="11.0918783350748" y2="11.2449714438426"/>
    <line x1="11.0918783350748" y1="11.2449714438426" x2="11.0763952866828" y2="11.2397156571257"/>
    <line x1="11.0763952866828" y1="11.2397156571257" x2="11.0617307157434" y2="11.2324838910423"/>
    <line x1="11.0617307157434" y1="11.2324838910423" x2="11.0481355371312" y2="11.2233998831149"/>
    <line x1="11.0481355371312" y1="11.2233998831149" x2="11.0358423681215" y2="11.2126190632378"/>
    <line x1="11.0358423681215" y1="11.2126190632378" x2="11.0250615482444" y2="11.2003258942281"/>
    <line x1="11.0250615482444" y1="11.2003258942281" x2="11.015977540317" y2="11.1867307156159"/>
    <line x1="11.015977540317" y1="11.1867307156159" x2="11.0087457742335" y2="11.1720661446765"/>
    <line x1="11.0087457742335" y1="11.1720661446765" x2="11.0034899875167" y2="11.1565830962844"/>
    <line x1="11.0034899875167" y1="11.1565830962844" x2="11.0003001081343" y2="11.1405464896905"/>
    <line x1="11.0003001081343" y1="11.1405464896905" x2="10.9992307158071" y2="11.1242307156796"/>
    <line x1="10.9992307158071" y1="11.1242307156796" x2="11.0003001081343" y2="11.1079149416688"/>
    <line x1="11.0003001081343" y1="11.1079149416688" x2="11.0034899875167" y2="11.0918783350748"/>
    <line x1="11.0034899875167" y1="11.0918783350748" x2="11.0087457742335" y2="11.0763952866828"/>
    <line x1="11.0087457742335" y1="11.0763952866828" x2="11.015977540317" y2="11.0617307157434"/>
    <line x1="11.015977540317" y1="11.0617307157434" x2="11.0250615482444" y2="11.0481355371312"/>
    <line x1="11.0250615482444" y1="11.0481355371312" x2="11.0358423681215" y2="11.0358423681215"/>
    <line x1="11.0358423681215" y1="11.0358423681215" x2="11.0481355371312" y2="11.0250615482444"/>
    <line x1="11.0481355371312" y1="11.0250615482444" x2="11.0617307157434" y2="11.015977540317"/>
    <line x1="11.0617307157434" y1="11.015977540317" x2="11.0763952866828" y2="11.0087457742335"/>
    <line x1="11.0763952866828" y1="11.0087457742335" x2="11.0918783350748" y2="11.0034899875167"/>
    <line x1="11.0918783350748" y1="11.0034899875167" x2="11.1079149416688" y2="11.0003001081343"/>
    <line x1="11.1079149416688" y1="11.0003001081343" x2="11.1242307156796" y2="10.9992307158071"/>
  </g>
</svg>
