<?xml version="1.0" standalone="no"?>
<!DOCTYPE svg PUBLIC "-//W3C//DTD SVG 1.1//EN" "http://www.w3.org/Graphics/SVG/1.1/DTD/svg11.dtd">
<svg width="23.1877400829982in" height="23.1995290618355in"
 viewBox="0 0 23.1877400829982 23.1995290618355"
 xmlns="http://www.w3.org/2000/svg" version="1.1"
 xmlns:xlink="http://www.w3.org/1999/xlink">
<desc>Output from Flights of Ideas SVG Sketchup Plugin</desc>

  <g id="face0" fill="none" stroke="rgb(0,0,255)" stroke-width="1" stroke-miterlimit="4" stroke-dasharray="none" stroke-linejoin="round" stroke-linecap="round">
    <line x1="11.2926973417076" y1="10.034239279592" x2="11.2881093380664" y2="10.0292517525508"/>
    <line x1="11.2881093380664" y1="10.0292517525508" x2="11.234411247865" y2="10.0406656339722"/>
    <line x1="11.234411247865" y1="10.0406656339722" x2="11.2322485079849" y2="10.0470880758451"/>
    <line x1="11.2322485079849" y1="10.0470880758451" x2="11.2085453396138" y2="10.1355003528963"/>
    <line x1="11.2085453396138" y1="10.1355003528963" x2="11.1985733733899" y2="10.2060546797569"/>
    <line x1="11.1985733733899" y1="10.2060546797569" x2="11.1975851362793" y2="10.2570217149263"/>
    <line x1="11.1975851362793" y1="10.2570217149263" x2="11.1978287069723" y2="10.2651449821031"/>
    <line x1="11.1978287069723" y1="10.2651449821031" x2="11.1939780117916" y2="10.2723017231864"/>
    <line x1="11.1939780117916" y1="10.2723017231864" x2="11.1870648414013" y2="10.2765742951825"/>
    <line x1="11.1870648414013" y1="10.2765742951825" x2="11.1452306552357" y2="10.2901670462435"/>
    <line x1="11.1452306552357" y1="10.2901670462435" x2="11.1371264280963" y2="10.290773922491"/>
    <line x1="11.1371264280963" y1="10.290773922491" x2="11.1298045233917" y2="10.2872473791686"/>
    <line x1="11.1298045233917" y1="10.2872473791686" x2="11.1252268395747" y2="10.2805323507115"/>
    <line x1="11.1252268395747" y1="10.2805323507115" x2="11.0944696673321" y2="10.2398800243059"/>
    <line x1="11.0944696673321" y1="10.2398800243059" x2="11.0449313843755" y2="10.1886617495317"/>
    <line x1="11.0449313843755" y1="10.1886617495317" x2="10.9737876857705" y2="10.1310670876871"/>
    <line x1="10.9737876857705" y1="10.1310670876871" x2="10.9682629758366" y2="10.1271424496726"/>
    <line x1="10.9682629758366" y1="10.1271424496726" x2="10.9181113971272" y2="10.1494713711276"/>
    <line x1="10.9181113971272" y1="10.1494713711276" x2="10.9173312190514" y2="10.1562031261416"/>
    <line x1="10.9173312190514" y1="10.1562031261416" x2="10.9125279677902" y2="10.2476115486284"/>
    <line x1="10.9125279677902" y1="10.2476115486284" x2="10.9174429823458" y2="10.3186973825269"/>
    <line x1="10.9174429823458" y1="10.3186973825269" x2="10.9270729830452" y2="10.368756131743"/>
    <line x1="10.9270729830452" y1="10.368756131743" x2="10.9290001533478" y2="10.3766512448475"/>
    <line x1="10.9290001533478" y1="10.3766512448475" x2="10.926721575235" y2="10.384452198513"/>
    <line x1="10.926721575235" y1="10.384452198513" x2="10.9208477918721" y2="10.3900687335047"/>
    <line x1="10.9208477918721" y1="10.3900687335047" x2="10.8827538749016" y2="10.4120622667221"/>
    <line x1="10.8827538749016" y1="10.4120622667221" x2="10.8749529212361" y2="10.4143408448349"/>
    <line x1="10.8749529212361" y1="10.4143408448349" x2="10.8670578081316" y2="10.4124136745323"/>
    <line x1="10.8670578081316" y1="10.4124136745323" x2="10.8611840247687" y2="10.4067971395406"/>
    <line x1="10.8611840247687" y1="10.4067971395406" x2="10.8226468766155" y2="10.3734279396884"/>
    <line x1="10.8226468766155" y1="10.3734279396884" x2="10.763542245888" y2="10.333628495274"/>
    <line x1="10.763542245888" y1="10.333628495274" x2="10.681978604264" y2="10.2920840216436"/>
    <line x1="10.681978604264" y1="10.2920840216436" x2="10.6757586443719" y2="10.2893937981696"/>
    <line x1="10.6757586443719" y1="10.2893937981696" x2="10.6313454417981" y2="10.3216618786444"/>
    <line x1="10.6313454417981" y1="10.3216618786444" x2="10.6319819230524" y2="10.3284087368029"/>
    <line x1="10.6319819230524" y1="10.3284087368029" x2="10.6462885140297" y2="10.4188183180364"/>
    <line x1="10.6462885140297" y1="10.4188183180364" x2="10.6658756996439" y2="10.4873288669237"/>
    <line x1="10.6658756996439" y1="10.4873288669237" x2="10.6857030609127" y2="10.5342915226372"/>
    <line x1="10.6857030609127" y1="10.5342915226372" x2="10.6892296042352" y2="10.5416134273418"/>
    <line x1="10.6892296042352" y1="10.5416134273418" x2="10.6886227279877" y2="10.5497176544813"/>
    <line x1="10.6886227279877" y1="10.5497176544813" x2="10.6840450441707" y2="10.5564326829383"/>
    <line x1="10.6840450441707" y1="10.5564326829383" x2="10.6513562833617" y2="10.5858657753738"/>
    <line x1="10.6513562833617" y1="10.5858657753738" x2="10.6441995422784" y2="10.5897164705545"/>
    <line x1="10.6441995422784" y1="10.5897164705545" x2="10.6360762751017" y2="10.5894728998615"/>
    <line x1="10.6360762751017" y1="10.5894728998615" x2="10.6291631047113" y2="10.5852003278654"/>
    <line x1="10.6291631047113" y1="10.5852003278654" x2="10.5845302389437" y2="10.5605726487235"/>
    <line x1="10.5845302389437" y1="10.5605726487235" x2="10.5184424164236" y2="10.5339314613687"/>
    <line x1="10.5184424164236" y1="10.5339314613687" x2="10.4300235543052" y2="10.5102528688027"/>
    <line x1="10.4300235543052" y1="10.5102528688027" x2="10.423380186549" y2="10.5089146355441"/>
    <line x1="10.423380186549" y1="10.5089146355441" x2="10.3866464301815" y2="10.5497116050826"/>
    <line x1="10.3866464301815" y1="10.5497116050826" x2="10.3886717534807" y2="10.5561786963091"/>
    <line x1="10.3886717534807" y1="10.5561786963091" x2="10.4214629200202" y2="10.6416381037561"/>
    <line x1="10.4214629200202" y1="10.6416381037561" x2="10.4548662226919" y2="10.7045791278957"/>
    <line x1="10.4548662226919" y1="10.7045791278957" x2="10.4840243937006" y2="10.7463931967001"/>
    <line x1="10.4840243937006" y1="10.7463931967001" x2="10.4889961831775" y2="10.7528218906348"/>
    <line x1="10.4889961831775" y1="10.7528218906348" x2="10.4900875321994" y2="10.7608751976337"/>
    <line x1="10.4900875321994" y1="10.7608751976337" x2="10.4870060146772" y2="10.7683952405903"/>
    <line x1="10.4870060146772" y1="10.7683952405903" x2="10.4611510657352" y2="10.8039815248688"/>
    <line x1="10.4611510657352" y1="10.8039815248688" x2="10.4549513211614" y2="10.8092360432603"/>
    <line x1="10.4549513211614" y1="10.8092360432603" x2="10.4469549256677" y2="10.8106867173851"/>
    <line x1="10.4469549256677" y1="10.8106867173851" x2="10.4393045069691" y2="10.8079448402829"/>
    <line x1="10.4393045069691" y1="10.8079448402829" x2="10.3905265939933" y2="10.7931350296063"/>
    <line x1="10.3905265939933" y1="10.7931350296063" x2="10.3203439346492" y2="10.7808164470372"/>
    <line x1="10.3203439346492" y1="10.7808164470372" x2="10.2289341805919" y2="10.7760386036532"/>
    <line x1="10.2289341805919" y1="10.7760386036532" x2="10.2221577520209" y2="10.776110847825"/>
    <line x1="10.2221577520209" y1="10.776110847825" x2="10.1947088832811" y2="10.8236536830927"/>
    <line x1="10.1947088832811" y1="10.8236536830927" x2="10.1980345322785" y2="10.8295583644681"/>
    <line x1="10.1980345322785" y1="10.8295583644681" x2="10.2478771430529" y2="10.9063326119433"/>
    <line x1="10.2478771430529" y1="10.9063326119433" x2="10.2936366781685" y2="10.9609532865559"/>
    <line x1="10.2936366781685" y1="10.9609532865559" x2="10.3308513069276" y2="10.9957912929983"/>
    <line x1="10.3308513069276" y1="10.9957912929983" x2="10.3370510515014" y2="11.0010458113898"/>
    <line x1="10.3370510515014" y1="11.0010458113898" x2="10.3397929286036" y2="11.0086962300884"/>
    <line x1="10.3397929286036" y1="11.0086962300884" x2="10.3383422544788" y2="11.0166926255821"/>
    <line x1="10.3383422544788" y1="11.0166926255821" x2="10.3204511027383" y2="11.0568768103186"/>
    <line x1="10.3204511027383" y1="11.0568768103186" x2="10.3154793132615" y2="11.0633055042533"/>
    <line x1="10.3154793132615" y1="11.0633055042533" x2="10.3079592703049" y2="11.0663870217754"/>
    <line x1="10.3079592703049" y1="11.0663870217754" x2="10.2999059633059" y2="11.0652956727535"/>
    <line x1="10.2999059633059" y1="11.0652956727535" x2="10.2491148319814" y2="11.0609509903343"/>
    <line x1="10.2491148319814" y1="11.0609509903343" x2="10.1779046548004" y2="11.0634933937201"/>
    <line x1="10.1779046548004" y1="11.0634933937201" x2="10.0874990536892" y2="11.0778251142007"/>
    <line x1="10.0874990536892" y1="11.0778251142007" x2="10.0808857267489" y2="11.079304678386"/>
    <line x1="10.0808857267489" y1="11.079304678386" x2="10.0639213929149" y2="11.1315155293459"/>
    <line x1="10.0639213929149" y1="11.1315155293459" x2="10.0684020207911" y2="11.1365997379601"/>
    <line x1="10.0684020207911" y1="11.1365997379601" x2="10.1331177145383" y2="11.2013334224453"/>
    <line x1="10.1331177145383" y1="11.2013334224453" x2="10.1892335708346" y2="11.2452465619512"/>
    <line x1="10.1892335708346" y1="11.2452465619512" x2="10.2328781994916" y2="11.2715859179787"/>
    <line x1="10.2328781994916" y1="11.2715859179787" x2="10.2400349405749" y2="11.2754366131593"/>
    <line x1="10.2400349405749" y1="11.2754366131593" x2="10.2443075125709" y2="11.2823497835497"/>
    <line x1="10.2443075125709" y1="11.2823497835497" x2="10.2445510832639" y2="11.2904730507264"/>
    <line x1="10.2445510832639" y1="11.2904730507264" x2="10.2354056579073" y2="11.333498894223"/>
    <line x1="10.2354056579073" y1="11.333498894223" x2="10.2318791145849" y2="11.3408207989275"/>
    <line x1="10.2318791145849" y1="11.3408207989275" x2="10.2251640861278" y2="11.3453984827445"/>
    <line x1="10.2251640861278" y1="11.3453984827445" x2="10.2170598589884" y2="11.346005358992"/>
    <line x1="10.2170598589884" y1="11.346005358992" x2="10.1664753254768" y2="11.3523156882999"/>
    <line x1="10.1664753254768" y1="11.3523156882999" x2="10.0973498569061" y2="11.3696079624131"/>
    <line x1="10.0973498569061" y1="11.3696079624131" x2="10.0118995673238" y2="11.4024228818019"/>
    <line x1="10.0118995673238" y1="11.4024228818019" x2="10.0057383761356" y2="11.405245101946"/>
    <line x1="10.0057383761356" y1="11.405245101946" x2="10.0" y2="11.4598421038757"/>
    <line x1="10.0" y1="11.4598421038757" x2="10.0054397818163" y2="11.4638836354157"/>
    <line x1="10.0054397818163" y1="11.4638836354157" x2="10.0822001721791" y2="11.5137475842721"/>
    <line x1="10.0822001721791" y1="11.5137475842721" x2="10.1462198174623" y2="11.5450339737562"/>
    <line x1="10.1462198174623" y1="11.5450339737562" x2="10.1943869663148" y2="11.5617235231202"/>
    <line x1="10.1943869663148" y1="11.5617235231202" x2="10.2021879199803" y2="11.5640021012329"/>
    <line x1="10.2021879199803" y1="11.5640021012329" x2="10.207804454972" y2="11.5698758845959"/>
    <line x1="10.207804454972" y1="11.5698758845959" x2="10.2097316252746" y2="11.5777709977003"/>
    <line x1="10.2097316252746" y1="11.5777709977003" x2="10.2097316252746" y2="11.6217580641352"/>
    <line x1="10.2097316252746" y1="11.6217580641352" x2="10.207804454972" y2="11.6296531772396"/>
    <line x1="10.207804454972" y1="11.6296531772396" x2="10.2021879199803" y2="11.6355269606026"/>
    <line x1="10.2021879199803" y1="11.6355269606026" x2="10.1943869663148" y2="11.6378055387153"/>
    <line x1="10.1943869663148" y1="11.6378055387153" x2="10.1462198174623" y2="11.6544950880793"/>
    <line x1="10.1462198174623" y1="11.6544950880793" x2="10.0822001721791" y2="11.6857814775634"/>
    <line x1="10.0822001721791" y1="11.6857814775634" x2="10.0054397818163" y2="11.7356454264198"/>
    <line x1="10.0054397818163" y1="11.7356454264198" x2="10.0" y2="11.7396869579598"/>
    <line x1="10.0" y1="11.7396869579598" x2="10.0057383761356" y2="11.7942839598895"/>
    <line x1="10.0057383761356" y1="11.7942839598895" x2="10.0118995673238" y2="11.7971061800336"/>
    <line x1="10.0118995673238" y1="11.7971061800336" x2="10.0973498569061" y2="11.8299210994225"/>
    <line x1="10.0973498569061" y1="11.8299210994225" x2="10.1664753254769" y2="11.8472133735356"/>
    <line x1="10.1664753254769" y1="11.8472133735356" x2="10.2170598589884" y2="11.8535237028435"/>
    <line x1="10.2170598589884" y1="11.8535237028435" x2="10.2251640861278" y2="11.854130579091"/>
    <line x1="10.2251640861278" y1="11.854130579091" x2="10.2318791145849" y2="11.858708262908"/>
    <line x1="10.2318791145849" y1="11.858708262908" x2="10.2354056579073" y2="11.8660301676125"/>
    <line x1="10.2354056579073" y1="11.8660301676125" x2="10.2445510832639" y2="11.9090560111091"/>
    <line x1="10.2445510832639" y1="11.9090560111091" x2="10.2443075125709" y2="11.9171792782858"/>
    <line x1="10.2443075125709" y1="11.9171792782858" x2="10.2400349405749" y2="11.9240924486762"/>
    <line x1="10.2400349405749" y1="11.9240924486762" x2="10.2328781994916" y2="11.9279431438569"/>
    <line x1="10.2328781994916" y1="11.9279431438569" x2="10.1892335708346" y2="11.9542824998843"/>
    <line x1="10.1892335708346" y1="11.9542824998843" x2="10.1331177145383" y2="11.9981956393902"/>
    <line x1="10.1331177145383" y1="11.9981956393902" x2="10.0684020207911" y2="12.0629293238754"/>
    <line x1="10.0684020207911" y1="12.0629293238754" x2="10.0639213929149" y2="12.0680135324897"/>
    <line x1="10.0639213929149" y1="12.0680135324897" x2="10.0808857267489" y2="12.1202243834496"/>
    <line x1="10.0808857267489" y1="12.1202243834496" x2="10.0874990536892" y2="12.1217039476349"/>
    <line x1="10.0874990536892" y1="12.1217039476349" x2="10.1779046548004" y2="12.1360356681154"/>
    <line x1="10.1779046548004" y1="12.1360356681154" x2="10.2491148319814" y2="12.1385780715013"/>
    <line x1="10.2491148319814" y1="12.1385780715013" x2="10.2999059633059" y2="12.134233389082"/>
    <line x1="10.2999059633059" y1="12.134233389082" x2="10.3079592703049" y2="12.1331420400601"/>
    <line x1="10.3079592703049" y1="12.1331420400601" x2="10.3154793132615" y2="12.1362235575822"/>
    <line x1="10.3154793132615" y1="12.1362235575822" x2="10.3204511027383" y2="12.1426522515169"/>
    <line x1="10.3204511027383" y1="12.1426522515169" x2="10.3383422544788" y2="12.1828364362534"/>
    <line x1="10.3383422544788" y1="12.1828364362534" x2="10.3397929286036" y2="12.1908328317471"/>
    <line x1="10.3397929286036" y1="12.1908328317471" x2="10.3370510515014" y2="12.1984832504457"/>
    <line x1="10.3370510515014" y1="12.1984832504457" x2="10.3308513069276" y2="12.2037377688372"/>
    <line x1="10.3308513069276" y1="12.2037377688372" x2="10.2936366781685" y2="12.2385757752796"/>
    <line x1="10.2936366781685" y1="12.2385757752796" x2="10.2478771430529" y2="12.2931964498922"/>
    <line x1="10.2478771430529" y1="12.2931964498922" x2="10.1980345322785" y2="12.3699706973674"/>
    <line x1="10.1980345322785" y1="12.3699706973674" x2="10.1947088832811" y2="12.3758753787428"/>
    <line x1="10.1947088832811" y1="12.3758753787428" x2="10.2221577520209" y2="12.4234182140105"/>
    <line x1="10.2221577520209" y1="12.4234182140105" x2="10.2289341805919" y2="12.4234904581823"/>
    <line x1="10.2289341805919" y1="12.4234904581823" x2="10.3203439346492" y2="12.4187126147983"/>
    <line x1="10.3203439346492" y1="12.4187126147983" x2="10.3905265939933" y2="12.4063940322292"/>
    <line x1="10.3905265939933" y1="12.4063940322292" x2="10.4393045069691" y2="12.3915842215526"/>
    <line x1="10.4393045069691" y1="12.3915842215526" x2="10.4469549256677" y2="12.3888423444505"/>
    <line x1="10.4469549256677" y1="12.3888423444505" x2="10.4549513211614" y2="12.3902930185752"/>
    <line x1="10.4549513211614" y1="12.3902930185752" x2="10.4611510657352" y2="12.3955475369667"/>
    <line x1="10.4611510657352" y1="12.3955475369667" x2="10.4870060146772" y2="12.4311338212452"/>
    <line x1="10.4870060146772" y1="12.4311338212452" x2="10.4900875321994" y2="12.4386538642018"/>
    <line x1="10.4900875321994" y1="12.4386538642018" x2="10.4889961831775" y2="12.4467071712008"/>
    <line x1="10.4889961831775" y1="12.4467071712008" x2="10.4840243937006" y2="12.4531358651354"/>
    <line x1="10.4840243937006" y1="12.4531358651354" x2="10.4548662226919" y2="12.4949499339398"/>
    <line x1="10.4548662226919" y1="12.4949499339398" x2="10.4214629200202" y2="12.5578909580795"/>
    <line x1="10.4214629200202" y1="12.5578909580795" x2="10.3886717534807" y2="12.6433503655264"/>
    <line x1="10.3886717534807" y1="12.6433503655264" x2="10.3866464301815" y2="12.6498174567529"/>
    <line x1="10.3866464301815" y1="12.6498174567529" x2="10.423380186549" y2="12.6906144262914"/>
    <line x1="10.423380186549" y1="12.6906144262914" x2="10.4300235543052" y2="12.6892761930328"/>
    <line x1="10.4300235543052" y1="12.6892761930328" x2="10.5184424164236" y2="12.6655976004668"/>
    <line x1="10.5184424164236" y1="12.6655976004668" x2="10.5845302389437" y2="12.6389564131121"/>
    <line x1="10.5845302389437" y1="12.6389564131121" x2="10.6291631047113" y2="12.6143287339701"/>
    <line x1="10.6291631047113" y1="12.6143287339701" x2="10.6360762751017" y2="12.610056161974"/>
    <line x1="10.6360762751017" y1="12.610056161974" x2="10.6441995422784" y2="12.609812591281"/>
    <line x1="10.6441995422784" y1="12.609812591281" x2="10.6513562833617" y2="12.6136632864617"/>
    <line x1="10.6513562833617" y1="12.6136632864617" x2="10.6840450441707" y2="12.6430963788972"/>
    <line x1="10.6840450441707" y1="12.6430963788972" x2="10.6886227279877" y2="12.6498114073543"/>
    <line x1="10.6886227279877" y1="12.6498114073543" x2="10.6892296042352" y2="12.6579156344937"/>
    <line x1="10.6892296042352" y1="12.6579156344937" x2="10.6857030609127" y2="12.6652375391983"/>
    <line x1="10.6857030609127" y1="12.6652375391983" x2="10.6658756996439" y2="12.7122001949118"/>
    <line x1="10.6658756996439" y1="12.7122001949118" x2="10.6462885140297" y2="12.7807107437991"/>
    <line x1="10.6462885140297" y1="12.7807107437991" x2="10.6319819230524" y2="12.8711203250326"/>
    <line x1="10.6319819230524" y1="12.8711203250326" x2="10.6313454417981" y2="12.8778671831911"/>
    <line x1="10.6313454417981" y1="12.8778671831911" x2="10.6757586443719" y2="12.9101352636659"/>
    <line x1="10.6757586443719" y1="12.9101352636659" x2="10.681978604264" y2="12.9074450401919"/>
    <line x1="10.681978604264" y1="12.9074450401919" x2="10.763542245888" y2="12.8659005665615"/>
    <line x1="10.763542245888" y1="12.8659005665615" x2="10.8226468766155" y2="12.8261011221471"/>
    <line x1="10.8226468766155" y1="12.8261011221471" x2="10.8611840247687" y2="12.792731922295"/>
    <line x1="10.8611840247687" y1="12.792731922295" x2="10.8670578081316" y2="12.7871153873032"/>
    <line x1="10.8670578081316" y1="12.7871153873032" x2="10.8749529212361" y2="12.7851882170006"/>
    <line x1="10.8749529212361" y1="12.7851882170006" x2="10.8827538749016" y2="12.7874667951134"/>
    <line x1="10.8827538749016" y1="12.7874667951134" x2="10.9208477918721" y2="12.8094603283308"/>
    <line x1="10.9208477918721" y1="12.8094603283308" x2="10.926721575235" y2="12.8150768633225"/>
    <line x1="10.926721575235" y1="12.8150768633225" x2="10.9290001533478" y2="12.8228778169881"/>
    <line x1="10.9290001533478" y1="12.8228778169881" x2="10.9270729830452" y2="12.8307729300925"/>
    <line x1="10.9270729830452" y1="12.8307729300925" x2="10.9174429823458" y2="12.8808316793086"/>
    <line x1="10.9174429823458" y1="12.8808316793086" x2="10.9125279677902" y2="12.9519175132071"/>
    <line x1="10.9125279677902" y1="12.9519175132071" x2="10.9173312190514" y2="13.0433259356939"/>
    <line x1="10.9173312190514" y1="13.0433259356939" x2="10.9181113971272" y2="13.0500576907079"/>
    <line x1="10.9181113971272" y1="13.0500576907079" x2="10.9682629758366" y2="13.0723866121629"/>
    <line x1="10.9682629758366" y1="13.0723866121629" x2="10.9737876857705" y2="13.0684619741484"/>
    <line x1="10.9737876857705" y1="13.0684619741484" x2="11.0449313843755" y2="13.0108673123038"/>
    <line x1="11.0449313843755" y1="13.0108673123038" x2="11.0944696673321" y2="12.9596490375296"/>
    <line x1="11.0944696673321" y1="12.9596490375296" x2="11.1252268395747" y2="12.918996711124"/>
    <line x1="11.1252268395747" y1="12.918996711124" x2="11.1298045233917" y2="12.9122816826669"/>
    <line x1="11.1298045233917" y1="12.9122816826669" x2="11.1371264280963" y2="12.9087551393445"/>
    <line x1="11.1371264280963" y1="12.9087551393445" x2="11.1452306552357" y2="12.909362015592"/>
    <line x1="11.1452306552357" y1="12.909362015592" x2="11.1870648414013" y2="12.922954766653"/>
    <line x1="11.1870648414013" y1="12.922954766653" x2="11.1939780117916" y2="12.9272273386491"/>
    <line x1="11.1939780117916" y1="12.9272273386491" x2="11.1978287069723" y2="12.9343840797324"/>
    <line x1="11.1978287069723" y1="12.9343840797324" x2="11.1975851362793" y2="12.9425073469092"/>
    <line x1="11.1975851362793" y1="12.9425073469092" x2="11.1985733733899" y2="12.9934743820786"/>
    <line x1="11.1985733733899" y1="12.9934743820786" x2="11.2085453396138" y2="13.0640287089393"/>
    <line x1="11.2085453396138" y1="13.0640287089393" x2="11.2322485079849" y2="13.1524409859905"/>
    <line x1="11.2322485079849" y1="13.1524409859905" x2="11.234411247865" y2="13.1588634278633"/>
    <line x1="11.234411247865" y1="13.1588634278633" x2="11.2881093380664" y2="13.1702773092847"/>
    <line x1="11.2881093380664" y1="13.1702773092847" x2="11.2926973417076" y2="13.1652897822435"/>
    <line x1="11.2926973417076" y1="13.1652897822435" x2="11.3503117762792" y2="13.0941620952771"/>
    <line x1="11.3503117762792" y1="13.0941620952771" x2="11.3881186507886" y2="13.0337634745233"/>
    <line x1="11.3881186507886" y1="13.0337634745233" x2="11.4097516111044" y2="12.9876047232996"/>
    <line x1="11.4097516111044" y1="12.9876047232996" x2="11.4128331286265" y2="12.9800846803431"/>
    <line x1="11.4128331286265" y1="12.9800846803431" x2="11.4192618225612" y2="12.9751128908662"/>
    <line x1="11.4192618225612" y1="12.9751128908662" x2="11.4273151295602" y2="12.9740215418443"/>
    <line x1="11.4273151295602" y1="12.9740215418443" x2="11.4710612302426" y2="12.9786194423024"/>
    <line x1="11.4710612302426" y1="12.9786194423024" x2="11.4787116489412" y2="12.9813613194046"/>
    <line x1="11.4787116489412" y1="12.9813613194046" x2="11.4839661673328" y2="12.9875610639784"/>
    <line x1="11.4839661673328" y1="12.9875610639784" x2="11.4854168414575" y2="12.9955574594721"/>
    <line x1="11.4854168414575" y1="12.9955574594721" x2="11.4969801256743" y2="13.045205276591"/>
    <line x1="11.4969801256743" y1="13.045205276591" x2="11.5214032499029" y2="13.1121445337728"/>
    <line x1="11.5214032499029" y1="13.1121445337728" x2="11.5629703931856" y2="13.193696624632"/>
    <line x1="11.5629703931856" y1="13.193696624632" x2="11.5664211727592" y2="13.1995290618355"/>
    <line x1="11.5664211727592" y1="13.1995290618355" x2="11.6213189102389" y2="13.1995290618355"/>
    <line x1="11.6213189102389" y1="13.1995290618355" x2="11.6247696898125" y2="13.193696624632"/>
    <line x1="11.6247696898125" y1="13.193696624632" x2="11.6663368330953" y2="13.1121445337728"/>
    <line x1="11.6663368330953" y1="13.1121445337728" x2="11.6907599573239" y2="13.045205276591"/>
    <line x1="11.6907599573239" y1="13.045205276591" x2="11.7023232415406" y2="12.9955574594721"/>
    <line x1="11.7023232415406" y1="12.9955574594721" x2="11.7037739156654" y2="12.9875610639784"/>
    <line x1="11.7037739156654" y1="12.9875610639784" x2="11.7090284340569" y2="12.9813613194046"/>
    <line x1="11.7090284340569" y1="12.9813613194046" x2="11.7166788527555" y2="12.9786194423024"/>
    <line x1="11.7166788527555" y1="12.9786194423024" x2="11.760424953438" y2="12.9740215418443"/>
    <line x1="11.760424953438" y1="12.9740215418443" x2="11.768478260437" y2="12.9751128908662"/>
    <line x1="11.768478260437" y1="12.9751128908662" x2="11.7749069543716" y2="12.9800846803431"/>
    <line x1="11.7749069543716" y1="12.9800846803431" x2="11.7779884718937" y2="12.9876047232996"/>
    <line x1="11.7779884718937" y1="12.9876047232996" x2="11.7996214322096" y2="13.0337634745233"/>
    <line x1="11.7996214322096" y1="13.0337634745233" x2="11.8374283067189" y2="13.0941620952771"/>
    <line x1="11.8374283067189" y1="13.0941620952771" x2="11.8950427412906" y2="13.1652897822435"/>
    <line x1="11.8950427412906" y1="13.1652897822435" x2="11.8996307449317" y2="13.1702773092847"/>
    <line x1="11.8996307449317" y1="13.1702773092847" x2="11.9533288351332" y2="13.1588634278633"/>
    <line x1="11.9533288351332" y1="13.1588634278633" x2="11.9554915750132" y2="13.1524409859905"/>
    <line x1="11.9554915750132" y1="13.1524409859905" x2="11.9791947433843" y2="13.0640287089393"/>
    <line x1="11.9791947433843" y1="13.0640287089393" x2="11.9891667096082" y2="12.9934743820786"/>
    <line x1="11.9891667096082" y1="12.9934743820786" x2="11.9901549467188" y2="12.9425073469092"/>
    <line x1="11.9901549467188" y1="12.9425073469092" x2="11.9899113760259" y2="12.9343840797324"/>
    <line x1="11.9899113760259" y1="12.9343840797324" x2="11.9937620712066" y2="12.9272273386491"/>
    <line x1="11.9937620712066" y1="12.9272273386491" x2="12.0006752415969" y2="12.922954766653"/>
    <line x1="12.0006752415969" y1="12.922954766653" x2="12.0425094277624" y2="12.909362015592"/>
    <line x1="12.0425094277624" y1="12.909362015592" x2="12.0506136549019" y2="12.9087551393445"/>
    <line x1="12.0506136549019" y1="12.9087551393445" x2="12.0579355596064" y2="12.9122816826669"/>
    <line x1="12.0579355596064" y1="12.9122816826669" x2="12.0625132434235" y2="12.918996711124"/>
    <line x1="12.0625132434235" y1="12.918996711124" x2="12.0932704156661" y2="12.9596490375296"/>
    <line x1="12.0932704156661" y1="12.9596490375296" x2="12.1428086986226" y2="13.0108673123038"/>
    <line x1="12.1428086986226" y1="13.0108673123038" x2="12.2139523972277" y2="13.0684619741484"/>
    <line x1="12.2139523972277" y1="13.0684619741484" x2="12.2194771071616" y2="13.0723866121629"/>
    <line x1="12.2194771071616" y1="13.0723866121629" x2="12.269628685871" y2="13.0500576907079"/>
    <line x1="12.269628685871" y1="13.0500576907079" x2="12.2704088639467" y2="13.043325935694"/>
    <line x1="12.2704088639467" y1="13.043325935694" x2="12.275212115208" y2="12.9519175132071"/>
    <line x1="12.275212115208" y1="12.9519175132071" x2="12.2702971006523" y2="12.8808316793086"/>
    <line x1="12.2702971006523" y1="12.8808316793086" x2="12.260667099953" y2="12.8307729300925"/>
    <line x1="12.260667099953" y1="12.8307729300925" x2="12.2587399296504" y2="12.8228778169881"/>
    <line x1="12.2587399296504" y1="12.8228778169881" x2="12.2610185077631" y2="12.8150768633225"/>
    <line x1="12.2610185077631" y1="12.8150768633225" x2="12.2668922911261" y2="12.8094603283308"/>
    <line x1="12.2668922911261" y1="12.8094603283308" x2="12.3049862080966" y2="12.7874667951134"/>
    <line x1="12.3049862080966" y1="12.7874667951134" x2="12.3127871617621" y2="12.7851882170006"/>
    <line x1="12.3127871617621" y1="12.7851882170006" x2="12.3206822748666" y2="12.7871153873032"/>
    <line x1="12.3206822748666" y1="12.7871153873032" x2="12.3265560582295" y2="12.792731922295"/>
    <line x1="12.3265560582295" y1="12.792731922295" x2="12.3650932063826" y2="12.8261011221471"/>
    <line x1="12.3650932063826" y1="12.8261011221471" x2="12.4241978371101" y2="12.8659005665615"/>
    <line x1="12.4241978371101" y1="12.8659005665615" x2="12.5057614787342" y2="12.9074450401919"/>
    <line x1="12.5057614787342" y1="12.9074450401919" x2="12.5119814386262" y2="12.9101352636659"/>
    <line x1="12.5119814386262" y1="12.9101352636659" x2="12.5563946412" y2="12.8778671831911"/>
    <line x1="12.5563946412" y1="12.8778671831911" x2="12.5557581599458" y2="12.8711203250326"/>
    <line x1="12.5557581599458" y1="12.8711203250326" x2="12.5414515689685" y2="12.7807107437991"/>
    <line x1="12.5414515689685" y1="12.7807107437991" x2="12.5218643833543" y2="12.7122001949118"/>
    <line x1="12.5218643833543" y1="12.7122001949118" x2="12.5020370220854" y2="12.6652375391983"/>
    <line x1="12.5020370220854" y1="12.6652375391983" x2="12.498510478763" y2="12.6579156344937"/>
    <line x1="12.498510478763" y1="12.6579156344937" x2="12.4991173550105" y2="12.6498114073543"/>
    <line x1="12.4991173550105" y1="12.6498114073543" x2="12.5036950388275" y2="12.6430963788972"/>
    <line x1="12.5036950388275" y1="12.6430963788972" x2="12.5363837996364" y2="12.6136632864617"/>
    <line x1="12.5363837996364" y1="12.6136632864617" x2="12.5435405407197" y2="12.609812591281"/>
    <line x1="12.5435405407197" y1="12.609812591281" x2="12.5516638078965" y2="12.610056161974"/>
    <line x1="12.5516638078965" y1="12.610056161974" x2="12.5585769782868" y2="12.6143287339701"/>
    <line x1="12.5585769782868" y1="12.6143287339701" x2="12.6032098440545" y2="12.6389564131121"/>
    <line x1="12.6032098440545" y1="12.6389564131121" x2="12.6692976665746" y2="12.6655976004668"/>
    <line x1="12.6692976665746" y1="12.6655976004668" x2="12.7577165286929" y2="12.6892761930328"/>
    <line x1="12.7577165286929" y1="12.6892761930328" x2="12.7643598964491" y2="12.6906144262914"/>
    <line x1="12.7643598964491" y1="12.6906144262914" x2="12.8010936528166" y2="12.6498174567529"/>
    <line x1="12.8010936528166" y1="12.6498174567529" x2="12.7990683295174" y2="12.6433503655264"/>
    <line x1="12.7990683295174" y1="12.6433503655264" x2="12.7662771629779" y2="12.5578909580795"/>
    <line x1="12.7662771629779" y1="12.5578909580795" x2="12.7328738603063" y2="12.4949499339398"/>
    <line x1="12.7328738603063" y1="12.4949499339398" x2="12.7037156892975" y2="12.4531358651354"/>
    <line x1="12.7037156892975" y1="12.4531358651354" x2="12.6987438998207" y2="12.4467071712008"/>
    <line x1="12.6987438998207" y1="12.4467071712008" x2="12.6976525507988" y2="12.4386538642018"/>
    <line x1="12.6976525507988" y1="12.4386538642018" x2="12.7007340683209" y2="12.4311338212452"/>
    <line x1="12.7007340683209" y1="12.4311338212452" x2="12.7265890172629" y2="12.3955475369667"/>
    <line x1="12.7265890172629" y1="12.3955475369667" x2="12.7327887618368" y2="12.3902930185752"/>
    <line x1="12.7327887618368" y1="12.3902930185752" x2="12.7407851573304" y2="12.3888423444505"/>
    <line x1="12.7407851573304" y1="12.3888423444505" x2="12.7484355760291" y2="12.3915842215526"/>
    <line x1="12.7484355760291" y1="12.3915842215526" x2="12.7972134890049" y2="12.4063940322292"/>
    <line x1="12.7972134890049" y1="12.4063940322292" x2="12.867396148349" y2="12.4187126147983"/>
    <line x1="12.867396148349" y1="12.4187126147983" x2="12.9588059024062" y2="12.4234904581823"/>
    <line x1="12.9588059024062" y1="12.4234904581823" x2="12.9655823309772" y2="12.4234182140105"/>
    <line x1="12.9655823309772" y1="12.4234182140105" x2="12.9930311997171" y2="12.3758753787428"/>
    <line x1="12.9930311997171" y1="12.3758753787428" x2="12.9897055507197" y2="12.3699706973674"/>
    <line x1="12.9897055507197" y1="12.3699706973674" x2="12.9398629399452" y2="12.2931964498922"/>
    <line x1="12.9398629399452" y1="12.2931964498922" x2="12.8941034048297" y2="12.2385757752796"/>
    <line x1="12.8941034048297" y1="12.2385757752796" x2="12.8568887760706" y2="12.2037377688372"/>
    <line x1="12.8568887760706" y1="12.2037377688372" x2="12.8506890314968" y2="12.1984832504457"/>
    <line x1="12.8506890314968" y1="12.1984832504457" x2="12.8479471543946" y2="12.1908328317471"/>
    <line x1="12.8479471543946" y1="12.1908328317471" x2="12.8493978285194" y2="12.1828364362534"/>
    <line x1="12.8493978285194" y1="12.1828364362534" x2="12.8672889802598" y2="12.1426522515169"/>
    <line x1="12.8672889802598" y1="12.1426522515169" x2="12.8722607697367" y2="12.1362235575822"/>
    <line x1="12.8722607697367" y1="12.1362235575822" x2="12.8797808126932" y2="12.1331420400601"/>
    <line x1="12.8797808126932" y1="12.1331420400601" x2="12.8878341196922" y2="12.134233389082"/>
    <line x1="12.8878341196922" y1="12.134233389082" x2="12.9386252510168" y2="12.1385780715013"/>
    <line x1="12.9386252510168" y1="12.1385780715013" x2="13.0098354281978" y2="12.1360356681154"/>
    <line x1="13.0098354281978" y1="12.1360356681154" x2="13.1002410293089" y2="12.1217039476348"/>
    <line x1="13.1002410293089" y1="12.1217039476348" x2="13.1068543562493" y2="12.1202243834496"/>
    <line x1="13.1068543562493" y1="12.1202243834496" x2="13.1238186900832" y2="12.0680135324897"/>
    <line x1="13.1238186900832" y1="12.0680135324897" x2="13.1193380622071" y2="12.0629293238754"/>
    <line x1="13.1193380622071" y1="12.0629293238754" x2="13.0546223684599" y2="11.9981956393902"/>
    <line x1="13.0546223684599" y1="11.9981956393902" x2="12.9985065121636" y2="11.9542824998843"/>
    <line x1="12.9985065121636" y1="11.9542824998843" x2="12.9548618835066" y2="11.9279431438569"/>
    <line x1="12.9548618835066" y1="11.9279431438569" x2="12.9477051424233" y2="11.9240924486762"/>
    <line x1="12.9477051424233" y1="11.9240924486762" x2="12.9434325704272" y2="11.9171792782858"/>
    <line x1="12.9434325704272" y1="11.9171792782858" x2="12.9431889997343" y2="11.9090560111091"/>
    <line x1="12.9431889997343" y1="11.9090560111091" x2="12.9523344250908" y2="11.8660301676125"/>
    <line x1="12.9523344250908" y1="11.8660301676125" x2="12.9558609684133" y2="11.858708262908"/>
    <line x1="12.9558609684133" y1="11.858708262908" x2="12.9625759968703" y2="11.854130579091"/>
    <line x1="12.9625759968703" y1="11.854130579091" x2="12.9706802240098" y2="11.8535237028435"/>
    <line x1="12.9706802240098" y1="11.8535237028435" x2="13.0212647575213" y2="11.8472133735356"/>
    <line x1="13.0212647575213" y1="11.8472133735356" x2="13.090390226092" y2="11.8299210994225"/>
    <line x1="13.090390226092" y1="11.8299210994225" x2="13.1758405156744" y2="11.7971061800336"/>
    <line x1="13.1758405156744" y1="11.7971061800336" x2="13.1820017068625" y2="11.7942839598895"/>
    <line x1="13.1820017068625" y1="11.7942839598895" x2="13.1877400829982" y2="11.7396869579598"/>
    <line x1="13.1877400829982" y1="11.7396869579598" x2="13.1823003011818" y2="11.7356454264198"/>
    <line x1="13.1823003011818" y1="11.7356454264198" x2="13.105539910819" y2="11.6857814775634"/>
    <line x1="13.105539910819" y1="11.6857814775634" x2="13.0415202655359" y2="11.6544950880793"/>
    <line x1="13.0415202655359" y1="11.6544950880793" x2="12.9933531166834" y2="11.6378055387153"/>
    <line x1="12.9933531166834" y1="11.6378055387153" x2="12.9855521630179" y2="11.6355269606026"/>
    <line x1="12.9855521630179" y1="11.6355269606026" x2="12.9799356280262" y2="11.6296531772396"/>
    <line x1="12.9799356280262" y1="11.6296531772396" x2="12.9780084577236" y2="11.6217580641352"/>
    <line x1="12.9780084577236" y1="11.6217580641352" x2="12.9780084577236" y2="11.5777709977003"/>
    <line x1="12.9780084577236" y1="11.5777709977003" x2="12.9799356280262" y2="11.5698758845959"/>
    <line x1="12.9799356280262" y1="11.5698758845959" x2="12.9855521630179" y2="11.5640021012329"/>
    <line x1="12.9855521630179" y1="11.5640021012329" x2="12.9933531166834" y2="11.5617235231202"/>
    <line x1="12.9933531166834" y1="11.5617235231202" x2="13.0415202655359" y2="11.5450339737562"/>
    <line x1="13.0415202655359" y1="11.5450339737562" x2="13.105539910819" y2="11.5137475842721"/>
    <line x1="13.105539910819" y1="11.5137475842721" x2="13.1823003011818" y2="11.4638836354157"/>
    <line x1="13.1823003011818" y1="11.4638836354157" x2="13.1877400829981" y2="11.4598421038757"/>
    <line x1="13.1877400829981" y1="11.4598421038757" x2="13.1820017068625" y2="11.405245101946"/>
    <line x1="13.1820017068625" y1="11.405245101946" x2="13.1758405156744" y2="11.4024228818019"/>
    <line x1="13.1758405156744" y1="11.4024228818019" x2="13.090390226092" y2="11.3696079624131"/>
    <line x1="13.090390226092" y1="11.3696079624131" x2="13.0212647575213" y2="11.3523156882999"/>
    <line x1="13.0212647575213" y1="11.3523156882999" x2="12.9706802240098" y2="11.346005358992"/>
    <line x1="12.9706802240098" y1="11.346005358992" x2="12.9625759968703" y2="11.3453984827445"/>
    <line x1="12.9625759968703" y1="11.3453984827445" x2="12.9558609684133" y2="11.3408207989275"/>
    <line x1="12.9558609684133" y1="11.3408207989275" x2="12.9523344250908" y2="11.333498894223"/>
    <line x1="12.9523344250908" y1="11.333498894223" x2="12.9431889997343" y2="11.2904730507264"/>
    <line x1="12.9431889997343" y1="11.2904730507264" x2="12.9434325704272" y2="11.2823497835497"/>
    <line x1="12.9434325704272" y1="11.2823497835497" x2="12.9477051424233" y2="11.2754366131593"/>
    <line x1="12.9477051424233" y1="11.2754366131593" x2="12.9548618835066" y2="11.2715859179787"/>
    <line x1="12.9548618835066" y1="11.2715859179787" x2="12.9985065121636" y2="11.2452465619512"/>
    <line x1="12.9985065121636" y1="11.2452465619512" x2="13.0546223684599" y2="11.2013334224453"/>
    <line x1="13.0546223684599" y1="11.2013334224453" x2="13.1193380622071" y2="11.1365997379601"/>
    <line x1="13.1193380622071" y1="11.1365997379601" x2="13.1238186900832" y2="11.1315155293459"/>
    <line x1="13.1238186900832" y1="11.1315155293459" x2="13.1068543562493" y2="11.0793046783859"/>
    <line x1="13.1068543562493" y1="11.0793046783859" x2="13.1002410293089" y2="11.0778251142007"/>
    <line x1="13.1002410293089" y1="11.0778251142007" x2="13.0098354281977" y2="11.0634933937201"/>
    <line x1="13.0098354281977" y1="11.0634933937201" x2="12.9386252510168" y2="11.0609509903343"/>
    <line x1="12.9386252510168" y1="11.0609509903343" x2="12.8878341196922" y2="11.0652956727535"/>
    <line x1="12.8878341196922" y1="11.0652956727535" x2="12.8797808126932" y2="11.0663870217754"/>
    <line x1="12.8797808126932" y1="11.0663870217754" x2="12.8722607697367" y2="11.0633055042533"/>
    <line x1="12.8722607697367" y1="11.0633055042533" x2="12.8672889802598" y2="11.0568768103186"/>
    <line x1="12.8672889802598" y1="11.0568768103186" x2="12.8493978285194" y2="11.0166926255821"/>
    <line x1="12.8493978285194" y1="11.0166926255821" x2="12.8479471543946" y2="11.0086962300884"/>
    <line x1="12.8479471543946" y1="11.0086962300884" x2="12.8506890314968" y2="11.0010458113898"/>
    <line x1="12.8506890314968" y1="11.0010458113898" x2="12.8568887760706" y2="10.9957912929983"/>
    <line x1="12.8568887760706" y1="10.9957912929983" x2="12.8941034048297" y2="10.9609532865559"/>
    <line x1="12.8941034048297" y1="10.9609532865559" x2="12.9398629399452" y2="10.9063326119433"/>
    <line x1="12.9398629399452" y1="10.9063326119433" x2="12.9897055507197" y2="10.8295583644681"/>
    <line x1="12.9897055507197" y1="10.8295583644681" x2="12.9930311997171" y2="10.8236536830927"/>
    <line x1="12.9930311997171" y1="10.8236536830927" x2="12.9655823309772" y2="10.776110847825"/>
    <line x1="12.9655823309772" y1="10.776110847825" x2="12.9588059024062" y2="10.7760386036532"/>
    <line x1="12.9588059024062" y1="10.7760386036532" x2="12.867396148349" y2="10.7808164470372"/>
    <line x1="12.867396148349" y1="10.7808164470372" x2="12.7972134890049" y2="10.7931350296063"/>
    <line x1="12.7972134890049" y1="10.7931350296063" x2="12.7484355760291" y2="10.8079448402829"/>
    <line x1="12.7484355760291" y1="10.8079448402829" x2="12.7407851573304" y2="10.8106867173851"/>
    <line x1="12.7407851573304" y1="10.8106867173851" x2="12.7327887618368" y2="10.8092360432603"/>
    <line x1="12.7327887618368" y1="10.8092360432603" x2="12.7265890172629" y2="10.8039815248688"/>
    <line x1="12.7265890172629" y1="10.8039815248688" x2="12.7007340683209" y2="10.7683952405903"/>
    <line x1="12.7007340683209" y1="10.7683952405903" x2="12.6976525507988" y2="10.7608751976337"/>
    <line x1="12.6976525507988" y1="10.7608751976337" x2="12.6987438998207" y2="10.7528218906348"/>
    <line x1="12.6987438998207" y1="10.7528218906348" x2="12.7037156892975" y2="10.7463931967001"/>
    <line x1="12.7037156892975" y1="10.7463931967001" x2="12.7328738603063" y2="10.7045791278957"/>
    <line x1="12.7328738603063" y1="10.7045791278957" x2="12.7662771629779" y2="10.6416381037561"/>
    <line x1="12.7662771629779" y1="10.6416381037561" x2="12.7990683295174" y2="10.5561786963091"/>
    <line x1="12.7990683295174" y1="10.5561786963091" x2="12.8010936528166" y2="10.5497116050826"/>
    <line x1="12.8010936528166" y1="10.5497116050826" x2="12.7643598964491" y2="10.5089146355441"/>
    <line x1="12.7643598964491" y1="10.5089146355441" x2="12.7577165286929" y2="10.5102528688027"/>
    <line x1="12.7577165286929" y1="10.5102528688027" x2="12.6692976665746" y2="10.5339314613687"/>
    <line x1="12.6692976665746" y1="10.5339314613687" x2="12.6032098440545" y2="10.5605726487235"/>
    <line x1="12.6032098440545" y1="10.5605726487235" x2="12.5585769782868" y2="10.5852003278654"/>
    <line x1="12.5585769782868" y1="10.5852003278654" x2="12.5516638078965" y2="10.5894728998615"/>
    <line x1="12.5516638078965" y1="10.5894728998615" x2="12.5435405407197" y2="10.5897164705545"/>
    <line x1="12.5435405407197" y1="10.5897164705545" x2="12.5363837996364" y2="10.5858657753738"/>
    <line x1="12.5363837996364" y1="10.5858657753738" x2="12.5036950388275" y2="10.5564326829383"/>
    <line x1="12.5036950388275" y1="10.5564326829383" x2="12.4991173550105" y2="10.5497176544813"/>
    <line x1="12.4991173550105" y1="10.5497176544813" x2="12.498510478763" y2="10.5416134273418"/>
    <line x1="12.498510478763" y1="10.5416134273418" x2="12.5020370220854" y2="10.5342915226372"/>
    <line x1="12.5020370220854" y1="10.5342915226372" x2="12.5218643833543" y2="10.4873288669237"/>
    <line x1="12.5218643833543" y1="10.4873288669237" x2="12.5414515689685" y2="10.4188183180364"/>
    <line x1="12.5414515689685" y1="10.4188183180364" x2="12.5557581599458" y2="10.3284087368029"/>
    <line x1="12.5557581599458" y1="10.3284087368029" x2="12.5563946412" y2="10.3216618786444"/>
    <line x1="12.5563946412" y1="10.3216618786444" x2="12.5119814386262" y2="10.2893937981696"/>
    <line x1="12.5119814386262" y1="10.2893937981696" x2="12.5057614787342" y2="10.2920840216436"/>
    <line x1="12.5057614787342" y1="10.2920840216436" x2="12.4241978371101" y2="10.333628495274"/>
    <line x1="12.4241978371101" y1="10.333628495274" x2="12.3650932063826" y2="10.3734279396884"/>
    <line x1="12.3650932063826" y1="10.3734279396884" x2="12.3265560582295" y2="10.4067971395406"/>
    <line x1="12.3265560582295" y1="10.4067971395406" x2="12.3206822748666" y2="10.4124136745323"/>
    <line x1="12.3206822748666" y1="10.4124136745323" x2="12.3127871617621" y2="10.4143408448349"/>
    <line x1="12.3127871617621" y1="10.4143408448349" x2="12.3049862080966" y2="10.4120622667221"/>
    <line x1="12.3049862080966" y1="10.4120622667221" x2="12.2668922911261" y2="10.3900687335047"/>
    <line x1="12.2668922911261" y1="10.3900687335047" x2="12.2610185077631" y2="10.384452198513"/>
    <line x1="12.2610185077631" y1="10.384452198513" x2="12.2587399296504" y2="10.3766512448475"/>
    <line x1="12.2587399296504" y1="10.3766512448475" x2="12.260667099953" y2="10.368756131743"/>
    <line x1="12.260667099953" y1="10.368756131743" x2="12.2702971006523" y2="10.3186973825269"/>
    <line x1="12.2702971006523" y1="10.3186973825269" x2="12.275212115208" y2="10.2476115486284"/>
    <line x1="12.275212115208" y1="10.2476115486284" x2="12.2704088639467" y2="10.1562031261416"/>
    <line x1="12.2704088639467" y1="10.1562031261416" x2="12.269628685871" y2="10.1494713711276"/>
    <line x1="12.269628685871" y1="10.1494713711276" x2="12.2194771071616" y2="10.1271424496726"/>
    <line x1="12.2194771071616" y1="10.1271424496726" x2="12.2139523972277" y2="10.1310670876871"/>
    <line x1="12.2139523972277" y1="10.1310670876871" x2="12.1428086986226" y2="10.1886617495317"/>
    <line x1="12.1428086986226" y1="10.1886617495317" x2="12.0932704156661" y2="10.2398800243059"/>
    <line x1="12.0932704156661" y1="10.2398800243059" x2="12.0625132434235" y2="10.2805323507115"/>
    <line x1="12.0625132434235" y1="10.2805323507115" x2="12.0579355596064" y2="10.2872473791686"/>
    <line x1="12.0579355596064" y1="10.2872473791686" x2="12.0506136549019" y2="10.290773922491"/>
    <line x1="12.0506136549019" y1="10.290773922491" x2="12.0425094277624" y2="10.2901670462435"/>
    <line x1="12.0425094277624" y1="10.2901670462435" x2="12.0006752415969" y2="10.2765742951825"/>
    <line x1="12.0006752415969" y1="10.2765742951825" x2="11.9937620712066" y2="10.2723017231864"/>
    <line x1="11.9937620712066" y1="10.2723017231864" x2="11.9899113760259" y2="10.2651449821031"/>
    <line x1="11.9899113760259" y1="10.2651449821031" x2="11.9901549467188" y2="10.2570217149263"/>
    <line x1="11.9901549467188" y1="10.2570217149263" x2="11.9891667096082" y2="10.2060546797569"/>
    <line x1="11.9891667096082" y1="10.2060546797569" x2="11.9791947433843" y2="10.1355003528963"/>
    <line x1="11.9791947433843" y1="10.1355003528963" x2="11.9554915750132" y2="10.047088075845"/>
    <line x1="11.9554915750132" y1="10.047088075845" x2="11.9533288351332" y2="10.0406656339722"/>
    <line x1="11.9533288351332" y1="10.0406656339722" x2="11.8996307449317" y2="10.0292517525508"/>
    <line x1="11.8996307449317" y1="10.0292517525508" x2="11.8950427412906" y2="10.034239279592"/>
    <line x1="11.8950427412906" y1="10.034239279592" x2="11.8374283067189" y2="10.1053669665584"/>
    <line x1="11.8374283067189" y1="10.1053669665584" x2="11.7996214322096" y2="10.1657655873122"/>
    <line x1="11.7996214322096" y1="10.1657655873122" x2="11.7779884718937" y2="10.2119243385359"/>
    <line x1="11.7779884718937" y1="10.2119243385359" x2="11.7749069543716" y2="10.2194443814924"/>
    <line x1="11.7749069543716" y1="10.2194443814924" x2="11.768478260437" y2="10.2244161709693"/>
    <line x1="11.768478260437" y1="10.2244161709693" x2="11.760424953438" y2="10.2255075199912"/>
    <line x1="11.760424953438" y1="10.2255075199912" x2="11.7166788527555" y2="10.2209096195331"/>
    <line x1="11.7166788527555" y1="10.2209096195331" x2="11.7090284340569" y2="10.2181677424309"/>
    <line x1="11.7090284340569" y1="10.2181677424309" x2="11.7037739156654" y2="10.2119679978571"/>
    <line x1="11.7037739156654" y1="10.2119679978571" x2="11.7023232415406" y2="10.2039716023634"/>
    <line x1="11.7023232415406" y1="10.2039716023634" x2="11.6907599573239" y2="10.1543237852445"/>
    <line x1="11.6907599573239" y1="10.1543237852445" x2="11.6663368330953" y2="10.0873845280627"/>
    <line x1="11.6663368330953" y1="10.0873845280627" x2="11.6247696898125" y2="10.0058324372035"/>
    <line x1="11.6247696898125" y1="10.0058324372035" x2="11.6213189102389" y2="10.0"/>
    <line x1="11.6213189102389" y1="10.0" x2="11.5664211727592" y2="10.0"/>
    <line x1="11.5664211727592" y1="10.0" x2="11.5629703931856" y2="10.0058324372035"/>
    <line x1="11.5629703931856" y1="10.0058324372035" x2="11.5214032499029" y2="10.0873845280627"/>
    <line x1="11.5214032499029" y1="10.0873845280627" x2="11.4969801256743" y2="10.1543237852445"/>
    <line x1="11.4969801256743" y1="10.1543237852445" x2="11.4854168414575" y2="10.2039716023634"/>
    <line x1="11.4854168414575" y1="10.2039716023634" x2="11.4839661673328" y2="10.2119679978571"/>
    <line x1="11.4839661673328" y1="10.2119679978571" x2="11.4787116489412" y2="10.2181677424309"/>
    <line x1="11.4787116489412" y1="10.2181677424309" x2="11.4710612302426" y2="10.2209096195331"/>
    <line x1="11.4710612302426" y1="10.2209096195331" x2="11.4273151295602" y2="10.2255075199912"/>
    <line x1="11.4273151295602" y1="10.2255075199912" x2="11.4192618225612" y2="10.2244161709693"/>
    <line x1="11.4192618225612" y1="10.2244161709693" x2="11.4128331286265" y2="10.2194443814924"/>
    <line x1="11.4128331286265" y1="10.2194443814924" x2="11.4097516111044" y2="10.2119243385359"/>
    <line x1="11.4097516111044" y1="10.2119243385359" x2="11.3881186507886" y2="10.1657655873122"/>
    <line x1="11.3881186507886" y1="10.1657655873122" x2="11.3503117762792" y2="10.1053669665584"/>
    <line x1="11.3503117762792" y1="10.1053669665584" x2="11.2926973417076" y2="10.034239279592"/>
    <line x1="11.5938700414991" y1="11.4747645310453" x2="11.6101858155099" y2="11.4758339233724"/>
    <line x1="11.6101858155099" y1="11.4758339233724" x2="11.6262224221039" y2="11.4790238027548"/>
    <line x1="11.6262224221039" y1="11.4790238027548" x2="11.6417054704959" y2="11.4842795894716"/>
    <line x1="11.6417054704959" y1="11.4842795894716" x2="11.6563700414353" y2="11.4915113555551"/>
    <line x1="11.6563700414353" y1="11.4915113555551" x2="11.6699652200475" y2="11.5005953634825"/>
    <line x1="11.6699652200475" y1="11.5005953634825" x2="11.6822583890572" y2="11.5113761833596"/>
    <line x1="11.6822583890572" y1="11.5113761833596" x2="11.6930392089343" y2="11.5236693523693"/>
    <line x1="11.6930392089343" y1="11.5236693523693" x2="11.7021232168617" y2="11.5372645309815"/>
    <line x1="11.7021232168617" y1="11.5372645309815" x2="11.7093549829452" y2="11.5519291019209"/>
    <line x1="11.7093549829452" y1="11.5519291019209" x2="11.7146107696621" y2="11.5674121503129"/>
    <line x1="11.7146107696621" y1="11.5674121503129" x2="11.7178006490444" y2="11.5834487569069"/>
    <line x1="11.7178006490444" y1="11.5834487569069" x2="11.7188700413716" y2="11.5997645309178"/>
    <line x1="11.7188700413716" y1="11.5997645309178" x2="11.7178006490444" y2="11.6160803049286"/>
    <line x1="11.7178006490444" y1="11.6160803049286" x2="11.7146107696621" y2="11.6321169115226"/>
    <line x1="11.7146107696621" y1="11.6321169115226" x2="11.7093549829452" y2="11.6475999599146"/>
    <line x1="11.7093549829452" y1="11.6475999599146" x2="11.7021232168617" y2="11.662264530854"/>
    <line x1="11.7021232168617" y1="11.662264530854" x2="11.6930392089343" y2="11.6758597094662"/>
    <line x1="11.6930392089343" y1="11.6758597094662" x2="11.6822583890572" y2="11.6881528784759"/>
    <line x1="11.6822583890572" y1="11.6881528784759" x2="11.6699652200475" y2="11.698933698353"/>
    <line x1="11.6699652200475" y1="11.698933698353" x2="11.6563700414353" y2="11.7080177062804"/>
    <line x1="11.6563700414353" y1="11.7080177062804" x2="11.6417054704959" y2="11.7152494723639"/>
    <line x1="11.6417054704959" y1="11.7152494723639" x2="11.6262224221039" y2="11.7205052590807"/>
    <line x1="11.6262224221039" y1="11.7205052590807" x2="11.6101858155099" y2="11.7236951384631"/>
    <line x1="11.6101858155099" y1="11.7236951384631" x2="11.5938700414991" y2="11.7247645307903"/>
    <line x1="11.5938700414991" y1="11.7247645307903" x2="11.5775542674882" y2="11.7236951384631"/>
    <line x1="11.5775542674882" y1="11.7236951384631" x2="11.5615176608943" y2="11.7205052590807"/>
    <line x1="11.5615176608943" y1="11.7205052590807" x2="11.5460346125022" y2="11.7152494723639"/>
    <line x1="11.5460346125022" y1="11.7152494723639" x2="11.5313700415628" y2="11.7080177062804"/>
    <line x1="11.5313700415628" y1="11.7080177062804" x2="11.5177748629506" y2="11.698933698353"/>
    <line x1="11.5177748629506" y1="11.698933698353" x2="11.5054816939409" y2="11.6881528784759"/>
    <line x1="11.5054816939409" y1="11.6881528784759" x2="11.4947008740638" y2="11.6758597094662"/>
    <line x1="11.4947008740638" y1="11.6758597094662" x2="11.4856168661364" y2="11.662264530854"/>
    <line x1="11.4856168661364" y1="11.662264530854" x2="11.478385100053" y2="11.6475999599146"/>
    <line x1="11.478385100053" y1="11.6475999599146" x2="11.4731293133361" y2="11.6321169115226"/>
    <line x1="11.4731293133361" y1="11.6321169115226" x2="11.4699394339538" y2="11.6160803049286"/>
    <line x1="11.4699394339538" y1="11.6160803049286" x2="11.4688700416266" y2="11.5997645309178"/>
    <line x1="11.4688700416266" y1="11.5997645309178" x2="11.4699394339538" y2="11.5834487569069"/>
    <line x1="11.4699394339538" y1="11.5834487569069" x2="11.4731293133361" y2="11.5674121503129"/>
    <line x1="11.4731293133361" y1="11.5674121503129" x2="11.478385100053" y2="11.5519291019209"/>
    <line x1="11.478385100053" y1="11.5519291019209" x2="11.4856168661364" y2="11.5372645309815"/>
    <line x1="11.4856168661364" y1="11.5372645309815" x2="11.4947008740638" y2="11.5236693523693"/>
    <line x1="11.4947008740638" y1="11.5236693523693" x2="11.5054816939409" y2="11.5113761833596"/>
    <line x1="11.5054816939409" y1="11.5113761833596" x2="11.5177748629506" y2="11.5005953634825"/>
    <line x1="11.5177748629506" y1="11.5005953634825" x2="11.5313700415628" y2="11.4915113555551"/>
    <line x1="11.5313700415628" y1="11.4915113555551" x2="11.5460346125022" y2="11.4842795894716"/>
    <line x1="11.5460346125022" y1="11.4842795894716" x2="11.5615176608943" y2="11.4790238027548"/>
    <line x1="11.5615176608943" y1="11.4790238027548" x2="11.5775542674882" y2="11.4758339233724"/>
    <line x1="11.5775542674882" y1="11.4758339233724" x2="11.5938700414991" y2="11.4747645310453"/>
  </g>
</svg>
