<?xml version="1.0" standalone="no"?>
<!DOCTYPE svg PUBLIC "-//W3C//DTD SVG 1.1//EN" "http://www.w3.org/Graphics/SVG/1.1/DTD/svg11.dtd">
<svg width="24.1996138057909in" height="24.1996138057909in"
 viewBox="0 0 24.1996138057909 24.1996138057909"
 xmlns="http://www.w3.org/2000/svg" version="1.1"
 xmlns:xlink="http://www.w3.org/1999/xlink">
<desc>Output from Flights of Ideas SVG Sketchup Plugin</desc>

  <g id="face0" fill="none" stroke="rgb(0,0,255)" stroke-width="1" stroke-miterlimit="4" stroke-dasharray="none" stroke-linejoin="round" stroke-linecap="round">
    <line x1="11.8162378510794" y1="10.0430383648809" x2="11.7994515162173" y2="10.0213972626424"/>
    <line x1="11.7994515162173" y1="10.0213972626424" x2="11.7431979504892" y2="10.0303069521665"/>
    <line x1="11.7431979504892" y1="10.0303069521665" x2="11.7339206657026" y2="10.0560761262159"/>
    <line x1="11.7339206657026" y1="10.0560761262159" x2="11.7041637211577" y2="10.1620816247992"/>
    <line x1="11.7041637211577" y1="10.1620816247992" x2="11.6915611291404" y2="10.2441842632279"/>
    <line x1="11.6915611291404" y1="10.2441842632279" x2="11.6912728912368" y2="10.2523060681516"/>
    <line x1="11.6912728912368" y1="10.2523060681516" x2="11.6869623674282" y2="10.2591956385884"/>
    <line x1="11.6869623674282" y1="10.2591956385884" x2="11.6797845590879" y2="10.2630069197034"/>
    <line x1="11.6797845590879" y1="10.2630069197034" x2="11.6401598092419" y2="10.2725199804753"/>
    <line x1="11.6401598092419" y1="10.2725199804753" x2="11.6320340497633" y2="10.2723827609317"/>
    <line x1="11.6320340497633" y1="10.2723827609317" x2="11.6250655454016" y2="10.2682010455818"/>
    <line x1="11.6250655454016" y1="10.2682010455818" x2="11.6211215012729" y2="10.2610953216764"/>
    <line x1="11.6211215012729" y1="10.2610953216764" x2="11.5726186917136" y2="10.1936627922313"/>
    <line x1="11.5726186917136" y1="10.1936627922313" x2="11.4979795707072" y2="10.1127205715184"/>
    <line x1="11.4979795707072" y1="10.1127205715184" x2="11.478014489231" y2="10.0939718684739"/>
    <line x1="11.478014489231" y1="10.0939718684739" x2="11.4238472807589" y2="10.1115718613965"/>
    <line x1="11.4238472807589" y1="10.1115718613965" x2="11.4187154016997" y2="10.1384750612345"/>
    <line x1="11.4187154016997" y1="10.1384750612345" x2="11.4059077279832" y2="10.2478304679253"/>
    <line x1="11.4059077279832" y1="10.2478304679253" x2="11.4063039771074" y2="10.3308937663738"/>
    <line x1="11.4063039771074" y1="10.3308937663738" x2="11.4072898180992" y2="10.3389606687438"/>
    <line x1="11.4072898180992" y1="10.3389606687438" x2="11.4041101302571" y2="10.3464397316219"/>
    <line x1="11.4041101302571" y1="10.3464397316219" x2="11.3976169083708" y2="10.3513269461498"/>
    <line x1="11.3976169083708" y1="10.3513269461498" x2="11.3599681755216" y2="10.3669215619021"/>
    <line x1="11.3599681755216" y1="10.3669215619021" x2="11.3519209917602" y2="10.3680571805959"/>
    <line x1="11.3519209917602" y1="10.3680571805959" x2="11.344384116847" y2="10.365017063353"/>
    <line x1="11.344384116847" y1="10.365017063353" x2="11.3393770503285" y2="10.3586158071336"/>
    <line x1="11.3393770503285" y1="10.3586158071336" x2="11.2809226191706" y2="10.2996009950901"/>
    <line x1="11.2809226191706" y1="10.2996009950901" x2="11.1945402766039" y2="10.2313314383958"/>
    <line x1="11.1945402766039" y1="10.2313314383958" x2="11.1718880550799" y2="10.2159367898377"/>
    <line x1="11.1718880550799" y1="10.2159367898377" x2="11.1211409803069" y2="10.2417937159219"/>
    <line x1="11.1211409803069" y1="10.2417937159219" x2="11.1202808708694" y2="10.2691684954819"/>
    <line x1="11.1202808708694" y1="10.2691684954819" x2="11.1247378354143" y2="10.3791811172377"/>
    <line x1="11.1247378354143" y1="10.3791811172377" x2="11.1381231687116" y2="10.4611597816269"/>
    <line x1="11.1381231687116" y1="10.4611597816269" x2="11.1403588139216" y2="10.4689731475343"/>
    <line x1="11.1403588139216" y1="10.4689731475343" x2="11.1383882565136" y2="10.4768575435042"/>
    <line x1="11.1383882565136" y1="10.4768575435042" x2="11.1327395057538" y2="10.4827003520036"/>
    <line x1="11.1327395057538" y1="10.4827003520036" x2="11.0979938266532" y2="10.5039925315409"/>
    <line x1="11.0979938266532" y1="10.5039925315409" x2="11.0902233669803" y2="10.5063730257709"/>
    <line x1="11.0902233669803" y1="10.5063730257709" x2="11.0823037043895" y2="10.5045493644111"/>
    <line x1="11.0823037043895" y1="10.5045493644111" x2="11.0763569060762" y2="10.4990101960503"/>
    <line x1="11.0763569060762" y1="10.4990101960503" x2="11.009390195414" y2="10.44986624194"/>
    <line x1="11.009390195414" y1="10.44986624194" x2="10.9133916512476" y2="10.3959503723238"/>
    <line x1="10.9133916512476" y1="10.3959503723238" x2="10.8886100625481" y2="10.3842888455915"/>
    <line x1="10.8886100625481" y1="10.3842888455915" x2="10.8425326828751" y2="10.417766021503"/>
    <line x1="10.8425326828751" y1="10.417766021503" x2="10.845965521808" y2="10.4449383228605"/>
    <line x1="10.845965521808" y1="10.4449383228605" x2="10.8675773793556" y2="10.5528992838227"/>
    <line x1="10.8675773793556" y1="10.5528992838227" x2="10.8936222054967" y2="10.6317747273637"/>
    <line x1="10.8936222054967" y1="10.6317747273637" x2="10.8970526059202" y2="10.6391421658088"/>
    <line x1="10.8970526059202" y1="10.6391421658088" x2="10.8963397006096" y2="10.6472377548748"/>
    <line x1="10.8963397006096" y1="10.6472377548748" x2="10.8916745119671" y2="10.6538922880092"/>
    <line x1="10.8916745119671" y1="10.6538922880092" x2="10.8606874405489" y2="10.6803577472066"/>
    <line x1="10.8606874405489" y1="10.6803577472066" x2="10.8533850394703" y2="10.6839245013045"/>
    <line x1="10.8533850394703" y1="10.6839245013045" x2="10.8452775975786" y2="10.683362200423"/>
    <line x1="10.8452775975786" y1="10.683362200423" x2="10.8385374973815" y2="10.6788215126292"/>
    <line x1="10.8385374973815" y1="10.6788215126292" x2="10.7647074498812" y2="10.6407585037017"/>
    <line x1="10.7647074498812" y1="10.6407585037017" x2="10.6614565068734" y2="10.60252390881"/>
    <line x1="10.6614565068734" y1="10.60252390881" x2="10.6351557559575" y2="10.5948826493941"/>
    <line x1="10.6351557559575" y1="10.5948826493941" x2="10.594882649394" y2="10.6351557559575"/>
    <line x1="10.594882649394" y1="10.6351557559575" x2="10.60252390881" y2="10.6614565068734"/>
    <line x1="10.60252390881" y1="10.6614565068734" x2="10.6407585037017" y2="10.7647074498812"/>
    <line x1="10.6407585037017" y1="10.7647074498812" x2="10.6788215126292" y2="10.8385374973815"/>
    <line x1="10.6788215126292" y1="10.8385374973815" x2="10.683362200423" y2="10.8452775975786"/>
    <line x1="10.683362200423" y1="10.8452775975786" x2="10.6839245013045" y2="10.8533850394703"/>
    <line x1="10.6839245013045" y1="10.8533850394703" x2="10.6803577472066" y2="10.8606874405489"/>
    <line x1="10.6803577472066" y1="10.8606874405489" x2="10.6538922880092" y2="10.8916745119671"/>
    <line x1="10.6538922880092" y1="10.8916745119671" x2="10.6472377548748" y2="10.8963397006096"/>
    <line x1="10.6472377548748" y1="10.8963397006096" x2="10.6391421658088" y2="10.8970526059202"/>
    <line x1="10.6391421658088" y1="10.8970526059202" x2="10.6317747273637" y2="10.8936222054967"/>
    <line x1="10.6317747273637" y1="10.8936222054967" x2="10.5528992838227" y2="10.8675773793556"/>
    <line x1="10.5528992838227" y1="10.8675773793556" x2="10.4449383228605" y2="10.845965521808"/>
    <line x1="10.4449383228605" y1="10.845965521808" x2="10.4177660215029" y2="10.8425326828751"/>
    <line x1="10.4177660215029" y1="10.8425326828751" x2="10.3842888455915" y2="10.8886100625481"/>
    <line x1="10.3842888455915" y1="10.8886100625481" x2="10.3959503723238" y2="10.9133916512476"/>
    <line x1="10.3959503723238" y1="10.9133916512476" x2="10.44986624194" y2="11.009390195414"/>
    <line x1="10.44986624194" y1="11.009390195414" x2="10.4990101960503" y2="11.0763569060762"/>
    <line x1="10.4990101960503" y1="11.0763569060762" x2="10.5045493644111" y2="11.0823037043895"/>
    <line x1="10.5045493644111" y1="11.0823037043895" x2="10.5063730257709" y2="11.0902233669803"/>
    <line x1="10.5063730257709" y1="11.0902233669803" x2="10.5039925315408" y2="11.0979938266532"/>
    <line x1="10.5039925315408" y1="11.0979938266532" x2="10.4827003520036" y2="11.1327395057538"/>
    <line x1="10.4827003520036" y1="11.1327395057538" x2="10.4768575435042" y2="11.1383882565136"/>
    <line x1="10.4768575435042" y1="11.1383882565136" x2="10.4689731475343" y2="11.1403588139216"/>
    <line x1="10.4689731475343" y1="11.1403588139216" x2="10.4611597816269" y2="11.1381231687116"/>
    <line x1="10.4611597816269" y1="11.1381231687116" x2="10.3791811172377" y2="11.1247378354143"/>
    <line x1="10.3791811172377" y1="11.1247378354143" x2="10.2691684954819" y2="11.1202808708694"/>
    <line x1="10.2691684954819" y1="11.1202808708694" x2="10.2417937159219" y2="11.1211409803069"/>
    <line x1="10.2417937159219" y1="11.1211409803069" x2="10.2159367898377" y2="11.1718880550799"/>
    <line x1="10.2159367898377" y1="11.1718880550799" x2="10.2313314383958" y2="11.1945402766039"/>
    <line x1="10.2313314383958" y1="11.1945402766039" x2="10.2996009950901" y2="11.2809226191706"/>
    <line x1="10.2996009950901" y1="11.2809226191706" x2="10.3586158071336" y2="11.3393770503285"/>
    <line x1="10.3586158071336" y1="11.3393770503285" x2="10.365017063353" y2="11.344384116847"/>
    <line x1="10.365017063353" y1="11.344384116847" x2="10.3680571805959" y2="11.3519209917602"/>
    <line x1="10.3680571805959" y1="11.3519209917602" x2="10.3669215619021" y2="11.3599681755216"/>
    <line x1="10.3669215619021" y1="11.3599681755216" x2="10.3513269461498" y2="11.3976169083708"/>
    <line x1="10.3513269461498" y1="11.3976169083708" x2="10.3464397316219" y2="11.4041101302571"/>
    <line x1="10.3464397316219" y1="11.4041101302571" x2="10.3389606687438" y2="11.4072898180992"/>
    <line x1="10.3389606687438" y1="11.4072898180992" x2="10.3308937663738" y2="11.4063039771074"/>
    <line x1="10.3308937663738" y1="11.4063039771074" x2="10.2478304679253" y2="11.4059077279832"/>
    <line x1="10.2478304679253" y1="11.4059077279832" x2="10.1384750612345" y2="11.4187154016997"/>
    <line x1="10.1384750612345" y1="11.4187154016997" x2="10.1115718613965" y2="11.4238472807589"/>
    <line x1="10.1115718613965" y1="11.4238472807589" x2="10.0939718684739" y2="11.478014489231"/>
    <line x1="10.0939718684739" y1="11.478014489231" x2="10.1127205715184" y2="11.4979795707072"/>
    <line x1="10.1127205715184" y1="11.4979795707072" x2="10.1936627922313" y2="11.5726186917136"/>
    <line x1="10.1936627922313" y1="11.5726186917136" x2="10.2610953216764" y2="11.6211215012729"/>
    <line x1="10.2610953216764" y1="11.6211215012729" x2="10.2682010455817" y2="11.6250655454016"/>
    <line x1="10.2682010455817" y1="11.6250655454016" x2="10.2723827609317" y2="11.6320340497633"/>
    <line x1="10.2723827609317" y1="11.6320340497633" x2="10.2725199804753" y2="11.6401598092419"/>
    <line x1="10.2725199804753" y1="11.6401598092419" x2="10.2630069197034" y2="11.6797845590879"/>
    <line x1="10.2630069197034" y1="11.6797845590879" x2="10.2591956385884" y2="11.6869623674282"/>
    <line x1="10.2591956385884" y1="11.6869623674282" x2="10.2523060681516" y2="11.6912728912368"/>
    <line x1="10.2523060681516" y1="11.6912728912368" x2="10.2441842632279" y2="11.6915611291404"/>
    <line x1="10.2441842632279" y1="11.6915611291404" x2="10.1620816247992" y2="11.7041637211577"/>
    <line x1="10.1620816247992" y1="11.7041637211577" x2="10.0560761262159" y2="11.7339206657026"/>
    <line x1="10.0560761262159" y1="11.7339206657026" x2="10.0303069521665" y2="11.7431979504892"/>
    <line x1="10.0303069521665" y1="11.7431979504892" x2="10.0213972626424" y2="11.7994515162173"/>
    <line x1="10.0213972626424" y1="11.7994515162173" x2="10.0430383648809" y2="11.8162378510794"/>
    <line x1="10.0430383648809" y1="11.8162378510794" x2="10.1346601835066" y2="11.8772958876533"/>
    <line x1="10.1346601835066" y1="11.8772958876533" x2="10.2088500176828" y2="11.914652775471"/>
    <line x1="10.2088500176828" y1="11.914652775471" x2="10.2164852427689" y2="11.9174366817539"/>
    <line x1="10.2164852427689" y1="11.9174366817539" x2="10.2217055885157" y2="11.9236652278596"/>
    <line x1="10.2217055885157" y1="11.9236652278596" x2="10.2231122674961" y2="11.9316694798892"/>
    <line x1="10.2231122674961" y1="11.9316694798892" x2="10.2199150048329" y2="11.9722945538839"/>
    <line x1="10.2199150048329" y1="11.9722945538839" x2="10.2172735035207" y2="11.9799802072149"/>
    <line x1="10.2172735035207" y1="11.9799802072149" x2="10.2111430696146" y2="11.9853154275882"/>
    <line x1="10.2111430696146" y1="11.9853154275882" x2="10.2031663479292" y2="11.9868706470133"/>
    <line x1="10.2031663479292" y1="11.9868706470133" x2="10.1240460089614" y2="12.012161762531"/>
    <line x1="10.1240460089614" y1="12.012161762531" x2="10.0240006256728" y2="12.058135263172"/>
    <line x1="10.0240006256728" y1="12.058135263172" x2="10.0" y2="12.071329516145"/>
    <line x1="10.0" y1="12.071329516145" x2="10.0" y2="12.1282842896459"/>
    <line x1="10.0" y1="12.1282842896459" x2="10.0240006256728" y2="12.141478542619"/>
    <line x1="10.0240006256728" y1="12.141478542619" x2="10.1240460089614" y2="12.1874520432599"/>
    <line x1="10.1240460089614" y1="12.1874520432599" x2="10.2031663479292" y2="12.2127431587777"/>
    <line x1="10.2031663479292" y1="12.2127431587777" x2="10.2111430696146" y2="12.2142983782027"/>
    <line x1="10.2111430696146" y1="12.2142983782027" x2="10.2172735035207" y2="12.219633598576"/>
    <line x1="10.2172735035207" y1="12.219633598576" x2="10.2199150048329" y2="12.2273192519071"/>
    <line x1="10.2199150048329" y1="12.2273192519071" x2="10.2231122674961" y2="12.2679443259017"/>
    <line x1="10.2231122674961" y1="12.2679443259017" x2="10.2217055885157" y2="12.2759485779313"/>
    <line x1="10.2217055885157" y1="12.2759485779313" x2="10.2164852427689" y2="12.2821771240371"/>
    <line x1="10.2164852427689" y1="12.2821771240371" x2="10.2088500176828" y2="12.2849610303199"/>
    <line x1="10.2088500176828" y1="12.2849610303199" x2="10.1346601835066" y2="12.3223179181377"/>
    <line x1="10.1346601835066" y1="12.3223179181377" x2="10.0430383648809" y2="12.3833759547116"/>
    <line x1="10.0430383648809" y1="12.3833759547116" x2="10.0213972626424" y2="12.4001622895737"/>
    <line x1="10.0213972626424" y1="12.4001622895737" x2="10.0303069521665" y2="12.4564158553017"/>
    <line x1="10.0303069521665" y1="12.4564158553017" x2="10.0560761262159" y2="12.4656931400884"/>
    <line x1="10.0560761262159" y1="12.4656931400884" x2="10.1620816247992" y2="12.4954500846333"/>
    <line x1="10.1620816247992" y1="12.4954500846333" x2="10.2441842632279" y2="12.5080526766506"/>
    <line x1="10.2441842632279" y1="12.5080526766506" x2="10.2523060681516" y2="12.5083409145541"/>
    <line x1="10.2523060681516" y1="12.5083409145541" x2="10.2591956385884" y2="12.5126514383627"/>
    <line x1="10.2591956385884" y1="12.5126514383627" x2="10.2630069197034" y2="12.519829246703"/>
    <line x1="10.2630069197034" y1="12.519829246703" x2="10.2725199804753" y2="12.559453996549"/>
    <line x1="10.2725199804753" y1="12.559453996549" x2="10.2723827609317" y2="12.5675797560276"/>
    <line x1="10.2723827609317" y1="12.5675797560276" x2="10.2682010455817" y2="12.5745482603894"/>
    <line x1="10.2682010455817" y1="12.5745482603894" x2="10.2610953216764" y2="12.578492304518"/>
    <line x1="10.2610953216764" y1="12.578492304518" x2="10.1936627922313" y2="12.6269951140773"/>
    <line x1="10.1936627922313" y1="12.6269951140773" x2="10.1127205715184" y2="12.7016342350837"/>
    <line x1="10.1127205715184" y1="12.7016342350837" x2="10.0939718684739" y2="12.7215993165599"/>
    <line x1="10.0939718684739" y1="12.7215993165599" x2="10.1115718613965" y2="12.7757665250321"/>
    <line x1="10.1115718613965" y1="12.7757665250321" x2="10.1384750612345" y2="12.7808984040912"/>
    <line x1="10.1384750612345" y1="12.7808984040912" x2="10.2478304679253" y2="12.7937060778078"/>
    <line x1="10.2478304679253" y1="12.7937060778078" x2="10.3308937663738" y2="12.7933098286835"/>
    <line x1="10.3308937663738" y1="12.7933098286835" x2="10.3389606687438" y2="12.7923239876918"/>
    <line x1="10.3389606687438" y1="12.7923239876918" x2="10.3464397316219" y2="12.7955036755338"/>
    <line x1="10.3464397316219" y1="12.7955036755338" x2="10.3513269461498" y2="12.8019968974202"/>
    <line x1="10.3513269461498" y1="12.8019968974202" x2="10.3669215619021" y2="12.8396456302693"/>
    <line x1="10.3669215619021" y1="12.8396456302693" x2="10.3680571805959" y2="12.8476928140307"/>
    <line x1="10.3680571805959" y1="12.8476928140307" x2="10.365017063353" y2="12.8552296889439"/>
    <line x1="10.365017063353" y1="12.8552296889439" x2="10.3586158071336" y2="12.8602367554625"/>
    <line x1="10.3586158071336" y1="12.8602367554625" x2="10.2996009950901" y2="12.9186911866203"/>
    <line x1="10.2996009950901" y1="12.9186911866203" x2="10.2313314383958" y2="13.005073529187"/>
    <line x1="10.2313314383958" y1="13.005073529187" x2="10.2159367898377" y2="13.0277257507111"/>
    <line x1="10.2159367898377" y1="13.0277257507111" x2="10.2417937159219" y2="13.078472825484"/>
    <line x1="10.2417937159219" y1="13.078472825484" x2="10.2691684954819" y2="13.0793329349216"/>
    <line x1="10.2691684954819" y1="13.0793329349216" x2="10.3791811172377" y2="13.0748759703766"/>
    <line x1="10.3791811172377" y1="13.0748759703766" x2="10.4611597816269" y2="13.0614906370794"/>
    <line x1="10.4611597816269" y1="13.0614906370794" x2="10.4689731475343" y2="13.0592549918694"/>
    <line x1="10.4689731475343" y1="13.0592549918694" x2="10.4768575435042" y2="13.0612255492773"/>
    <line x1="10.4768575435042" y1="13.0612255492773" x2="10.4827003520036" y2="13.0668743000372"/>
    <line x1="10.4827003520036" y1="13.0668743000372" x2="10.5039925315408" y2="13.1016199791377"/>
    <line x1="10.5039925315408" y1="13.1016199791377" x2="10.5063730257709" y2="13.1093904388107"/>
    <line x1="10.5063730257709" y1="13.1093904388107" x2="10.5045493644111" y2="13.1173101014015"/>
    <line x1="10.5045493644111" y1="13.1173101014015" x2="10.4990101960503" y2="13.1232568997147"/>
    <line x1="10.4990101960503" y1="13.1232568997147" x2="10.44986624194" y2="13.1902236103769"/>
    <line x1="10.44986624194" y1="13.1902236103769" x2="10.3959503723238" y2="13.2862221545433"/>
    <line x1="10.3959503723238" y1="13.2862221545433" x2="10.3842888455915" y2="13.3110037432429"/>
    <line x1="10.3842888455915" y1="13.3110037432429" x2="10.4177660215029" y2="13.3570811229159"/>
    <line x1="10.4177660215029" y1="13.3570811229159" x2="10.4449383228605" y2="13.3536482839829"/>
    <line x1="10.4449383228605" y1="13.3536482839829" x2="10.5528992838227" y2="13.3320364264354"/>
    <line x1="10.5528992838227" y1="13.3320364264354" x2="10.6317747273637" y2="13.3059916002943"/>
    <line x1="10.6317747273637" y1="13.3059916002943" x2="10.6391421658088" y2="13.3025611998707"/>
    <line x1="10.6391421658088" y1="13.3025611998707" x2="10.6472377548748" y2="13.3032741051813"/>
    <line x1="10.6472377548748" y1="13.3032741051813" x2="10.6538922880092" y2="13.3079392938238"/>
    <line x1="10.6538922880092" y1="13.3079392938238" x2="10.6803577472066" y2="13.3389263652421"/>
    <line x1="10.6803577472066" y1="13.3389263652421" x2="10.6839245013045" y2="13.3462287663207"/>
    <line x1="10.6839245013045" y1="13.3462287663207" x2="10.683362200423" y2="13.3543362082123"/>
    <line x1="10.683362200423" y1="13.3543362082123" x2="10.6788215126292" y2="13.3610763084094"/>
    <line x1="10.6788215126292" y1="13.3610763084094" x2="10.6407585037017" y2="13.4349063559097"/>
    <line x1="10.6407585037017" y1="13.4349063559097" x2="10.60252390881" y2="13.5381572989176"/>
    <line x1="10.60252390881" y1="13.5381572989176" x2="10.594882649394" y2="13.5644580498335"/>
    <line x1="10.594882649394" y1="13.5644580498335" x2="10.6351557559575" y2="13.6047311563969"/>
    <line x1="10.6351557559575" y1="13.6047311563969" x2="10.6614565068734" y2="13.5970898969809"/>
    <line x1="10.6614565068734" y1="13.5970898969809" x2="10.7647074498812" y2="13.5588553020892"/>
    <line x1="10.7647074498812" y1="13.5588553020892" x2="10.8385374973815" y2="13.5207922931617"/>
    <line x1="10.8385374973815" y1="13.5207922931617" x2="10.8452775975786" y2="13.5162516053679"/>
    <line x1="10.8452775975786" y1="13.5162516053679" x2="10.8533850394703" y2="13.5156893044864"/>
    <line x1="10.8533850394703" y1="13.5156893044864" x2="10.8606874405489" y2="13.5192560585843"/>
    <line x1="10.8606874405489" y1="13.5192560585843" x2="10.8916745119671" y2="13.5457215177817"/>
    <line x1="10.8916745119671" y1="13.5457215177817" x2="10.8963397006096" y2="13.5523760509162"/>
    <line x1="10.8963397006096" y1="13.5523760509162" x2="10.8970526059202" y2="13.5604716399822"/>
    <line x1="10.8970526059202" y1="13.5604716399822" x2="10.8936222054967" y2="13.5678390784273"/>
    <line x1="10.8936222054967" y1="13.5678390784273" x2="10.8675773793556" y2="13.6467145219683"/>
    <line x1="10.8675773793556" y1="13.6467145219683" x2="10.845965521808" y2="13.7546754829305"/>
    <line x1="10.845965521808" y1="13.7546754829305" x2="10.8425326828751" y2="13.781847784288"/>
    <line x1="10.8425326828751" y1="13.781847784288" x2="10.8886100625481" y2="13.8153249601995"/>
    <line x1="10.8886100625481" y1="13.8153249601995" x2="10.9133916512476" y2="13.8036634334671"/>
    <line x1="10.9133916512476" y1="13.8036634334671" x2="11.009390195414" y2="13.7497475638509"/>
    <line x1="11.009390195414" y1="13.7497475638509" x2="11.0763569060762" y2="13.7006036097406"/>
    <line x1="11.0763569060762" y1="13.7006036097406" x2="11.0823037043895" y2="13.6950644413798"/>
    <line x1="11.0823037043895" y1="13.6950644413798" x2="11.0902233669803" y2="13.6932407800201"/>
    <line x1="11.0902233669803" y1="13.6932407800201" x2="11.0979938266532" y2="13.6956212742501"/>
    <line x1="11.0979938266532" y1="13.6956212742501" x2="11.1327395057538" y2="13.7169134537874"/>
    <line x1="11.1327395057538" y1="13.7169134537874" x2="11.1383882565136" y2="13.7227562622868"/>
    <line x1="11.1383882565136" y1="13.7227562622868" x2="11.1403588139216" y2="13.7306406582566"/>
    <line x1="11.1403588139216" y1="13.7306406582566" x2="11.1381231687116" y2="13.738454024164"/>
    <line x1="11.1381231687116" y1="13.738454024164" x2="11.1247378354143" y2="13.8204326885532"/>
    <line x1="11.1247378354143" y1="13.8204326885532" x2="11.1202808708694" y2="13.930445310309"/>
    <line x1="11.1202808708694" y1="13.930445310309" x2="11.1211409803069" y2="13.957820089869"/>
    <line x1="11.1211409803069" y1="13.957820089869" x2="11.1718880550799" y2="13.9836770159532"/>
    <line x1="11.1718880550799" y1="13.9836770159532" x2="11.1945402766039" y2="13.9682823673951"/>
    <line x1="11.1945402766039" y1="13.9682823673951" x2="11.2809226191706" y2="13.9000128107008"/>
    <line x1="11.2809226191706" y1="13.9000128107008" x2="11.3393770503285" y2="13.8409979986574"/>
    <line x1="11.3393770503285" y1="13.8409979986574" x2="11.344384116847" y2="13.834596742438"/>
    <line x1="11.344384116847" y1="13.834596742438" x2="11.3519209917602" y2="13.8315566251951"/>
    <line x1="11.3519209917602" y1="13.8315566251951" x2="11.3599681755216" y2="13.8326922438889"/>
    <line x1="11.3599681755216" y1="13.8326922438889" x2="11.3976169083708" y2="13.8482868596411"/>
    <line x1="11.3976169083708" y1="13.8482868596411" x2="11.4041101302571" y2="13.8531740741691"/>
    <line x1="11.4041101302571" y1="13.8531740741691" x2="11.4072898180992" y2="13.8606531370472"/>
    <line x1="11.4072898180992" y1="13.8606531370472" x2="11.4063039771074" y2="13.8687200394172"/>
    <line x1="11.4063039771074" y1="13.8687200394172" x2="11.4059077279832" y2="13.9517833378656"/>
    <line x1="11.4059077279832" y1="13.9517833378656" x2="11.4187154016997" y2="14.0611387445565"/>
    <line x1="11.4187154016997" y1="14.0611387445565" x2="11.4238472807589" y2="14.0880419443945"/>
    <line x1="11.4238472807589" y1="14.0880419443945" x2="11.478014489231" y2="14.105641937317"/>
    <line x1="11.478014489231" y1="14.105641937317" x2="11.4979795707072" y2="14.0868932342725"/>
    <line x1="11.4979795707072" y1="14.0868932342725" x2="11.5726186917136" y2="14.0059510135596"/>
    <line x1="11.5726186917136" y1="14.0059510135596" x2="11.6211215012729" y2="13.9385184841145"/>
    <line x1="11.6211215012729" y1="13.9385184841145" x2="11.6250655454016" y2="13.9314127602092"/>
    <line x1="11.6250655454016" y1="13.9314127602092" x2="11.6320340497633" y2="13.9272310448592"/>
    <line x1="11.6320340497633" y1="13.9272310448592" x2="11.6401598092419" y2="13.9270938253156"/>
    <line x1="11.6401598092419" y1="13.9270938253156" x2="11.6797845590879" y2="13.9366068860875"/>
    <line x1="11.6797845590879" y1="13.9366068860875" x2="11.6869623674282" y2="13.9404181672026"/>
    <line x1="11.6869623674282" y1="13.9404181672026" x2="11.6912728912368" y2="13.9473077376393"/>
    <line x1="11.6912728912368" y1="13.9473077376393" x2="11.6915611291404" y2="13.955429542563"/>
    <line x1="11.6915611291404" y1="13.955429542563" x2="11.7041637211577" y2="14.0375321809917"/>
    <line x1="11.7041637211577" y1="14.0375321809917" x2="11.7339206657026" y2="14.143537679575"/>
    <line x1="11.7339206657026" y1="14.143537679575" x2="11.7431979504892" y2="14.1693068536245"/>
    <line x1="11.7431979504892" y1="14.1693068536245" x2="11.7994515162173" y2="14.1782165431486"/>
    <line x1="11.7994515162173" y1="14.1782165431486" x2="11.8162378510794" y2="14.15657544091"/>
    <line x1="11.8162378510794" y1="14.15657544091" x2="11.8772958876533" y2="14.0649536222843"/>
    <line x1="11.8772958876533" y1="14.0649536222843" x2="11.914652775471" y2="13.9907637881082"/>
    <line x1="11.914652775471" y1="13.9907637881082" x2="11.9174366817539" y2="13.983128563022"/>
    <line x1="11.9174366817539" y1="13.983128563022" x2="11.9236652278596" y2="13.9779082172752"/>
    <line x1="11.9236652278596" y1="13.9779082172752" x2="11.9316694798892" y2="13.9765015382948"/>
    <line x1="11.9316694798892" y1="13.9765015382948" x2="11.9722945538839" y2="13.9796988009581"/>
    <line x1="11.9722945538839" y1="13.9796988009581" x2="11.9799802072149" y2="13.9823403022703"/>
    <line x1="11.9799802072149" y1="13.9823403022703" x2="11.9853154275882" y2="13.9884707361763"/>
    <line x1="11.9853154275882" y1="13.9884707361763" x2="11.9868706470133" y2="13.9964474578618"/>
    <line x1="11.9868706470133" y1="13.9964474578618" x2="12.012161762531" y2="14.0755677968296"/>
    <line x1="12.012161762531" y1="14.0755677968296" x2="12.0581352631719" y2="14.1756131801182"/>
    <line x1="12.0581352631719" y1="14.1756131801182" x2="12.071329516145" y2="14.1996138057909"/>
    <line x1="12.071329516145" y1="14.1996138057909" x2="12.1282842896459" y2="14.1996138057909"/>
    <line x1="12.1282842896459" y1="14.1996138057909" x2="12.141478542619" y2="14.1756131801182"/>
    <line x1="12.141478542619" y1="14.1756131801182" x2="12.1874520432599" y2="14.0755677968296"/>
    <line x1="12.1874520432599" y1="14.0755677968296" x2="12.2127431587777" y2="13.9964474578618"/>
    <line x1="12.2127431587777" y1="13.9964474578618" x2="12.2142983782027" y2="13.9884707361763"/>
    <line x1="12.2142983782027" y1="13.9884707361763" x2="12.219633598576" y2="13.9823403022703"/>
    <line x1="12.219633598576" y1="13.9823403022703" x2="12.2273192519071" y2="13.9796988009581"/>
    <line x1="12.2273192519071" y1="13.9796988009581" x2="12.2679443259017" y2="13.9765015382948"/>
    <line x1="12.2679443259017" y1="13.9765015382948" x2="12.2759485779313" y2="13.9779082172752"/>
    <line x1="12.2759485779313" y1="13.9779082172752" x2="12.2821771240371" y2="13.983128563022"/>
    <line x1="12.2821771240371" y1="13.983128563022" x2="12.2849610303199" y2="13.9907637881082"/>
    <line x1="12.2849610303199" y1="13.9907637881082" x2="12.3223179181377" y2="14.0649536222843"/>
    <line x1="12.3223179181377" y1="14.0649536222843" x2="12.3833759547115" y2="14.15657544091"/>
    <line x1="12.3833759547115" y1="14.15657544091" x2="12.4001622895737" y2="14.1782165431486"/>
    <line x1="12.4001622895737" y1="14.1782165431486" x2="12.4564158553017" y2="14.1693068536245"/>
    <line x1="12.4564158553017" y1="14.1693068536245" x2="12.4656931400884" y2="14.143537679575"/>
    <line x1="12.4656931400884" y1="14.143537679575" x2="12.4954500846333" y2="14.0375321809917"/>
    <line x1="12.4954500846333" y1="14.0375321809917" x2="12.5080526766506" y2="13.955429542563"/>
    <line x1="12.5080526766506" y1="13.955429542563" x2="12.5083409145541" y2="13.9473077376393"/>
    <line x1="12.5083409145541" y1="13.9473077376393" x2="12.5126514383627" y2="13.9404181672026"/>
    <line x1="12.5126514383627" y1="13.9404181672026" x2="12.519829246703" y2="13.9366068860875"/>
    <line x1="12.519829246703" y1="13.9366068860875" x2="12.559453996549" y2="13.9270938253156"/>
    <line x1="12.559453996549" y1="13.9270938253156" x2="12.5675797560276" y2="13.9272310448592"/>
    <line x1="12.5675797560276" y1="13.9272310448592" x2="12.5745482603894" y2="13.9314127602092"/>
    <line x1="12.5745482603894" y1="13.9314127602092" x2="12.578492304518" y2="13.9385184841145"/>
    <line x1="12.578492304518" y1="13.9385184841145" x2="12.6269951140773" y2="14.0059510135596"/>
    <line x1="12.6269951140773" y1="14.0059510135596" x2="12.7016342350837" y2="14.0868932342725"/>
    <line x1="12.7016342350837" y1="14.0868932342725" x2="12.7215993165599" y2="14.105641937317"/>
    <line x1="12.7215993165599" y1="14.105641937317" x2="12.7757665250321" y2="14.0880419443945"/>
    <line x1="12.7757665250321" y1="14.0880419443945" x2="12.7808984040912" y2="14.0611387445565"/>
    <line x1="12.7808984040912" y1="14.0611387445565" x2="12.7937060778078" y2="13.9517833378656"/>
    <line x1="12.7937060778078" y1="13.9517833378656" x2="12.7933098286835" y2="13.8687200394172"/>
    <line x1="12.7933098286835" y1="13.8687200394172" x2="12.7923239876918" y2="13.8606531370472"/>
    <line x1="12.7923239876918" y1="13.8606531370472" x2="12.7955036755338" y2="13.8531740741691"/>
    <line x1="12.7955036755338" y1="13.8531740741691" x2="12.8019968974202" y2="13.8482868596411"/>
    <line x1="12.8019968974202" y1="13.8482868596411" x2="12.8396456302693" y2="13.8326922438889"/>
    <line x1="12.8396456302693" y1="13.8326922438889" x2="12.8476928140307" y2="13.8315566251951"/>
    <line x1="12.8476928140307" y1="13.8315566251951" x2="12.8552296889439" y2="13.834596742438"/>
    <line x1="12.8552296889439" y1="13.834596742438" x2="12.8602367554625" y2="13.8409979986574"/>
    <line x1="12.8602367554625" y1="13.8409979986574" x2="12.9186911866203" y2="13.9000128107008"/>
    <line x1="12.9186911866203" y1="13.9000128107008" x2="13.005073529187" y2="13.9682823673951"/>
    <line x1="13.005073529187" y1="13.9682823673951" x2="13.0277257507111" y2="13.9836770159532"/>
    <line x1="13.0277257507111" y1="13.9836770159532" x2="13.078472825484" y2="13.957820089869"/>
    <line x1="13.078472825484" y1="13.957820089869" x2="13.0793329349216" y2="13.930445310309"/>
    <line x1="13.0793329349216" y1="13.930445310309" x2="13.0748759703766" y2="13.8204326885532"/>
    <line x1="13.0748759703766" y1="13.8204326885532" x2="13.0614906370794" y2="13.738454024164"/>
    <line x1="13.0614906370794" y1="13.738454024164" x2="13.0592549918694" y2="13.7306406582566"/>
    <line x1="13.0592549918694" y1="13.7306406582566" x2="13.0612255492773" y2="13.7227562622868"/>
    <line x1="13.0612255492773" y1="13.7227562622868" x2="13.0668743000372" y2="13.7169134537874"/>
    <line x1="13.0668743000372" y1="13.7169134537874" x2="13.1016199791377" y2="13.6956212742501"/>
    <line x1="13.1016199791377" y1="13.6956212742501" x2="13.1093904388106" y2="13.6932407800201"/>
    <line x1="13.1093904388106" y1="13.6932407800201" x2="13.1173101014015" y2="13.6950644413798"/>
    <line x1="13.1173101014015" y1="13.6950644413798" x2="13.1232568997147" y2="13.7006036097406"/>
    <line x1="13.1232568997147" y1="13.7006036097406" x2="13.1902236103769" y2="13.7497475638509"/>
    <line x1="13.1902236103769" y1="13.7497475638509" x2="13.2862221545433" y2="13.8036634334671"/>
    <line x1="13.2862221545433" y1="13.8036634334671" x2="13.3110037432429" y2="13.8153249601995"/>
    <line x1="13.3110037432429" y1="13.8153249601995" x2="13.3570811229159" y2="13.781847784288"/>
    <line x1="13.3570811229159" y1="13.781847784288" x2="13.3536482839829" y2="13.7546754829305"/>
    <line x1="13.3536482839829" y1="13.7546754829305" x2="13.3320364264354" y2="13.6467145219683"/>
    <line x1="13.3320364264354" y1="13.6467145219683" x2="13.3059916002943" y2="13.5678390784273"/>
    <line x1="13.3059916002943" y1="13.5678390784273" x2="13.3025611998707" y2="13.5604716399822"/>
    <line x1="13.3025611998707" y1="13.5604716399822" x2="13.3032741051813" y2="13.5523760509162"/>
    <line x1="13.3032741051813" y1="13.5523760509162" x2="13.3079392938238" y2="13.5457215177817"/>
    <line x1="13.3079392938238" y1="13.5457215177817" x2="13.3389263652421" y2="13.5192560585843"/>
    <line x1="13.3389263652421" y1="13.5192560585843" x2="13.3462287663207" y2="13.5156893044864"/>
    <line x1="13.3462287663207" y1="13.5156893044864" x2="13.3543362082123" y2="13.5162516053679"/>
    <line x1="13.3543362082123" y1="13.5162516053679" x2="13.3610763084094" y2="13.5207922931617"/>
    <line x1="13.3610763084094" y1="13.5207922931617" x2="13.4349063559097" y2="13.5588553020892"/>
    <line x1="13.4349063559097" y1="13.5588553020892" x2="13.5381572989176" y2="13.5970898969809"/>
    <line x1="13.5381572989176" y1="13.5970898969809" x2="13.5644580498335" y2="13.6047311563969"/>
    <line x1="13.5644580498335" y1="13.6047311563969" x2="13.6047311563969" y2="13.5644580498335"/>
    <line x1="13.6047311563969" y1="13.5644580498335" x2="13.5970898969809" y2="13.5381572989176"/>
    <line x1="13.5970898969809" y1="13.5381572989176" x2="13.5588553020892" y2="13.4349063559097"/>
    <line x1="13.5588553020892" y1="13.4349063559097" x2="13.5207922931617" y2="13.3610763084094"/>
    <line x1="13.5207922931617" y1="13.3610763084094" x2="13.5162516053679" y2="13.3543362082123"/>
    <line x1="13.5162516053679" y1="13.3543362082123" x2="13.5156893044864" y2="13.3462287663207"/>
    <line x1="13.5156893044864" y1="13.3462287663207" x2="13.5192560585843" y2="13.3389263652421"/>
    <line x1="13.5192560585843" y1="13.3389263652421" x2="13.5457215177817" y2="13.3079392938238"/>
    <line x1="13.5457215177817" y1="13.3079392938238" x2="13.5523760509162" y2="13.3032741051813"/>
    <line x1="13.5523760509162" y1="13.3032741051813" x2="13.5604716399822" y2="13.3025611998707"/>
    <line x1="13.5604716399822" y1="13.3025611998707" x2="13.5678390784273" y2="13.3059916002943"/>
    <line x1="13.5678390784273" y1="13.3059916002943" x2="13.6467145219683" y2="13.3320364264354"/>
    <line x1="13.6467145219683" y1="13.3320364264354" x2="13.7546754829305" y2="13.3536482839829"/>
    <line x1="13.7546754829305" y1="13.3536482839829" x2="13.781847784288" y2="13.3570811229159"/>
    <line x1="13.781847784288" y1="13.3570811229159" x2="13.8153249601995" y2="13.3110037432429"/>
    <line x1="13.8153249601995" y1="13.3110037432429" x2="13.8036634334671" y2="13.2862221545433"/>
    <line x1="13.8036634334671" y1="13.2862221545433" x2="13.7497475638509" y2="13.1902236103769"/>
    <line x1="13.7497475638509" y1="13.1902236103769" x2="13.7006036097406" y2="13.1232568997147"/>
    <line x1="13.7006036097406" y1="13.1232568997147" x2="13.6950644413798" y2="13.1173101014015"/>
    <line x1="13.6950644413798" y1="13.1173101014015" x2="13.6932407800201" y2="13.1093904388107"/>
    <line x1="13.6932407800201" y1="13.1093904388107" x2="13.6956212742501" y2="13.1016199791377"/>
    <line x1="13.6956212742501" y1="13.1016199791377" x2="13.7169134537874" y2="13.0668743000372"/>
    <line x1="13.7169134537874" y1="13.0668743000372" x2="13.7227562622868" y2="13.0612255492773"/>
    <line x1="13.7227562622868" y1="13.0612255492773" x2="13.7306406582566" y2="13.0592549918694"/>
    <line x1="13.7306406582566" y1="13.0592549918694" x2="13.738454024164" y2="13.0614906370794"/>
    <line x1="13.738454024164" y1="13.0614906370794" x2="13.8204326885532" y2="13.0748759703766"/>
    <line x1="13.8204326885532" y1="13.0748759703766" x2="13.930445310309" y2="13.0793329349216"/>
    <line x1="13.930445310309" y1="13.0793329349216" x2="13.957820089869" y2="13.078472825484"/>
    <line x1="13.957820089869" y1="13.078472825484" x2="13.9836770159532" y2="13.0277257507111"/>
    <line x1="13.9836770159532" y1="13.0277257507111" x2="13.9682823673951" y2="13.005073529187"/>
    <line x1="13.9682823673951" y1="13.005073529187" x2="13.9000128107008" y2="12.9186911866203"/>
    <line x1="13.9000128107008" y1="12.9186911866203" x2="13.8409979986574" y2="12.8602367554625"/>
    <line x1="13.8409979986574" y1="12.8602367554625" x2="13.834596742438" y2="12.8552296889439"/>
    <line x1="13.834596742438" y1="12.8552296889439" x2="13.8315566251951" y2="12.8476928140307"/>
    <line x1="13.8315566251951" y1="12.8476928140307" x2="13.8326922438889" y2="12.8396456302693"/>
    <line x1="13.8326922438889" y1="12.8396456302693" x2="13.8482868596411" y2="12.8019968974202"/>
    <line x1="13.8482868596411" y1="12.8019968974202" x2="13.8531740741691" y2="12.7955036755338"/>
    <line x1="13.8531740741691" y1="12.7955036755338" x2="13.8606531370472" y2="12.7923239876918"/>
    <line x1="13.8606531370472" y1="12.7923239876918" x2="13.8687200394172" y2="12.7933098286835"/>
    <line x1="13.8687200394172" y1="12.7933098286835" x2="13.9517833378657" y2="12.7937060778078"/>
    <line x1="13.9517833378657" y1="12.7937060778078" x2="14.0611387445564" y2="12.7808984040912"/>
    <line x1="14.0611387445564" y1="12.7808984040912" x2="14.0880419443945" y2="12.7757665250321"/>
    <line x1="14.0880419443945" y1="12.7757665250321" x2="14.105641937317" y2="12.7215993165599"/>
    <line x1="14.105641937317" y1="12.7215993165599" x2="14.0868932342725" y2="12.7016342350837"/>
    <line x1="14.0868932342725" y1="12.7016342350837" x2="14.0059510135596" y2="12.6269951140773"/>
    <line x1="14.0059510135596" y1="12.6269951140773" x2="13.9385184841145" y2="12.578492304518"/>
    <line x1="13.9385184841145" y1="12.578492304518" x2="13.9314127602092" y2="12.5745482603894"/>
    <line x1="13.9314127602092" y1="12.5745482603894" x2="13.9272310448592" y2="12.5675797560276"/>
    <line x1="13.9272310448592" y1="12.5675797560276" x2="13.9270938253156" y2="12.559453996549"/>
    <line x1="13.9270938253156" y1="12.559453996549" x2="13.9366068860875" y2="12.519829246703"/>
    <line x1="13.9366068860875" y1="12.519829246703" x2="13.9404181672026" y2="12.5126514383627"/>
    <line x1="13.9404181672026" y1="12.5126514383627" x2="13.9473077376393" y2="12.5083409145541"/>
    <line x1="13.9473077376393" y1="12.5083409145541" x2="13.955429542563" y2="12.5080526766506"/>
    <line x1="13.955429542563" y1="12.5080526766506" x2="14.0375321809917" y2="12.4954500846333"/>
    <line x1="14.0375321809917" y1="12.4954500846333" x2="14.143537679575" y2="12.4656931400884"/>
    <line x1="14.143537679575" y1="12.4656931400884" x2="14.1693068536245" y2="12.4564158553017"/>
    <line x1="14.1693068536245" y1="12.4564158553017" x2="14.1782165431486" y2="12.4001622895737"/>
    <line x1="14.1782165431486" y1="12.4001622895737" x2="14.15657544091" y2="12.3833759547116"/>
    <line x1="14.15657544091" y1="12.3833759547116" x2="14.0649536222843" y2="12.3223179181377"/>
    <line x1="14.0649536222843" y1="12.3223179181377" x2="13.9907637881082" y2="12.2849610303199"/>
    <line x1="13.9907637881082" y1="12.2849610303199" x2="13.983128563022" y2="12.2821771240371"/>
    <line x1="13.983128563022" y1="12.2821771240371" x2="13.9779082172752" y2="12.2759485779313"/>
    <line x1="13.9779082172752" y1="12.2759485779313" x2="13.9765015382948" y2="12.2679443259017"/>
    <line x1="13.9765015382948" y1="12.2679443259017" x2="13.9796988009581" y2="12.2273192519071"/>
    <line x1="13.9796988009581" y1="12.2273192519071" x2="13.9823403022703" y2="12.219633598576"/>
    <line x1="13.9823403022703" y1="12.219633598576" x2="13.9884707361763" y2="12.2142983782027"/>
    <line x1="13.9884707361763" y1="12.2142983782027" x2="13.9964474578618" y2="12.2127431587777"/>
    <line x1="13.9964474578618" y1="12.2127431587777" x2="14.0755677968296" y2="12.1874520432599"/>
    <line x1="14.0755677968296" y1="12.1874520432599" x2="14.1756131801182" y2="12.141478542619"/>
    <line x1="14.1756131801182" y1="12.141478542619" x2="14.1996138057909" y2="12.1282842896459"/>
    <line x1="14.1996138057909" y1="12.1282842896459" x2="14.1996138057909" y2="12.071329516145"/>
    <line x1="14.1996138057909" y1="12.071329516145" x2="14.1756131801182" y2="12.0581352631719"/>
    <line x1="14.1756131801182" y1="12.0581352631719" x2="14.0755677968296" y2="12.012161762531"/>
    <line x1="14.0755677968296" y1="12.012161762531" x2="13.9964474578618" y2="11.9868706470133"/>
    <line x1="13.9964474578618" y1="11.9868706470133" x2="13.9884707361763" y2="11.9853154275882"/>
    <line x1="13.9884707361763" y1="11.9853154275882" x2="13.9823403022703" y2="11.9799802072149"/>
    <line x1="13.9823403022703" y1="11.9799802072149" x2="13.9796988009581" y2="11.9722945538839"/>
    <line x1="13.9796988009581" y1="11.9722945538839" x2="13.9765015382948" y2="11.9316694798892"/>
    <line x1="13.9765015382948" y1="11.9316694798892" x2="13.9779082172752" y2="11.9236652278596"/>
    <line x1="13.9779082172752" y1="11.9236652278596" x2="13.983128563022" y2="11.9174366817539"/>
    <line x1="13.983128563022" y1="11.9174366817539" x2="13.9907637881082" y2="11.914652775471"/>
    <line x1="13.9907637881082" y1="11.914652775471" x2="14.0649536222843" y2="11.8772958876533"/>
    <line x1="14.0649536222843" y1="11.8772958876533" x2="14.15657544091" y2="11.8162378510794"/>
    <line x1="14.15657544091" y1="11.8162378510794" x2="14.1782165431486" y2="11.7994515162173"/>
    <line x1="14.1782165431486" y1="11.7994515162173" x2="14.1693068536245" y2="11.7431979504892"/>
    <line x1="14.1693068536245" y1="11.7431979504892" x2="14.143537679575" y2="11.7339206657026"/>
    <line x1="14.143537679575" y1="11.7339206657026" x2="14.0375321809917" y2="11.7041637211577"/>
    <line x1="14.0375321809917" y1="11.7041637211577" x2="13.955429542563" y2="11.6915611291404"/>
    <line x1="13.955429542563" y1="11.6915611291404" x2="13.9473077376393" y2="11.6912728912368"/>
    <line x1="13.9473077376393" y1="11.6912728912368" x2="13.9404181672026" y2="11.6869623674282"/>
    <line x1="13.9404181672026" y1="11.6869623674282" x2="13.9366068860875" y2="11.6797845590879"/>
    <line x1="13.9366068860875" y1="11.6797845590879" x2="13.9270938253156" y2="11.6401598092419"/>
    <line x1="13.9270938253156" y1="11.6401598092419" x2="13.9272310448592" y2="11.6320340497633"/>
    <line x1="13.9272310448592" y1="11.6320340497633" x2="13.9314127602092" y2="11.6250655454016"/>
    <line x1="13.9314127602092" y1="11.6250655454016" x2="13.9385184841145" y2="11.6211215012729"/>
    <line x1="13.9385184841145" y1="11.6211215012729" x2="14.0059510135596" y2="11.5726186917136"/>
    <line x1="14.0059510135596" y1="11.5726186917136" x2="14.0868932342725" y2="11.4979795707072"/>
    <line x1="14.0868932342725" y1="11.4979795707072" x2="14.105641937317" y2="11.478014489231"/>
    <line x1="14.105641937317" y1="11.478014489231" x2="14.0880419443945" y2="11.4238472807589"/>
    <line x1="14.0880419443945" y1="11.4238472807589" x2="14.0611387445564" y2="11.4187154016997"/>
    <line x1="14.0611387445564" y1="11.4187154016997" x2="13.9517833378657" y2="11.4059077279832"/>
    <line x1="13.9517833378657" y1="11.4059077279832" x2="13.8687200394172" y2="11.4063039771074"/>
    <line x1="13.8687200394172" y1="11.4063039771074" x2="13.8606531370472" y2="11.4072898180992"/>
    <line x1="13.8606531370472" y1="11.4072898180992" x2="13.8531740741691" y2="11.4041101302571"/>
    <line x1="13.8531740741691" y1="11.4041101302571" x2="13.8482868596411" y2="11.3976169083708"/>
    <line x1="13.8482868596411" y1="11.3976169083708" x2="13.8326922438889" y2="11.3599681755216"/>
    <line x1="13.8326922438889" y1="11.3599681755216" x2="13.8315566251951" y2="11.3519209917602"/>
    <line x1="13.8315566251951" y1="11.3519209917602" x2="13.834596742438" y2="11.344384116847"/>
    <line x1="13.834596742438" y1="11.344384116847" x2="13.8409979986574" y2="11.3393770503285"/>
    <line x1="13.8409979986574" y1="11.3393770503285" x2="13.9000128107008" y2="11.2809226191706"/>
    <line x1="13.9000128107008" y1="11.2809226191706" x2="13.9682823673951" y2="11.1945402766039"/>
    <line x1="13.9682823673951" y1="11.1945402766039" x2="13.9836770159532" y2="11.1718880550799"/>
    <line x1="13.9836770159532" y1="11.1718880550799" x2="13.957820089869" y2="11.1211409803069"/>
    <line x1="13.957820089869" y1="11.1211409803069" x2="13.930445310309" y2="11.1202808708694"/>
    <line x1="13.930445310309" y1="11.1202808708694" x2="13.8204326885532" y2="11.1247378354143"/>
    <line x1="13.8204326885532" y1="11.1247378354143" x2="13.738454024164" y2="11.1381231687116"/>
    <line x1="13.738454024164" y1="11.1381231687116" x2="13.7306406582566" y2="11.1403588139216"/>
    <line x1="13.7306406582566" y1="11.1403588139216" x2="13.7227562622868" y2="11.1383882565136"/>
    <line x1="13.7227562622868" y1="11.1383882565136" x2="13.7169134537874" y2="11.1327395057538"/>
    <line x1="13.7169134537874" y1="11.1327395057538" x2="13.6956212742501" y2="11.0979938266532"/>
    <line x1="13.6956212742501" y1="11.0979938266532" x2="13.6932407800201" y2="11.0902233669803"/>
    <line x1="13.6932407800201" y1="11.0902233669803" x2="13.6950644413798" y2="11.0823037043895"/>
    <line x1="13.6950644413798" y1="11.0823037043895" x2="13.7006036097406" y2="11.0763569060762"/>
    <line x1="13.7006036097406" y1="11.0763569060762" x2="13.7497475638509" y2="11.009390195414"/>
    <line x1="13.7497475638509" y1="11.009390195414" x2="13.8036634334671" y2="10.9133916512476"/>
    <line x1="13.8036634334671" y1="10.9133916512476" x2="13.8153249601995" y2="10.8886100625481"/>
    <line x1="13.8153249601995" y1="10.8886100625481" x2="13.781847784288" y2="10.8425326828751"/>
    <line x1="13.781847784288" y1="10.8425326828751" x2="13.7546754829305" y2="10.845965521808"/>
    <line x1="13.7546754829305" y1="10.845965521808" x2="13.6467145219683" y2="10.8675773793556"/>
    <line x1="13.6467145219683" y1="10.8675773793556" x2="13.5678390784273" y2="10.8936222054967"/>
    <line x1="13.5678390784273" y1="10.8936222054967" x2="13.5604716399822" y2="10.8970526059202"/>
    <line x1="13.5604716399822" y1="10.8970526059202" x2="13.5523760509162" y2="10.8963397006096"/>
    <line x1="13.5523760509162" y1="10.8963397006096" x2="13.5457215177817" y2="10.8916745119671"/>
    <line x1="13.5457215177817" y1="10.8916745119671" x2="13.5192560585843" y2="10.8606874405489"/>
    <line x1="13.5192560585843" y1="10.8606874405489" x2="13.5156893044864" y2="10.8533850394703"/>
    <line x1="13.5156893044864" y1="10.8533850394703" x2="13.5162516053679" y2="10.8452775975786"/>
    <line x1="13.5162516053679" y1="10.8452775975786" x2="13.5207922931617" y2="10.8385374973815"/>
    <line x1="13.5207922931617" y1="10.8385374973815" x2="13.5588553020892" y2="10.7647074498812"/>
    <line x1="13.5588553020892" y1="10.7647074498812" x2="13.5970898969809" y2="10.6614565068734"/>
    <line x1="13.5970898969809" y1="10.6614565068734" x2="13.6047311563969" y2="10.6351557559575"/>
    <line x1="13.6047311563969" y1="10.6351557559575" x2="13.5644580498335" y2="10.5948826493941"/>
    <line x1="13.5644580498335" y1="10.5948826493941" x2="13.5381572989176" y2="10.60252390881"/>
    <line x1="13.5381572989176" y1="10.60252390881" x2="13.4349063559097" y2="10.6407585037017"/>
    <line x1="13.4349063559097" y1="10.6407585037017" x2="13.3610763084094" y2="10.6788215126292"/>
    <line x1="13.3610763084094" y1="10.6788215126292" x2="13.3543362082123" y2="10.683362200423"/>
    <line x1="13.3543362082123" y1="10.683362200423" x2="13.3462287663207" y2="10.6839245013045"/>
    <line x1="13.3462287663207" y1="10.6839245013045" x2="13.3389263652421" y2="10.6803577472066"/>
    <line x1="13.3389263652421" y1="10.6803577472066" x2="13.3079392938238" y2="10.6538922880092"/>
    <line x1="13.3079392938238" y1="10.6538922880092" x2="13.3032741051813" y2="10.6472377548748"/>
    <line x1="13.3032741051813" y1="10.6472377548748" x2="13.3025611998707" y2="10.6391421658088"/>
    <line x1="13.3025611998707" y1="10.6391421658088" x2="13.3059916002943" y2="10.6317747273637"/>
    <line x1="13.3059916002943" y1="10.6317747273637" x2="13.3320364264354" y2="10.5528992838227"/>
    <line x1="13.3320364264354" y1="10.5528992838227" x2="13.3536482839829" y2="10.4449383228605"/>
    <line x1="13.3536482839829" y1="10.4449383228605" x2="13.3570811229159" y2="10.417766021503"/>
    <line x1="13.3570811229159" y1="10.417766021503" x2="13.3110037432429" y2="10.3842888455915"/>
    <line x1="13.3110037432429" y1="10.3842888455915" x2="13.2862221545433" y2="10.3959503723238"/>
    <line x1="13.2862221545433" y1="10.3959503723238" x2="13.1902236103769" y2="10.44986624194"/>
    <line x1="13.1902236103769" y1="10.44986624194" x2="13.1232568997147" y2="10.4990101960503"/>
    <line x1="13.1232568997147" y1="10.4990101960503" x2="13.1173101014015" y2="10.5045493644111"/>
    <line x1="13.1173101014015" y1="10.5045493644111" x2="13.1093904388106" y2="10.5063730257709"/>
    <line x1="13.1093904388106" y1="10.5063730257709" x2="13.1016199791377" y2="10.5039925315409"/>
    <line x1="13.1016199791377" y1="10.5039925315409" x2="13.0668743000372" y2="10.4827003520036"/>
    <line x1="13.0668743000372" y1="10.4827003520036" x2="13.0612255492773" y2="10.4768575435042"/>
    <line x1="13.0612255492773" y1="10.4768575435042" x2="13.0592549918694" y2="10.4689731475343"/>
    <line x1="13.0592549918694" y1="10.4689731475343" x2="13.0614906370794" y2="10.4611597816269"/>
    <line x1="13.0614906370794" y1="10.4611597816269" x2="13.0748759703766" y2="10.3791811172377"/>
    <line x1="13.0748759703766" y1="10.3791811172377" x2="13.0793329349216" y2="10.2691684954819"/>
    <line x1="13.0793329349216" y1="10.2691684954819" x2="13.078472825484" y2="10.2417937159219"/>
    <line x1="13.078472825484" y1="10.2417937159219" x2="13.0277257507111" y2="10.2159367898377"/>
    <line x1="13.0277257507111" y1="10.2159367898377" x2="13.005073529187" y2="10.2313314383958"/>
    <line x1="13.005073529187" y1="10.2313314383958" x2="12.9186911866203" y2="10.2996009950901"/>
    <line x1="12.9186911866203" y1="10.2996009950901" x2="12.8602367554625" y2="10.3586158071336"/>
    <line x1="12.8602367554625" y1="10.3586158071336" x2="12.8552296889439" y2="10.365017063353"/>
    <line x1="12.8552296889439" y1="10.365017063353" x2="12.8476928140307" y2="10.3680571805959"/>
    <line x1="12.8476928140307" y1="10.3680571805959" x2="12.8396456302693" y2="10.3669215619021"/>
    <line x1="12.8396456302693" y1="10.3669215619021" x2="12.8019968974202" y2="10.3513269461498"/>
    <line x1="12.8019968974202" y1="10.3513269461498" x2="12.7955036755338" y2="10.3464397316219"/>
    <line x1="12.7955036755338" y1="10.3464397316219" x2="12.7923239876918" y2="10.3389606687438"/>
    <line x1="12.7923239876918" y1="10.3389606687438" x2="12.7933098286835" y2="10.3308937663738"/>
    <line x1="12.7933098286835" y1="10.3308937663738" x2="12.7937060778078" y2="10.2478304679253"/>
    <line x1="12.7937060778078" y1="10.2478304679253" x2="12.7808984040912" y2="10.1384750612345"/>
    <line x1="12.7808984040912" y1="10.1384750612345" x2="12.7757665250321" y2="10.1115718613965"/>
    <line x1="12.7757665250321" y1="10.1115718613965" x2="12.7215993165599" y2="10.0939718684739"/>
    <line x1="12.7215993165599" y1="10.0939718684739" x2="12.7016342350837" y2="10.1127205715184"/>
    <line x1="12.7016342350837" y1="10.1127205715184" x2="12.6269951140773" y2="10.1936627922313"/>
    <line x1="12.6269951140773" y1="10.1936627922313" x2="12.578492304518" y2="10.2610953216764"/>
    <line x1="12.578492304518" y1="10.2610953216764" x2="12.5745482603894" y2="10.2682010455818"/>
    <line x1="12.5745482603894" y1="10.2682010455818" x2="12.5675797560276" y2="10.2723827609317"/>
    <line x1="12.5675797560276" y1="10.2723827609317" x2="12.559453996549" y2="10.2725199804753"/>
    <line x1="12.559453996549" y1="10.2725199804753" x2="12.519829246703" y2="10.2630069197034"/>
    <line x1="12.519829246703" y1="10.2630069197034" x2="12.5126514383627" y2="10.2591956385884"/>
    <line x1="12.5126514383627" y1="10.2591956385884" x2="12.5083409145541" y2="10.2523060681516"/>
    <line x1="12.5083409145541" y1="10.2523060681516" x2="12.5080526766506" y2="10.2441842632279"/>
    <line x1="12.5080526766506" y1="10.2441842632279" x2="12.4954500846333" y2="10.1620816247992"/>
    <line x1="12.4954500846333" y1="10.1620816247992" x2="12.4656931400884" y2="10.0560761262159"/>
    <line x1="12.4656931400884" y1="10.0560761262159" x2="12.4564158553017" y2="10.0303069521665"/>
    <line x1="12.4564158553017" y1="10.0303069521665" x2="12.4001622895737" y2="10.0213972626424"/>
    <line x1="12.4001622895737" y1="10.0213972626424" x2="12.3833759547115" y2="10.0430383648809"/>
    <line x1="12.3833759547115" y1="10.0430383648809" x2="12.3223179181377" y2="10.1346601835066"/>
    <line x1="12.3223179181377" y1="10.1346601835066" x2="12.2849610303199" y2="10.2088500176828"/>
    <line x1="12.2849610303199" y1="10.2088500176828" x2="12.2821771240371" y2="10.2164852427689"/>
    <line x1="12.2821771240371" y1="10.2164852427689" x2="12.2759485779313" y2="10.2217055885157"/>
    <line x1="12.2759485779313" y1="10.2217055885157" x2="12.2679443259017" y2="10.2231122674961"/>
    <line x1="12.2679443259017" y1="10.2231122674961" x2="12.2273192519071" y2="10.2199150048329"/>
    <line x1="12.2273192519071" y1="10.2199150048329" x2="12.219633598576" y2="10.2172735035207"/>
    <line x1="12.219633598576" y1="10.2172735035207" x2="12.2142983782027" y2="10.2111430696146"/>
    <line x1="12.2142983782027" y1="10.2111430696146" x2="12.2127431587777" y2="10.2031663479292"/>
    <line x1="12.2127431587777" y1="10.2031663479292" x2="12.1874520432599" y2="10.1240460089614"/>
    <line x1="12.1874520432599" y1="10.1240460089614" x2="12.141478542619" y2="10.0240006256728"/>
    <line x1="12.141478542619" y1="10.0240006256728" x2="12.1282842896459" y2="10.0"/>
    <line x1="12.1282842896459" y1="10.0" x2="12.071329516145" y2="10.0"/>
    <line x1="12.071329516145" y1="10.0" x2="12.0581352631719" y2="10.0240006256728"/>
    <line x1="12.0581352631719" y1="10.0240006256728" x2="12.012161762531" y2="10.1240460089614"/>
    <line x1="12.012161762531" y1="10.1240460089614" x2="11.9868706470133" y2="10.2031663479292"/>
    <line x1="11.9868706470133" y1="10.2031663479292" x2="11.9853154275882" y2="10.2111430696146"/>
    <line x1="11.9853154275882" y1="10.2111430696146" x2="11.9799802072149" y2="10.2172735035207"/>
    <line x1="11.9799802072149" y1="10.2172735035207" x2="11.9722945538839" y2="10.2199150048329"/>
    <line x1="11.9722945538839" y1="10.2199150048329" x2="11.9316694798892" y2="10.2231122674961"/>
    <line x1="11.9316694798892" y1="10.2231122674961" x2="11.9236652278596" y2="10.2217055885157"/>
    <line x1="11.9236652278596" y1="10.2217055885157" x2="11.9174366817539" y2="10.2164852427689"/>
    <line x1="11.9174366817539" y1="10.2164852427689" x2="11.914652775471" y2="10.2088500176828"/>
    <line x1="11.914652775471" y1="10.2088500176828" x2="11.8772958876533" y2="10.1346601835066"/>
    <line x1="11.8772958876533" y1="10.1346601835066" x2="11.8162378510794" y2="10.0430383648809"/>
    <line x1="12.0998069028955" y1="11.974806903023" x2="12.1161226769063" y2="11.9758762953502"/>
    <line x1="12.1161226769063" y1="11.9758762953502" x2="12.1321592835003" y2="11.9790661747325"/>
    <line x1="12.1321592835003" y1="11.9790661747325" x2="12.1476423318923" y2="11.9843219614494"/>
    <line x1="12.1476423318923" y1="11.9843219614494" x2="12.1623069028317" y2="11.9915537275328"/>
    <line x1="12.1623069028317" y1="11.9915537275328" x2="12.1759020814439" y2="12.0006377354602"/>
    <line x1="12.1759020814439" y1="12.0006377354602" x2="12.1881952504536" y2="12.0114185553373"/>
    <line x1="12.1881952504536" y1="12.0114185553373" x2="12.1989760703307" y2="12.023711724347"/>
    <line x1="12.1989760703307" y1="12.023711724347" x2="12.2080600782581" y2="12.0373069029592"/>
    <line x1="12.2080600782581" y1="12.0373069029592" x2="12.2152918443416" y2="12.0519714738986"/>
    <line x1="12.2152918443416" y1="12.0519714738986" x2="12.2205476310584" y2="12.0674545222907"/>
    <line x1="12.2205476310584" y1="12.0674545222907" x2="12.2237375104408" y2="12.0834911288846"/>
    <line x1="12.2237375104408" y1="12.0834911288846" x2="12.224806902768" y2="12.0998069028955"/>
    <line x1="12.224806902768" y1="12.0998069028955" x2="12.2237375104408" y2="12.1161226769063"/>
    <line x1="12.2237375104408" y1="12.1161226769063" x2="12.2205476310584" y2="12.1321592835003"/>
    <line x1="12.2205476310584" y1="12.1321592835003" x2="12.2152918443416" y2="12.1476423318923"/>
    <line x1="12.2152918443416" y1="12.1476423318923" x2="12.2080600782581" y2="12.1623069028317"/>
    <line x1="12.2080600782581" y1="12.1623069028317" x2="12.1989760703307" y2="12.1759020814439"/>
    <line x1="12.1989760703307" y1="12.1759020814439" x2="12.1881952504536" y2="12.1881952504536"/>
    <line x1="12.1881952504536" y1="12.1881952504536" x2="12.1759020814439" y2="12.1989760703307"/>
    <line x1="12.1759020814439" y1="12.1989760703307" x2="12.1623069028317" y2="12.2080600782581"/>
    <line x1="12.1623069028317" y1="12.2080600782581" x2="12.1476423318923" y2="12.2152918443416"/>
    <line x1="12.1476423318923" y1="12.2152918443416" x2="12.1321592835003" y2="12.2205476310584"/>
    <line x1="12.1321592835003" y1="12.2205476310584" x2="12.1161226769063" y2="12.2237375104408"/>
    <line x1="12.1161226769063" y1="12.2237375104408" x2="12.0998069028955" y2="12.224806902768"/>
    <line x1="12.0998069028955" y1="12.224806902768" x2="12.0834911288846" y2="12.2237375104408"/>
    <line x1="12.0834911288846" y1="12.2237375104408" x2="12.0674545222907" y2="12.2205476310584"/>
    <line x1="12.0674545222907" y1="12.2205476310584" x2="12.0519714738986" y2="12.2152918443416"/>
    <line x1="12.0519714738986" y1="12.2152918443416" x2="12.0373069029592" y2="12.2080600782581"/>
    <line x1="12.0373069029592" y1="12.2080600782581" x2="12.023711724347" y2="12.1989760703307"/>
    <line x1="12.023711724347" y1="12.1989760703307" x2="12.0114185553373" y2="12.1881952504536"/>
    <line x1="12.0114185553373" y1="12.1881952504536" x2="12.0006377354602" y2="12.1759020814439"/>
    <line x1="12.0006377354602" y1="12.1759020814439" x2="11.9915537275328" y2="12.1623069028317"/>
    <line x1="11.9915537275328" y1="12.1623069028317" x2="11.9843219614494" y2="12.1476423318923"/>
    <line x1="11.9843219614494" y1="12.1476423318923" x2="11.9790661747325" y2="12.1321592835003"/>
    <line x1="11.9790661747325" y1="12.1321592835003" x2="11.9758762953501" y2="12.1161226769063"/>
    <line x1="11.9758762953501" y1="12.1161226769063" x2="11.974806903023" y2="12.0998069028955"/>
    <line x1="11.974806903023" y1="12.0998069028955" x2="11.9758762953501" y2="12.0834911288846"/>
    <line x1="11.9758762953501" y1="12.0834911288846" x2="11.9790661747325" y2="12.0674545222907"/>
    <line x1="11.9790661747325" y1="12.0674545222907" x2="11.9843219614494" y2="12.0519714738986"/>
    <line x1="11.9843219614494" y1="12.0519714738986" x2="11.9915537275328" y2="12.0373069029592"/>
    <line x1="11.9915537275328" y1="12.0373069029592" x2="12.0006377354602" y2="12.023711724347"/>
    <line x1="12.0006377354602" y1="12.023711724347" x2="12.0114185553373" y2="12.0114185553373"/>
    <line x1="12.0114185553373" y1="12.0114185553373" x2="12.023711724347" y2="12.0006377354602"/>
    <line x1="12.023711724347" y1="12.0006377354602" x2="12.0373069029592" y2="11.9915537275328"/>
    <line x1="12.0373069029592" y1="11.9915537275328" x2="12.0519714738986" y2="11.9843219614494"/>
    <line x1="12.0519714738986" y1="11.9843219614494" x2="12.0674545222907" y2="11.9790661747325"/>
    <line x1="12.0674545222907" y1="11.9790661747325" x2="12.0834911288846" y2="11.9758762953502"/>
    <line x1="12.0834911288846" y1="11.9758762953502" x2="12.0998069028955" y2="11.974806903023"/>
  </g>
</svg>
