<?xml version="1.0" standalone="no"?>
<!DOCTYPE svg PUBLIC "-//W3C//DTD SVG 1.1//EN" "http://www.w3.org/Graphics/SVG/1.1/DTD/svg11.dtd">
<svg width="24.2489850415638in" height="24.2489850415638in"
 viewBox="0 0 24.2489850415638 24.2489850415638"
 xmlns="http://www.w3.org/2000/svg" version="1.1"
 xmlns:xlink="http://www.w3.org/1999/xlink">
<desc>Output from Flights of Ideas SVG Sketchup Plugin</desc>

  <g id="face0" fill="none" stroke="rgb(0,0,255)" stroke-width="1" stroke-miterlimit="4" stroke-dasharray="none" stroke-linejoin="round" stroke-linecap="round">
    <line x1="11.7778367386899" y1="10.0616177510509" x2="11.755570636465" y2="10.0317618563006"/>
    <line x1="11.755570636465" y1="10.0317618563006" x2="11.6644785450984" y2="10.0498811998439"/>
    <line x1="11.6644785450984" y1="10.0498811998439" x2="11.6553327052633" y2="10.0859853183533"/>
    <line x1="11.6553327052633" y1="10.0859853183533" x2="11.6387153729263" y2="10.1826899742284"/>
    <line x1="11.6387153729263" y1="10.1826899742284" x2="11.6352709312645" y2="10.2526927098146"/>
    <line x1="11.6352709312645" y1="10.2526927098146" x2="11.6382245243636" y2="10.2946419342775"/>
    <line x1="11.6382245243636" y1="10.2946419342775" x2="11.6418480673867" y2="10.3126759394373"/>
    <line x1="11.6418480673867" y1="10.3126759394373" x2="11.6418332552929" y2="10.3228345761487"/>
    <line x1="11.6418332552929" y1="10.3228345761487" x2="11.6367411092876" y2="10.3316248075615"/>
    <line x1="11.6367411092876" y1="10.3316248075615" x2="11.6279360657809" y2="10.3366912982676"/>
    <line x1="11.6279360657809" y1="10.3366912982676" x2="11.5441149821229" y2="10.3621181460116"/>
    <line x1="11.5441149821229" y1="10.3621181460116" x2="11.5339790645899" y2="10.3627973330213"/>
    <line x1="11.5339790645899" y1="10.3627973330213" x2="11.5248615090108" y2="10.3583175674591"/>
    <line x1="11.5248615090108" y1="10.3583175674591" x2="11.5192053570399" y2="10.3498791988896"/>
    <line x1="11.5192053570399" y1="10.3498791988896" x2="11.5121990665036" y2="10.3328713389694"/>
    <line x1="11.5121990665036" y1="10.3328713389694" x2="11.4913491490028" y2="10.2963509051626"/>
    <line x1="11.4913491490028" y1="10.2963509051626" x2="11.449593764308" y2="10.2400593870013"/>
    <line x1="11.449593764308" y1="10.2400593870013" x2="11.3820507292336" y2="10.1688844994716"/>
    <line x1="11.3820507292336" y1="10.1688844994716" x2="11.3543878677985" y2="10.1439461784204"/>
    <line x1="11.3543878677985" y1="10.1439461784204" x2="11.2685809939917" y2="10.179488549296"/>
    <line x1="11.2685809939917" y1="10.179488549296" x2="11.2666544530106" y2="10.2166832021305"/>
    <line x1="11.2666544530106" y1="10.2166832021305" x2="11.26922256051" y2="10.314771585876"/>
    <line x1="11.26922256051" y1="10.314771585876" x2="11.2795011590564" y2="10.3841012157598"/>
    <line x1="11.2795011590564" y1="10.3841012157598" x2="11.2905818874011" y2="10.4246681802085"/>
    <line x1="11.2905818874011" y1="10.4246681802085" x2="11.297654064935" y2="10.4416487488408"/>
    <line x1="11.297654064935" y1="10.4416487488408" x2="11.2996213891586" y2="10.4516150798924"/>
    <line x1="11.2996213891586" y1="10.4516150798924" x2="11.2963419763879" y2="10.4612298378774"/>
    <line x1="11.2963419763879" y1="10.4612298378774" x2="11.2886945426265" y2="10.4679167561583"/>
    <line x1="11.2886945426265" y1="10.4679167561583" x2="11.2114445895016" y2="10.5092077163553"/>
    <line x1="11.2114445895016" y1="10.5092077163553" x2="11.2016359335943" y2="10.5118512723924"/>
    <line x1="11.2016359335943" y1="10.5118512723924" x2="11.1918196103829" y2="10.5092363311233"/>
    <line x1="11.1918196103829" y1="10.5092363311233" x2="11.1846258957447" y2="10.5020635639491"/>
    <line x1="11.1846258957447" y1="10.5020635639491" x2="11.1744361602478" y2="10.4867493647651"/>
    <line x1="11.1744361602478" y1="10.4867493647651" x2="11.1468620848738" y2="10.4549982779726"/>
    <line x1="11.1468620848738" y1="10.4549982779726" x2="11.0949270877828" y2="10.4079344569945"/>
    <line x1="11.0949270877828" y1="10.4079344569945" x2="11.0147963414604" y2="10.3513041674336"/>
    <line x1="11.0147963414604" y1="10.3513041674336" x2="10.9827997890666" y2="10.3322417857739"/>
    <line x1="10.9827997890666" y1="10.3322417857739" x2="10.9055756428588" y2="10.3838413106015"/>
    <line x1="10.9055756428588" y1="10.3838413106015" x2="10.9109424366212" y2="10.4206971281117"/>
    <line x1="10.9109424366212" y1="10.4206971281117" x2="10.9325972930261" y2="10.5163997581488"/>
    <line x1="10.9325972930261" y1="10.5163997581488" x2="10.9562039310029" y2="10.5823919835343"/>
    <line x1="10.9562039310029" y1="10.5823919835343" x2="10.974985968417" y2="10.6200177222753"/>
    <line x1="10.974985968417" y1="10.6200177222753" x2="10.9852350006451" y2="10.6352923006503"/>
    <line x1="10.9852350006451" y1="10.6352923006503" x2="10.9891088580196" y2="10.644683325529"/>
    <line x1="10.9891088580196" y1="10.644683325529" x2="10.9877682044771" y2="10.6547531203288"/>
    <line x1="10.9877682044771" y1="10.6547531203288" x2="10.9815722670518" y2="10.6628034916651"/>
    <line x1="10.9815722670518" y1="10.6628034916651" x2="10.9138621168362" y2="10.7183717758709"/>
    <line x1="10.9138621168362" y1="10.7183717758709" x2="10.9047576637003" y2="10.7228781105596"/>
    <line x1="10.9047576637003" y1="10.7228781105596" x2="10.8946198086527" y2="10.72222848431"/>
    <line x1="10.8946198086527" y1="10.72222848431" x2="10.8861649817664" y2="10.7165969639511"/>
    <line x1="10.8861649817664" y1="10.7165969639511" x2="10.8731833871296" y2="10.7035649415895"/>
    <line x1="10.8731833871296" y1="10.7035649415895" x2="10.8399448101353" y2="10.6778033782707"/>
    <line x1="10.8399448101353" y1="10.6778033782707" x2="10.7798260334607" y2="10.6417758907222"/>
    <line x1="10.7798260334607" y1="10.6417758907222" x2="10.6901869555337" y2="10.6018664693994"/>
    <line x1="10.6901869555337" y1="10.6018664693994" x2="10.6550863217458" y2="10.589412583768"/>
    <line x1="10.6550863217458" y1="10.589412583768" x2="10.589412583768" y2="10.6550863217458"/>
    <line x1="10.589412583768" y1="10.6550863217458" x2="10.6018664693994" y2="10.6901869555337"/>
    <line x1="10.6018664693994" y1="10.6901869555337" x2="10.6417758907222" y2="10.7798260334607"/>
    <line x1="10.6417758907222" y1="10.7798260334607" x2="10.6778033782707" y2="10.8399448101353"/>
    <line x1="10.6778033782707" y1="10.8399448101353" x2="10.7035649415895" y2="10.8731833871296"/>
    <line x1="10.7035649415895" y1="10.8731833871296" x2="10.7165969639511" y2="10.8861649817664"/>
    <line x1="10.7165969639511" y1="10.8861649817664" x2="10.72222848431" y2="10.8946198086527"/>
    <line x1="10.72222848431" y1="10.8946198086527" x2="10.7228781105596" y2="10.9047576637003"/>
    <line x1="10.7228781105596" y1="10.9047576637003" x2="10.7183717758709" y2="10.9138621168362"/>
    <line x1="10.7183717758709" y1="10.9138621168362" x2="10.6628034916651" y2="10.9815722670518"/>
    <line x1="10.6628034916651" y1="10.9815722670518" x2="10.6547531203288" y2="10.9877682044771"/>
    <line x1="10.6547531203288" y1="10.9877682044771" x2="10.644683325529" y2="10.9891088580196"/>
    <line x1="10.644683325529" y1="10.9891088580196" x2="10.6352923006503" y2="10.9852350006451"/>
    <line x1="10.6352923006503" y1="10.9852350006451" x2="10.6200177222753" y2="10.974985968417"/>
    <line x1="10.6200177222753" y1="10.974985968417" x2="10.5823919835343" y2="10.9562039310029"/>
    <line x1="10.5823919835343" y1="10.9562039310029" x2="10.5163997581488" y2="10.9325972930261"/>
    <line x1="10.5163997581488" y1="10.9325972930261" x2="10.4206971281117" y2="10.9109424366212"/>
    <line x1="10.4206971281117" y1="10.9109424366212" x2="10.3838413106015" y2="10.9055756428588"/>
    <line x1="10.3838413106015" y1="10.9055756428588" x2="10.3322417857739" y2="10.9827997890666"/>
    <line x1="10.3322417857739" y1="10.9827997890666" x2="10.3513041674336" y2="11.0147963414604"/>
    <line x1="10.3513041674336" y1="11.0147963414604" x2="10.4079344569945" y2="11.0949270877828"/>
    <line x1="10.4079344569945" y1="11.0949270877828" x2="10.4549982779726" y2="11.1468620848738"/>
    <line x1="10.4549982779726" y1="11.1468620848738" x2="10.4867493647651" y2="11.1744361602478"/>
    <line x1="10.4867493647651" y1="11.1744361602478" x2="10.5020635639491" y2="11.1846258957447"/>
    <line x1="10.5020635639491" y1="11.1846258957447" x2="10.5092363311233" y2="11.1918196103829"/>
    <line x1="10.5092363311233" y1="11.1918196103829" x2="10.5118512723924" y2="11.2016359335943"/>
    <line x1="10.5118512723924" y1="11.2016359335943" x2="10.5092077163553" y2="11.2114445895016"/>
    <line x1="10.5092077163553" y1="11.2114445895016" x2="10.4679167561583" y2="11.2886945426265"/>
    <line x1="10.4679167561583" y1="11.2886945426265" x2="10.4612298378774" y2="11.2963419763879"/>
    <line x1="10.4612298378774" y1="11.2963419763879" x2="10.4516150798924" y2="11.2996213891586"/>
    <line x1="10.4516150798924" y1="11.2996213891586" x2="10.4416487488408" y2="11.297654064935"/>
    <line x1="10.4416487488408" y1="11.297654064935" x2="10.4246681802085" y2="11.2905818874011"/>
    <line x1="10.4246681802085" y1="11.2905818874011" x2="10.3841012157598" y2="11.2795011590564"/>
    <line x1="10.3841012157598" y1="11.2795011590564" x2="10.314771585876" y2="11.26922256051"/>
    <line x1="10.314771585876" y1="11.26922256051" x2="10.2166832021305" y2="11.2666544530106"/>
    <line x1="10.2166832021305" y1="11.2666544530106" x2="10.179488549296" y2="11.2685809939917"/>
    <line x1="10.179488549296" y1="11.2685809939917" x2="10.1439461784204" y2="11.3543878677985"/>
    <line x1="10.1439461784204" y1="11.3543878677985" x2="10.1688844994716" y2="11.3820507292336"/>
    <line x1="10.1688844994716" y1="11.3820507292336" x2="10.2400593870013" y2="11.4495937643081"/>
    <line x1="10.2400593870013" y1="11.4495937643081" x2="10.2963509051626" y2="11.4913491490028"/>
    <line x1="10.2963509051626" y1="11.4913491490028" x2="10.3328713389694" y2="11.5121990665036"/>
    <line x1="10.3328713389694" y1="11.5121990665036" x2="10.3498791988896" y2="11.5192053570399"/>
    <line x1="10.3498791988896" y1="11.5192053570399" x2="10.3583175674591" y2="11.5248615090108"/>
    <line x1="10.3583175674591" y1="11.5248615090108" x2="10.3627973330213" y2="11.5339790645899"/>
    <line x1="10.3627973330213" y1="11.5339790645899" x2="10.3621181460116" y2="11.5441149821229"/>
    <line x1="10.3621181460116" y1="11.5441149821229" x2="10.3366912982676" y2="11.6279360657809"/>
    <line x1="10.3366912982676" y1="11.6279360657809" x2="10.3316248075615" y2="11.6367411092876"/>
    <line x1="10.3316248075615" y1="11.6367411092876" x2="10.3228345761487" y2="11.6418332552929"/>
    <line x1="10.3228345761487" y1="11.6418332552929" x2="10.3126759394373" y2="11.6418480673867"/>
    <line x1="10.3126759394373" y1="11.6418480673867" x2="10.2946419342775" y2="11.6382245243636"/>
    <line x1="10.2946419342775" y1="11.6382245243636" x2="10.2526927098146" y2="11.6352709312645"/>
    <line x1="10.2526927098146" y1="11.6352709312645" x2="10.1826899742284" y2="11.6387153729263"/>
    <line x1="10.1826899742284" y1="11.6387153729263" x2="10.0859853183533" y2="11.6553327052633"/>
    <line x1="10.0859853183533" y1="11.6553327052633" x2="10.0498811998439" y2="11.6644785450984"/>
    <line x1="10.0498811998439" y1="11.6644785450984" x2="10.0317618563006" y2="11.755570636465"/>
    <line x1="10.0317618563006" y1="11.755570636465" x2="10.0616177510509" y2="11.7778367386899"/>
    <line x1="10.0616177510509" y1="11.7778367386899" x2="10.144602025537" y2="11.830196421557"/>
    <line x1="10.144602025537" y1="11.830196421557" x2="10.2079579894071" y2="11.8601675578383"/>
    <line x1="10.2079579894071" y1="11.8601675578383" x2="10.2478443104381" y2="11.8734920668292"/>
    <line x1="10.2478443104381" y1="11.8734920668292" x2="10.2658922285759" y2="11.8770456645888"/>
    <line x1="10.2658922285759" y1="11.8770456645888" x2="10.2752719167687" y2="11.880946891144"/>
    <line x1="10.2752719167687" y1="11.880946891144" x2="10.2814443517457" y2="11.8890152965432"/>
    <line x1="10.2814443517457" y1="11.8890152965432" x2="10.2827556345395" y2="11.8990889580754"/>
    <line x1="10.2827556345395" y1="11.8990889580754" x2="10.2741700387476" y2="11.9862599750288"/>
    <line x1="10.2741700387476" y1="11.9862599750288" x2="10.2709186780129" y2="11.9958842553969"/>
    <line x1="10.2709186780129" y1="11.9958842553969" x2="10.2632907768357" y2="12.0025934463214"/>
    <line x1="10.2632907768357" y1="12.0025934463214" x2="10.2533302251765" y2="12.0045898255123"/>
    <line x1="10.2533302251765" y1="12.0045898255123" x2="10.2349358201938" y2="12.0045541677262"/>
    <line x1="10.2349358201938" y1="12.0045541677262" x2="10.1932164208875" y2="12.0098412147991"/>
    <line x1="10.1932164208875" y1="12.0098412147991" x2="10.1252307454695" y2="12.0268763287077"/>
    <line x1="10.1252307454695" y1="12.0268763287077" x2="10.0336261231575" y2="12.0620405061186"/>
    <line x1="10.0336261231575" y1="12.0620405061186" x2="10.0" y2="12.0780541753119"/>
    <line x1="10.0" y1="12.0780541753119" x2="10.0" y2="12.1709308662519"/>
    <line x1="10.0" y1="12.1709308662519" x2="10.0336261231575" y2="12.1869445354452"/>
    <line x1="10.0336261231575" y1="12.1869445354452" x2="10.1252307454695" y2="12.2221087128561"/>
    <line x1="10.1252307454695" y1="12.2221087128561" x2="10.1932164208875" y2="12.2391438267647"/>
    <line x1="10.1932164208875" y1="12.2391438267647" x2="10.2349358201938" y2="12.2444308738375"/>
    <line x1="10.2349358201938" y1="12.2444308738375" x2="10.2533302251765" y2="12.2443952160514"/>
    <line x1="10.2533302251765" y1="12.2443952160514" x2="10.2632907768358" y2="12.2463915952423"/>
    <line x1="10.2632907768358" y1="12.2463915952423" x2="10.2709186780129" y2="12.2531007861669"/>
    <line x1="10.2709186780129" y1="12.2531007861669" x2="10.2741700387476" y2="12.262725066535"/>
    <line x1="10.2741700387476" y1="12.262725066535" x2="10.2827556345395" y2="12.3498960834883"/>
    <line x1="10.2827556345395" y1="12.3498960834883" x2="10.2814443517457" y2="12.3599697450205"/>
    <line x1="10.2814443517457" y1="12.3599697450205" x2="10.2752719167687" y2="12.3680381504197"/>
    <line x1="10.2752719167687" y1="12.3680381504197" x2="10.2658922285759" y2="12.3719393769749"/>
    <line x1="10.2658922285759" y1="12.3719393769749" x2="10.2478443104381" y2="12.3754929747345"/>
    <line x1="10.2478443104381" y1="12.3754929747345" x2="10.2079579894071" y2="12.3888174837254"/>
    <line x1="10.2079579894071" y1="12.3888174837254" x2="10.144602025537" y2="12.4187886200067"/>
    <line x1="10.144602025537" y1="12.4187886200067" x2="10.0616177510509" y2="12.4711483028738"/>
    <line x1="10.0616177510509" y1="12.4711483028738" x2="10.0317618563006" y2="12.4934144050988"/>
    <line x1="10.0317618563006" y1="12.4934144050988" x2="10.0498811998439" y2="12.5845064964653"/>
    <line x1="10.0498811998439" y1="12.5845064964653" x2="10.0859853183533" y2="12.5936523363004"/>
    <line x1="10.0859853183533" y1="12.5936523363004" x2="10.1826899742284" y2="12.6102696686375"/>
    <line x1="10.1826899742284" y1="12.6102696686375" x2="10.2526927098146" y2="12.6137141102992"/>
    <line x1="10.2526927098146" y1="12.6137141102992" x2="10.2946419342775" y2="12.6107605172001"/>
    <line x1="10.2946419342775" y1="12.6107605172001" x2="10.3126759394373" y2="12.607136974177"/>
    <line x1="10.3126759394373" y1="12.607136974177" x2="10.3228345761487" y2="12.6071517862709"/>
    <line x1="10.3228345761487" y1="12.6071517862709" x2="10.3316248075615" y2="12.6122439322761"/>
    <line x1="10.3316248075615" y1="12.6122439322761" x2="10.3366912982676" y2="12.6210489757829"/>
    <line x1="10.3366912982676" y1="12.6210489757829" x2="10.3621181460116" y2="12.7048700594408"/>
    <line x1="10.3621181460116" y1="12.7048700594408" x2="10.3627973330213" y2="12.7150059769739"/>
    <line x1="10.3627973330213" y1="12.7150059769739" x2="10.3583175674591" y2="12.724123532553"/>
    <line x1="10.3583175674591" y1="12.724123532553" x2="10.3498791988896" y2="12.7297796845238"/>
    <line x1="10.3498791988896" y1="12.7297796845238" x2="10.3328713389694" y2="12.7367859750601"/>
    <line x1="10.3328713389694" y1="12.7367859750601" x2="10.2963509051626" y2="12.757635892561"/>
    <line x1="10.2963509051626" y1="12.757635892561" x2="10.2400593870013" y2="12.7993912772557"/>
    <line x1="10.2400593870013" y1="12.7993912772557" x2="10.1688844994716" y2="12.8669343123301"/>
    <line x1="10.1688844994716" y1="12.8669343123301" x2="10.1439461784204" y2="12.8945971737652"/>
    <line x1="10.1439461784204" y1="12.8945971737652" x2="10.179488549296" y2="12.9804040475721"/>
    <line x1="10.179488549296" y1="12.9804040475721" x2="10.2166832021305" y2="12.9823305885531"/>
    <line x1="10.2166832021305" y1="12.9823305885531" x2="10.314771585876" y2="12.9797624810537"/>
    <line x1="10.314771585876" y1="12.9797624810537" x2="10.3841012157598" y2="12.9694838825073"/>
    <line x1="10.3841012157598" y1="12.9694838825073" x2="10.4246681802085" y2="12.9584031541626"/>
    <line x1="10.4246681802085" y1="12.9584031541626" x2="10.4416487488408" y2="12.9513309766288"/>
    <line x1="10.4416487488408" y1="12.9513309766288" x2="10.4516150798924" y2="12.9493636524052"/>
    <line x1="10.4516150798924" y1="12.9493636524052" x2="10.4612298378774" y2="12.9526430651758"/>
    <line x1="10.4612298378774" y1="12.9526430651758" x2="10.4679167561583" y2="12.9602904989372"/>
    <line x1="10.4679167561583" y1="12.9602904989372" x2="10.5092077163553" y2="13.0375404520621"/>
    <line x1="10.5092077163553" y1="13.0375404520621" x2="10.5118512723924" y2="13.0473491079695"/>
    <line x1="10.5118512723924" y1="13.0473491079695" x2="10.5092363311233" y2="13.0571654311808"/>
    <line x1="10.5092363311233" y1="13.0571654311808" x2="10.5020635639491" y2="13.064359145819"/>
    <line x1="10.5020635639491" y1="13.064359145819" x2="10.4867493647651" y2="13.074548881316"/>
    <line x1="10.4867493647651" y1="13.074548881316" x2="10.4549982779726" y2="13.1021229566899"/>
    <line x1="10.4549982779726" y1="13.1021229566899" x2="10.4079344569945" y2="13.154057953781"/>
    <line x1="10.4079344569945" y1="13.154057953781" x2="10.3513041674336" y2="13.2341887001033"/>
    <line x1="10.3513041674336" y1="13.2341887001033" x2="10.3322417857739" y2="13.2661852524971"/>
    <line x1="10.3322417857739" y1="13.2661852524971" x2="10.3838413106015" y2="13.343409398705"/>
    <line x1="10.3838413106015" y1="13.343409398705" x2="10.4206971281117" y2="13.3380426049425"/>
    <line x1="10.4206971281117" y1="13.3380426049425" x2="10.5163997581488" y2="13.3163877485377"/>
    <line x1="10.5163997581488" y1="13.3163877485377" x2="10.5823919835343" y2="13.2927811105609"/>
    <line x1="10.5823919835343" y1="13.2927811105609" x2="10.6200177222753" y2="13.2739990731468"/>
    <line x1="10.6200177222753" y1="13.2739990731468" x2="10.6352923006503" y2="13.2637500409187"/>
    <line x1="10.6352923006503" y1="13.2637500409187" x2="10.644683325529" y2="13.2598761835442"/>
    <line x1="10.644683325529" y1="13.2598761835442" x2="10.6547531203288" y2="13.2612168370866"/>
    <line x1="10.6547531203288" y1="13.2612168370866" x2="10.6628034916651" y2="13.2674127745119"/>
    <line x1="10.6628034916651" y1="13.2674127745119" x2="10.7183717758709" y2="13.3351229247275"/>
    <line x1="10.7183717758709" y1="13.3351229247275" x2="10.7228781105596" y2="13.3442273778634"/>
    <line x1="10.7228781105596" y1="13.3442273778634" x2="10.72222848431" y2="13.3543652329111"/>
    <line x1="10.72222848431" y1="13.3543652329111" x2="10.7165969639511" y2="13.3628200597974"/>
    <line x1="10.7165969639511" y1="13.3628200597974" x2="10.7035649415895" y2="13.3758016544342"/>
    <line x1="10.7035649415895" y1="13.3758016544342" x2="10.6778033782707" y2="13.4090402314284"/>
    <line x1="10.6778033782707" y1="13.4090402314284" x2="10.6417758907222" y2="13.469159008103"/>
    <line x1="10.6417758907222" y1="13.469159008103" x2="10.6018664693994" y2="13.55879808603"/>
    <line x1="10.6018664693994" y1="13.55879808603" x2="10.589412583768" y2="13.5938987198179"/>
    <line x1="10.589412583768" y1="13.5938987198179" x2="10.6550863217458" y2="13.6595724577958"/>
    <line x1="10.6550863217458" y1="13.6595724577958" x2="10.6901869555337" y2="13.6471185721644"/>
    <line x1="10.6901869555337" y1="13.6471185721644" x2="10.7798260334607" y2="13.6072091508415"/>
    <line x1="10.7798260334607" y1="13.6072091508415" x2="10.8399448101353" y2="13.571181663293"/>
    <line x1="10.8399448101353" y1="13.571181663293" x2="10.8731833871296" y2="13.5454200999742"/>
    <line x1="10.8731833871296" y1="13.5454200999742" x2="10.8861649817664" y2="13.5323880776127"/>
    <line x1="10.8861649817664" y1="13.5323880776127" x2="10.8946198086527" y2="13.5267565572538"/>
    <line x1="10.8946198086527" y1="13.5267565572538" x2="10.9047576637003" y2="13.5261069310042"/>
    <line x1="10.9047576637003" y1="13.5261069310042" x2="10.9138621168362" y2="13.5306132656929"/>
    <line x1="10.9138621168362" y1="13.5306132656929" x2="10.9815722670518" y2="13.5861815498986"/>
    <line x1="10.9815722670518" y1="13.5861815498986" x2="10.9877682044771" y2="13.5942319212349"/>
    <line x1="10.9877682044771" y1="13.5942319212349" x2="10.9891088580196" y2="13.6043017160347"/>
    <line x1="10.9891088580196" y1="13.6043017160347" x2="10.9852350006451" y2="13.6136927409134"/>
    <line x1="10.9852350006451" y1="13.6136927409134" x2="10.974985968417" y2="13.6289673192884"/>
    <line x1="10.974985968417" y1="13.6289673192884" x2="10.9562039310029" y2="13.6665930580294"/>
    <line x1="10.9562039310029" y1="13.6665930580294" x2="10.9325972930261" y2="13.732585283415"/>
    <line x1="10.9325972930261" y1="13.732585283415" x2="10.9109424366212" y2="13.828287913452"/>
    <line x1="10.9109424366212" y1="13.828287913452" x2="10.9055756428588" y2="13.8651437309622"/>
    <line x1="10.9055756428588" y1="13.8651437309622" x2="10.9827997890666" y2="13.9167432557899"/>
    <line x1="10.9827997890666" y1="13.9167432557899" x2="11.0147963414604" y2="13.8976808741301"/>
    <line x1="11.0147963414604" y1="13.8976808741301" x2="11.0949270877828" y2="13.8410505845693"/>
    <line x1="11.0949270877828" y1="13.8410505845693" x2="11.1468620848738" y2="13.7939867635911"/>
    <line x1="11.1468620848738" y1="13.7939867635911" x2="11.1744361602478" y2="13.7622356767987"/>
    <line x1="11.1744361602478" y1="13.7622356767987" x2="11.1846258957447" y2="13.7469214776146"/>
    <line x1="11.1846258957447" y1="13.7469214776146" x2="11.1918196103829" y2="13.7397487104405"/>
    <line x1="11.1918196103829" y1="13.7397487104405" x2="11.2016359335943" y2="13.7371337691713"/>
    <line x1="11.2016359335943" y1="13.7371337691713" x2="11.2114445895016" y2="13.7397773252085"/>
    <line x1="11.2114445895016" y1="13.7397773252085" x2="11.2886945426265" y2="13.7810682854054"/>
    <line x1="11.2886945426265" y1="13.7810682854054" x2="11.2963419763879" y2="13.7877552036864"/>
    <line x1="11.2963419763879" y1="13.7877552036864" x2="11.2996213891586" y2="13.7973699616714"/>
    <line x1="11.2996213891586" y1="13.7973699616714" x2="11.297654064935" y2="13.8073362927229"/>
    <line x1="11.297654064935" y1="13.8073362927229" x2="11.2905818874011" y2="13.8243168613552"/>
    <line x1="11.2905818874011" y1="13.8243168613552" x2="11.2795011590564" y2="13.8648838258039"/>
    <line x1="11.2795011590564" y1="13.8648838258039" x2="11.26922256051" y2="13.9342134556878"/>
    <line x1="11.26922256051" y1="13.9342134556878" x2="11.2666544530106" y2="14.0323018394332"/>
    <line x1="11.2666544530106" y1="14.0323018394332" x2="11.2685809939917" y2="14.0694964922677"/>
    <line x1="11.2685809939917" y1="14.0694964922677" x2="11.3543878677985" y2="14.1050388631434"/>
    <line x1="11.3543878677985" y1="14.1050388631434" x2="11.3820507292337" y2="14.0801005420922"/>
    <line x1="11.3820507292337" y1="14.0801005420922" x2="11.4495937643081" y2="14.0089256545625"/>
    <line x1="11.4495937643081" y1="14.0089256545625" x2="11.4913491490028" y2="13.9526341364012"/>
    <line x1="11.4913491490028" y1="13.9526341364012" x2="11.5121990665036" y2="13.9161137025943"/>
    <line x1="11.5121990665036" y1="13.9161137025943" x2="11.51920535704" y2="13.8991058426741"/>
    <line x1="11.51920535704" y1="13.8991058426741" x2="11.5248615090108" y2="13.8906674741047"/>
    <line x1="11.5248615090108" y1="13.8906674741047" x2="11.5339790645899" y2="13.8861877085425"/>
    <line x1="11.5339790645899" y1="13.8861877085425" x2="11.5441149821229" y2="13.8868668955521"/>
    <line x1="11.5441149821229" y1="13.8868668955521" x2="11.6279360657809" y2="13.9122937432961"/>
    <line x1="11.6279360657809" y1="13.9122937432961" x2="11.6367411092876" y2="13.9173602340022"/>
    <line x1="11.6367411092876" y1="13.9173602340022" x2="11.6418332552929" y2="13.9261504654151"/>
    <line x1="11.6418332552929" y1="13.9261504654151" x2="11.6418480673867" y2="13.9363091021264"/>
    <line x1="11.6418480673867" y1="13.9363091021264" x2="11.6382245243636" y2="13.9543431072863"/>
    <line x1="11.6382245243636" y1="13.9543431072863" x2="11.6352709312645" y2="13.9962923317491"/>
    <line x1="11.6352709312645" y1="13.9962923317491" x2="11.6387153729263" y2="14.0662950673353"/>
    <line x1="11.6387153729263" y1="14.0662950673353" x2="11.6553327052633" y2="14.1629997232104"/>
    <line x1="11.6553327052633" y1="14.1629997232104" x2="11.6644785450984" y2="14.1991038417199"/>
    <line x1="11.6644785450984" y1="14.1991038417199" x2="11.755570636465" y2="14.2172231852631"/>
    <line x1="11.755570636465" y1="14.2172231852631" x2="11.7778367386899" y2="14.1873672905129"/>
    <line x1="11.7778367386899" y1="14.1873672905129" x2="11.830196421557" y2="14.1043830160268"/>
    <line x1="11.830196421557" y1="14.1043830160268" x2="11.8601675578383" y2="14.0410270521566"/>
    <line x1="11.8601675578383" y1="14.0410270521566" x2="11.8734920668292" y2="14.0011407311257"/>
    <line x1="11.8734920668292" y1="14.0011407311257" x2="11.8770456645888" y2="13.9830928129879"/>
    <line x1="11.8770456645888" y1="13.9830928129879" x2="11.880946891144" y2="13.973713124795"/>
    <line x1="11.880946891144" y1="13.973713124795" x2="11.8890152965432" y2="13.967540689818"/>
    <line x1="11.8890152965432" y1="13.967540689818" x2="11.8990889580754" y2="13.9662294070243"/>
    <line x1="11.8990889580754" y1="13.9662294070243" x2="11.9862599750288" y2="13.9748150028161"/>
    <line x1="11.9862599750288" y1="13.9748150028161" x2="11.9958842553969" y2="13.9780663635508"/>
    <line x1="11.9958842553969" y1="13.9780663635508" x2="12.0025934463214" y2="13.985694264728"/>
    <line x1="12.0025934463214" y1="13.985694264728" x2="12.0045898255123" y2="13.9956548163873"/>
    <line x1="12.0045898255123" y1="13.9956548163873" x2="12.0045541677262" y2="14.01404922137"/>
    <line x1="12.0045541677262" y1="14.01404922137" x2="12.0098412147991" y2="14.0557686206763"/>
    <line x1="12.0098412147991" y1="14.0557686206763" x2="12.0268763287077" y2="14.1237542960942"/>
    <line x1="12.0268763287077" y1="14.1237542960942" x2="12.0620405061186" y2="14.2153589184063"/>
    <line x1="12.0620405061186" y1="14.2153589184063" x2="12.0780541753119" y2="14.2489850415638"/>
    <line x1="12.0780541753119" y1="14.2489850415638" x2="12.1709308662519" y2="14.2489850415638"/>
    <line x1="12.1709308662519" y1="14.2489850415638" x2="12.1869445354452" y2="14.2153589184063"/>
    <line x1="12.1869445354452" y1="14.2153589184063" x2="12.2221087128561" y2="14.1237542960942"/>
    <line x1="12.2221087128561" y1="14.1237542960942" x2="12.2391438267647" y2="14.0557686206763"/>
    <line x1="12.2391438267647" y1="14.0557686206763" x2="12.2444308738375" y2="14.01404922137"/>
    <line x1="12.2444308738375" y1="14.01404922137" x2="12.2443952160514" y2="13.9956548163873"/>
    <line x1="12.2443952160514" y1="13.9956548163873" x2="12.2463915952423" y2="13.985694264728"/>
    <line x1="12.2463915952423" y1="13.985694264728" x2="12.2531007861669" y2="13.9780663635508"/>
    <line x1="12.2531007861669" y1="13.9780663635508" x2="12.262725066535" y2="13.9748150028161"/>
    <line x1="12.262725066535" y1="13.9748150028161" x2="12.3498960834883" y2="13.9662294070243"/>
    <line x1="12.3498960834883" y1="13.9662294070243" x2="12.3599697450205" y2="13.967540689818"/>
    <line x1="12.3599697450205" y1="13.967540689818" x2="12.3680381504197" y2="13.973713124795"/>
    <line x1="12.3680381504197" y1="13.973713124795" x2="12.3719393769749" y2="13.9830928129879"/>
    <line x1="12.3719393769749" y1="13.9830928129879" x2="12.3754929747345" y2="14.0011407311257"/>
    <line x1="12.3754929747345" y1="14.0011407311257" x2="12.3888174837254" y2="14.0410270521566"/>
    <line x1="12.3888174837254" y1="14.0410270521566" x2="12.4187886200067" y2="14.1043830160268"/>
    <line x1="12.4187886200067" y1="14.1043830160268" x2="12.4711483028738" y2="14.1873672905129"/>
    <line x1="12.4711483028738" y1="14.1873672905129" x2="12.4934144050988" y2="14.2172231852631"/>
    <line x1="12.4934144050988" y1="14.2172231852631" x2="12.5845064964653" y2="14.1991038417199"/>
    <line x1="12.5845064964653" y1="14.1991038417199" x2="12.5936523363004" y2="14.1629997232104"/>
    <line x1="12.5936523363004" y1="14.1629997232104" x2="12.6102696686375" y2="14.0662950673353"/>
    <line x1="12.6102696686375" y1="14.0662950673353" x2="12.6137141102992" y2="13.9962923317491"/>
    <line x1="12.6137141102992" y1="13.9962923317491" x2="12.6107605172001" y2="13.9543431072863"/>
    <line x1="12.6107605172001" y1="13.9543431072863" x2="12.607136974177" y2="13.9363091021264"/>
    <line x1="12.607136974177" y1="13.9363091021264" x2="12.6071517862709" y2="13.9261504654151"/>
    <line x1="12.6071517862709" y1="13.9261504654151" x2="12.6122439322761" y2="13.9173602340022"/>
    <line x1="12.6122439322761" y1="13.9173602340022" x2="12.6210489757829" y2="13.9122937432961"/>
    <line x1="12.6210489757829" y1="13.9122937432961" x2="12.7048700594408" y2="13.8868668955521"/>
    <line x1="12.7048700594408" y1="13.8868668955521" x2="12.7150059769739" y2="13.8861877085425"/>
    <line x1="12.7150059769739" y1="13.8861877085425" x2="12.724123532553" y2="13.8906674741047"/>
    <line x1="12.724123532553" y1="13.8906674741047" x2="12.7297796845238" y2="13.8991058426741"/>
    <line x1="12.7297796845238" y1="13.8991058426741" x2="12.7367859750601" y2="13.9161137025943"/>
    <line x1="12.7367859750601" y1="13.9161137025943" x2="12.757635892561" y2="13.9526341364012"/>
    <line x1="12.757635892561" y1="13.9526341364012" x2="12.7993912772557" y2="14.0089256545625"/>
    <line x1="12.7993912772557" y1="14.0089256545625" x2="12.8669343123301" y2="14.0801005420922"/>
    <line x1="12.8669343123301" y1="14.0801005420922" x2="12.8945971737652" y2="14.1050388631434"/>
    <line x1="12.8945971737652" y1="14.1050388631434" x2="12.9804040475721" y2="14.0694964922677"/>
    <line x1="12.9804040475721" y1="14.0694964922677" x2="12.9823305885531" y2="14.0323018394332"/>
    <line x1="12.9823305885531" y1="14.0323018394332" x2="12.9797624810537" y2="13.9342134556878"/>
    <line x1="12.9797624810537" y1="13.9342134556878" x2="12.9694838825073" y2="13.8648838258039"/>
    <line x1="12.9694838825073" y1="13.8648838258039" x2="12.9584031541626" y2="13.8243168613552"/>
    <line x1="12.9584031541626" y1="13.8243168613552" x2="12.9513309766288" y2="13.8073362927229"/>
    <line x1="12.9513309766288" y1="13.8073362927229" x2="12.9493636524052" y2="13.7973699616714"/>
    <line x1="12.9493636524052" y1="13.7973699616714" x2="12.9526430651758" y2="13.7877552036864"/>
    <line x1="12.9526430651758" y1="13.7877552036864" x2="12.9602904989372" y2="13.7810682854054"/>
    <line x1="12.9602904989372" y1="13.7810682854054" x2="13.0375404520621" y2="13.7397773252085"/>
    <line x1="13.0375404520621" y1="13.7397773252085" x2="13.0473491079695" y2="13.7371337691713"/>
    <line x1="13.0473491079695" y1="13.7371337691713" x2="13.0571654311808" y2="13.7397487104405"/>
    <line x1="13.0571654311808" y1="13.7397487104405" x2="13.064359145819" y2="13.7469214776146"/>
    <line x1="13.064359145819" y1="13.7469214776146" x2="13.074548881316" y2="13.7622356767987"/>
    <line x1="13.074548881316" y1="13.7622356767987" x2="13.1021229566899" y2="13.7939867635911"/>
    <line x1="13.1021229566899" y1="13.7939867635911" x2="13.154057953781" y2="13.8410505845693"/>
    <line x1="13.154057953781" y1="13.8410505845693" x2="13.2341887001033" y2="13.8976808741301"/>
    <line x1="13.2341887001033" y1="13.8976808741301" x2="13.2661852524971" y2="13.9167432557899"/>
    <line x1="13.2661852524971" y1="13.9167432557899" x2="13.343409398705" y2="13.8651437309622"/>
    <line x1="13.343409398705" y1="13.8651437309622" x2="13.3380426049425" y2="13.828287913452"/>
    <line x1="13.3380426049425" y1="13.828287913452" x2="13.3163877485377" y2="13.732585283415"/>
    <line x1="13.3163877485377" y1="13.732585283415" x2="13.2927811105609" y2="13.6665930580294"/>
    <line x1="13.2927811105609" y1="13.6665930580294" x2="13.2739990731468" y2="13.6289673192884"/>
    <line x1="13.2739990731468" y1="13.6289673192884" x2="13.2637500409187" y2="13.6136927409134"/>
    <line x1="13.2637500409187" y1="13.6136927409134" x2="13.2598761835442" y2="13.6043017160347"/>
    <line x1="13.2598761835442" y1="13.6043017160347" x2="13.2612168370866" y2="13.5942319212349"/>
    <line x1="13.2612168370866" y1="13.5942319212349" x2="13.2674127745119" y2="13.5861815498986"/>
    <line x1="13.2674127745119" y1="13.5861815498986" x2="13.3351229247275" y2="13.5306132656929"/>
    <line x1="13.3351229247275" y1="13.5306132656929" x2="13.3442273778634" y2="13.5261069310042"/>
    <line x1="13.3442273778634" y1="13.5261069310042" x2="13.3543652329111" y2="13.5267565572538"/>
    <line x1="13.3543652329111" y1="13.5267565572538" x2="13.3628200597974" y2="13.5323880776127"/>
    <line x1="13.3628200597974" y1="13.5323880776127" x2="13.3758016544342" y2="13.5454200999742"/>
    <line x1="13.3758016544342" y1="13.5454200999742" x2="13.4090402314284" y2="13.571181663293"/>
    <line x1="13.4090402314284" y1="13.571181663293" x2="13.469159008103" y2="13.6072091508415"/>
    <line x1="13.469159008103" y1="13.6072091508415" x2="13.55879808603" y2="13.6471185721644"/>
    <line x1="13.55879808603" y1="13.6471185721644" x2="13.5938987198179" y2="13.6595724577958"/>
    <line x1="13.5938987198179" y1="13.6595724577958" x2="13.6595724577958" y2="13.5938987198179"/>
    <line x1="13.6595724577958" y1="13.5938987198179" x2="13.6471185721644" y2="13.55879808603"/>
    <line x1="13.6471185721644" y1="13.55879808603" x2="13.6072091508415" y2="13.469159008103"/>
    <line x1="13.6072091508415" y1="13.469159008103" x2="13.571181663293" y2="13.4090402314284"/>
    <line x1="13.571181663293" y1="13.4090402314284" x2="13.5454200999742" y2="13.3758016544342"/>
    <line x1="13.5454200999742" y1="13.3758016544342" x2="13.5323880776127" y2="13.3628200597974"/>
    <line x1="13.5323880776127" y1="13.3628200597974" x2="13.5267565572538" y2="13.3543652329111"/>
    <line x1="13.5267565572538" y1="13.3543652329111" x2="13.5261069310042" y2="13.3442273778634"/>
    <line x1="13.5261069310042" y1="13.3442273778634" x2="13.5306132656929" y2="13.3351229247275"/>
    <line x1="13.5306132656929" y1="13.3351229247275" x2="13.5861815498986" y2="13.2674127745119"/>
    <line x1="13.5861815498986" y1="13.2674127745119" x2="13.5942319212349" y2="13.2612168370866"/>
    <line x1="13.5942319212349" y1="13.2612168370866" x2="13.6043017160347" y2="13.2598761835442"/>
    <line x1="13.6043017160347" y1="13.2598761835442" x2="13.6136927409134" y2="13.2637500409187"/>
    <line x1="13.6136927409134" y1="13.2637500409187" x2="13.6289673192884" y2="13.2739990731468"/>
    <line x1="13.6289673192884" y1="13.2739990731468" x2="13.6665930580294" y2="13.2927811105609"/>
    <line x1="13.6665930580294" y1="13.2927811105609" x2="13.732585283415" y2="13.3163877485377"/>
    <line x1="13.732585283415" y1="13.3163877485377" x2="13.828287913452" y2="13.3380426049425"/>
    <line x1="13.828287913452" y1="13.3380426049425" x2="13.8651437309622" y2="13.343409398705"/>
    <line x1="13.8651437309622" y1="13.343409398705" x2="13.9167432557899" y2="13.2661852524971"/>
    <line x1="13.9167432557899" y1="13.2661852524971" x2="13.8976808741301" y2="13.2341887001033"/>
    <line x1="13.8976808741301" y1="13.2341887001033" x2="13.8410505845693" y2="13.154057953781"/>
    <line x1="13.8410505845693" y1="13.154057953781" x2="13.7939867635911" y2="13.1021229566899"/>
    <line x1="13.7939867635911" y1="13.1021229566899" x2="13.7622356767987" y2="13.074548881316"/>
    <line x1="13.7622356767987" y1="13.074548881316" x2="13.7469214776146" y2="13.064359145819"/>
    <line x1="13.7469214776146" y1="13.064359145819" x2="13.7397487104405" y2="13.0571654311808"/>
    <line x1="13.7397487104405" y1="13.0571654311808" x2="13.7371337691713" y2="13.0473491079695"/>
    <line x1="13.7371337691713" y1="13.0473491079695" x2="13.7397773252085" y2="13.0375404520621"/>
    <line x1="13.7397773252085" y1="13.0375404520621" x2="13.7810682854054" y2="12.9602904989372"/>
    <line x1="13.7810682854054" y1="12.9602904989372" x2="13.7877552036864" y2="12.9526430651758"/>
    <line x1="13.7877552036864" y1="12.9526430651758" x2="13.7973699616714" y2="12.9493636524052"/>
    <line x1="13.7973699616714" y1="12.9493636524052" x2="13.8073362927229" y2="12.9513309766288"/>
    <line x1="13.8073362927229" y1="12.9513309766288" x2="13.8243168613552" y2="12.9584031541626"/>
    <line x1="13.8243168613552" y1="12.9584031541626" x2="13.8648838258039" y2="12.9694838825073"/>
    <line x1="13.8648838258039" y1="12.9694838825073" x2="13.9342134556878" y2="12.9797624810537"/>
    <line x1="13.9342134556878" y1="12.9797624810537" x2="14.0323018394332" y2="12.9823305885531"/>
    <line x1="14.0323018394332" y1="12.9823305885531" x2="14.0694964922677" y2="12.9804040475721"/>
    <line x1="14.0694964922677" y1="12.9804040475721" x2="14.1050388631434" y2="12.8945971737652"/>
    <line x1="14.1050388631434" y1="12.8945971737652" x2="14.0801005420922" y2="12.8669343123301"/>
    <line x1="14.0801005420922" y1="12.8669343123301" x2="14.0089256545625" y2="12.7993912772557"/>
    <line x1="14.0089256545625" y1="12.7993912772557" x2="13.9526341364012" y2="12.757635892561"/>
    <line x1="13.9526341364012" y1="12.757635892561" x2="13.9161137025943" y2="12.7367859750601"/>
    <line x1="13.9161137025943" y1="12.7367859750601" x2="13.8991058426741" y2="12.7297796845238"/>
    <line x1="13.8991058426741" y1="12.7297796845238" x2="13.8906674741047" y2="12.724123532553"/>
    <line x1="13.8906674741047" y1="12.724123532553" x2="13.8861877085425" y2="12.7150059769739"/>
    <line x1="13.8861877085425" y1="12.7150059769739" x2="13.8868668955521" y2="12.7048700594408"/>
    <line x1="13.8868668955521" y1="12.7048700594408" x2="13.9122937432961" y2="12.6210489757829"/>
    <line x1="13.9122937432961" y1="12.6210489757829" x2="13.9173602340022" y2="12.6122439322761"/>
    <line x1="13.9173602340022" y1="12.6122439322761" x2="13.9261504654151" y2="12.6071517862709"/>
    <line x1="13.9261504654151" y1="12.6071517862709" x2="13.9363091021264" y2="12.607136974177"/>
    <line x1="13.9363091021264" y1="12.607136974177" x2="13.9543431072863" y2="12.6107605172001"/>
    <line x1="13.9543431072863" y1="12.6107605172001" x2="13.9962923317491" y2="12.6137141102992"/>
    <line x1="13.9962923317491" y1="12.6137141102992" x2="14.0662950673353" y2="12.6102696686375"/>
    <line x1="14.0662950673353" y1="12.6102696686375" x2="14.1629997232104" y2="12.5936523363004"/>
    <line x1="14.1629997232104" y1="12.5936523363004" x2="14.1991038417199" y2="12.5845064964653"/>
    <line x1="14.1991038417199" y1="12.5845064964653" x2="14.2172231852631" y2="12.4934144050988"/>
    <line x1="14.2172231852631" y1="12.4934144050988" x2="14.1873672905129" y2="12.4711483028738"/>
    <line x1="14.1873672905129" y1="12.4711483028738" x2="14.1043830160268" y2="12.4187886200067"/>
    <line x1="14.1043830160268" y1="12.4187886200067" x2="14.0410270521566" y2="12.3888174837254"/>
    <line x1="14.0410270521566" y1="12.3888174837254" x2="14.0011407311257" y2="12.3754929747345"/>
    <line x1="14.0011407311257" y1="12.3754929747345" x2="13.9830928129879" y2="12.3719393769749"/>
    <line x1="13.9830928129879" y1="12.3719393769749" x2="13.973713124795" y2="12.3680381504197"/>
    <line x1="13.973713124795" y1="12.3680381504197" x2="13.967540689818" y2="12.3599697450205"/>
    <line x1="13.967540689818" y1="12.3599697450205" x2="13.9662294070243" y2="12.3498960834883"/>
    <line x1="13.9662294070243" y1="12.3498960834883" x2="13.9748150028161" y2="12.262725066535"/>
    <line x1="13.9748150028161" y1="12.262725066535" x2="13.9780663635508" y2="12.2531007861669"/>
    <line x1="13.9780663635508" y1="12.2531007861669" x2="13.985694264728" y2="12.2463915952423"/>
    <line x1="13.985694264728" y1="12.2463915952423" x2="13.9956548163873" y2="12.2443952160514"/>
    <line x1="13.9956548163873" y1="12.2443952160514" x2="14.01404922137" y2="12.2444308738375"/>
    <line x1="14.01404922137" y1="12.2444308738375" x2="14.0557686206763" y2="12.2391438267647"/>
    <line x1="14.0557686206763" y1="12.2391438267647" x2="14.1237542960942" y2="12.2221087128561"/>
    <line x1="14.1237542960942" y1="12.2221087128561" x2="14.2153589184063" y2="12.1869445354452"/>
    <line x1="14.2153589184063" y1="12.1869445354452" x2="14.2489850415638" y2="12.1709308662519"/>
    <line x1="14.2489850415638" y1="12.1709308662519" x2="14.2489850415638" y2="12.0780541753119"/>
    <line x1="14.2489850415638" y1="12.0780541753119" x2="14.2153589184063" y2="12.0620405061186"/>
    <line x1="14.2153589184063" y1="12.0620405061186" x2="14.1237542960942" y2="12.0268763287077"/>
    <line x1="14.1237542960942" y1="12.0268763287077" x2="14.0557686206763" y2="12.0098412147991"/>
    <line x1="14.0557686206763" y1="12.0098412147991" x2="14.01404922137" y2="12.0045541677262"/>
    <line x1="14.01404922137" y1="12.0045541677262" x2="13.9956548163873" y2="12.0045898255123"/>
    <line x1="13.9956548163873" y1="12.0045898255123" x2="13.985694264728" y2="12.0025934463214"/>
    <line x1="13.985694264728" y1="12.0025934463214" x2="13.9780663635508" y2="11.9958842553969"/>
    <line x1="13.9780663635508" y1="11.9958842553969" x2="13.9748150028161" y2="11.9862599750288"/>
    <line x1="13.9748150028161" y1="11.9862599750288" x2="13.9662294070243" y2="11.8990889580754"/>
    <line x1="13.9662294070243" y1="11.8990889580754" x2="13.967540689818" y2="11.8890152965432"/>
    <line x1="13.967540689818" y1="11.8890152965432" x2="13.973713124795" y2="11.880946891144"/>
    <line x1="13.973713124795" y1="11.880946891144" x2="13.9830928129879" y2="11.8770456645888"/>
    <line x1="13.9830928129879" y1="11.8770456645888" x2="14.0011407311257" y2="11.8734920668292"/>
    <line x1="14.0011407311257" y1="11.8734920668292" x2="14.0410270521566" y2="11.8601675578383"/>
    <line x1="14.0410270521566" y1="11.8601675578383" x2="14.1043830160268" y2="11.830196421557"/>
    <line x1="14.1043830160268" y1="11.830196421557" x2="14.1873672905129" y2="11.7778367386899"/>
    <line x1="14.1873672905129" y1="11.7778367386899" x2="14.2172231852631" y2="11.755570636465"/>
    <line x1="14.2172231852631" y1="11.755570636465" x2="14.1991038417199" y2="11.6644785450984"/>
    <line x1="14.1991038417199" y1="11.6644785450984" x2="14.1629997232104" y2="11.6553327052633"/>
    <line x1="14.1629997232104" y1="11.6553327052633" x2="14.0662950673353" y2="11.6387153729263"/>
    <line x1="14.0662950673353" y1="11.6387153729263" x2="13.9962923317491" y2="11.6352709312645"/>
    <line x1="13.9962923317491" y1="11.6352709312645" x2="13.9543431072863" y2="11.6382245243636"/>
    <line x1="13.9543431072863" y1="11.6382245243636" x2="13.9363091021264" y2="11.6418480673867"/>
    <line x1="13.9363091021264" y1="11.6418480673867" x2="13.9261504654151" y2="11.6418332552929"/>
    <line x1="13.9261504654151" y1="11.6418332552929" x2="13.9173602340022" y2="11.6367411092876"/>
    <line x1="13.9173602340022" y1="11.6367411092876" x2="13.9122937432961" y2="11.6279360657809"/>
    <line x1="13.9122937432961" y1="11.6279360657809" x2="13.8868668955521" y2="11.5441149821229"/>
    <line x1="13.8868668955521" y1="11.5441149821229" x2="13.8861877085425" y2="11.5339790645899"/>
    <line x1="13.8861877085425" y1="11.5339790645899" x2="13.8906674741047" y2="11.5248615090108"/>
    <line x1="13.8906674741047" y1="11.5248615090108" x2="13.8991058426741" y2="11.5192053570399"/>
    <line x1="13.8991058426741" y1="11.5192053570399" x2="13.9161137025943" y2="11.5121990665036"/>
    <line x1="13.9161137025943" y1="11.5121990665036" x2="13.9526341364012" y2="11.4913491490028"/>
    <line x1="13.9526341364012" y1="11.4913491490028" x2="14.0089256545625" y2="11.4495937643081"/>
    <line x1="14.0089256545625" y1="11.4495937643081" x2="14.0801005420922" y2="11.3820507292337"/>
    <line x1="14.0801005420922" y1="11.3820507292337" x2="14.1050388631434" y2="11.3543878677985"/>
    <line x1="14.1050388631434" y1="11.3543878677985" x2="14.0694964922677" y2="11.2685809939917"/>
    <line x1="14.0694964922677" y1="11.2685809939917" x2="14.0323018394332" y2="11.2666544530106"/>
    <line x1="14.0323018394332" y1="11.2666544530106" x2="13.9342134556878" y2="11.26922256051"/>
    <line x1="13.9342134556878" y1="11.26922256051" x2="13.8648838258039" y2="11.2795011590564"/>
    <line x1="13.8648838258039" y1="11.2795011590564" x2="13.8243168613552" y2="11.2905818874011"/>
    <line x1="13.8243168613552" y1="11.2905818874011" x2="13.8073362927229" y2="11.297654064935"/>
    <line x1="13.8073362927229" y1="11.297654064935" x2="13.7973699616714" y2="11.2996213891586"/>
    <line x1="13.7973699616714" y1="11.2996213891586" x2="13.7877552036864" y2="11.2963419763879"/>
    <line x1="13.7877552036864" y1="11.2963419763879" x2="13.7810682854054" y2="11.2886945426265"/>
    <line x1="13.7810682854054" y1="11.2886945426265" x2="13.7397773252085" y2="11.2114445895016"/>
    <line x1="13.7397773252085" y1="11.2114445895016" x2="13.7371337691713" y2="11.2016359335943"/>
    <line x1="13.7371337691713" y1="11.2016359335943" x2="13.7397487104405" y2="11.1918196103829"/>
    <line x1="13.7397487104405" y1="11.1918196103829" x2="13.7469214776146" y2="11.1846258957447"/>
    <line x1="13.7469214776146" y1="11.1846258957447" x2="13.7622356767987" y2="11.1744361602478"/>
    <line x1="13.7622356767987" y1="11.1744361602478" x2="13.7939867635911" y2="11.1468620848738"/>
    <line x1="13.7939867635911" y1="11.1468620848738" x2="13.8410505845693" y2="11.0949270877828"/>
    <line x1="13.8410505845693" y1="11.0949270877828" x2="13.8976808741301" y2="11.0147963414604"/>
    <line x1="13.8976808741301" y1="11.0147963414604" x2="13.9167432557899" y2="10.9827997890666"/>
    <line x1="13.9167432557899" y1="10.9827997890666" x2="13.8651437309622" y2="10.9055756428588"/>
    <line x1="13.8651437309622" y1="10.9055756428588" x2="13.828287913452" y2="10.9109424366212"/>
    <line x1="13.828287913452" y1="10.9109424366212" x2="13.732585283415" y2="10.9325972930261"/>
    <line x1="13.732585283415" y1="10.9325972930261" x2="13.6665930580294" y2="10.9562039310029"/>
    <line x1="13.6665930580294" y1="10.9562039310029" x2="13.6289673192884" y2="10.974985968417"/>
    <line x1="13.6289673192884" y1="10.974985968417" x2="13.6136927409134" y2="10.9852350006451"/>
    <line x1="13.6136927409134" y1="10.9852350006451" x2="13.6043017160347" y2="10.9891088580196"/>
    <line x1="13.6043017160347" y1="10.9891088580196" x2="13.5942319212349" y2="10.9877682044771"/>
    <line x1="13.5942319212349" y1="10.9877682044771" x2="13.5861815498986" y2="10.9815722670518"/>
    <line x1="13.5861815498986" y1="10.9815722670518" x2="13.5306132656929" y2="10.9138621168362"/>
    <line x1="13.5306132656929" y1="10.9138621168362" x2="13.5261069310042" y2="10.9047576637003"/>
    <line x1="13.5261069310042" y1="10.9047576637003" x2="13.5267565572538" y2="10.8946198086527"/>
    <line x1="13.5267565572538" y1="10.8946198086527" x2="13.5323880776127" y2="10.8861649817664"/>
    <line x1="13.5323880776127" y1="10.8861649817664" x2="13.5454200999742" y2="10.8731833871296"/>
    <line x1="13.5454200999742" y1="10.8731833871296" x2="13.571181663293" y2="10.8399448101353"/>
    <line x1="13.571181663293" y1="10.8399448101353" x2="13.6072091508415" y2="10.7798260334607"/>
    <line x1="13.6072091508415" y1="10.7798260334607" x2="13.6471185721644" y2="10.6901869555337"/>
    <line x1="13.6471185721644" y1="10.6901869555337" x2="13.6595724577958" y2="10.6550863217458"/>
    <line x1="13.6595724577958" y1="10.6550863217458" x2="13.5938987198179" y2="10.589412583768"/>
    <line x1="13.5938987198179" y1="10.589412583768" x2="13.55879808603" y2="10.6018664693994"/>
    <line x1="13.55879808603" y1="10.6018664693994" x2="13.469159008103" y2="10.6417758907222"/>
    <line x1="13.469159008103" y1="10.6417758907222" x2="13.4090402314284" y2="10.6778033782707"/>
    <line x1="13.4090402314284" y1="10.6778033782707" x2="13.3758016544342" y2="10.7035649415895"/>
    <line x1="13.3758016544342" y1="10.7035649415895" x2="13.3628200597974" y2="10.7165969639511"/>
    <line x1="13.3628200597974" y1="10.7165969639511" x2="13.3543652329111" y2="10.72222848431"/>
    <line x1="13.3543652329111" y1="10.72222848431" x2="13.3442273778634" y2="10.7228781105596"/>
    <line x1="13.3442273778634" y1="10.7228781105596" x2="13.3351229247275" y2="10.7183717758709"/>
    <line x1="13.3351229247275" y1="10.7183717758709" x2="13.2674127745119" y2="10.6628034916651"/>
    <line x1="13.2674127745119" y1="10.6628034916651" x2="13.2612168370866" y2="10.6547531203288"/>
    <line x1="13.2612168370866" y1="10.6547531203288" x2="13.2598761835442" y2="10.644683325529"/>
    <line x1="13.2598761835442" y1="10.644683325529" x2="13.2637500409187" y2="10.6352923006503"/>
    <line x1="13.2637500409187" y1="10.6352923006503" x2="13.2739990731468" y2="10.6200177222753"/>
    <line x1="13.2739990731468" y1="10.6200177222753" x2="13.2927811105609" y2="10.5823919835343"/>
    <line x1="13.2927811105609" y1="10.5823919835343" x2="13.3163877485377" y2="10.5163997581488"/>
    <line x1="13.3163877485377" y1="10.5163997581488" x2="13.3380426049425" y2="10.4206971281117"/>
    <line x1="13.3380426049425" y1="10.4206971281117" x2="13.343409398705" y2="10.3838413106015"/>
    <line x1="13.343409398705" y1="10.3838413106015" x2="13.2661852524971" y2="10.3322417857739"/>
    <line x1="13.2661852524971" y1="10.3322417857739" x2="13.2341887001033" y2="10.3513041674336"/>
    <line x1="13.2341887001033" y1="10.3513041674336" x2="13.154057953781" y2="10.4079344569945"/>
    <line x1="13.154057953781" y1="10.4079344569945" x2="13.1021229566899" y2="10.4549982779726"/>
    <line x1="13.1021229566899" y1="10.4549982779726" x2="13.074548881316" y2="10.4867493647651"/>
    <line x1="13.074548881316" y1="10.4867493647651" x2="13.064359145819" y2="10.5020635639491"/>
    <line x1="13.064359145819" y1="10.5020635639491" x2="13.0571654311808" y2="10.5092363311233"/>
    <line x1="13.0571654311808" y1="10.5092363311233" x2="13.0473491079695" y2="10.5118512723924"/>
    <line x1="13.0473491079695" y1="10.5118512723924" x2="13.0375404520621" y2="10.5092077163553"/>
    <line x1="13.0375404520621" y1="10.5092077163553" x2="12.9602904989372" y2="10.4679167561583"/>
    <line x1="12.9602904989372" y1="10.4679167561583" x2="12.9526430651758" y2="10.4612298378774"/>
    <line x1="12.9526430651758" y1="10.4612298378774" x2="12.9493636524052" y2="10.4516150798924"/>
    <line x1="12.9493636524052" y1="10.4516150798924" x2="12.9513309766288" y2="10.4416487488408"/>
    <line x1="12.9513309766288" y1="10.4416487488408" x2="12.9584031541626" y2="10.4246681802085"/>
    <line x1="12.9584031541626" y1="10.4246681802085" x2="12.9694838825073" y2="10.3841012157598"/>
    <line x1="12.9694838825073" y1="10.3841012157598" x2="12.9797624810537" y2="10.314771585876"/>
    <line x1="12.9797624810537" y1="10.314771585876" x2="12.9823305885531" y2="10.2166832021305"/>
    <line x1="12.9823305885531" y1="10.2166832021305" x2="12.9804040475721" y2="10.179488549296"/>
    <line x1="12.9804040475721" y1="10.179488549296" x2="12.8945971737652" y2="10.1439461784204"/>
    <line x1="12.8945971737652" y1="10.1439461784204" x2="12.8669343123301" y2="10.1688844994716"/>
    <line x1="12.8669343123301" y1="10.1688844994716" x2="12.7993912772557" y2="10.2400593870013"/>
    <line x1="12.7993912772557" y1="10.2400593870013" x2="12.757635892561" y2="10.2963509051626"/>
    <line x1="12.757635892561" y1="10.2963509051626" x2="12.7367859750601" y2="10.3328713389694"/>
    <line x1="12.7367859750601" y1="10.3328713389694" x2="12.7297796845238" y2="10.3498791988896"/>
    <line x1="12.7297796845238" y1="10.3498791988896" x2="12.724123532553" y2="10.3583175674591"/>
    <line x1="12.724123532553" y1="10.3583175674591" x2="12.7150059769739" y2="10.3627973330213"/>
    <line x1="12.7150059769739" y1="10.3627973330213" x2="12.7048700594408" y2="10.3621181460116"/>
    <line x1="12.7048700594408" y1="10.3621181460116" x2="12.6210489757829" y2="10.3366912982676"/>
    <line x1="12.6210489757829" y1="10.3366912982676" x2="12.6122439322761" y2="10.3316248075615"/>
    <line x1="12.6122439322761" y1="10.3316248075615" x2="12.6071517862709" y2="10.3228345761487"/>
    <line x1="12.6071517862709" y1="10.3228345761487" x2="12.607136974177" y2="10.3126759394373"/>
    <line x1="12.607136974177" y1="10.3126759394373" x2="12.6107605172001" y2="10.2946419342775"/>
    <line x1="12.6107605172001" y1="10.2946419342775" x2="12.6137141102992" y2="10.2526927098146"/>
    <line x1="12.6137141102992" y1="10.2526927098146" x2="12.6102696686375" y2="10.1826899742284"/>
    <line x1="12.6102696686375" y1="10.1826899742284" x2="12.5936523363004" y2="10.0859853183533"/>
    <line x1="12.5936523363004" y1="10.0859853183533" x2="12.5845064964653" y2="10.0498811998439"/>
    <line x1="12.5845064964653" y1="10.0498811998439" x2="12.4934144050988" y2="10.0317618563006"/>
    <line x1="12.4934144050988" y1="10.0317618563006" x2="12.4711483028738" y2="10.0616177510509"/>
    <line x1="12.4711483028738" y1="10.0616177510509" x2="12.4187886200067" y2="10.144602025537"/>
    <line x1="12.4187886200067" y1="10.144602025537" x2="12.3888174837254" y2="10.2079579894071"/>
    <line x1="12.3888174837254" y1="10.2079579894071" x2="12.3754929747345" y2="10.2478443104381"/>
    <line x1="12.3754929747345" y1="10.2478443104381" x2="12.3719393769749" y2="10.2658922285759"/>
    <line x1="12.3719393769749" y1="10.2658922285759" x2="12.3680381504197" y2="10.2752719167687"/>
    <line x1="12.3680381504197" y1="10.2752719167687" x2="12.3599697450205" y2="10.2814443517457"/>
    <line x1="12.3599697450205" y1="10.2814443517457" x2="12.3498960834883" y2="10.2827556345395"/>
    <line x1="12.3498960834883" y1="10.2827556345395" x2="12.262725066535" y2="10.2741700387476"/>
    <line x1="12.262725066535" y1="10.2741700387476" x2="12.2531007861669" y2="10.2709186780129"/>
    <line x1="12.2531007861669" y1="10.2709186780129" x2="12.2463915952423" y2="10.2632907768358"/>
    <line x1="12.2463915952423" y1="10.2632907768358" x2="12.2443952160514" y2="10.2533302251765"/>
    <line x1="12.2443952160514" y1="10.2533302251765" x2="12.2444308738375" y2="10.2349358201938"/>
    <line x1="12.2444308738375" y1="10.2349358201938" x2="12.2391438267647" y2="10.1932164208875"/>
    <line x1="12.2391438267647" y1="10.1932164208875" x2="12.2221087128561" y2="10.1252307454695"/>
    <line x1="12.2221087128561" y1="10.1252307454695" x2="12.1869445354452" y2="10.0336261231575"/>
    <line x1="12.1869445354452" y1="10.0336261231575" x2="12.1709308662519" y2="10.0"/>
    <line x1="12.1709308662519" y1="10.0" x2="12.0780541753119" y2="10.0"/>
    <line x1="12.0780541753119" y1="10.0" x2="12.0620405061186" y2="10.0336261231575"/>
    <line x1="12.0620405061186" y1="10.0336261231575" x2="12.0268763287077" y2="10.1252307454695"/>
    <line x1="12.0268763287077" y1="10.1252307454695" x2="12.0098412147991" y2="10.1932164208875"/>
    <line x1="12.0098412147991" y1="10.1932164208875" x2="12.0045541677262" y2="10.2349358201938"/>
    <line x1="12.0045541677262" y1="10.2349358201938" x2="12.0045898255123" y2="10.2533302251765"/>
    <line x1="12.0045898255123" y1="10.2533302251765" x2="12.0025934463214" y2="10.2632907768358"/>
    <line x1="12.0025934463214" y1="10.2632907768358" x2="11.9958842553969" y2="10.2709186780129"/>
    <line x1="11.9958842553969" y1="10.2709186780129" x2="11.9862599750288" y2="10.2741700387476"/>
    <line x1="11.9862599750288" y1="10.2741700387476" x2="11.8990889580754" y2="10.2827556345395"/>
    <line x1="11.8990889580754" y1="10.2827556345395" x2="11.8890152965432" y2="10.2814443517457"/>
    <line x1="11.8890152965432" y1="10.2814443517457" x2="11.880946891144" y2="10.2752719167687"/>
    <line x1="11.880946891144" y1="10.2752719167687" x2="11.8770456645888" y2="10.2658922285759"/>
    <line x1="11.8770456645888" y1="10.2658922285759" x2="11.8734920668292" y2="10.2478443104381"/>
    <line x1="11.8734920668292" y1="10.2478443104381" x2="11.8601675578383" y2="10.2079579894071"/>
    <line x1="11.8601675578383" y1="10.2079579894071" x2="11.830196421557" y2="10.144602025537"/>
    <line x1="11.830196421557" y1="10.144602025537" x2="11.7778367386899" y2="10.0616177510509"/>
    <line x1="12.1244925207819" y1="11.9994925209094" x2="12.1408082947927" y2="12.0005619132366"/>
    <line x1="12.1408082947927" y1="12.0005619132366" x2="12.1568449013867" y2="12.0037517926189"/>
    <line x1="12.1568449013867" y1="12.0037517926189" x2="12.1723279497787" y2="12.0090075793358"/>
    <line x1="12.1723279497787" y1="12.0090075793358" x2="12.1869925207181" y2="12.0162393454192"/>
    <line x1="12.1869925207181" y1="12.0162393454192" x2="12.2005876993304" y2="12.0253233533466"/>
    <line x1="12.2005876993304" y1="12.0253233533466" x2="12.21288086834" y2="12.0361041732237"/>
    <line x1="12.21288086834" y1="12.0361041732237" x2="12.2236616882171" y2="12.0483973422334"/>
    <line x1="12.2236616882171" y1="12.0483973422334" x2="12.2327456961445" y2="12.0619925208456"/>
    <line x1="12.2327456961445" y1="12.0619925208456" x2="12.239977462228" y2="12.076657091785"/>
    <line x1="12.239977462228" y1="12.076657091785" x2="12.2452332489449" y2="12.0921401401771"/>
    <line x1="12.2452332489449" y1="12.0921401401771" x2="12.2484231283272" y2="12.108176746771"/>
    <line x1="12.2484231283272" y1="12.108176746771" x2="12.2494925206544" y2="12.1244925207819"/>
    <line x1="12.2494925206544" y1="12.1244925207819" x2="12.2484231283272" y2="12.1408082947927"/>
    <line x1="12.2484231283272" y1="12.1408082947927" x2="12.2452332489449" y2="12.1568449013867"/>
    <line x1="12.2452332489449" y1="12.1568449013867" x2="12.239977462228" y2="12.1723279497787"/>
    <line x1="12.239977462228" y1="12.1723279497787" x2="12.2327456961445" y2="12.1869925207181"/>
    <line x1="12.2327456961445" y1="12.1869925207181" x2="12.2236616882171" y2="12.2005876993303"/>
    <line x1="12.2236616882171" y1="12.2005876993303" x2="12.21288086834" y2="12.21288086834"/>
    <line x1="12.21288086834" y1="12.21288086834" x2="12.2005876993304" y2="12.2236616882171"/>
    <line x1="12.2005876993304" y1="12.2236616882171" x2="12.1869925207181" y2="12.2327456961445"/>
    <line x1="12.1869925207181" y1="12.2327456961445" x2="12.1723279497787" y2="12.239977462228"/>
    <line x1="12.1723279497787" y1="12.239977462228" x2="12.1568449013867" y2="12.2452332489449"/>
    <line x1="12.1568449013867" y1="12.2452332489449" x2="12.1408082947927" y2="12.2484231283272"/>
    <line x1="12.1408082947927" y1="12.2484231283272" x2="12.1244925207819" y2="12.2494925206544"/>
    <line x1="12.1244925207819" y1="12.2494925206544" x2="12.108176746771" y2="12.2484231283272"/>
    <line x1="12.108176746771" y1="12.2484231283272" x2="12.0921401401771" y2="12.2452332489449"/>
    <line x1="12.0921401401771" y1="12.2452332489449" x2="12.076657091785" y2="12.239977462228"/>
    <line x1="12.076657091785" y1="12.239977462228" x2="12.0619925208456" y2="12.2327456961445"/>
    <line x1="12.0619925208456" y1="12.2327456961445" x2="12.0483973422334" y2="12.2236616882171"/>
    <line x1="12.0483973422334" y1="12.2236616882171" x2="12.0361041732237" y2="12.21288086834"/>
    <line x1="12.0361041732237" y1="12.21288086834" x2="12.0253233533466" y2="12.2005876993303"/>
    <line x1="12.0253233533466" y1="12.2005876993303" x2="12.0162393454192" y2="12.1869925207181"/>
    <line x1="12.0162393454192" y1="12.1869925207181" x2="12.0090075793358" y2="12.1723279497787"/>
    <line x1="12.0090075793358" y1="12.1723279497787" x2="12.0037517926189" y2="12.1568449013867"/>
    <line x1="12.0037517926189" y1="12.1568449013867" x2="12.0005619132366" y2="12.1408082947927"/>
    <line x1="12.0005619132366" y1="12.1408082947927" x2="11.9994925209094" y2="12.1244925207819"/>
    <line x1="11.9994925209094" y1="12.1244925207819" x2="12.0005619132366" y2="12.108176746771"/>
    <line x1="12.0005619132366" y1="12.108176746771" x2="12.0037517926189" y2="12.0921401401771"/>
    <line x1="12.0037517926189" y1="12.0921401401771" x2="12.0090075793358" y2="12.076657091785"/>
    <line x1="12.0090075793358" y1="12.076657091785" x2="12.0162393454192" y2="12.0619925208456"/>
    <line x1="12.0162393454192" y1="12.0619925208456" x2="12.0253233533466" y2="12.0483973422334"/>
    <line x1="12.0253233533466" y1="12.0483973422334" x2="12.0361041732237" y2="12.0361041732237"/>
    <line x1="12.0361041732237" y1="12.0361041732237" x2="12.0483973422334" y2="12.0253233533466"/>
    <line x1="12.0483973422334" y1="12.0253233533466" x2="12.0619925208456" y2="12.0162393454192"/>
    <line x1="12.0619925208456" y1="12.0162393454192" x2="12.076657091785" y2="12.0090075793358"/>
    <line x1="12.076657091785" y1="12.0090075793358" x2="12.0921401401771" y2="12.0037517926189"/>
    <line x1="12.0921401401771" y1="12.0037517926189" x2="12.108176746771" y2="12.0005619132366"/>
    <line x1="12.108176746771" y1="12.0005619132366" x2="12.1244925207819" y2="11.9994925209094"/>
  </g>
</svg>
