<?xml version="1.0" standalone="no"?>
<!DOCTYPE svg PUBLIC "-//W3C//DTD SVG 1.1//EN" "http://www.w3.org/Graphics/SVG/1.1/DTD/svg11.dtd">
<svg width="25.1930702081726in" height="25.1996738803058in"
 viewBox="0 0 25.1930702081726 25.1996738803058"
 xmlns="http://www.w3.org/2000/svg" version="1.1"
 xmlns:xlink="http://www.w3.org/1999/xlink">
<desc>Output from Flights of Ideas SVG Sketchup Plugin</desc>

  <g id="face0" fill="none" stroke="rgb(0,0,255)" stroke-width="1" stroke-miterlimit="4" stroke-dasharray="none" stroke-linejoin="round" stroke-linecap="round">
    <line x1="12.3584869729313" y1="10.1062259790408" x2="12.2995777493073" y2="10.016851009945"/>
    <line x1="12.2995777493073" y1="10.016851009945" x2="12.2418005179667" y2="10.0241499716686"/>
    <line x1="12.2418005179667" y1="10.0241499716686" x2="12.2069686869092" y2="10.1253671899372"/>
    <line x1="12.2069686869092" y1="10.1253671899372" x2="12.1814919943358" y2="10.2359970121336"/>
    <line x1="12.1814919943358" y1="10.2359970121336" x2="12.1808851180883" y2="10.2441012392731"/>
    <line x1="12.1808851180883" y1="10.2441012392731" x2="12.1763074342713" y2="10.2508162677301"/>
    <line x1="12.1763074342713" y1="10.2508162677301" x2="12.1689855295668" y2="10.2543428110526"/>
    <line x1="12.1689855295668" y1="10.2543428110526" x2="12.1306266679265" y2="10.2616601552559"/>
    <line x1="12.1306266679265" y1="10.2616601552559" x2="12.1225207259172" y2="10.2610766310924"/>
    <line x1="12.1225207259172" y1="10.2610766310924" x2="12.1157925362973" y2="10.2565183133385"/>
    <line x1="12.1157925362973" y1="10.2565183133385" x2="12.112244912042" y2="10.2492065995551"/>
    <line x1="12.112244912042" y1="10.2492065995551" x2="12.0478317285394" y2="10.1557241882963"/>
    <line x1="12.0478317285394" y1="10.1557241882963" x2="11.9781853678625" y2="10.0744372510103"/>
    <line x1="11.9781853678625" y1="10.0744372510103" x2="11.9217785297228" y2="10.0889200654709"/>
    <line x1="11.9217785297228" y1="10.0889200654709" x2="11.8999072393149" y2="10.1937047417588"/>
    <line x1="11.8999072393149" y1="10.1937047417588" x2="11.8884970314165" y2="10.3066552910244"/>
    <line x1="11.8884970314165" y1="10.3066552910244" x2="11.8889106695624" y2="10.3147716756748"/>
    <line x1="11.8889106695624" y1="10.3147716756748" x2="11.8852106983796" y2="10.3220074900418"/>
    <line x1="11.8852106983796" y1="10.3220074900418" x2="11.8783885221585" y2="10.3264239035092"/>
    <line x1="11.8783885221585" y1="10.3264239035092" x2="11.8412492380096" y2="10.3384911884332"/>
    <line x1="11.8412492380096" y1="10.3384911884332" x2="11.8331340788039" y2="10.3389282094551"/>
    <line x1="11.8331340788039" y1="10.3389282094551" x2="11.8258876342651" y2="10.3352491011592"/>
    <line x1="11.8258876342651" y1="10.3352491011592" x2="11.8214515833552" y2="10.3284396776423"/>
    <line x1="11.8214515833552" y1="10.3284396776423" x2="11.7458298641594" y2="10.2437675156907"/>
    <line x1="11.7458298641594" y1="10.2437675156907" x2="11.6665447311423" y2="10.1718505537741"/>
    <line x1="11.6665447311423" y1="10.1718505537741" x2="11.6123978557366" y2="10.1932888183361"/>
    <line x1="11.6123978557366" y1="10.1932888183361" x2="11.6038320292934" y2="10.2999884357028"/>
    <line x1="11.6038320292934" y1="10.2999884357028" x2="11.6066682518646" y2="10.4134784144023"/>
    <line x1="11.6066682518646" y1="10.4134784144023" x2="11.6080958810833" y2="10.4214789563291"/>
    <line x1="11.6080958810833" y1="10.4214789563291" x2="11.6053319732905" y2="10.429121443491"/>
    <line x1="11.6053319732905" y1="10.429121443491" x2="11.5991171153472" y2="10.4343580776249"/>
    <line x1="11.5991171153472" y1="10.4343580776249" x2="11.5637831173867" y2="10.4509849949776"/>
    <line x1="11.5637831173867" y1="10.4509849949776" x2="11.555786721893" y2="10.4524356691023"/>
    <line x1="11.555786721893" y1="10.4524356691023" x2="11.5481363031944" y2="10.4496937920002"/>
    <line x1="11.5481363031944" y1="10.4496937920002" x2="11.5428817848029" y2="10.4434940474263"/>
    <line x1="11.5428817848029" y1="10.4434940474263" x2="11.4572441295998" y2="10.3689674653565"/>
    <line x1="11.4572441295998" y1="10.3689674653565" x2="11.3695705981526" y2="10.3075546522598"/>
    <line x1="11.3695705981526" y1="10.3075546522598" x2="11.318537614052" y2="10.3356102726844"/>
    <line x1="11.318537614052" y1="10.3356102726844" x2="11.3234123397734" y2="10.4425421144249"/>
    <line x1="11.3234123397734" y1="10.4425421144249" x2="11.3404502638901" y2="10.5547817177986"/>
    <line x1="11.3404502638901" y1="10.5547817177986" x2="11.3428693696159" y2="10.5625402436763"/>
    <line x1="11.3428693696159" y1="10.5625402436763" x2="11.34108511369" y2="10.5704688770452"/>
    <line x1="11.34108511369" y1="10.5704688770452" x2="11.3355755860469" y2="10.576443146997"/>
    <line x1="11.3355755860469" y1="10.576443146997" x2="11.3026041125301" y2="10.5973674803593"/>
    <line x1="11.3026041125301" y1="10.5973674803593" x2="11.2948525886822" y2="10.5998089295894"/>
    <line x1="11.2948525886822" y1="10.5998089295894" x2="11.2869188474968" y2="10.5980475247207"/>
    <line x1="11.2869188474968" y1="10.5980475247207" x2="11.2809287285176" y2="10.5925552327654"/>
    <line x1="11.2809287285176" y1="10.5925552327654" x2="11.1866256942872" y2="10.5293495592968"/>
    <line x1="11.1866256942872" y1="10.5293495592968" x2="11.0919464283746" y2="10.4794094117687"/>
    <line x1="11.0919464283746" y1="10.4794094117687" x2="11.0448321562239" y2="10.5136399341622"/>
    <line x1="11.0448321562239" y1="10.5136399341622" x2="11.0630705567733" y2="10.6191176212541"/>
    <line x1="11.0630705567733" y1="10.6191176212541" x2="11.0940414841942" y2="10.7283367637081"/>
    <line x1="11.0940414841942" y1="10.7283367637081" x2="11.0974139156847" y2="10.735730916949"/>
    <line x1="11.0974139156847" y1="10.735730916949" x2="11.0966374504076" y2="10.7438206572403"/>
    <line x1="11.0966374504076" y1="10.7438206572403" x2="11.0919201416068" y2="10.750438345204"/>
    <line x1="11.0919201416068" y1="10.750438345204" x2="11.0618311723672" y2="10.7753301053392"/>
    <line x1="11.0618311723672" y1="10.7753301053392" x2="11.0544467663268" y2="10.7787238265618"/>
    <line x1="11.0544467663268" y1="10.7787238265618" x2="11.0463548224925" y2="10.7779706723336"/>
    <line x1="11.0463548224925" y1="10.7779706723336" x2="11.0397235706802" y2="10.773272449722"/>
    <line x1="11.0397235706802" y1="10.773272449722" x2="10.9382423726062" y2="10.7223844760823"/>
    <line x1="10.9382423726062" y1="10.7223844760823" x2="10.8380505208103" y2="10.6847045800822"/>
    <line x1="10.8380505208103" y1="10.6847045800822" x2="10.795597980826" y2="10.7245701686581"/>
    <line x1="10.795597980826" y1="10.7245701686581" x2="10.8269124257316" y2="10.8269302549668"/>
    <line x1="10.8269124257316" y1="10.8269302549668" x2="10.8713279264301" y2="10.9314064853802"/>
    <line x1="10.8713279264301" y1="10.9314064853802" x2="10.8756004984262" y2="10.9383196557705"/>
    <line x1="10.8756004984262" y1="10.9383196557705" x2="10.8758440691192" y2="10.9464429229473"/>
    <line x1="10.8758440691192" y1="10.9464429229473" x2="10.8719933739385" y2="10.9535996640306"/>
    <line x1="10.8719933739385" y1="10.9535996640306" x2="10.8452614299953" y2="10.9820662930117"/>
    <line x1="10.8452614299953" y1="10.9820662930117" x2="10.8383605982567" y2="10.9863587652158"/>
    <line x1="10.8383605982567" y1="10.9863587652158" x2="10.8302380665618" y2="10.9866257393203"/>
    <line x1="10.8302380665618" y1="10.9866257393203" x2="10.8230702607187" y2="10.9827956798294"/>
    <line x1="10.8230702607187" y1="10.9827956798294" x2="10.7160113179167" y2="10.9450279397619"/>
    <line x1="10.7160113179167" y1="10.9450279397619" x2="10.611886965592" y2="10.9202025297586"/>
    <line x1="10.611886965592" y1="10.9202025297586" x2="10.5747656596896" y2="10.9650744803706"/>
    <line x1="10.5747656596896" y1="10.9650744803706" x2="10.618662301449" y2="11.062702686188"/>
    <line x1="10.618662301449" y1="11.062702686188" x2="10.6758219164465" y2="11.1607883519961"/>
    <line x1="10.6758219164465" y1="11.1607883519961" x2="10.6809272479355" y2="11.1671115147091"/>
    <line x1="10.6809272479355" y1="11.1671115147091" x2="10.6821870133431" y2="11.1751401999954"/>
    <line x1="10.6821870133431" y1="11.1751401999954" x2="10.6792636595458" y2="11.1827231281161"/>
    <line x1="10.6792636595458" y1="11.1827231281161" x2="10.656310319624" y2="11.2143156901989"/>
    <line x1="10.656310319624" y1="11.2143156901989" x2="10.6500018924261" y2="11.2194392185337"/>
    <line x1="10.6500018924261" y1="11.2194392185337" x2="10.6419768700475" y2="11.2207221106297"/>
    <line x1="10.6419768700475" y1="11.2207221106297" x2="10.6343855507537" y2="11.2178206165858"/>
    <line x1="10.6343855507537" y1="11.2178206165858" x2="10.5234372467055" y2="11.1937687299127"/>
    <line x1="10.5234372467055" y1="11.1937687299127" x2="10.4170224970891" y2="11.1821893174519"/>
    <line x1="10.4170224970891" y1="11.1821893174519" x2="10.3858178504379" y2="11.2313599726336"/>
    <line x1="10.3858178504379" y1="11.2313599726336" x2="10.4416044127879" y2="11.3227166428337"/>
    <line x1="10.4416044127879" y1="11.3227166428337" x2="10.5106067008104" y2="11.4128648744932"/>
    <line x1="10.5106067008104" y1="11.4128648744932" x2="10.5164642776649" y2="11.4184983094757"/>
    <line x1="10.5164642776649" y1="11.4184983094757" x2="10.5187203705342" y2="11.4263057957083"/>
    <line x1="10.5187203705342" y1="11.4263057957083" x2="10.516770461156" y2="11.4341953235601"/>
    <line x1="10.516770461156" y1="11.4341953235601" x2="10.4979577131377" y2="11.4684155851682"/>
    <line x1="10.4979577131377" y1="11.4684155851682" x2="10.492341178146" y2="11.4742893685311"/>
    <line x1="10.492341178146" y1="11.4742893685311" x2="10.4845402244805" y2="11.4765679466439"/>
    <line x1="10.4845402244805" y1="11.4765679466439" x2="10.476645111376" y2="11.4746407763413"/>
    <line x1="10.476645111376" y1="11.4746407763413" x2="10.3635571671139" y2="11.4646840556835"/>
    <line x1="10.3635571671139" y1="11.4646840556835" x2="10.2565302443763" y2="11.4665332550169"/>
    <line x1="10.2565302443763" y1="11.4665332550169" x2="10.2317343728947" y2="11.5192271641629"/>
    <line x1="10.2317343728947" y1="11.5192271641629" x2="10.2985310684217" y2="11.6028715494828"/>
    <line x1="10.2985310684217" y1="11.6028715494828" x2="10.3782878221672" y2="11.6836606555285"/>
    <line x1="10.3782878221672" y1="11.6836606555285" x2="10.3848052669011" y2="11.6885155201455"/>
    <line x1="10.3848052669011" y1="11.6885155201455" x2="10.3880221072998" y2="11.6959786786027"/>
    <line x1="10.3880221072998" y1="11.6959786786027" x2="10.3870763935764" y2="11.7040503836184"/>
    <line x1="10.3870763935764" y1="11.7040503836184" x2="10.3727009257361" y2="11.740358670784"/>
    <line x1="10.3727009257361" y1="11.740358670784" x2="10.3678648590625" y2="11.7468900761026"/>
    <line x1="10.3678648590625" y1="11.7468900761026" x2="10.3604109998095" y2="11.7501284056942"/>
    <line x1="10.3604109998095" y1="11.7501284056942" x2="10.3523366035443" y2="11.7492059517598"/>
    <line x1="10.3523366035443" y1="11.7492059517598" x2="10.2388924835047" y2="11.7535014205497"/>
    <line x1="10.2388924835047" y1="11.7535014205497" x2="10.1329412661522" y2="11.7687500686992"/>
    <line x1="10.1329412661522" y1="11.7687500686992" x2="10.1149452155459" y2="11.8241362173846"/>
    <line x1="10.1149452155459" y1="11.8241362173846" x2="10.1916986204591" y2="11.898749195901"/>
    <line x1="10.1916986204591" y1="11.898749195901" x2="10.2809520282766" y2="11.9689050838695"/>
    <line x1="10.2809520282766" y1="11.9689050838695" x2="10.288026556893" y2="11.9729048140058"/>
    <line x1="10.288026556893" y1="11.9729048140058" x2="10.2921534133264" y2="11.9799059462204"/>
    <line x1="10.2921534133264" y1="11.9799059462204" x2="10.2922268097282" y2="11.9880325327902"/>
    <line x1="10.2922268097282" y1="11.9880325327902" x2="10.2825153317812" y2="12.0258562421351"/>
    <line x1="10.2825153317812" y1="12.0258562421351" x2="10.2785360010861" y2="12.0329422652459"/>
    <line x1="10.2785360010861" y1="12.0329422652459" x2="10.2715467880587" y2="12.0370892759241"/>
    <line x1="10.2715467880587" y1="12.0370892759241" x2="10.2634204466854" y2="12.0371860860075"/>
    <line x1="10.2634204466854" y1="12.0371860860075" x2="10.1514092324095" y2="12.0556660021365"/>
    <line x1="10.1514092324095" y1="12.0556660021365" x2="10.048204634432" y2="12.0840736188116"/>
    <line x1="10.048204634432" y1="12.0840736188116" x2="10.0372922131692" y2="12.1412785343855"/>
    <line x1="10.0372922131692" y1="12.1412785343855" x2="10.1227918804229" y2="12.2056834148556"/>
    <line x1="10.1227918804229" y1="12.2056834148556" x2="10.2201343627538" y2="12.2640996844845"/>
    <line x1="10.2201343627538" y1="12.2640996844845" x2="10.2276544057103" y2="12.2671812020066"/>
    <line x1="10.2276544057103" y1="12.2671812020066" x2="10.2326261951872" y2="12.2736098959413"/>
    <line x1="10.2326261951872" y1="12.2736098959413" x2="10.2337175442091" y2="12.2816632029403"/>
    <line x1="10.2337175442091" y1="12.2816632029403" x2="10.228823211964" y2="12.3204058319734"/>
    <line x1="10.228823211964" y1="12.3204058319734" x2="10.2257633736696" y2="12.3279347220589"/>
    <line x1="10.2257633736696" y1="12.3279347220589" x2="10.2193490309324" y2="12.3329250129881"/>
    <line x1="10.2193490309324" y1="12.3329250129881" x2="10.2112989017088" y2="12.3340395603364"/>
    <line x1="10.2112989017088" y1="12.3340395603364" x2="10.1024870769581" y2="12.3664124844877"/>
    <line x1="10.1024870769581" y1="12.3664124844877" x2="10.0036566965171" y2="12.4075310646037"/>
    <line x1="10.0036566965171" y1="12.4075310646037" x2="10.0" y2="12.4656525913748"/>
    <line x1="10.0" y1="12.4656525913748" x2="10.0928975487665" y2="12.51883367036"/>
    <line x1="10.0928975487665" y1="12.51883367036" x2="10.1967939565148" y2="12.5645890621811"/>
    <line x1="10.1967939565148" y1="12.5645890621811" x2="10.2046409182418" y2="12.5667037697169"/>
    <line x1="10.2046409182418" y1="12.5667037697169" x2="10.2103792326721" y2="12.572458641028"/>
    <line x1="10.2103792326721" y1="12.572458641028" x2="10.212471323088" y2="12.580311662994"/>
    <line x1="10.212471323088" y1="12.580311662994" x2="10.212471323088" y2="12.6193622173118"/>
    <line x1="10.212471323088" y1="12.6193622173118" x2="10.2103792326721" y2="12.6272152392778"/>
    <line x1="10.2103792326721" y1="12.6272152392778" x2="10.2046409182418" y2="12.6329701105889"/>
    <line x1="10.2046409182418" y1="12.6329701105889" x2="10.1967939565148" y2="12.6350848181247"/>
    <line x1="10.1967939565148" y1="12.6350848181247" x2="10.0928975487665" y2="12.6808402099458"/>
    <line x1="10.0928975487665" y1="12.6808402099458" x2="10.0" y2="12.7340212889311"/>
    <line x1="10.0" y1="12.7340212889311" x2="10.0036566965171" y2="12.7921428157022"/>
    <line x1="10.0036566965171" y1="12.7921428157022" x2="10.1024870769581" y2="12.8332613958181"/>
    <line x1="10.1024870769581" y1="12.8332613958181" x2="10.2112989017088" y2="12.8656343199694"/>
    <line x1="10.2112989017088" y1="12.8656343199694" x2="10.2193490309324" y2="12.8667488673177"/>
    <line x1="10.2193490309324" y1="12.8667488673177" x2="10.2257633736696" y2="12.8717391582469"/>
    <line x1="10.2257633736696" y1="12.8717391582469" x2="10.228823211964" y2="12.8792680483324"/>
    <line x1="10.228823211964" y1="12.8792680483324" x2="10.2337175442091" y2="12.9180106773656"/>
    <line x1="10.2337175442091" y1="12.9180106773656" x2="10.2326261951872" y2="12.9260639843645"/>
    <line x1="10.2326261951872" y1="12.9260639843645" x2="10.2276544057103" y2="12.9324926782992"/>
    <line x1="10.2276544057103" y1="12.9324926782992" x2="10.2201343627538" y2="12.9355741958213"/>
    <line x1="10.2201343627538" y1="12.9355741958213" x2="10.1227918804229" y2="12.9939904654502"/>
    <line x1="10.1227918804229" y1="12.9939904654502" x2="10.0372922131692" y2="13.0583953459204"/>
    <line x1="10.0372922131692" y1="13.0583953459204" x2="10.048204634432" y2="13.1156002614942"/>
    <line x1="10.048204634432" y1="13.1156002614942" x2="10.1514092324095" y2="13.1440078781693"/>
    <line x1="10.1514092324095" y1="13.1440078781693" x2="10.2634204466854" y2="13.1624877942984"/>
    <line x1="10.2634204466854" y1="13.1624877942984" x2="10.2715467880587" y2="13.1625846043817"/>
    <line x1="10.2715467880587" y1="13.1625846043817" x2="10.2785360010861" y2="13.1667316150599"/>
    <line x1="10.2785360010861" y1="13.1667316150599" x2="10.2825153317812" y2="13.1738176381707"/>
    <line x1="10.2825153317812" y1="13.1738176381707" x2="10.2922268097282" y2="13.2116413475157"/>
    <line x1="10.2922268097282" y1="13.2116413475157" x2="10.2921534133264" y2="13.2197679340854"/>
    <line x1="10.2921534133264" y1="13.2197679340854" x2="10.288026556893" y2="13.2267690663"/>
    <line x1="10.288026556893" y1="13.2267690663" x2="10.2809520282766" y2="13.2307687964363"/>
    <line x1="10.2809520282766" y1="13.2307687964363" x2="10.1916986204591" y2="13.3009246844048"/>
    <line x1="10.1916986204591" y1="13.3009246844048" x2="10.1149452155459" y2="13.3755376629212"/>
    <line x1="10.1149452155459" y1="13.3755376629212" x2="10.1329412661522" y2="13.4309238116066"/>
    <line x1="10.1329412661522" y1="13.4309238116066" x2="10.2388924835047" y2="13.4461724597561"/>
    <line x1="10.2388924835047" y1="13.4461724597561" x2="10.3523366035443" y2="13.4504679285461"/>
    <line x1="10.3523366035443" y1="13.4504679285461" x2="10.3604109998095" y2="13.4495454746117"/>
    <line x1="10.3604109998095" y1="13.4495454746117" x2="10.3678648590625" y2="13.4527838042032"/>
    <line x1="10.3678648590625" y1="13.4527838042032" x2="10.3727009257361" y2="13.4593152095219"/>
    <line x1="10.3727009257361" y1="13.4593152095219" x2="10.3870763935764" y2="13.4956234966875"/>
    <line x1="10.3870763935764" y1="13.4956234966875" x2="10.3880221072998" y2="13.5036952017032"/>
    <line x1="10.3880221072998" y1="13.5036952017032" x2="10.3848052669011" y2="13.5111583601603"/>
    <line x1="10.3848052669011" y1="13.5111583601603" x2="10.3782878221672" y2="13.5160132247773"/>
    <line x1="10.3782878221672" y1="13.5160132247773" x2="10.2985310684217" y2="13.5968023308231"/>
    <line x1="10.2985310684217" y1="13.5968023308231" x2="10.2317343728947" y2="13.6804467161429"/>
    <line x1="10.2317343728947" y1="13.6804467161429" x2="10.2565302443763" y2="13.733140625289"/>
    <line x1="10.2565302443763" y1="13.733140625289" x2="10.3635571671139" y2="13.7349898246224"/>
    <line x1="10.3635571671139" y1="13.7349898246224" x2="10.476645111376" y2="13.7250331039645"/>
    <line x1="10.476645111376" y1="13.7250331039645" x2="10.4845402244805" y2="13.7231059336619"/>
    <line x1="10.4845402244805" y1="13.7231059336619" x2="10.492341178146" y2="13.7253845117747"/>
    <line x1="10.492341178146" y1="13.7253845117747" x2="10.4979577131377" y2="13.7312582951376"/>
    <line x1="10.4979577131377" y1="13.7312582951376" x2="10.516770461156" y2="13.7654785567457"/>
    <line x1="10.516770461156" y1="13.7654785567457" x2="10.5187203705342" y2="13.7733680845975"/>
    <line x1="10.5187203705342" y1="13.7733680845975" x2="10.5164642776649" y2="13.7811755708302"/>
    <line x1="10.5164642776649" y1="13.7811755708302" x2="10.5106067008104" y2="13.7868090058126"/>
    <line x1="10.5106067008104" y1="13.7868090058126" x2="10.4416044127879" y2="13.8769572374722"/>
    <line x1="10.4416044127879" y1="13.8769572374722" x2="10.3858178504379" y2="13.9683139076722"/>
    <line x1="10.3858178504379" y1="13.9683139076722" x2="10.4170224970891" y2="14.0174845628539"/>
    <line x1="10.4170224970891" y1="14.0174845628539" x2="10.5234372467055" y2="14.0059051503931"/>
    <line x1="10.5234372467055" y1="14.0059051503931" x2="10.6343855507537" y2="13.9818532637201"/>
    <line x1="10.6343855507537" y1="13.9818532637201" x2="10.6419768700475" y2="13.9789517696762"/>
    <line x1="10.6419768700475" y1="13.9789517696762" x2="10.6500018924261" y2="13.9802346617722"/>
    <line x1="10.6500018924261" y1="13.9802346617722" x2="10.656310319624" y2="13.9853581901069"/>
    <line x1="10.656310319624" y1="13.9853581901069" x2="10.6792636595458" y2="14.0169507521898"/>
    <line x1="10.6792636595458" y1="14.0169507521898" x2="10.6821870133431" y2="14.0245336803105"/>
    <line x1="10.6821870133431" y1="14.0245336803105" x2="10.6809272479355" y2="14.0325623655967"/>
    <line x1="10.6809272479355" y1="14.0325623655967" x2="10.6758219164465" y2="14.0388855283097"/>
    <line x1="10.6758219164465" y1="14.0388855283097" x2="10.618662301449" y2="14.1369711941179"/>
    <line x1="10.618662301449" y1="14.1369711941179" x2="10.5747656596896" y2="14.2345993999352"/>
    <line x1="10.5747656596896" y1="14.2345993999352" x2="10.611886965592" y2="14.2794713505472"/>
    <line x1="10.611886965592" y1="14.2794713505472" x2="10.7160113179167" y2="14.2546459405439"/>
    <line x1="10.7160113179167" y1="14.2546459405439" x2="10.8230702607187" y2="14.2168782004764"/>
    <line x1="10.8230702607187" y1="14.2168782004764" x2="10.8302380665618" y2="14.2130481409856"/>
    <line x1="10.8302380665618" y1="14.2130481409856" x2="10.8383605982567" y2="14.2133151150901"/>
    <line x1="10.8383605982567" y1="14.2133151150901" x2="10.8452614299953" y2="14.2176075872942"/>
    <line x1="10.8452614299953" y1="14.2176075872942" x2="10.8719933739385" y2="14.2460742162753"/>
    <line x1="10.8719933739385" y1="14.2460742162753" x2="10.8758440691192" y2="14.2532309573585"/>
    <line x1="10.8758440691192" y1="14.2532309573585" x2="10.8756004984262" y2="14.2613542245353"/>
    <line x1="10.8756004984262" y1="14.2613542245353" x2="10.8713279264301" y2="14.2682673949256"/>
    <line x1="10.8713279264301" y1="14.2682673949256" x2="10.8269124257316" y2="14.372743625339"/>
    <line x1="10.8269124257316" y1="14.372743625339" x2="10.795597980826" y2="14.4751037116477"/>
    <line x1="10.795597980826" y1="14.4751037116477" x2="10.8380505208103" y2="14.5149693002237"/>
    <line x1="10.8380505208103" y1="14.5149693002237" x2="10.9382423726062" y2="14.4772894042236"/>
    <line x1="10.9382423726062" y1="14.4772894042236" x2="11.0397235706802" y2="14.4264014305838"/>
    <line x1="11.0397235706802" y1="14.4264014305838" x2="11.0463548224925" y2="14.4217032079722"/>
    <line x1="11.0463548224925" y1="14.4217032079722" x2="11.0544467663268" y2="14.4209500537441"/>
    <line x1="11.0544467663268" y1="14.4209500537441" x2="11.0618311723673" y2="14.4243437749667"/>
    <line x1="11.0618311723673" y1="14.4243437749667" x2="11.0919201416068" y2="14.4492355351018"/>
    <line x1="11.0919201416068" y1="14.4492355351018" x2="11.0966374504076" y2="14.4558532230656"/>
    <line x1="11.0966374504076" y1="14.4558532230656" x2="11.0974139156847" y2="14.4639429633569"/>
    <line x1="11.0974139156847" y1="14.4639429633569" x2="11.0940414841942" y2="14.4713371165977"/>
    <line x1="11.0940414841942" y1="14.4713371165977" x2="11.0630705567733" y2="14.5805562590517"/>
    <line x1="11.0630705567733" y1="14.5805562590517" x2="11.0448321562239" y2="14.6860339461436"/>
    <line x1="11.0448321562239" y1="14.6860339461436" x2="11.0919464283746" y2="14.7202644685372"/>
    <line x1="11.0919464283746" y1="14.7202644685372" x2="11.1866256942872" y2="14.6703243210091"/>
    <line x1="11.1866256942872" y1="14.6703243210091" x2="11.2809287285176" y2="14.6071186475404"/>
    <line x1="11.2809287285176" y1="14.6071186475404" x2="11.2869188474968" y2="14.6016263555851"/>
    <line x1="11.2869188474968" y1="14.6016263555851" x2="11.2948525886822" y2="14.5998649507165"/>
    <line x1="11.2948525886822" y1="14.5998649507165" x2="11.3026041125301" y2="14.6023063999466"/>
    <line x1="11.3026041125301" y1="14.6023063999466" x2="11.3355755860469" y2="14.6232307333088"/>
    <line x1="11.3355755860469" y1="14.6232307333088" x2="11.34108511369" y2="14.6292050032607"/>
    <line x1="11.34108511369" y1="14.6292050032607" x2="11.3428693696159" y2="14.6371336366296"/>
    <line x1="11.3428693696159" y1="14.6371336366296" x2="11.3404502638901" y2="14.6448921625073"/>
    <line x1="11.3404502638901" y1="14.6448921625073" x2="11.3234123397734" y2="14.757131765881"/>
    <line x1="11.3234123397734" y1="14.757131765881" x2="11.318537614052" y2="14.8640636076214"/>
    <line x1="11.318537614052" y1="14.8640636076214" x2="11.3695705981526" y2="14.892119228046"/>
    <line x1="11.3695705981526" y1="14.892119228046" x2="11.4572441295998" y2="14.8307064149493"/>
    <line x1="11.4572441295998" y1="14.8307064149493" x2="11.5428817848029" y2="14.7561798328795"/>
    <line x1="11.5428817848029" y1="14.7561798328795" x2="11.5481363031944" y2="14.7499800883057"/>
    <line x1="11.5481363031944" y1="14.7499800883057" x2="11.555786721893" y2="14.7472382112035"/>
    <line x1="11.555786721893" y1="14.7472382112035" x2="11.5637831173867" y2="14.7486888853283"/>
    <line x1="11.5637831173867" y1="14.7486888853283" x2="11.5991171153472" y2="14.7653158026809"/>
    <line x1="11.5991171153472" y1="14.7653158026809" x2="11.6053319732905" y2="14.7705524368148"/>
    <line x1="11.6053319732905" y1="14.7705524368148" x2="11.6080958810833" y2="14.7781949239768"/>
    <line x1="11.6080958810833" y1="14.7781949239768" x2="11.6066682518646" y2="14.7861954659035"/>
    <line x1="11.6066682518646" y1="14.7861954659035" x2="11.6038320292934" y2="14.899685444603"/>
    <line x1="11.6038320292934" y1="14.899685444603" x2="11.6123978557366" y2="15.0063850619698"/>
    <line x1="11.6123978557366" y1="15.0063850619698" x2="11.6665447311423" y2="15.0278233265318"/>
    <line x1="11.6665447311423" y1="15.0278233265318" x2="11.7458298641594" y2="14.9559063646151"/>
    <line x1="11.7458298641594" y1="14.9559063646151" x2="11.8214515833552" y2="14.8712342026635"/>
    <line x1="11.8214515833552" y1="14.8712342026635" x2="11.8258876342651" y2="14.8644247791466"/>
    <line x1="11.8258876342651" y1="14.8644247791466" x2="11.8331340788039" y2="14.8607456708507"/>
    <line x1="11.8331340788039" y1="14.8607456708507" x2="11.8412492380096" y2="14.8611826918726"/>
    <line x1="11.8412492380096" y1="14.8611826918726" x2="11.8783885221585" y2="14.8732499767966"/>
    <line x1="11.8783885221585" y1="14.8732499767966" x2="11.8852106983796" y2="14.8776663902641"/>
    <line x1="11.8852106983796" y1="14.8776663902641" x2="11.8889106695624" y2="14.8849022046311"/>
    <line x1="11.8889106695624" y1="14.8849022046311" x2="11.8884970314165" y2="14.8930185892814"/>
    <line x1="11.8884970314165" y1="14.8930185892814" x2="11.8999072393149" y2="15.005969138547"/>
    <line x1="11.8999072393149" y1="15.005969138547" x2="11.9217785297228" y2="15.1107538148349"/>
    <line x1="11.9217785297228" y1="15.1107538148349" x2="11.9781853678626" y2="15.1252366292955"/>
    <line x1="11.9781853678626" y1="15.1252366292955" x2="12.0478317285394" y2="15.0439496920096"/>
    <line x1="12.0478317285394" y1="15.0439496920096" x2="12.112244912042" y2="14.9504672807508"/>
    <line x1="12.112244912042" y1="14.9504672807508" x2="12.1157925362973" y2="14.9431555669674"/>
    <line x1="12.1157925362973" y1="14.9431555669674" x2="12.1225207259172" y2="14.9385972492134"/>
    <line x1="12.1225207259172" y1="14.9385972492134" x2="12.1306266679265" y2="14.9380137250499"/>
    <line x1="12.1306266679265" y1="14.9380137250499" x2="12.1689855295668" y2="14.9453310692533"/>
    <line x1="12.1689855295668" y1="14.9453310692533" x2="12.1763074342713" y2="14.9488576125757"/>
    <line x1="12.1763074342713" y1="14.9488576125757" x2="12.1808851180883" y2="14.9555726410328"/>
    <line x1="12.1808851180883" y1="14.9555726410328" x2="12.1814919943358" y2="14.9636768681722"/>
    <line x1="12.1814919943358" y1="14.9636768681722" x2="12.2069686869092" y2="15.0743066903686"/>
    <line x1="12.2069686869092" y1="15.0743066903686" x2="12.2418005179667" y2="15.1755239086373"/>
    <line x1="12.2418005179667" y1="15.1755239086373" x2="12.2995777493073" y2="15.1828228703609"/>
    <line x1="12.2995777493073" y1="15.1828228703609" x2="12.3584869729313" y2="15.093447901265"/>
    <line x1="12.3584869729313" y1="15.093447901265" x2="12.4106757863582" y2="14.9926295141683"/>
    <line x1="12.4106757863582" y1="14.9926295141683" x2="12.4132790358053" y2="14.9849308202126"/>
    <line x1="12.4132790358053" y1="14.9849308202126" x2="12.4193828629367" y2="14.9795651803945"/>
    <line x1="12.4193828629367" y1="14.9795651803945" x2="12.4273517522019" y2="14.9779703135702"/>
    <line x1="12.4273517522019" y1="14.9779703135702" x2="12.466325249171" y2="14.9804223181637"/>
    <line x1="12.466325249171" y1="14.9804223181637" x2="12.4740314115479" y2="14.9830033756463"/>
    <line x1="12.4740314115479" y1="14.9830033756463" x2="12.4794146151907" y2="14.9890917181833"/>
    <line x1="12.4794146151907" y1="14.9890917181833" x2="12.4810324350307" y2="14.9970559793086"/>
    <line x1="12.4810324350307" y1="14.9970559793086" x2="12.5201738296181" y2="15.1036203760528"/>
    <line x1="12.5201738296181" y1="15.1036203760528" x2="12.567416882542" y2="15.1996738803058"/>
    <line x1="12.567416882542" y1="15.1996738803058" x2="12.6256533256307" y2="15.1996738803058"/>
    <line x1="12.6256533256307" y1="15.1996738803058" x2="12.6728963785546" y2="15.1036203760528"/>
    <line x1="12.6728963785546" y1="15.1036203760528" x2="12.712037773142" y2="14.9970559793086"/>
    <line x1="12.712037773142" y1="14.9970559793086" x2="12.7136555929819" y2="14.9890917181833"/>
    <line x1="12.7136555929819" y1="14.9890917181833" x2="12.7190387966248" y2="14.9830033756463"/>
    <line x1="12.7190387966248" y1="14.9830033756463" x2="12.7267449590017" y2="14.9804223181637"/>
    <line x1="12.7267449590017" y1="14.9804223181637" x2="12.7657184559708" y2="14.9779703135702"/>
    <line x1="12.7657184559708" y1="14.9779703135702" x2="12.7736873452359" y2="14.9795651803945"/>
    <line x1="12.7736873452359" y1="14.9795651803945" x2="12.7797911723674" y2="14.9849308202126"/>
    <line x1="12.7797911723674" y1="14.9849308202126" x2="12.7823944218144" y2="14.9926295141683"/>
    <line x1="12.7823944218144" y1="14.9926295141683" x2="12.8345832352413" y2="15.093447901265"/>
    <line x1="12.8345832352413" y1="15.093447901265" x2="12.8934924588653" y2="15.1828228703609"/>
    <line x1="12.8934924588653" y1="15.1828228703609" x2="12.9512696902059" y2="15.1755239086373"/>
    <line x1="12.9512696902059" y1="15.1755239086373" x2="12.9861015212635" y2="15.0743066903686"/>
    <line x1="12.9861015212635" y1="15.0743066903686" x2="13.0115782138368" y2="14.9636768681722"/>
    <line x1="13.0115782138368" y1="14.9636768681722" x2="13.0121850900843" y2="14.9555726410328"/>
    <line x1="13.0121850900843" y1="14.9555726410328" x2="13.0167627739013" y2="14.9488576125757"/>
    <line x1="13.0167627739013" y1="14.9488576125757" x2="13.0240846786059" y2="14.9453310692533"/>
    <line x1="13.0240846786059" y1="14.9453310692533" x2="13.0624435402461" y2="14.9380137250499"/>
    <line x1="13.0624435402461" y1="14.9380137250499" x2="13.0705494822554" y2="14.9385972492134"/>
    <line x1="13.0705494822554" y1="14.9385972492134" x2="13.0772776718753" y2="14.9431555669674"/>
    <line x1="13.0772776718753" y1="14.9431555669674" x2="13.0808252961307" y2="14.9504672807508"/>
    <line x1="13.0808252961307" y1="14.9504672807508" x2="13.1452384796332" y2="15.0439496920096"/>
    <line x1="13.1452384796332" y1="15.0439496920096" x2="13.2148848403101" y2="15.1252366292955"/>
    <line x1="13.2148848403101" y1="15.1252366292955" x2="13.2712916784499" y2="15.1107538148349"/>
    <line x1="13.2712916784499" y1="15.1107538148349" x2="13.2931629688578" y2="15.005969138547"/>
    <line x1="13.2931629688578" y1="15.005969138547" x2="13.3045731767561" y2="14.8930185892814"/>
    <line x1="13.3045731767561" y1="14.8930185892814" x2="13.3041595386102" y2="14.8849022046311"/>
    <line x1="13.3041595386102" y1="14.8849022046311" x2="13.3078595097931" y2="14.8776663902641"/>
    <line x1="13.3078595097931" y1="14.8776663902641" x2="13.3146816860142" y2="14.8732499767966"/>
    <line x1="13.3146816860142" y1="14.8732499767966" x2="13.351820970163" y2="14.8611826918726"/>
    <line x1="13.351820970163" y1="14.8611826918726" x2="13.3599361293687" y2="14.8607456708507"/>
    <line x1="13.3599361293687" y1="14.8607456708507" x2="13.3671825739076" y2="14.8644247791466"/>
    <line x1="13.3671825739076" y1="14.8644247791466" x2="13.3716186248174" y2="14.8712342026635"/>
    <line x1="13.3716186248174" y1="14.8712342026635" x2="13.4472403440132" y2="14.9559063646151"/>
    <line x1="13.4472403440132" y1="14.9559063646151" x2="13.5265254770304" y2="15.0278233265318"/>
    <line x1="13.5265254770304" y1="15.0278233265318" x2="13.580672352436" y2="15.0063850619698"/>
    <line x1="13.580672352436" y1="15.0063850619698" x2="13.5892381788793" y2="14.899685444603"/>
    <line x1="13.5892381788793" y1="14.899685444603" x2="13.586401956308" y2="14.7861954659035"/>
    <line x1="13.586401956308" y1="14.7861954659035" x2="13.5849743270894" y2="14.7781949239768"/>
    <line x1="13.5849743270894" y1="14.7781949239768" x2="13.5877382348822" y2="14.7705524368148"/>
    <line x1="13.5877382348822" y1="14.7705524368148" x2="13.5939530928255" y2="14.7653158026809"/>
    <line x1="13.5939530928255" y1="14.7653158026809" x2="13.629287090786" y2="14.7486888853283"/>
    <line x1="13.629287090786" y1="14.7486888853283" x2="13.6372834862797" y2="14.7472382112035"/>
    <line x1="13.6372834862797" y1="14.7472382112035" x2="13.6449339049783" y2="14.7499800883057"/>
    <line x1="13.6449339049783" y1="14.7499800883057" x2="13.6501884233698" y2="14.7561798328795"/>
    <line x1="13.6501884233698" y1="14.7561798328795" x2="13.7358260785729" y2="14.8307064149493"/>
    <line x1="13.7358260785729" y1="14.8307064149493" x2="13.82349961002" y2="14.892119228046"/>
    <line x1="13.82349961002" y1="14.892119228046" x2="13.8745325941207" y2="14.8640636076214"/>
    <line x1="13.8745325941207" y1="14.8640636076214" x2="13.8696578683993" y2="14.757131765881"/>
    <line x1="13.8696578683993" y1="14.757131765881" x2="13.8526199442825" y2="14.6448921625073"/>
    <line x1="13.8526199442825" y1="14.6448921625073" x2="13.8502008385567" y2="14.6371336366296"/>
    <line x1="13.8502008385567" y1="14.6371336366296" x2="13.8519850944826" y2="14.6292050032607"/>
    <line x1="13.8519850944826" y1="14.6292050032607" x2="13.8574946221257" y2="14.6232307333088"/>
    <line x1="13.8574946221257" y1="14.6232307333088" x2="13.8904660956426" y2="14.6023063999466"/>
    <line x1="13.8904660956426" y1="14.6023063999466" x2="13.8982176194905" y2="14.5998649507165"/>
    <line x1="13.8982176194905" y1="14.5998649507165" x2="13.9061513606758" y2="14.6016263555851"/>
    <line x1="13.9061513606758" y1="14.6016263555851" x2="13.9121414796551" y2="14.6071186475404"/>
    <line x1="13.9121414796551" y1="14.6071186475404" x2="14.0064445138855" y2="14.6703243210091"/>
    <line x1="14.0064445138855" y1="14.6703243210091" x2="14.101123779798" y2="14.7202644685372"/>
    <line x1="14.101123779798" y1="14.7202644685372" x2="14.1482380519488" y2="14.6860339461436"/>
    <line x1="14.1482380519488" y1="14.6860339461436" x2="14.1299996513994" y2="14.5805562590517"/>
    <line x1="14.1299996513994" y1="14.5805562590517" x2="14.0990287239785" y2="14.4713371165977"/>
    <line x1="14.0990287239785" y1="14.4713371165977" x2="14.0956562924879" y2="14.4639429633569"/>
    <line x1="14.0956562924879" y1="14.4639429633569" x2="14.096432757765" y2="14.4558532230656"/>
    <line x1="14.096432757765" y1="14.4558532230656" x2="14.1011500665658" y2="14.4492355351018"/>
    <line x1="14.1011500665658" y1="14.4492355351018" x2="14.1312390358054" y2="14.4243437749667"/>
    <line x1="14.1312390358054" y1="14.4243437749667" x2="14.1386234418459" y2="14.4209500537441"/>
    <line x1="14.1386234418459" y1="14.4209500537441" x2="14.1467153856801" y2="14.4217032079722"/>
    <line x1="14.1467153856801" y1="14.4217032079722" x2="14.1533466374925" y2="14.4264014305838"/>
    <line x1="14.1533466374925" y1="14.4264014305838" x2="14.2548278355665" y2="14.4772894042236"/>
    <line x1="14.2548278355665" y1="14.4772894042236" x2="14.3550196873624" y2="14.5149693002237"/>
    <line x1="14.3550196873624" y1="14.5149693002237" x2="14.3974722273466" y2="14.4751037116477"/>
    <line x1="14.3974722273466" y1="14.4751037116477" x2="14.366157782441" y2="14.372743625339"/>
    <line x1="14.366157782441" y1="14.372743625339" x2="14.3217422817425" y2="14.2682673949256"/>
    <line x1="14.3217422817425" y1="14.2682673949256" x2="14.3174697097464" y2="14.2613542245353"/>
    <line x1="14.3174697097464" y1="14.2613542245353" x2="14.3172261390535" y2="14.2532309573585"/>
    <line x1="14.3172261390535" y1="14.2532309573585" x2="14.3210768342342" y2="14.2460742162752"/>
    <line x1="14.3210768342342" y1="14.2460742162752" x2="14.3478087781773" y2="14.2176075872942"/>
    <line x1="14.3478087781773" y1="14.2176075872942" x2="14.3547096099159" y2="14.2133151150901"/>
    <line x1="14.3547096099159" y1="14.2133151150901" x2="14.3628321416109" y2="14.2130481409856"/>
    <line x1="14.3628321416109" y1="14.2130481409856" x2="14.369999947454" y2="14.2168782004764"/>
    <line x1="14.369999947454" y1="14.2168782004764" x2="14.477058890256" y2="14.2546459405439"/>
    <line x1="14.477058890256" y1="14.2546459405439" x2="14.5811832425806" y2="14.2794713505472"/>
    <line x1="14.5811832425806" y1="14.2794713505472" x2="14.618304548483" y2="14.2345993999352"/>
    <line x1="14.618304548483" y1="14.2345993999352" x2="14.5744079067237" y2="14.1369711941179"/>
    <line x1="14.5744079067237" y1="14.1369711941179" x2="14.5172482917261" y2="14.0388855283097"/>
    <line x1="14.5172482917261" y1="14.0388855283097" x2="14.5121429602372" y2="14.0325623655967"/>
    <line x1="14.5121429602372" y1="14.0325623655967" x2="14.5108831948295" y2="14.0245336803105"/>
    <line x1="14.5108831948295" y1="14.0245336803105" x2="14.5138065486268" y2="14.0169507521898"/>
    <line x1="14.5138065486268" y1="14.0169507521898" x2="14.5367598885487" y2="13.9853581901069"/>
    <line x1="14.5367598885487" y1="13.9853581901069" x2="14.5430683157465" y2="13.9802346617722"/>
    <line x1="14.5430683157465" y1="13.9802346617722" x2="14.5510933381251" y2="13.9789517696762"/>
    <line x1="14.5510933381251" y1="13.9789517696762" x2="14.558684657419" y2="13.9818532637201"/>
    <line x1="14.558684657419" y1="13.9818532637201" x2="14.6696329614671" y2="14.0059051503931"/>
    <line x1="14.6696329614671" y1="14.0059051503931" x2="14.7760477110835" y2="14.0174845628539"/>
    <line x1="14.7760477110835" y1="14.0174845628539" x2="14.8072523577347" y2="13.9683139076722"/>
    <line x1="14.8072523577347" y1="13.9683139076722" x2="14.7514657953848" y2="13.8769572374722"/>
    <line x1="14.7514657953848" y1="13.8769572374722" x2="14.6824635073622" y2="13.7868090058126"/>
    <line x1="14.6824635073622" y1="13.7868090058126" x2="14.6766059305078" y2="13.7811755708302"/>
    <line x1="14.6766059305078" y1="13.7811755708302" x2="14.6743498376384" y2="13.7733680845975"/>
    <line x1="14.6743498376384" y1="13.7733680845975" x2="14.6762997470166" y2="13.7654785567457"/>
    <line x1="14.6762997470166" y1="13.7654785567457" x2="14.6951124950349" y2="13.7312582951376"/>
    <line x1="14.6951124950349" y1="13.7312582951376" x2="14.7007290300266" y2="13.7253845117747"/>
    <line x1="14.7007290300266" y1="13.7253845117747" x2="14.7085299836921" y2="13.7231059336619"/>
    <line x1="14.7085299836921" y1="13.7231059336619" x2="14.7164250967966" y2="13.7250331039645"/>
    <line x1="14.7164250967966" y1="13.7250331039645" x2="14.8295130410587" y2="13.7349898246224"/>
    <line x1="14.8295130410587" y1="13.7349898246224" x2="14.9365399637964" y2="13.733140625289"/>
    <line x1="14.9365399637964" y1="13.733140625289" x2="14.961335835278" y2="13.6804467161429"/>
    <line x1="14.961335835278" y1="13.6804467161429" x2="14.8945391397509" y2="13.5968023308231"/>
    <line x1="14.8945391397509" y1="13.5968023308231" x2="14.8147823860054" y2="13.5160132247773"/>
    <line x1="14.8147823860054" y1="13.5160132247773" x2="14.8082649412716" y2="13.5111583601603"/>
    <line x1="14.8082649412716" y1="13.5111583601603" x2="14.8050481008729" y2="13.5036952017032"/>
    <line x1="14.8050481008729" y1="13.5036952017032" x2="14.8059938145962" y2="13.4956234966875"/>
    <line x1="14.8059938145962" y1="13.4956234966875" x2="14.8203692824365" y2="13.4593152095219"/>
    <line x1="14.8203692824365" y1="13.4593152095219" x2="14.8252053491101" y2="13.4527838042032"/>
    <line x1="14.8252053491101" y1="13.4527838042032" x2="14.8326592083632" y2="13.4495454746117"/>
    <line x1="14.8326592083632" y1="13.4495454746117" x2="14.8407336046283" y2="13.4504679285461"/>
    <line x1="14.8407336046283" y1="13.4504679285461" x2="14.9541777246679" y2="13.4461724597561"/>
    <line x1="14.9541777246679" y1="13.4461724597561" x2="15.0601289420204" y2="13.4309238116066"/>
    <line x1="15.0601289420204" y1="13.4309238116066" x2="15.0781249926268" y2="13.3755376629212"/>
    <line x1="15.0781249926268" y1="13.3755376629212" x2="15.0013715877135" y2="13.3009246844048"/>
    <line x1="15.0013715877135" y1="13.3009246844048" x2="14.912118179896" y2="13.2307687964363"/>
    <line x1="14.912118179896" y1="13.2307687964363" x2="14.9050436512797" y2="13.2267690663"/>
    <line x1="14.9050436512797" y1="13.2267690663" x2="14.9009167948462" y2="13.2197679340854"/>
    <line x1="14.9009167948462" y1="13.2197679340854" x2="14.9008433984444" y2="13.2116413475157"/>
    <line x1="14.9008433984444" y1="13.2116413475157" x2="14.9105548763914" y2="13.1738176381707"/>
    <line x1="14.9105548763914" y1="13.1738176381707" x2="14.9145342070865" y2="13.1667316150599"/>
    <line x1="14.9145342070865" y1="13.1667316150599" x2="14.9215234201139" y2="13.1625846043817"/>
    <line x1="14.9215234201139" y1="13.1625846043817" x2="14.9296497614872" y2="13.1624877942984"/>
    <line x1="14.9296497614872" y1="13.1624877942984" x2="15.0416609757631" y2="13.1440078781693"/>
    <line x1="15.0416609757631" y1="13.1440078781693" x2="15.1448655737406" y2="13.1156002614942"/>
    <line x1="15.1448655737406" y1="13.1156002614942" x2="15.1557779950034" y2="13.0583953459204"/>
    <line x1="15.1557779950034" y1="13.0583953459204" x2="15.0702783277497" y2="12.9939904654502"/>
    <line x1="15.0702783277497" y1="12.9939904654502" x2="14.9729358454189" y2="12.9355741958213"/>
    <line x1="14.9729358454189" y1="12.9355741958213" x2="14.9654158024623" y2="12.9324926782992"/>
    <line x1="14.9654158024623" y1="12.9324926782992" x2="14.9604440129855" y2="12.9260639843645"/>
    <line x1="14.9604440129855" y1="12.9260639843645" x2="14.9593526639635" y2="12.9180106773656"/>
    <line x1="14.9593526639635" y1="12.9180106773656" x2="14.9642469962087" y2="12.8792680483324"/>
    <line x1="14.9642469962087" y1="12.8792680483324" x2="14.9673068345031" y2="12.8717391582469"/>
    <line x1="14.9673068345031" y1="12.8717391582469" x2="14.9737211772403" y2="12.8667488673177"/>
    <line x1="14.9737211772403" y1="12.8667488673177" x2="14.9817713064638" y2="12.8656343199694"/>
    <line x1="14.9817713064638" y1="12.8656343199694" x2="15.0905831312146" y2="12.8332613958181"/>
    <line x1="15.0905831312146" y1="12.8332613958181" x2="15.1894135116556" y2="12.7921428157022"/>
    <line x1="15.1894135116556" y1="12.7921428157022" x2="15.1930702081727" y2="12.7340212889311"/>
    <line x1="15.1930702081727" y1="12.7340212889311" x2="15.1001726594061" y2="12.6808402099458"/>
    <line x1="15.1001726594061" y1="12.6808402099458" x2="14.9962762516579" y2="12.6350848181247"/>
    <line x1="14.9962762516579" y1="12.6350848181247" x2="14.9884292899308" y2="12.6329701105889"/>
    <line x1="14.9884292899308" y1="12.6329701105889" x2="14.9826909755006" y2="12.6272152392778"/>
    <line x1="14.9826909755006" y1="12.6272152392778" x2="14.9805988850846" y2="12.6193622173118"/>
    <line x1="14.9805988850846" y1="12.6193622173118" x2="14.9805988850846" y2="12.580311662994"/>
    <line x1="14.9805988850846" y1="12.580311662994" x2="14.9826909755006" y2="12.572458641028"/>
    <line x1="14.9826909755006" y1="12.572458641028" x2="14.9884292899308" y2="12.5667037697169"/>
    <line x1="14.9884292899308" y1="12.5667037697169" x2="14.9962762516579" y2="12.5645890621811"/>
    <line x1="14.9962762516579" y1="12.5645890621811" x2="15.1001726594061" y2="12.51883367036"/>
    <line x1="15.1001726594061" y1="12.51883367036" x2="15.1930702081727" y2="12.4656525913748"/>
    <line x1="15.1930702081727" y1="12.4656525913748" x2="15.1894135116556" y2="12.4075310646037"/>
    <line x1="15.1894135116556" y1="12.4075310646037" x2="15.0905831312146" y2="12.3664124844877"/>
    <line x1="15.0905831312146" y1="12.3664124844877" x2="14.9817713064638" y2="12.3340395603364"/>
    <line x1="14.9817713064638" y1="12.3340395603364" x2="14.9737211772403" y2="12.3329250129881"/>
    <line x1="14.9737211772403" y1="12.3329250129881" x2="14.9673068345031" y2="12.3279347220589"/>
    <line x1="14.9673068345031" y1="12.3279347220589" x2="14.9642469962087" y2="12.3204058319734"/>
    <line x1="14.9642469962087" y1="12.3204058319734" x2="14.9593526639635" y2="12.2816632029403"/>
    <line x1="14.9593526639635" y1="12.2816632029403" x2="14.9604440129855" y2="12.2736098959413"/>
    <line x1="14.9604440129855" y1="12.2736098959413" x2="14.9654158024623" y2="12.2671812020066"/>
    <line x1="14.9654158024623" y1="12.2671812020066" x2="14.9729358454189" y2="12.2640996844845"/>
    <line x1="14.9729358454189" y1="12.2640996844845" x2="15.0702783277497" y2="12.2056834148556"/>
    <line x1="15.0702783277497" y1="12.2056834148556" x2="15.1557779950034" y2="12.1412785343855"/>
    <line x1="15.1557779950034" y1="12.1412785343855" x2="15.1448655737406" y2="12.0840736188116"/>
    <line x1="15.1448655737406" y1="12.0840736188116" x2="15.0416609757631" y2="12.0556660021365"/>
    <line x1="15.0416609757631" y1="12.0556660021365" x2="14.9296497614872" y2="12.0371860860075"/>
    <line x1="14.9296497614872" y1="12.0371860860075" x2="14.9215234201139" y2="12.0370892759241"/>
    <line x1="14.9215234201139" y1="12.0370892759241" x2="14.9145342070865" y2="12.0329422652459"/>
    <line x1="14.9145342070865" y1="12.0329422652459" x2="14.9105548763914" y2="12.0258562421351"/>
    <line x1="14.9105548763914" y1="12.0258562421351" x2="14.9008433984444" y2="11.9880325327902"/>
    <line x1="14.9008433984444" y1="11.9880325327902" x2="14.9009167948462" y2="11.9799059462204"/>
    <line x1="14.9009167948462" y1="11.9799059462204" x2="14.9050436512797" y2="11.9729048140058"/>
    <line x1="14.9050436512797" y1="11.9729048140058" x2="14.912118179896" y2="11.9689050838695"/>
    <line x1="14.912118179896" y1="11.9689050838695" x2="15.0013715877135" y2="11.898749195901"/>
    <line x1="15.0013715877135" y1="11.898749195901" x2="15.0781249926268" y2="11.8241362173846"/>
    <line x1="15.0781249926268" y1="11.8241362173846" x2="15.0601289420204" y2="11.7687500686992"/>
    <line x1="15.0601289420204" y1="11.7687500686992" x2="14.9541777246679" y2="11.7535014205497"/>
    <line x1="14.9541777246679" y1="11.7535014205497" x2="14.8407336046283" y2="11.7492059517597"/>
    <line x1="14.8407336046283" y1="11.7492059517597" x2="14.8326592083632" y2="11.7501284056942"/>
    <line x1="14.8326592083632" y1="11.7501284056942" x2="14.8252053491101" y2="11.7468900761026"/>
    <line x1="14.8252053491101" y1="11.7468900761026" x2="14.8203692824365" y2="11.740358670784"/>
    <line x1="14.8203692824365" y1="11.740358670784" x2="14.8059938145962" y2="11.7040503836184"/>
    <line x1="14.8059938145962" y1="11.7040503836184" x2="14.8050481008729" y2="11.6959786786027"/>
    <line x1="14.8050481008729" y1="11.6959786786027" x2="14.8082649412716" y2="11.6885155201455"/>
    <line x1="14.8082649412716" y1="11.6885155201455" x2="14.8147823860054" y2="11.6836606555285"/>
    <line x1="14.8147823860054" y1="11.6836606555285" x2="14.8945391397509" y2="11.6028715494828"/>
    <line x1="14.8945391397509" y1="11.6028715494828" x2="14.961335835278" y2="11.5192271641629"/>
    <line x1="14.961335835278" y1="11.5192271641629" x2="14.9365399637964" y2="11.4665332550169"/>
    <line x1="14.9365399637964" y1="11.4665332550169" x2="14.8295130410587" y2="11.4646840556835"/>
    <line x1="14.8295130410587" y1="11.4646840556835" x2="14.7164250967966" y2="11.4746407763413"/>
    <line x1="14.7164250967966" y1="11.4746407763413" x2="14.7085299836921" y2="11.4765679466439"/>
    <line x1="14.7085299836921" y1="11.4765679466439" x2="14.7007290300266" y2="11.4742893685311"/>
    <line x1="14.7007290300266" y1="11.4742893685311" x2="14.6951124950349" y2="11.4684155851682"/>
    <line x1="14.6951124950349" y1="11.4684155851682" x2="14.6762997470166" y2="11.4341953235601"/>
    <line x1="14.6762997470166" y1="11.4341953235601" x2="14.6743498376384" y2="11.4263057957083"/>
    <line x1="14.6743498376384" y1="11.4263057957083" x2="14.6766059305078" y2="11.4184983094757"/>
    <line x1="14.6766059305078" y1="11.4184983094757" x2="14.6824635073622" y2="11.4128648744932"/>
    <line x1="14.6824635073622" y1="11.4128648744932" x2="14.7514657953848" y2="11.3227166428337"/>
    <line x1="14.7514657953848" y1="11.3227166428337" x2="14.8072523577347" y2="11.2313599726336"/>
    <line x1="14.8072523577347" y1="11.2313599726336" x2="14.7760477110835" y2="11.1821893174519"/>
    <line x1="14.7760477110835" y1="11.1821893174519" x2="14.6696329614671" y2="11.1937687299127"/>
    <line x1="14.6696329614671" y1="11.1937687299127" x2="14.558684657419" y2="11.2178206165858"/>
    <line x1="14.558684657419" y1="11.2178206165858" x2="14.5510933381251" y2="11.2207221106297"/>
    <line x1="14.5510933381251" y1="11.2207221106297" x2="14.5430683157465" y2="11.2194392185337"/>
    <line x1="14.5430683157465" y1="11.2194392185337" x2="14.5367598885487" y2="11.2143156901989"/>
    <line x1="14.5367598885487" y1="11.2143156901989" x2="14.5138065486268" y2="11.1827231281161"/>
    <line x1="14.5138065486268" y1="11.1827231281161" x2="14.5108831948295" y2="11.1751401999954"/>
    <line x1="14.5108831948295" y1="11.1751401999954" x2="14.5121429602372" y2="11.1671115147091"/>
    <line x1="14.5121429602372" y1="11.1671115147091" x2="14.5172482917261" y2="11.1607883519961"/>
    <line x1="14.5172482917261" y1="11.1607883519961" x2="14.5744079067237" y2="11.062702686188"/>
    <line x1="14.5744079067237" y1="11.062702686188" x2="14.618304548483" y2="10.9650744803706"/>
    <line x1="14.618304548483" y1="10.9650744803706" x2="14.5811832425806" y2="10.9202025297586"/>
    <line x1="14.5811832425806" y1="10.9202025297586" x2="14.477058890256" y2="10.9450279397619"/>
    <line x1="14.477058890256" y1="10.9450279397619" x2="14.369999947454" y2="10.9827956798294"/>
    <line x1="14.369999947454" y1="10.9827956798294" x2="14.3628321416109" y2="10.9866257393203"/>
    <line x1="14.3628321416109" y1="10.9866257393203" x2="14.3547096099159" y2="10.9863587652158"/>
    <line x1="14.3547096099159" y1="10.9863587652158" x2="14.3478087781773" y2="10.9820662930117"/>
    <line x1="14.3478087781773" y1="10.9820662930117" x2="14.3210768342342" y2="10.9535996640306"/>
    <line x1="14.3210768342342" y1="10.9535996640306" x2="14.3172261390535" y2="10.9464429229473"/>
    <line x1="14.3172261390535" y1="10.9464429229473" x2="14.3174697097464" y2="10.9383196557705"/>
    <line x1="14.3174697097464" y1="10.9383196557705" x2="14.3217422817425" y2="10.9314064853802"/>
    <line x1="14.3217422817425" y1="10.9314064853802" x2="14.366157782441" y2="10.8269302549668"/>
    <line x1="14.366157782441" y1="10.8269302549668" x2="14.3974722273466" y2="10.7245701686581"/>
    <line x1="14.3974722273466" y1="10.7245701686581" x2="14.3550196873624" y2="10.6847045800822"/>
    <line x1="14.3550196873624" y1="10.6847045800822" x2="14.2548278355665" y2="10.7223844760823"/>
    <line x1="14.2548278355665" y1="10.7223844760823" x2="14.1533466374925" y2="10.773272449722"/>
    <line x1="14.1533466374925" y1="10.773272449722" x2="14.1467153856801" y2="10.7779706723336"/>
    <line x1="14.1467153856801" y1="10.7779706723336" x2="14.1386234418459" y2="10.7787238265618"/>
    <line x1="14.1386234418459" y1="10.7787238265618" x2="14.1312390358054" y2="10.7753301053392"/>
    <line x1="14.1312390358054" y1="10.7753301053392" x2="14.1011500665658" y2="10.750438345204"/>
    <line x1="14.1011500665658" y1="10.750438345204" x2="14.096432757765" y2="10.7438206572403"/>
    <line x1="14.096432757765" y1="10.7438206572403" x2="14.0956562924879" y2="10.735730916949"/>
    <line x1="14.0956562924879" y1="10.735730916949" x2="14.0990287239785" y2="10.7283367637081"/>
    <line x1="14.0990287239785" y1="10.7283367637081" x2="14.1299996513994" y2="10.6191176212541"/>
    <line x1="14.1299996513994" y1="10.6191176212541" x2="14.1482380519488" y2="10.5136399341622"/>
    <line x1="14.1482380519488" y1="10.5136399341622" x2="14.101123779798" y2="10.4794094117687"/>
    <line x1="14.101123779798" y1="10.4794094117687" x2="14.0064445138855" y2="10.5293495592968"/>
    <line x1="14.0064445138855" y1="10.5293495592968" x2="13.9121414796551" y2="10.5925552327654"/>
    <line x1="13.9121414796551" y1="10.5925552327654" x2="13.9061513606758" y2="10.5980475247207"/>
    <line x1="13.9061513606758" y1="10.5980475247207" x2="13.8982176194905" y2="10.5998089295894"/>
    <line x1="13.8982176194905" y1="10.5998089295894" x2="13.8904660956426" y2="10.5973674803593"/>
    <line x1="13.8904660956426" y1="10.5973674803593" x2="13.8574946221257" y2="10.576443146997"/>
    <line x1="13.8574946221257" y1="10.576443146997" x2="13.8519850944826" y2="10.5704688770452"/>
    <line x1="13.8519850944826" y1="10.5704688770452" x2="13.8502008385567" y2="10.5625402436763"/>
    <line x1="13.8502008385567" y1="10.5625402436763" x2="13.8526199442825" y2="10.5547817177986"/>
    <line x1="13.8526199442825" y1="10.5547817177986" x2="13.8696578683993" y2="10.4425421144249"/>
    <line x1="13.8696578683993" y1="10.4425421144249" x2="13.8745325941207" y2="10.3356102726844"/>
    <line x1="13.8745325941207" y1="10.3356102726844" x2="13.82349961002" y2="10.3075546522598"/>
    <line x1="13.82349961002" y1="10.3075546522598" x2="13.7358260785729" y2="10.3689674653565"/>
    <line x1="13.7358260785729" y1="10.3689674653565" x2="13.6501884233698" y2="10.4434940474263"/>
    <line x1="13.6501884233698" y1="10.4434940474263" x2="13.6449339049783" y2="10.4496937920002"/>
    <line x1="13.6449339049783" y1="10.4496937920002" x2="13.6372834862797" y2="10.4524356691023"/>
    <line x1="13.6372834862797" y1="10.4524356691023" x2="13.629287090786" y2="10.4509849949776"/>
    <line x1="13.629287090786" y1="10.4509849949776" x2="13.5939530928255" y2="10.4343580776249"/>
    <line x1="13.5939530928255" y1="10.4343580776249" x2="13.5877382348822" y2="10.429121443491"/>
    <line x1="13.5877382348822" y1="10.429121443491" x2="13.5849743270894" y2="10.4214789563291"/>
    <line x1="13.5849743270894" y1="10.4214789563291" x2="13.586401956308" y2="10.4134784144023"/>
    <line x1="13.586401956308" y1="10.4134784144023" x2="13.5892381788793" y2="10.2999884357028"/>
    <line x1="13.5892381788793" y1="10.2999884357028" x2="13.580672352436" y2="10.1932888183361"/>
    <line x1="13.580672352436" y1="10.1932888183361" x2="13.5265254770304" y2="10.1718505537741"/>
    <line x1="13.5265254770304" y1="10.1718505537741" x2="13.4472403440132" y2="10.2437675156907"/>
    <line x1="13.4472403440132" y1="10.2437675156907" x2="13.3716186248174" y2="10.3284396776423"/>
    <line x1="13.3716186248174" y1="10.3284396776423" x2="13.3671825739076" y2="10.3352491011592"/>
    <line x1="13.3671825739076" y1="10.3352491011592" x2="13.3599361293687" y2="10.3389282094551"/>
    <line x1="13.3599361293687" y1="10.3389282094551" x2="13.351820970163" y2="10.3384911884332"/>
    <line x1="13.351820970163" y1="10.3384911884332" x2="13.3146816860142" y2="10.3264239035092"/>
    <line x1="13.3146816860142" y1="10.3264239035092" x2="13.307859509793" y2="10.3220074900418"/>
    <line x1="13.307859509793" y1="10.3220074900418" x2="13.3041595386102" y2="10.3147716756748"/>
    <line x1="13.3041595386102" y1="10.3147716756748" x2="13.3045731767561" y2="10.3066552910244"/>
    <line x1="13.3045731767561" y1="10.3066552910244" x2="13.2931629688578" y2="10.1937047417588"/>
    <line x1="13.2931629688578" y1="10.1937047417588" x2="13.2712916784499" y2="10.0889200654709"/>
    <line x1="13.2712916784499" y1="10.0889200654709" x2="13.2148848403101" y2="10.0744372510103"/>
    <line x1="13.2148848403101" y1="10.0744372510103" x2="13.1452384796332" y2="10.1557241882963"/>
    <line x1="13.1452384796332" y1="10.1557241882963" x2="13.0808252961307" y2="10.2492065995551"/>
    <line x1="13.0808252961307" y1="10.2492065995551" x2="13.0772776718753" y2="10.2565183133385"/>
    <line x1="13.0772776718753" y1="10.2565183133385" x2="13.0705494822554" y2="10.2610766310924"/>
    <line x1="13.0705494822554" y1="10.2610766310924" x2="13.0624435402461" y2="10.2616601552559"/>
    <line x1="13.0624435402461" y1="10.2616601552559" x2="13.0240846786059" y2="10.2543428110526"/>
    <line x1="13.0240846786059" y1="10.2543428110526" x2="13.0167627739013" y2="10.2508162677301"/>
    <line x1="13.0167627739013" y1="10.2508162677301" x2="13.0121850900843" y2="10.2441012392731"/>
    <line x1="13.0121850900843" y1="10.2441012392731" x2="13.0115782138368" y2="10.2359970121336"/>
    <line x1="13.0115782138368" y1="10.2359970121336" x2="12.9861015212635" y2="10.1253671899372"/>
    <line x1="12.9861015212635" y1="10.1253671899372" x2="12.9512696902059" y2="10.0241499716686"/>
    <line x1="12.9512696902059" y1="10.0241499716686" x2="12.8934924588653" y2="10.016851009945"/>
    <line x1="12.8934924588653" y1="10.016851009945" x2="12.8345832352413" y2="10.1062259790408"/>
    <line x1="12.8345832352413" y1="10.1062259790408" x2="12.7823944218144" y2="10.2070443661375"/>
    <line x1="12.7823944218144" y1="10.2070443661375" x2="12.7797911723674" y2="10.2147430600932"/>
    <line x1="12.7797911723674" y1="10.2147430600932" x2="12.7736873452359" y2="10.2201086999113"/>
    <line x1="12.7736873452359" y1="10.2201086999113" x2="12.7657184559708" y2="10.2217035667356"/>
    <line x1="12.7657184559708" y1="10.2217035667356" x2="12.7267449590017" y2="10.2192515621421"/>
    <line x1="12.7267449590017" y1="10.2192515621421" x2="12.7190387966248" y2="10.2166705046596"/>
    <line x1="12.7190387966248" y1="10.2166705046596" x2="12.7136555929819" y2="10.2105821621226"/>
    <line x1="12.7136555929819" y1="10.2105821621226" x2="12.712037773142" y2="10.2026179009972"/>
    <line x1="12.712037773142" y1="10.2026179009972" x2="12.6728963785546" y2="10.0960535042531"/>
    <line x1="12.6728963785546" y1="10.0960535042531" x2="12.6256533256307" y2="10.0"/>
    <line x1="12.6256533256307" y1="10.0" x2="12.567416882542" y2="10.0"/>
    <line x1="12.567416882542" y1="10.0" x2="12.5201738296181" y2="10.0960535042531"/>
    <line x1="12.5201738296181" y1="10.0960535042531" x2="12.4810324350307" y2="10.2026179009972"/>
    <line x1="12.4810324350307" y1="10.2026179009972" x2="12.4794146151907" y2="10.2105821621226"/>
    <line x1="12.4794146151907" y1="10.2105821621226" x2="12.4740314115479" y2="10.2166705046596"/>
    <line x1="12.4740314115479" y1="10.2166705046596" x2="12.466325249171" y2="10.2192515621421"/>
    <line x1="12.466325249171" y1="10.2192515621421" x2="12.4273517522019" y2="10.2217035667356"/>
    <line x1="12.4273517522019" y1="10.2217035667356" x2="12.4193828629367" y2="10.2201086999113"/>
    <line x1="12.4193828629367" y1="10.2201086999113" x2="12.4132790358053" y2="10.2147430600932"/>
    <line x1="12.4132790358053" y1="10.2147430600932" x2="12.4106757863582" y2="10.2070443661375"/>
    <line x1="12.4106757863582" y1="10.2070443661375" x2="12.3584869729313" y2="10.1062259790408"/>
    <line x1="12.5965351040863" y1="12.4748369402804" x2="12.6128508780972" y2="12.4759063326076"/>
    <line x1="12.6128508780972" y1="12.4759063326076" x2="12.6288874846911" y2="12.4790962119899"/>
    <line x1="12.6288874846911" y1="12.4790962119899" x2="12.6443705330832" y2="12.4843519987068"/>
    <line x1="12.6443705330832" y1="12.4843519987068" x2="12.6590351040226" y2="12.4915837647903"/>
    <line x1="12.6590351040226" y1="12.4915837647903" x2="12.6726302826348" y2="12.5006677727177"/>
    <line x1="12.6726302826348" y1="12.5006677727177" x2="12.6849234516445" y2="12.5114485925948"/>
    <line x1="12.6849234516445" y1="12.5114485925948" x2="12.6957042715216" y2="12.5237417616044"/>
    <line x1="12.6957042715216" y1="12.5237417616044" x2="12.704788279449" y2="12.5373369402167"/>
    <line x1="12.704788279449" y1="12.5373369402167" x2="12.7120200455324" y2="12.5520015111561"/>
    <line x1="12.7120200455324" y1="12.5520015111561" x2="12.7172758322493" y2="12.5674845595481"/>
    <line x1="12.7172758322493" y1="12.5674845595481" x2="12.7204657116316" y2="12.5835211661421"/>
    <line x1="12.7204657116316" y1="12.5835211661421" x2="12.7215351039588" y2="12.5998369401529"/>
    <line x1="12.7215351039588" y1="12.5998369401529" x2="12.7204657116316" y2="12.6161527141638"/>
    <line x1="12.7204657116316" y1="12.6161527141638" x2="12.7172758322493" y2="12.6321893207577"/>
    <line x1="12.7172758322493" y1="12.6321893207577" x2="12.7120200455324" y2="12.6476723691498"/>
    <line x1="12.7120200455324" y1="12.6476723691498" x2="12.704788279449" y2="12.6623369400892"/>
    <line x1="12.704788279449" y1="12.6623369400892" x2="12.6957042715216" y2="12.6759321187014"/>
    <line x1="12.6957042715216" y1="12.6759321187014" x2="12.6849234516445" y2="12.6882252877111"/>
    <line x1="12.6849234516445" y1="12.6882252877111" x2="12.6726302826348" y2="12.6990061075882"/>
    <line x1="12.6726302826348" y1="12.6990061075882" x2="12.6590351040226" y2="12.7080901155156"/>
    <line x1="12.6590351040226" y1="12.7080901155156" x2="12.6443705330832" y2="12.715321881599"/>
    <line x1="12.6443705330832" y1="12.715321881599" x2="12.6288874846911" y2="12.7205776683159"/>
    <line x1="12.6288874846911" y1="12.7205776683159" x2="12.6128508780972" y2="12.7237675476982"/>
    <line x1="12.6128508780972" y1="12.7237675476982" x2="12.5965351040863" y2="12.7248369400254"/>
    <line x1="12.5965351040863" y1="12.7248369400254" x2="12.5802193300755" y2="12.7237675476982"/>
    <line x1="12.5802193300755" y1="12.7237675476982" x2="12.5641827234815" y2="12.7205776683159"/>
    <line x1="12.5641827234815" y1="12.7205776683159" x2="12.5486996750895" y2="12.715321881599"/>
    <line x1="12.5486996750895" y1="12.715321881599" x2="12.5340351041501" y2="12.7080901155156"/>
    <line x1="12.5340351041501" y1="12.7080901155156" x2="12.5204399255379" y2="12.6990061075882"/>
    <line x1="12.5204399255379" y1="12.6990061075882" x2="12.5081467565282" y2="12.6882252877111"/>
    <line x1="12.5081467565282" y1="12.6882252877111" x2="12.4973659366511" y2="12.6759321187014"/>
    <line x1="12.4973659366511" y1="12.6759321187014" x2="12.4882819287237" y2="12.6623369400892"/>
    <line x1="12.4882819287237" y1="12.6623369400892" x2="12.4810501626402" y2="12.6476723691498"/>
    <line x1="12.4810501626402" y1="12.6476723691498" x2="12.4757943759233" y2="12.6321893207577"/>
    <line x1="12.4757943759233" y1="12.6321893207577" x2="12.472604496541" y2="12.6161527141638"/>
    <line x1="12.472604496541" y1="12.6161527141638" x2="12.4715351042138" y2="12.5998369401529"/>
    <line x1="12.4715351042138" y1="12.5998369401529" x2="12.472604496541" y2="12.5835211661421"/>
    <line x1="12.472604496541" y1="12.5835211661421" x2="12.4757943759233" y2="12.5674845595481"/>
    <line x1="12.4757943759233" y1="12.5674845595481" x2="12.4810501626402" y2="12.5520015111561"/>
    <line x1="12.4810501626402" y1="12.5520015111561" x2="12.4882819287237" y2="12.5373369402167"/>
    <line x1="12.4882819287237" y1="12.5373369402167" x2="12.4973659366511" y2="12.5237417616044"/>
    <line x1="12.4973659366511" y1="12.5237417616044" x2="12.5081467565282" y2="12.5114485925948"/>
    <line x1="12.5081467565282" y1="12.5114485925948" x2="12.5204399255379" y2="12.5006677727177"/>
    <line x1="12.5204399255379" y1="12.5006677727177" x2="12.5340351041501" y2="12.4915837647903"/>
    <line x1="12.5340351041501" y1="12.4915837647903" x2="12.5486996750895" y2="12.4843519987068"/>
    <line x1="12.5486996750895" y1="12.4843519987068" x2="12.5641827234815" y2="12.4790962119899"/>
    <line x1="12.5641827234815" y1="12.4790962119899" x2="12.5802193300755" y2="12.4759063326076"/>
    <line x1="12.5802193300755" y1="12.4759063326076" x2="12.5965351040863" y2="12.4748369402804"/>
  </g>
</svg>
