<?xml version="1.0" standalone="no"?>
<!DOCTYPE svg PUBLIC "-//W3C//DTD SVG 1.1//EN" "http://www.w3.org/Graphics/SVG/1.1/DTD/svg11.dtd">
<svg width="104.988714190732mm" height="104.988714190732mm"
 viewBox="0 0 104.988714190732 104.988714190732"
 xmlns="http://www.w3.org/2000/svg" version="1.1"
 xmlns:xlink="http://www.w3.org/1999/xlink">
<desc>Output from Flights of Ideas SVG Sketchup Plugin</desc>

  <g id="face0" fill="none" stroke="rgb(0,0,255)" stroke-width="1" stroke-miterlimit="4" stroke-dasharray="none" stroke-linejoin="round" stroke-linecap="round">
    <line x1="60.1053594593844" y1="10.681408825543" x2="58.7924856846119" y2="12.3073427994328"/>
    <line x1="58.7924856846119" y1="12.3073427994328" x2="57.7261643622921" y2="13.9785430437668"/>
    <line x1="57.7261643622921" y1="13.9785430437668" x2="57.103254918114" y2="15.2786606641629"/>
    <line x1="57.103254918114" y1="15.2786606641629" x2="57.0280663591008" y2="15.4674089843408"/>
    <line x1="57.0280663591008" y1="15.4674089843408" x2="56.8685769968324" y2="15.5932755450299"/>
    <line x1="56.8685769968324" y1="15.5932755450299" x2="56.6675218771301" y2="15.6225345029395"/>
    <line x1="56.6675218771301" y1="15.6225345029395" x2="55.5947142475929" y2="15.5168721739741"/>
    <line x1="55.5947142475929" y1="15.5168721739741" x2="55.4032304851596" y2="15.4489515106907"/>
    <line x1="55.4032304851596" y1="15.4489515106907" x2="55.2713610141218" y2="15.2943886096288"/>
    <line x1="55.2713610141218" y1="15.2943886096288" x2="55.2344401527504" y2="15.0945984753077"/>
    <line x1="55.2344401527504" y1="15.0945984753077" x2="54.8771401040983" y2="13.6979386463787"/>
    <line x1="54.8771401040983" y1="13.6979386463787" x2="54.1573428408075" y2="11.8508210759856"/>
    <line x1="54.1573428408075" y1="11.8508210759856" x2="53.1868995500263" y2="10.0"/>
    <line x1="53.1868995500263" y1="10.0" x2="51.8018146407059" y2="10.0"/>
    <line x1="51.8018146407059" y1="10.0" x2="50.8313713499248" y2="11.8508210759856"/>
    <line x1="50.8313713499248" y1="11.8508210759856" x2="50.111574086634" y2="13.6979386463787"/>
    <line x1="50.111574086634" y1="13.6979386463787" x2="49.7542740379819" y2="15.0945984753077"/>
    <line x1="49.7542740379819" y1="15.0945984753077" x2="49.7173531766105" y2="15.2943886096288"/>
    <line x1="49.7173531766105" y1="15.2943886096288" x2="49.5854837055726" y2="15.4489515106907"/>
    <line x1="49.5854837055726" y1="15.4489515106907" x2="49.3939999431393" y2="15.5168721739741"/>
    <line x1="49.3939999431393" y1="15.5168721739741" x2="48.3211923136021" y2="15.6225345029395"/>
    <line x1="48.3211923136021" y1="15.6225345029395" x2="48.1201371938998" y2="15.5932755450299"/>
    <line x1="48.1201371938998" y1="15.5932755450299" x2="47.9606478316314" y2="15.4674089843408"/>
    <line x1="47.9606478316314" y1="15.4674089843408" x2="47.8854592726182" y2="15.2786606641629"/>
    <line x1="47.8854592726182" y1="15.2786606641629" x2="47.2625498284401" y2="13.9785430437668"/>
    <line x1="47.2625498284401" y1="13.9785430437668" x2="46.1962285061203" y2="12.3073427994328"/>
    <line x1="46.1962285061203" y1="12.3073427994328" x2="44.8833547313478" y2="10.681408825543"/>
    <line x1="44.8833547313478" y1="10.681408825543" x2="43.5248838401778" y2="10.951625486522"/>
    <line x1="43.5248838401778" y1="10.951625486522" x2="42.9341646248218" y2="12.9562076486055"/>
    <line x1="42.9341646248218" y1="12.9562076486055" x2="42.5885528257213" y2="14.908258852703"/>
    <line x1="42.5885528257213" y1="14.908258852703" x2="42.5105930130887" y2="16.347788036195"/>
    <line x1="42.5105930130887" y1="16.347788036195" x2="42.5133586973562" y2="16.550942161841"/>
    <line x1="42.5133586973562" y1="16.550942161841" x2="42.4141767873676" y2="16.7282616376678"/>
    <line x1="42.4141767873676" y1="16.7282616376678" x2="42.2396229958083" y2="16.8322338533253"/>
    <line x1="42.2396229958083" y1="16.8322338533253" x2="41.2080427618368" y2="17.1451602961755"/>
    <line x1="41.2080427618368" y1="17.1451602961755" x2="41.0051427203626" y2="17.1556874489836"/>
    <line x1="41.0051427203626" y1="17.1556874489836" x2="40.824162553613" y2="17.0633542100078"/>
    <line x1="40.824162553613" y1="17.0633542100078" x2="40.7135957511146" y2="16.8929011960663"/>
    <line x1="40.7135957511146" y1="16.8929011960663" x2="39.8490149720186" y2="15.7392885752405"/>
    <line x1="39.8490149720186" y1="15.7392885752405" x2="38.4771477210867" y2="14.3082289451354"/>
    <line x1="38.4771477210867" y1="14.3082289451354" x2="36.8722964652193" y2="12.9696658041237"/>
    <line x1="36.8722964652193" y1="12.9696658041237" x2="35.592644866708" y2="13.4997148513395"/>
    <line x1="35.592644866708" y1="13.4997148513395" x2="35.4043507349441" y2="15.5810231312149"/>
    <line x1="35.4043507349441" y1="15.5810231312149" x2="35.446206067652" y2="17.5629917359662"/>
    <line x1="35.446206067652" y1="17.5629917359662" x2="35.650582442918" y2="18.9900699747968"/>
    <line x1="35.650582442918" y1="18.9900699747968" x2="35.692928389129" y2="19.1887809926493"/>
    <line x1="35.692928389129" y1="19.1887809926493" x2="35.6302455453688" y2="19.3820427552268"/>
    <line x1="35.6302455453688" y1="19.3820427552268" x2="35.4793297290022" y2="19.5180709293191"/>
    <line x1="35.4793297290022" y1="19.5180709293191" x2="34.5286199404709" y2="20.0262358983464"/>
    <line x1="34.5286199404709" y1="20.0262358983464" x2="34.3316723120311" y2="20.0761446092935"/>
    <line x1="34.3316723120311" y1="20.0761446092935" x2="34.1361563071136" y2="20.0208930066238"/>
    <line x1="34.1361563071136" y1="20.0208930066238" x2="33.9944602813434" y2="19.8752857126533"/>
    <line x1="33.9944602813434" y1="19.8752857126533" x2="32.9214335218078" y2="18.9125107774627"/>
    <line x1="32.9214335218078" y1="18.9125107774627" x2="31.296740431365" y2="17.7765865806241"/>
    <line x1="31.296740431365" y1="17.7765865806241" x2="29.4615852281547" y2="16.7768345033246"/>
    <line x1="29.4615852281547" y1="16.7768345033246" x2="28.309929215596" y2="17.5463464491477"/>
    <line x1="28.309929215596" y1="17.5463464491477" x2="28.5312962053115" y2="19.6243973368304"/>
    <line x1="28.5312962053115" y1="19.6243973368304" x2="28.9590101928645" y2="21.5601174002557"/>
    <line x1="28.9590101928645" y1="21.5601174002557" x2="29.4378686865433" y2="22.9199028780214"/>
    <line x1="29.4378686865433" y1="22.9199028780214" x2="29.5181675637328" y2="23.1065344351026"/>
    <line x1="29.5181675637328" y1="23.1065344351026" x2="29.4943926527336" y2="23.3083115432776"/>
    <line x1="29.4943926527336" y1="23.3083115432776" x2="29.3729144217481" y2="23.4711681893597"/>
    <line x1="29.3729144217481" y1="23.4711681893597" x2="28.5396103226663" y2="24.1550431897867"/>
    <line x1="28.5396103226663" y1="24.1550431897867" x2="28.3561836941722" y2="24.2424154951001"/>
    <line x1="28.3561836941722" y1="24.2424154951001" x2="28.1536454215092" y2="24.2263688168417"/>
    <line x1="28.1536454215092" y1="24.2263688168417" x2="27.9862654712735" y2="24.111202849492"/>
    <line x1="27.9862654712735" y1="24.111202849492" x2="26.7460285479068" y2="23.3762645007656"/>
    <line x1="26.7460285479068" y1="23.3762645007656" x2="24.9309456622806" y2="22.5791286670443"/>
    <line x1="24.9309456622806" y1="22.5791286670443" x2="22.9360104970198" y2="21.9566075651203"/>
    <line x1="22.9360104970198" y1="21.9566075651203" x2="21.9566075651203" y2="22.9360104970198"/>
    <line x1="21.9566075651203" y1="22.9360104970198" x2="22.5791286670443" y2="24.9309456622806"/>
    <line x1="22.5791286670443" y1="24.9309456622806" x2="23.3762645007656" y2="26.7460285479068"/>
    <line x1="23.3762645007656" y1="26.7460285479068" x2="24.111202849492" y2="27.9862654712735"/>
    <line x1="24.111202849492" y1="27.9862654712735" x2="24.2263688168417" y2="28.1536454215092"/>
    <line x1="24.2263688168417" y1="28.1536454215092" x2="24.2424154951001" y2="28.3561836941722"/>
    <line x1="24.2424154951001" y1="28.3561836941722" x2="24.1550431897867" y2="28.5396103226663"/>
    <line x1="24.1550431897867" y1="28.5396103226663" x2="23.4711681893597" y2="29.3729144217481"/>
    <line x1="23.4711681893597" y1="29.3729144217481" x2="23.3083115432776" y2="29.4943926527336"/>
    <line x1="23.3083115432776" y1="29.4943926527336" x2="23.1065344351027" y2="29.5181675637328"/>
    <line x1="23.1065344351027" y1="29.5181675637328" x2="22.9199028780214" y2="29.4378686865433"/>
    <line x1="22.9199028780214" y1="29.4378686865433" x2="21.5601174002557" y2="28.9590101928645"/>
    <line x1="21.5601174002557" y1="28.9590101928645" x2="19.6243973368304" y2="28.5312962053115"/>
    <line x1="19.6243973368304" y1="28.5312962053115" x2="17.5463464491477" y2="28.309929215596"/>
    <line x1="17.5463464491477" y1="28.309929215596" x2="16.7768345033246" y2="29.4615852281547"/>
    <line x1="16.7768345033246" y1="29.4615852281547" x2="17.7765865806241" y2="31.296740431365"/>
    <line x1="17.7765865806241" y1="31.296740431365" x2="18.9125107774627" y2="32.9214335218078"/>
    <line x1="18.9125107774627" y1="32.9214335218078" x2="19.8752857126533" y2="33.9944602813434"/>
    <line x1="19.8752857126533" y1="33.9944602813434" x2="20.0208930066238" y2="34.1361563071136"/>
    <line x1="20.0208930066238" y1="34.1361563071136" x2="20.0761446092935" y2="34.3316723120311"/>
    <line x1="20.0761446092935" y1="34.3316723120311" x2="20.0262358983464" y2="34.5286199404709"/>
    <line x1="20.0262358983464" y1="34.5286199404709" x2="19.5180709293191" y2="35.4793297290021"/>
    <line x1="19.5180709293191" y1="35.4793297290021" x2="19.3820427552269" y2="35.6302455453688"/>
    <line x1="19.3820427552269" y1="35.6302455453688" x2="19.1887809926493" y2="35.692928389129"/>
    <line x1="19.1887809926493" y1="35.692928389129" x2="18.9900699747968" y2="35.650582442918"/>
    <line x1="18.9900699747968" y1="35.650582442918" x2="17.5629917359662" y2="35.446206067652"/>
    <line x1="17.5629917359662" y1="35.446206067652" x2="15.5810231312149" y2="35.4043507349441"/>
    <line x1="15.5810231312149" y1="35.4043507349441" x2="13.4997148513395" y2="35.592644866708"/>
    <line x1="13.4997148513395" y1="35.592644866708" x2="12.9696658041237" y2="36.8722964652193"/>
    <line x1="12.9696658041237" y1="36.8722964652193" x2="14.3082289451354" y2="38.4771477210867"/>
    <line x1="14.3082289451354" y1="38.4771477210867" x2="15.7392885752405" y2="39.8490149720186"/>
    <line x1="15.7392885752405" y1="39.8490149720186" x2="16.8929011960663" y2="40.7135957511146"/>
    <line x1="16.8929011960663" y1="40.7135957511146" x2="17.0633542100078" y2="40.824162553613"/>
    <line x1="17.0633542100078" y1="40.824162553613" x2="17.1556874489836" y2="41.0051427203626"/>
    <line x1="17.1556874489836" y1="41.0051427203626" x2="17.1451602961755" y2="41.2080427618368"/>
    <line x1="17.1451602961755" y1="41.2080427618368" x2="16.8322338533253" y2="42.2396229958083"/>
    <line x1="16.8322338533253" y1="42.2396229958083" x2="16.7282616376678" y2="42.4141767873677"/>
    <line x1="16.7282616376678" y1="42.4141767873677" x2="16.550942161841" y2="42.5133586973562"/>
    <line x1="16.550942161841" y1="42.5133586973562" x2="16.347788036195" y2="42.5105930130887"/>
    <line x1="16.347788036195" y1="42.5105930130887" x2="14.908258852703" y2="42.5885528257213"/>
    <line x1="14.908258852703" y1="42.5885528257213" x2="12.9562076486055" y2="42.9341646248218"/>
    <line x1="12.9562076486055" y1="42.9341646248218" x2="10.9516254865219" y2="43.5248838401778"/>
    <line x1="10.9516254865219" y1="43.5248838401778" x2="10.681408825543" y2="44.8833547313478"/>
    <line x1="10.681408825543" y1="44.8833547313478" x2="12.3073427994328" y2="46.1962285061203"/>
    <line x1="12.3073427994328" y1="46.1962285061203" x2="13.9785430437668" y2="47.2625498284401"/>
    <line x1="13.9785430437668" y1="47.2625498284401" x2="15.2786606641629" y2="47.8854592726182"/>
    <line x1="15.2786606641629" y1="47.8854592726182" x2="15.4674089843408" y2="47.9606478316314"/>
    <line x1="15.4674089843408" y1="47.9606478316314" x2="15.5932755450299" y2="48.1201371938998"/>
    <line x1="15.5932755450299" y1="48.1201371938998" x2="15.6225345029395" y2="48.3211923136021"/>
    <line x1="15.6225345029395" y1="48.3211923136021" x2="15.5168721739741" y2="49.3939999431393"/>
    <line x1="15.5168721739741" y1="49.3939999431393" x2="15.4489515106907" y2="49.5854837055727"/>
    <line x1="15.4489515106907" y1="49.5854837055727" x2="15.2943886096288" y2="49.7173531766104"/>
    <line x1="15.2943886096288" y1="49.7173531766104" x2="15.0945984753077" y2="49.7542740379819"/>
    <line x1="15.0945984753077" y1="49.7542740379819" x2="13.6979386463787" y2="50.1115740866339"/>
    <line x1="13.6979386463787" y1="50.1115740866339" x2="11.8508210759856" y2="50.8313713499248"/>
    <line x1="11.8508210759856" y1="50.8313713499248" x2="10.0" y2="51.8018146407059"/>
    <line x1="10.0" y1="51.8018146407059" x2="10.0" y2="53.1868995500263"/>
    <line x1="10.0" y1="53.1868995500263" x2="11.8508210759856" y2="54.1573428408075"/>
    <line x1="11.8508210759856" y1="54.1573428408075" x2="13.6979386463786" y2="54.8771401040983"/>
    <line x1="13.6979386463786" y1="54.8771401040983" x2="15.0945984753077" y2="55.2344401527504"/>
    <line x1="15.0945984753077" y1="55.2344401527504" x2="15.2943886096288" y2="55.2713610141218"/>
    <line x1="15.2943886096288" y1="55.2713610141218" x2="15.4489515106907" y2="55.4032304851596"/>
    <line x1="15.4489515106907" y1="55.4032304851596" x2="15.5168721739741" y2="55.5947142475929"/>
    <line x1="15.5168721739741" y1="55.5947142475929" x2="15.6225345029395" y2="56.6675218771301"/>
    <line x1="15.6225345029395" y1="56.6675218771301" x2="15.5932755450299" y2="56.8685769968324"/>
    <line x1="15.5932755450299" y1="56.8685769968324" x2="15.4674089843408" y2="57.0280663591008"/>
    <line x1="15.4674089843408" y1="57.0280663591008" x2="15.2786606641629" y2="57.103254918114"/>
    <line x1="15.2786606641629" y1="57.103254918114" x2="13.9785430437668" y2="57.7261643622921"/>
    <line x1="13.9785430437668" y1="57.7261643622921" x2="12.3073427994328" y2="58.7924856846119"/>
    <line x1="12.3073427994328" y1="58.7924856846119" x2="10.681408825543" y2="60.1053594593844"/>
    <line x1="10.681408825543" y1="60.1053594593844" x2="10.9516254865219" y2="61.4638303505544"/>
    <line x1="10.9516254865219" y1="61.4638303505544" x2="12.9562076486055" y2="62.0545495659104"/>
    <line x1="12.9562076486055" y1="62.0545495659104" x2="14.908258852703" y2="62.400161365011"/>
    <line x1="14.908258852703" y1="62.400161365011" x2="16.347788036195" y2="62.4781211776435"/>
    <line x1="16.347788036195" y1="62.4781211776435" x2="16.550942161841" y2="62.4753554933761"/>
    <line x1="16.550942161841" y1="62.4753554933761" x2="16.7282616376678" y2="62.5745374033646"/>
    <line x1="16.7282616376678" y1="62.5745374033646" x2="16.8322338533253" y2="62.7490911949239"/>
    <line x1="16.8322338533253" y1="62.7490911949239" x2="17.1451602961755" y2="63.7806714288955"/>
    <line x1="17.1451602961755" y1="63.7806714288955" x2="17.1556874489836" y2="63.9835714703696"/>
    <line x1="17.1556874489836" y1="63.9835714703696" x2="17.0633542100078" y2="64.1645516371192"/>
    <line x1="17.0633542100078" y1="64.1645516371192" x2="16.8929011960663" y2="64.2751184396177"/>
    <line x1="16.8929011960663" y1="64.2751184396177" x2="15.7392885752405" y2="65.1396992187136"/>
    <line x1="15.7392885752405" y1="65.1396992187136" x2="14.3082289451354" y2="66.5115664696455"/>
    <line x1="14.3082289451354" y1="66.5115664696455" x2="12.9696658041237" y2="68.1164177255129"/>
    <line x1="12.9696658041237" y1="68.1164177255129" x2="13.4997148513395" y2="69.3960693240243"/>
    <line x1="13.4997148513395" y1="69.3960693240243" x2="15.5810231312149" y2="69.5843634557881"/>
    <line x1="15.5810231312149" y1="69.5843634557881" x2="17.5629917359662" y2="69.5425081230802"/>
    <line x1="17.5629917359662" y1="69.5425081230802" x2="18.9900699747968" y2="69.3381317478142"/>
    <line x1="18.9900699747968" y1="69.3381317478142" x2="19.1887809926493" y2="69.2957858016032"/>
    <line x1="19.1887809926493" y1="69.2957858016032" x2="19.3820427552269" y2="69.3584686453634"/>
    <line x1="19.3820427552269" y1="69.3584686453634" x2="19.5180709293191" y2="69.5093844617301"/>
    <line x1="19.5180709293191" y1="69.5093844617301" x2="20.0262358983464" y2="70.4600942502613"/>
    <line x1="20.0262358983464" y1="70.4600942502613" x2="20.0761446092935" y2="70.6570418787011"/>
    <line x1="20.0761446092935" y1="70.6570418787011" x2="20.0208930066238" y2="70.8525578836186"/>
    <line x1="20.0208930066238" y1="70.8525578836186" x2="19.8752857126533" y2="70.9942539093888"/>
    <line x1="19.8752857126533" y1="70.9942539093888" x2="18.9125107774627" y2="72.0672806689244"/>
    <line x1="18.9125107774627" y1="72.0672806689244" x2="17.7765865806241" y2="73.6919737593672"/>
    <line x1="17.7765865806241" y1="73.6919737593672" x2="16.7768345033246" y2="75.5271289625775"/>
    <line x1="16.7768345033246" y1="75.5271289625775" x2="17.5463464491476" y2="76.6787849751362"/>
    <line x1="17.5463464491476" y1="76.6787849751362" x2="19.6243973368303" y2="76.4574179854207"/>
    <line x1="19.6243973368303" y1="76.4574179854207" x2="21.5601174002557" y2="76.0297039978677"/>
    <line x1="21.5601174002557" y1="76.0297039978677" x2="22.9199028780214" y2="75.5508455041889"/>
    <line x1="22.9199028780214" y1="75.5508455041889" x2="23.1065344351026" y2="75.4705466269994"/>
    <line x1="23.1065344351026" y1="75.4705466269994" x2="23.3083115432776" y2="75.4943215379987"/>
    <line x1="23.3083115432776" y1="75.4943215379987" x2="23.4711681893597" y2="75.6157997689841"/>
    <line x1="23.4711681893597" y1="75.6157997689841" x2="24.1550431897867" y2="76.449103868066"/>
    <line x1="24.1550431897867" y1="76.449103868066" x2="24.2424154951001" y2="76.63253049656"/>
    <line x1="24.2424154951001" y1="76.63253049656" x2="24.2263688168417" y2="76.8350687692231"/>
    <line x1="24.2263688168417" y1="76.8350687692231" x2="24.111202849492" y2="77.0024487194587"/>
    <line x1="24.111202849492" y1="77.0024487194587" x2="23.3762645007656" y2="78.2426856428254"/>
    <line x1="23.3762645007656" y1="78.2426856428254" x2="22.5791286670443" y2="80.0577685284517"/>
    <line x1="22.5791286670443" y1="80.0577685284517" x2="21.9566075651203" y2="82.0527036937124"/>
    <line x1="21.9566075651203" y1="82.0527036937124" x2="22.9360104970199" y2="83.032106625612"/>
    <line x1="22.9360104970199" y1="83.032106625612" x2="24.9309456622806" y2="82.4095855236879"/>
    <line x1="24.9309456622806" y1="82.4095855236879" x2="26.7460285479068" y2="81.6124496899666"/>
    <line x1="26.7460285479068" y1="81.6124496899666" x2="27.9862654712736" y2="80.8775113412403"/>
    <line x1="27.9862654712736" y1="80.8775113412403" x2="28.1536454215092" y2="80.7623453738906"/>
    <line x1="28.1536454215092" y1="80.7623453738906" x2="28.3561836941722" y2="80.7462986956321"/>
    <line x1="28.3561836941722" y1="80.7462986956321" x2="28.5396103226663" y2="80.8336710009455"/>
    <line x1="28.5396103226663" y1="80.8336710009455" x2="29.3729144217481" y2="81.5175460013726"/>
    <line x1="29.3729144217481" y1="81.5175460013726" x2="29.4943926527336" y2="81.6804026474546"/>
    <line x1="29.4943926527336" y1="81.6804026474546" x2="29.5181675637328" y2="81.8821797556296"/>
    <line x1="29.5181675637328" y1="81.8821797556296" x2="29.4378686865433" y2="82.0688113127108"/>
    <line x1="29.4378686865433" y1="82.0688113127108" x2="28.9590101928645" y2="83.4285967904766"/>
    <line x1="28.9590101928645" y1="83.4285967904766" x2="28.5312962053115" y2="85.3643168539019"/>
    <line x1="28.5312962053115" y1="85.3643168539019" x2="28.309929215596" y2="87.4423677415846"/>
    <line x1="28.309929215596" y1="87.4423677415846" x2="29.4615852281547" y2="88.2118796874076"/>
    <line x1="29.4615852281547" y1="88.2118796874076" x2="31.2967404313651" y2="87.2121276101081"/>
    <line x1="31.2967404313651" y1="87.2121276101081" x2="32.9214335218078" y2="86.0762034132695"/>
    <line x1="32.9214335218078" y1="86.0762034132695" x2="33.9944602813434" y2="85.1134284780789"/>
    <line x1="33.9944602813434" y1="85.1134284780789" x2="34.1361563071136" y2="84.9678211841084"/>
    <line x1="34.1361563071136" y1="84.9678211841084" x2="34.3316723120311" y2="84.9125695814388"/>
    <line x1="34.3316723120311" y1="84.9125695814388" x2="34.5286199404709" y2="84.9624782923858"/>
    <line x1="34.5286199404709" y1="84.9624782923858" x2="35.4793297290022" y2="85.4706432614132"/>
    <line x1="35.4793297290022" y1="85.4706432614132" x2="35.6302455453688" y2="85.6066714355054"/>
    <line x1="35.6302455453688" y1="85.6066714355054" x2="35.692928389129" y2="85.799933198083"/>
    <line x1="35.692928389129" y1="85.799933198083" x2="35.6505824429181" y2="85.9986442159354"/>
    <line x1="35.6505824429181" y1="85.9986442159354" x2="35.446206067652" y2="87.4257224547661"/>
    <line x1="35.446206067652" y1="87.4257224547661" x2="35.4043507349441" y2="89.4076910595174"/>
    <line x1="35.4043507349441" y1="89.4076910595174" x2="35.592644866708" y2="91.4889993393927"/>
    <line x1="35.592644866708" y1="91.4889993393927" x2="36.8722964652193" y2="92.0190483866085"/>
    <line x1="36.8722964652193" y1="92.0190483866085" x2="38.4771477210867" y2="90.6804852455968"/>
    <line x1="38.4771477210867" y1="90.6804852455968" x2="39.8490149720186" y2="89.2494256154917"/>
    <line x1="39.8490149720186" y1="89.2494256154917" x2="40.7135957511146" y2="88.0958129946659"/>
    <line x1="40.7135957511146" y1="88.0958129946659" x2="40.824162553613" y2="87.9253599807244"/>
    <line x1="40.824162553613" y1="87.9253599807244" x2="41.0051427203626" y2="87.8330267417487"/>
    <line x1="41.0051427203626" y1="87.8330267417487" x2="41.2080427618368" y2="87.8435538945567"/>
    <line x1="41.2080427618368" y1="87.8435538945567" x2="42.2396229958083" y2="88.1564803374069"/>
    <line x1="42.2396229958083" y1="88.1564803374069" x2="42.4141767873676" y2="88.2604525530644"/>
    <line x1="42.4141767873676" y1="88.2604525530644" x2="42.5133586973562" y2="88.4377720288912"/>
    <line x1="42.5133586973562" y1="88.4377720288912" x2="42.5105930130887" y2="88.6409261545372"/>
    <line x1="42.5105930130887" y1="88.6409261545372" x2="42.5885528257213" y2="90.0804553380292"/>
    <line x1="42.5885528257213" y1="90.0804553380292" x2="42.9341646248218" y2="92.0325065421267"/>
    <line x1="42.9341646248218" y1="92.0325065421267" x2="43.5248838401778" y2="94.0370887042103"/>
    <line x1="43.5248838401778" y1="94.0370887042103" x2="44.8833547313478" y2="94.3073053651893"/>
    <line x1="44.8833547313478" y1="94.3073053651893" x2="46.1962285061203" y2="92.6813713912995"/>
    <line x1="46.1962285061203" y1="92.6813713912995" x2="47.2625498284401" y2="91.0101711469655"/>
    <line x1="47.2625498284401" y1="91.0101711469655" x2="47.8854592726182" y2="89.7100535265693"/>
    <line x1="47.8854592726182" y1="89.7100535265693" x2="47.9606478316314" y2="89.5213052063914"/>
    <line x1="47.9606478316314" y1="89.5213052063914" x2="48.1201371938998" y2="89.3954386457023"/>
    <line x1="48.1201371938998" y1="89.3954386457023" x2="48.3211923136021" y2="89.3661796877928"/>
    <line x1="48.3211923136021" y1="89.3661796877928" x2="49.3939999431393" y2="89.4718420167582"/>
    <line x1="49.3939999431393" y1="89.4718420167582" x2="49.5854837055727" y2="89.5397626800415"/>
    <line x1="49.5854837055727" y1="89.5397626800415" x2="49.7173531766105" y2="89.6943255811034"/>
    <line x1="49.7173531766105" y1="89.6943255811034" x2="49.7542740379819" y2="89.8941157154245"/>
    <line x1="49.7542740379819" y1="89.8941157154245" x2="50.111574086634" y2="91.2907755443536"/>
    <line x1="50.111574086634" y1="91.2907755443536" x2="50.8313713499248" y2="93.1378931147467"/>
    <line x1="50.8313713499248" y1="93.1378931147467" x2="51.801814640706" y2="94.9887141907322"/>
    <line x1="51.801814640706" y1="94.9887141907322" x2="53.1868995500263" y2="94.9887141907322"/>
    <line x1="53.1868995500263" y1="94.9887141907322" x2="54.1573428408075" y2="93.1378931147467"/>
    <line x1="54.1573428408075" y1="93.1378931147467" x2="54.8771401040983" y2="91.2907755443536"/>
    <line x1="54.8771401040983" y1="91.2907755443536" x2="55.2344401527504" y2="89.8941157154245"/>
    <line x1="55.2344401527504" y1="89.8941157154245" x2="55.2713610141218" y2="89.6943255811034"/>
    <line x1="55.2713610141218" y1="89.6943255811034" x2="55.4032304851596" y2="89.5397626800415"/>
    <line x1="55.4032304851596" y1="89.5397626800415" x2="55.5947142475929" y2="89.4718420167582"/>
    <line x1="55.5947142475929" y1="89.4718420167582" x2="56.6675218771301" y2="89.3661796877928"/>
    <line x1="56.6675218771301" y1="89.3661796877928" x2="56.8685769968325" y2="89.3954386457023"/>
    <line x1="56.8685769968325" y1="89.3954386457023" x2="57.0280663591008" y2="89.5213052063914"/>
    <line x1="57.0280663591008" y1="89.5213052063914" x2="57.103254918114" y2="89.7100535265693"/>
    <line x1="57.103254918114" y1="89.7100535265693" x2="57.7261643622921" y2="91.0101711469655"/>
    <line x1="57.7261643622921" y1="91.0101711469655" x2="58.7924856846119" y2="92.6813713912995"/>
    <line x1="58.7924856846119" y1="92.6813713912995" x2="60.1053594593844" y2="94.3073053651893"/>
    <line x1="60.1053594593844" y1="94.3073053651893" x2="61.4638303505545" y2="94.0370887042103"/>
    <line x1="61.4638303505545" y1="94.0370887042103" x2="62.0545495659105" y2="92.0325065421267"/>
    <line x1="62.0545495659105" y1="92.0325065421267" x2="62.400161365011" y2="90.0804553380292"/>
    <line x1="62.400161365011" y1="90.0804553380292" x2="62.4781211776435" y2="88.6409261545372"/>
    <line x1="62.4781211776435" y1="88.6409261545372" x2="62.4753554933761" y2="88.4377720288912"/>
    <line x1="62.4753554933761" y1="88.4377720288912" x2="62.5745374033646" y2="88.2604525530644"/>
    <line x1="62.5745374033646" y1="88.2604525530644" x2="62.7490911949239" y2="88.1564803374069"/>
    <line x1="62.7490911949239" y1="88.1564803374069" x2="63.7806714288955" y2="87.8435538945568"/>
    <line x1="63.7806714288955" y1="87.8435538945568" x2="63.9835714703697" y2="87.8330267417487"/>
    <line x1="63.9835714703697" y1="87.8330267417487" x2="64.1645516371193" y2="87.9253599807244"/>
    <line x1="64.1645516371193" y1="87.9253599807244" x2="64.2751184396177" y2="88.0958129946659"/>
    <line x1="64.2751184396177" y1="88.0958129946659" x2="65.1396992187136" y2="89.2494256154918"/>
    <line x1="65.1396992187136" y1="89.2494256154918" x2="66.5115664696455" y2="90.6804852455968"/>
    <line x1="66.5115664696455" y1="90.6804852455968" x2="68.116417725513" y2="92.0190483866085"/>
    <line x1="68.116417725513" y1="92.0190483866085" x2="69.3960693240243" y2="91.4889993393927"/>
    <line x1="69.3960693240243" y1="91.4889993393927" x2="69.5843634557881" y2="89.4076910595174"/>
    <line x1="69.5843634557881" y1="89.4076910595174" x2="69.5425081230802" y2="87.4257224547661"/>
    <line x1="69.5425081230802" y1="87.4257224547661" x2="69.3381317478142" y2="85.9986442159355"/>
    <line x1="69.3381317478142" y1="85.9986442159355" x2="69.2957858016032" y2="85.799933198083"/>
    <line x1="69.2957858016032" y1="85.799933198083" x2="69.3584686453635" y2="85.6066714355054"/>
    <line x1="69.3584686453635" y1="85.6066714355054" x2="69.5093844617301" y2="85.4706432614132"/>
    <line x1="69.5093844617301" y1="85.4706432614132" x2="70.4600942502613" y2="84.9624782923858"/>
    <line x1="70.4600942502613" y1="84.9624782923858" x2="70.6570418787011" y2="84.9125695814388"/>
    <line x1="70.6570418787011" y1="84.9125695814388" x2="70.8525578836186" y2="84.9678211841084"/>
    <line x1="70.8525578836186" y1="84.9678211841084" x2="70.9942539093888" y2="85.1134284780789"/>
    <line x1="70.9942539093888" y1="85.1134284780789" x2="72.0672806689244" y2="86.0762034132695"/>
    <line x1="72.0672806689244" y1="86.0762034132695" x2="73.6919737593672" y2="87.2121276101081"/>
    <line x1="73.6919737593672" y1="87.2121276101081" x2="75.5271289625775" y2="88.2118796874076"/>
    <line x1="75.5271289625775" y1="88.2118796874076" x2="76.6787849751362" y2="87.4423677415846"/>
    <line x1="76.6787849751362" y1="87.4423677415846" x2="76.4574179854207" y2="85.3643168539019"/>
    <line x1="76.4574179854207" y1="85.3643168539019" x2="76.0297039978677" y2="83.4285967904766"/>
    <line x1="76.0297039978677" y1="83.4285967904766" x2="75.5508455041889" y2="82.0688113127108"/>
    <line x1="75.5508455041889" y1="82.0688113127108" x2="75.4705466269995" y2="81.8821797556296"/>
    <line x1="75.4705466269995" y1="81.8821797556296" x2="75.4943215379987" y2="81.6804026474546"/>
    <line x1="75.4943215379987" y1="81.6804026474546" x2="75.6157997689841" y2="81.5175460013726"/>
    <line x1="75.6157997689841" y1="81.5175460013726" x2="76.449103868066" y2="80.8336710009455"/>
    <line x1="76.449103868066" y1="80.8336710009455" x2="76.63253049656" y2="80.7462986956321"/>
    <line x1="76.63253049656" y1="80.7462986956321" x2="76.8350687692231" y2="80.7623453738906"/>
    <line x1="76.8350687692231" y1="80.7623453738906" x2="77.0024487194587" y2="80.8775113412403"/>
    <line x1="77.0024487194587" y1="80.8775113412403" x2="78.2426856428254" y2="81.6124496899666"/>
    <line x1="78.2426856428254" y1="81.6124496899666" x2="80.0577685284517" y2="82.4095855236879"/>
    <line x1="80.0577685284517" y1="82.4095855236879" x2="82.0527036937124" y2="83.032106625612"/>
    <line x1="82.0527036937124" y1="83.032106625612" x2="83.032106625612" y2="82.0527036937124"/>
    <line x1="83.032106625612" y1="82.0527036937124" x2="82.409585523688" y2="80.0577685284516"/>
    <line x1="82.409585523688" y1="80.0577685284516" x2="81.6124496899666" y2="78.2426856428254"/>
    <line x1="81.6124496899666" y1="78.2426856428254" x2="80.8775113412403" y2="77.0024487194587"/>
    <line x1="80.8775113412403" y1="77.0024487194587" x2="80.7623453738906" y2="76.8350687692231"/>
    <line x1="80.7623453738906" y1="76.8350687692231" x2="80.7462986956321" y2="76.63253049656"/>
    <line x1="80.7462986956321" y1="76.63253049656" x2="80.8336710009455" y2="76.449103868066"/>
    <line x1="80.8336710009455" y1="76.449103868066" x2="81.5175460013726" y2="75.6157997689841"/>
    <line x1="81.5175460013726" y1="75.6157997689841" x2="81.6804026474546" y2="75.4943215379986"/>
    <line x1="81.6804026474546" y1="75.4943215379986" x2="81.8821797556296" y2="75.4705466269995"/>
    <line x1="81.8821797556296" y1="75.4705466269995" x2="82.0688113127108" y2="75.5508455041889"/>
    <line x1="82.0688113127108" y1="75.5508455041889" x2="83.4285967904765" y2="76.0297039978677"/>
    <line x1="83.4285967904765" y1="76.0297039978677" x2="85.3643168539019" y2="76.4574179854207"/>
    <line x1="85.3643168539019" y1="76.4574179854207" x2="87.4423677415846" y2="76.6787849751362"/>
    <line x1="87.4423677415846" y1="76.6787849751362" x2="88.2118796874076" y2="75.5271289625775"/>
    <line x1="88.2118796874076" y1="75.5271289625775" x2="87.2121276101081" y2="73.6919737593672"/>
    <line x1="87.2121276101081" y1="73.6919737593672" x2="86.0762034132695" y2="72.0672806689244"/>
    <line x1="86.0762034132695" y1="72.0672806689244" x2="85.1134284780789" y2="70.9942539093888"/>
    <line x1="85.1134284780789" y1="70.9942539093888" x2="84.9678211841084" y2="70.8525578836186"/>
    <line x1="84.9678211841084" y1="70.8525578836186" x2="84.9125695814388" y2="70.6570418787011"/>
    <line x1="84.9125695814388" y1="70.6570418787011" x2="84.9624782923858" y2="70.4600942502613"/>
    <line x1="84.9624782923858" y1="70.4600942502613" x2="85.4706432614132" y2="69.5093844617301"/>
    <line x1="85.4706432614132" y1="69.5093844617301" x2="85.6066714355054" y2="69.3584686453635"/>
    <line x1="85.6066714355054" y1="69.3584686453635" x2="85.799933198083" y2="69.2957858016032"/>
    <line x1="85.799933198083" y1="69.2957858016032" x2="85.9986442159354" y2="69.3381317478142"/>
    <line x1="85.9986442159354" y1="69.3381317478142" x2="87.4257224547661" y2="69.5425081230803"/>
    <line x1="87.4257224547661" y1="69.5425081230803" x2="89.4076910595173" y2="69.5843634557881"/>
    <line x1="89.4076910595173" y1="69.5843634557881" x2="91.4889993393927" y2="69.3960693240243"/>
    <line x1="91.4889993393927" y1="69.3960693240243" x2="92.0190483866085" y2="68.116417725513"/>
    <line x1="92.0190483866085" y1="68.116417725513" x2="90.6804852455968" y2="66.5115664696456"/>
    <line x1="90.6804852455968" y1="66.5115664696456" x2="89.2494256154918" y2="65.1396992187136"/>
    <line x1="89.2494256154918" y1="65.1396992187136" x2="88.0958129946659" y2="64.2751184396177"/>
    <line x1="88.0958129946659" y1="64.2751184396177" x2="87.9253599807244" y2="64.1645516371192"/>
    <line x1="87.9253599807244" y1="64.1645516371192" x2="87.8330267417487" y2="63.9835714703697"/>
    <line x1="87.8330267417487" y1="63.9835714703697" x2="87.8435538945567" y2="63.7806714288955"/>
    <line x1="87.8435538945567" y1="63.7806714288955" x2="88.1564803374069" y2="62.7490911949239"/>
    <line x1="88.1564803374069" y1="62.7490911949239" x2="88.2604525530644" y2="62.5745374033646"/>
    <line x1="88.2604525530644" y1="62.5745374033646" x2="88.4377720288912" y2="62.4753554933761"/>
    <line x1="88.4377720288912" y1="62.4753554933761" x2="88.6409261545373" y2="62.4781211776435"/>
    <line x1="88.6409261545373" y1="62.4781211776435" x2="90.0804553380292" y2="62.400161365011"/>
    <line x1="90.0804553380292" y1="62.400161365011" x2="92.0325065421267" y2="62.0545495659105"/>
    <line x1="92.0325065421267" y1="62.0545495659105" x2="94.0370887042103" y2="61.4638303505545"/>
    <line x1="94.0370887042103" y1="61.4638303505545" x2="94.3073053651893" y2="60.1053594593844"/>
    <line x1="94.3073053651893" y1="60.1053594593844" x2="92.6813713912995" y2="58.7924856846119"/>
    <line x1="92.6813713912995" y1="58.7924856846119" x2="91.0101711469655" y2="57.7261643622921"/>
    <line x1="91.0101711469655" y1="57.7261643622921" x2="89.7100535265693" y2="57.103254918114"/>
    <line x1="89.7100535265693" y1="57.103254918114" x2="89.5213052063914" y2="57.0280663591008"/>
    <line x1="89.5213052063914" y1="57.0280663591008" x2="89.3954386457023" y2="56.8685769968324"/>
    <line x1="89.3954386457023" y1="56.8685769968324" x2="89.3661796877928" y2="56.6675218771301"/>
    <line x1="89.3661796877928" y1="56.6675218771301" x2="89.4718420167582" y2="55.5947142475929"/>
    <line x1="89.4718420167582" y1="55.5947142475929" x2="89.5397626800415" y2="55.4032304851596"/>
    <line x1="89.5397626800415" y1="55.4032304851596" x2="89.6943255811034" y2="55.2713610141218"/>
    <line x1="89.6943255811034" y1="55.2713610141218" x2="89.8941157154246" y2="55.2344401527504"/>
    <line x1="89.8941157154246" y1="55.2344401527504" x2="91.2907755443536" y2="54.8771401040983"/>
    <line x1="91.2907755443536" y1="54.8771401040983" x2="93.1378931147467" y2="54.1573428408075"/>
    <line x1="93.1378931147467" y1="54.1573428408075" x2="94.9887141907323" y2="53.1868995500263"/>
    <line x1="94.9887141907323" y1="53.1868995500263" x2="94.9887141907322" y2="51.8018146407059"/>
    <line x1="94.9887141907322" y1="51.8018146407059" x2="93.1378931147467" y2="50.8313713499248"/>
    <line x1="93.1378931147467" y1="50.8313713499248" x2="91.2907755443536" y2="50.1115740866339"/>
    <line x1="91.2907755443536" y1="50.1115740866339" x2="89.8941157154246" y2="49.7542740379819"/>
    <line x1="89.8941157154246" y1="49.7542740379819" x2="89.6943255811034" y2="49.7173531766104"/>
    <line x1="89.6943255811034" y1="49.7173531766104" x2="89.5397626800415" y2="49.5854837055726"/>
    <line x1="89.5397626800415" y1="49.5854837055726" x2="89.4718420167582" y2="49.3939999431393"/>
    <line x1="89.4718420167582" y1="49.3939999431393" x2="89.3661796877928" y2="48.3211923136021"/>
    <line x1="89.3661796877928" y1="48.3211923136021" x2="89.3954386457023" y2="48.1201371938998"/>
    <line x1="89.3954386457023" y1="48.1201371938998" x2="89.5213052063914" y2="47.9606478316314"/>
    <line x1="89.5213052063914" y1="47.9606478316314" x2="89.7100535265693" y2="47.8854592726182"/>
    <line x1="89.7100535265693" y1="47.8854592726182" x2="91.0101711469655" y2="47.2625498284401"/>
    <line x1="91.0101711469655" y1="47.2625498284401" x2="92.6813713912995" y2="46.1962285061203"/>
    <line x1="92.6813713912995" y1="46.1962285061203" x2="94.3073053651893" y2="44.8833547313478"/>
    <line x1="94.3073053651893" y1="44.8833547313478" x2="94.0370887042103" y2="43.5248838401778"/>
    <line x1="94.0370887042103" y1="43.5248838401778" x2="92.0325065421267" y2="42.9341646248218"/>
    <line x1="92.0325065421267" y1="42.9341646248218" x2="90.0804553380292" y2="42.5885528257212"/>
    <line x1="90.0804553380292" y1="42.5885528257212" x2="88.6409261545373" y2="42.5105930130887"/>
    <line x1="88.6409261545373" y1="42.5105930130887" x2="88.4377720288912" y2="42.5133586973561"/>
    <line x1="88.4377720288912" y1="42.5133586973561" x2="88.2604525530644" y2="42.4141767873676"/>
    <line x1="88.2604525530644" y1="42.4141767873676" x2="88.1564803374069" y2="42.2396229958083"/>
    <line x1="88.1564803374069" y1="42.2396229958083" x2="87.8435538945568" y2="41.2080427618367"/>
    <line x1="87.8435538945568" y1="41.2080427618367" x2="87.8330267417487" y2="41.0051427203626"/>
    <line x1="87.8330267417487" y1="41.0051427203626" x2="87.9253599807244" y2="40.824162553613"/>
    <line x1="87.9253599807244" y1="40.824162553613" x2="88.0958129946659" y2="40.7135957511146"/>
    <line x1="88.0958129946659" y1="40.7135957511146" x2="89.2494256154918" y2="39.8490149720186"/>
    <line x1="89.2494256154918" y1="39.8490149720186" x2="90.6804852455968" y2="38.4771477210867"/>
    <line x1="90.6804852455968" y1="38.4771477210867" x2="92.0190483866085" y2="36.8722964652192"/>
    <line x1="92.0190483866085" y1="36.8722964652192" x2="91.4889993393927" y2="35.5926448667079"/>
    <line x1="91.4889993393927" y1="35.5926448667079" x2="89.4076910595174" y2="35.4043507349441"/>
    <line x1="89.4076910595174" y1="35.4043507349441" x2="87.4257224547661" y2="35.446206067652"/>
    <line x1="87.4257224547661" y1="35.446206067652" x2="85.9986442159355" y2="35.6505824429181"/>
    <line x1="85.9986442159355" y1="35.6505824429181" x2="85.799933198083" y2="35.692928389129"/>
    <line x1="85.799933198083" y1="35.692928389129" x2="85.6066714355054" y2="35.6302455453688"/>
    <line x1="85.6066714355054" y1="35.6302455453688" x2="85.4706432614132" y2="35.4793297290022"/>
    <line x1="85.4706432614132" y1="35.4793297290022" x2="84.9624782923858" y2="34.5286199404709"/>
    <line x1="84.9624782923858" y1="34.5286199404709" x2="84.9125695814388" y2="34.3316723120311"/>
    <line x1="84.9125695814388" y1="34.3316723120311" x2="84.9678211841085" y2="34.1361563071136"/>
    <line x1="84.9678211841085" y1="34.1361563071136" x2="85.1134284780789" y2="33.9944602813434"/>
    <line x1="85.1134284780789" y1="33.9944602813434" x2="86.0762034132695" y2="32.9214335218078"/>
    <line x1="86.0762034132695" y1="32.9214335218078" x2="87.2121276101081" y2="31.296740431365"/>
    <line x1="87.2121276101081" y1="31.296740431365" x2="88.2118796874076" y2="29.4615852281547"/>
    <line x1="88.2118796874076" y1="29.4615852281547" x2="87.4423677415846" y2="28.3099292155961"/>
    <line x1="87.4423677415846" y1="28.3099292155961" x2="85.3643168539019" y2="28.5312962053115"/>
    <line x1="85.3643168539019" y1="28.5312962053115" x2="83.4285967904765" y2="28.9590101928645"/>
    <line x1="83.4285967904765" y1="28.9590101928645" x2="82.0688113127109" y2="29.4378686865433"/>
    <line x1="82.0688113127109" y1="29.4378686865433" x2="81.8821797556296" y2="29.5181675637328"/>
    <line x1="81.8821797556296" y1="29.5181675637328" x2="81.6804026474546" y2="29.4943926527336"/>
    <line x1="81.6804026474546" y1="29.4943926527336" x2="81.5175460013726" y2="29.3729144217481"/>
    <line x1="81.5175460013726" y1="29.3729144217481" x2="80.8336710009455" y2="28.5396103226663"/>
    <line x1="80.8336710009455" y1="28.5396103226663" x2="80.7462986956321" y2="28.3561836941722"/>
    <line x1="80.7462986956321" y1="28.3561836941722" x2="80.7623453738906" y2="28.1536454215092"/>
    <line x1="80.7623453738906" y1="28.1536454215092" x2="80.8775113412403" y2="27.9862654712735"/>
    <line x1="80.8775113412403" y1="27.9862654712735" x2="81.6124496899666" y2="26.7460285479068"/>
    <line x1="81.6124496899666" y1="26.7460285479068" x2="82.409585523688" y2="24.9309456622806"/>
    <line x1="82.409585523688" y1="24.9309456622806" x2="83.032106625612" y2="22.9360104970198"/>
    <line x1="83.032106625612" y1="22.9360104970198" x2="82.0527036937124" y2="21.9566075651203"/>
    <line x1="82.0527036937124" y1="21.9566075651203" x2="80.0577685284517" y2="22.5791286670443"/>
    <line x1="80.0577685284517" y1="22.5791286670443" x2="78.2426856428254" y2="23.3762645007656"/>
    <line x1="78.2426856428254" y1="23.3762645007656" x2="77.0024487194587" y2="24.111202849492"/>
    <line x1="77.0024487194587" y1="24.111202849492" x2="76.8350687692231" y2="24.2263688168417"/>
    <line x1="76.8350687692231" y1="24.2263688168417" x2="76.63253049656" y2="24.2424154951001"/>
    <line x1="76.63253049656" y1="24.2424154951001" x2="76.449103868066" y2="24.1550431897867"/>
    <line x1="76.449103868066" y1="24.1550431897867" x2="75.6157997689841" y2="23.4711681893597"/>
    <line x1="75.6157997689841" y1="23.4711681893597" x2="75.4943215379987" y2="23.3083115432776"/>
    <line x1="75.4943215379987" y1="23.3083115432776" x2="75.4705466269995" y2="23.1065344351026"/>
    <line x1="75.4705466269995" y1="23.1065344351026" x2="75.5508455041889" y2="22.9199028780214"/>
    <line x1="75.5508455041889" y1="22.9199028780214" x2="76.0297039978677" y2="21.5601174002557"/>
    <line x1="76.0297039978677" y1="21.5601174002557" x2="76.4574179854207" y2="19.6243973368303"/>
    <line x1="76.4574179854207" y1="19.6243973368303" x2="76.6787849751362" y2="17.5463464491476"/>
    <line x1="76.6787849751362" y1="17.5463464491476" x2="75.5271289625775" y2="16.7768345033246"/>
    <line x1="75.5271289625775" y1="16.7768345033246" x2="73.6919737593672" y2="17.7765865806241"/>
    <line x1="73.6919737593672" y1="17.7765865806241" x2="72.0672806689245" y2="18.9125107774627"/>
    <line x1="72.0672806689245" y1="18.9125107774627" x2="70.9942539093888" y2="19.8752857126533"/>
    <line x1="70.9942539093888" y1="19.8752857126533" x2="70.8525578836187" y2="20.0208930066238"/>
    <line x1="70.8525578836187" y1="20.0208930066238" x2="70.6570418787012" y2="20.0761446092935"/>
    <line x1="70.6570418787012" y1="20.0761446092935" x2="70.4600942502613" y2="20.0262358983464"/>
    <line x1="70.4600942502613" y1="20.0262358983464" x2="69.5093844617301" y2="19.5180709293191"/>
    <line x1="69.5093844617301" y1="19.5180709293191" x2="69.3584686453635" y2="19.3820427552269"/>
    <line x1="69.3584686453635" y1="19.3820427552269" x2="69.2957858016032" y2="19.1887809926493"/>
    <line x1="69.2957858016032" y1="19.1887809926493" x2="69.3381317478142" y2="18.9900699747968"/>
    <line x1="69.3381317478142" y1="18.9900699747968" x2="69.5425081230803" y2="17.5629917359662"/>
    <line x1="69.5425081230803" y1="17.5629917359662" x2="69.5843634557881" y2="15.5810231312149"/>
    <line x1="69.5843634557881" y1="15.5810231312149" x2="69.3960693240243" y2="13.4997148513395"/>
    <line x1="69.3960693240243" y1="13.4997148513395" x2="68.116417725513" y2="12.9696658041237"/>
    <line x1="68.116417725513" y1="12.9696658041237" x2="66.5115664696456" y2="14.3082289451355"/>
    <line x1="66.5115664696456" y1="14.3082289451355" x2="65.1396992187136" y2="15.7392885752405"/>
    <line x1="65.1396992187136" y1="15.7392885752405" x2="64.2751184396177" y2="16.8929011960663"/>
    <line x1="64.2751184396177" y1="16.8929011960663" x2="64.1645516371193" y2="17.0633542100078"/>
    <line x1="64.1645516371193" y1="17.0633542100078" x2="63.9835714703697" y2="17.1556874489836"/>
    <line x1="63.9835714703697" y1="17.1556874489836" x2="63.7806714288955" y2="17.1451602961755"/>
    <line x1="63.7806714288955" y1="17.1451602961755" x2="62.7490911949239" y2="16.8322338533253"/>
    <line x1="62.7490911949239" y1="16.8322338533253" x2="62.5745374033646" y2="16.7282616376678"/>
    <line x1="62.5745374033646" y1="16.7282616376678" x2="62.4753554933761" y2="16.550942161841"/>
    <line x1="62.4753554933761" y1="16.550942161841" x2="62.4781211776436" y2="16.347788036195"/>
    <line x1="62.4781211776436" y1="16.347788036195" x2="62.400161365011" y2="14.908258852703"/>
    <line x1="62.400161365011" y1="14.908258852703" x2="62.0545495659105" y2="12.9562076486055"/>
    <line x1="62.0545495659105" y1="12.9562076486055" x2="61.4638303505545" y2="10.9516254865219"/>
    <line x1="61.4638303505545" y1="10.9516254865219" x2="60.1053594593844" y2="10.681408825543"/>
    <line x1="52.102778518706" y1="49.5200225112447" x2="52.4943570953661" y2="49.4943570953661"/>
    <line x1="52.4943570953661" y1="49.4943570953661" x2="52.8859356720263" y2="49.5200225112447"/>
    <line x1="52.8859356720263" y1="49.5200225112447" x2="53.2708142306737" y2="49.5965796164989"/>
    <line x1="53.2708142306737" y1="49.5965796164989" x2="53.6424073924614" y2="49.7227184978323"/>
    <line x1="53.6424073924614" y1="49.7227184978323" x2="53.9943570953661" y2="49.8962808840128"/>
    <line x1="53.9943570953661" y1="49.8962808840128" x2="54.3206413823923" y2="50.1142970744924"/>
    <line x1="54.3206413823923" y1="50.1142970744924" x2="54.6156774389258" y2="50.3730367518065"/>
    <line x1="54.6156774389258" y1="50.3730367518065" x2="54.8744171162398" y2="50.66807280834"/>
    <line x1="54.8744171162398" y1="50.66807280834" x2="55.0924333067194" y2="50.9943570953661"/>
    <line x1="55.0924333067194" y1="50.9943570953661" x2="55.2659956929" y2="51.3463067982709"/>
    <line x1="55.2659956929" y1="51.3463067982709" x2="55.3921345742333" y2="51.7178999600586"/>
    <line x1="55.3921345742333" y1="51.7178999600586" x2="55.4686916794876" y2="52.102778518706"/>
    <line x1="55.4686916794876" y1="52.102778518706" x2="55.4943570953661" y2="52.4943570953661"/>
    <line x1="55.4943570953661" y1="52.4943570953661" x2="55.4686916794876" y2="52.8859356720263"/>
    <line x1="55.4686916794876" y1="52.8859356720263" x2="55.3921345742333" y2="53.2708142306737"/>
    <line x1="55.3921345742333" y1="53.2708142306737" x2="55.2659956929" y2="53.6424073924614"/>
    <line x1="55.2659956929" y1="53.6424073924614" x2="55.0924333067194" y2="53.9943570953661"/>
    <line x1="55.0924333067194" y1="53.9943570953661" x2="54.8744171162398" y2="54.3206413823923"/>
    <line x1="54.8744171162398" y1="54.3206413823923" x2="54.6156774389258" y2="54.6156774389258"/>
    <line x1="54.6156774389258" y1="54.6156774389258" x2="54.3206413823923" y2="54.8744171162398"/>
    <line x1="54.3206413823923" y1="54.8744171162398" x2="53.9943570953661" y2="55.0924333067194"/>
    <line x1="53.9943570953661" y1="55.0924333067194" x2="53.6424073924614" y2="55.2659956929"/>
    <line x1="53.6424073924614" y1="55.2659956929" x2="53.2708142306737" y2="55.3921345742333"/>
    <line x1="53.2708142306737" y1="55.3921345742333" x2="52.8859356720263" y2="55.4686916794875"/>
    <line x1="52.8859356720263" y1="55.4686916794875" x2="52.4943570953661" y2="55.4943570953661"/>
    <line x1="52.4943570953661" y1="55.4943570953661" x2="52.102778518706" y2="55.4686916794875"/>
    <line x1="52.102778518706" y1="55.4686916794875" x2="51.7178999600586" y2="55.3921345742333"/>
    <line x1="51.7178999600586" y1="55.3921345742333" x2="51.3463067982709" y2="55.2659956929"/>
    <line x1="51.3463067982709" y1="55.2659956929" x2="50.9943570953661" y2="55.0924333067194"/>
    <line x1="50.9943570953661" y1="55.0924333067194" x2="50.66807280834" y2="54.8744171162398"/>
    <line x1="50.66807280834" y1="54.8744171162398" x2="50.3730367518065" y2="54.6156774389258"/>
    <line x1="50.3730367518065" y1="54.6156774389258" x2="50.1142970744924" y2="54.3206413823923"/>
    <line x1="50.1142970744924" y1="54.3206413823923" x2="49.8962808840128" y2="53.9943570953661"/>
    <line x1="49.8962808840128" y1="53.9943570953661" x2="49.7227184978323" y2="53.6424073924614"/>
    <line x1="49.7227184978323" y1="53.6424073924614" x2="49.5965796164989" y2="53.2708142306737"/>
    <line x1="49.5965796164989" y1="53.2708142306737" x2="49.5200225112447" y2="52.8859356720263"/>
    <line x1="49.5200225112447" y1="52.8859356720263" x2="49.4943570953661" y2="52.4943570953661"/>
    <line x1="49.4943570953661" y1="52.4943570953661" x2="49.5200225112447" y2="52.102778518706"/>
    <line x1="49.5200225112447" y1="52.102778518706" x2="49.5965796164989" y2="51.7178999600586"/>
    <line x1="49.5965796164989" y1="51.7178999600586" x2="49.7227184978323" y2="51.3463067982708"/>
    <line x1="49.7227184978323" y1="51.3463067982708" x2="49.8962808840128" y2="50.9943570953661"/>
    <line x1="49.8962808840128" y1="50.9943570953661" x2="50.1142970744924" y2="50.66807280834"/>
    <line x1="50.1142970744924" y1="50.66807280834" x2="50.3730367518065" y2="50.3730367518065"/>
    <line x1="50.3730367518065" y1="50.3730367518065" x2="50.66807280834" y2="50.1142970744924"/>
    <line x1="50.66807280834" y1="50.1142970744924" x2="50.9943570953661" y2="49.8962808840128"/>
    <line x1="50.9943570953661" y1="49.8962808840128" x2="51.3463067982708" y2="49.7227184978323"/>
    <line x1="51.3463067982708" y1="49.7227184978323" x2="51.7178999600586" y2="49.5965796164989"/>
    <line x1="51.7178999600586" y1="49.5965796164989" x2="52.102778518706" y2="49.5200225112447"/>
  </g>
</svg>
