<?xml version="1.0" standalone="no"?>
<!DOCTYPE svg PUBLIC "-//W3C//DTD SVG 1.1//EN" "http://www.w3.org/Graphics/SVG/1.1/DTD/svg11.dtd">
<svg width="22.6974944288785in" height="22.6921715398071in"
 viewBox="0 0 22.6974944288785 22.6921715398071"
 xmlns="http://www.w3.org/2000/svg" version="1.1"
 xmlns:xlink="http://www.w3.org/1999/xlink">
<desc>Output from Flights of Ideas SVG Sketchup Plugin</desc>

  <g id="face0" fill="none" stroke="rgb(0,0,255)" stroke-width="1" stroke-miterlimit="4" stroke-dasharray="none" stroke-linejoin="round" stroke-linecap="round">
    <line x1="11.0882925910295" y1="10.0882985884439" x2="11.0389011940459" y2="10.0357750477518"/>
    <line x1="11.0389011940459" y1="10.0357750477518" x2="10.9872614586343" y2="10.0490338782665"/>
    <line x1="10.9872614586343" y1="10.0490338782665" x2="10.969282856226" y2="10.1188550948004"/>
    <line x1="10.969282856226" y1="10.1188550948004" x2="10.9601266562059" y2="10.1846033959869"/>
    <line x1="10.9601266562059" y1="10.1846033959869" x2="10.9592813300012" y2="10.2340798334439"/>
    <line x1="10.9592813300012" y1="10.2340798334439" x2="10.9626408694452" y2="10.2664907864162"/>
    <line x1="10.9626408694452" y1="10.2664907864162" x2="10.9633092452885" y2="10.2745901734324"/>
    <line x1="10.9633092452885" y1="10.2745901734324" x2="10.9598383822399" y2="10.2819386362653"/>
    <line x1="10.9598383822399" y1="10.2819386362653" x2="10.9531582952503" y2="10.286567160233"/>
    <line x1="10.9531582952503" y1="10.286567160233" x2="10.9093294379676" y2="10.3039202324248"/>
    <line x1="10.9093294379676" y1="10.3039202324248" x2="10.901291421437" y2="10.3051190178771"/>
    <line x1="10.901291421437" y1="10.3051190178771" x2="10.8937309021992" y2="10.3021381882672"/>
    <line x1="10.8937309021992" y1="10.3021381882672" x2="10.8886737152785" y2="10.2957764544818"/>
    <line x1="10.8886737152785" y1="10.2957764544818" x2="10.8689358900782" y2="10.2698501235765"/>
    <line x1="10.8689358900782" y1="10.2698501235765" x2="10.8344507217222" y2="10.2343620184808"/>
    <line x1="10.8344507217222" y1="10.2343620184808" x2="10.7827683298642" y2="10.1927014198347"/>
    <line x1="10.7827683298642" y1="10.1927014198347" x2="10.721866581033" y2="10.1541111437002"/>
    <line x1="10.721866581033" y1="10.1541111437002" x2="10.6751465399328" y2="10.1797957036457"/>
    <line x1="10.6751465399328" y1="10.1797957036457" x2="10.6750965988411" y2="10.2518944548743"/>
    <line x1="10.6750965988411" y1="10.2518944548743" x2="10.682578995285" y2="10.3178542066262"/>
    <line x1="10.682578995285" y1="10.3178542066262" x2="10.694064516206" y2="10.3659864748982"/>
    <line x1="10.694064516206" y1="10.3659864748982" x2="10.7053787857782" y2="10.396543694698"/>
    <line x1="10.7053787857782" y1="10.396543694698" x2="10.7080403990085" y2="10.4042224062644"/>
    <line x1="10.7080403990085" y1="10.4042224062644" x2="10.7065060678978" y2="10.4122031721643"/>
    <line x1="10.7065060678978" y1="10.4122031721643" x2="10.7011869152281" y2="10.41834755262"/>
    <line x1="10.7011869152281" y1="10.41834755262" x2="10.6630505556579" y2="10.4460552397111"/>
    <line x1="10.6630505556579" y1="10.4460552397111" x2="10.6555631940163" y2="10.449215336538"/>
    <line x1="10.6555631940163" y1="10.449215336538" x2="10.6474989002139" y2="10.4482083798478"/>
    <line x1="10.6474989002139" y1="10.4482083798478" x2="10.6410184952625" y2="10.4433041828724"/>
    <line x1="10.6410184952625" y1="10.4433041828724" x2="10.6154531538288" y2="10.4231009728496"/>
    <line x1="10.6154531538288" y1="10.4231009728496" x2="10.5732258675985" y2="10.3973039044609"/>
    <line x1="10.5732258675985" y1="10.3973039044609" x2="10.5128066035415" y2="10.3698050383293"/>
    <line x1="10.5128066035415" y1="10.3698050383293" x2="10.4442211837227" y2="10.3475727957271"/>
    <line x1="10.4442211837227" y1="10.3475727957271" x2="10.4053564289406" y2="10.3840692297408"/>
    <line x1="10.4053564289406" y1="10.3840692297408" x2="10.4232382871479" y2="10.4539152859637"/>
    <line x1="10.4232382871479" y1="10.4539152859637" x2="10.446889133569" y2="10.5159419944955"/>
    <line x1="10.446889133569" y1="10.5159419944955" x2="10.4699838240953" y2="10.5597057661487"/>
    <line x1="10.4699838240953" y1="10.5597057661487" x2="10.4885419066275" y2="10.5864892302745"/>
    <line x1="10.4885419066275" y1="10.5864892302745" x2="10.4930295182968" y2="10.5932647847029"/>
    <line x1="10.4930295182968" y1="10.5932647847029" x2="10.4935281267905" y2="10.6013763927974"/>
    <line x1="10.4935281267905" y1="10.6013763927974" x2="10.4899041303654" y2="10.6086505557195"/>
    <line x1="10.4899041303654" y1="10.6086505557195" x2="10.4598565162353" y2="10.6449718818281"/>
    <line x1="10.4598565162353" y1="10.6449718818281" x2="10.4533902679513" y2="10.6498947295241"/>
    <line x1="10.4533902679513" y1="10.6498947295241" x2="10.4453289088222" y2="10.6509249165457"/>
    <line x1="10.4453289088222" y1="10.6509249165457" x2="10.4378324735166" y2="10.6477864051126"/>
    <line x1="10.4378324735166" y1="10.6477864051126" x2="10.4080459802744" y2="10.6345757579603"/>
    <line x1="10.4080459802744" y1="10.6345757579603" x2="10.3607298718648" y2="10.6200906509604"/>
    <line x1="10.3607298718648" y1="10.6200906509604" x2="10.295370100176" y2="10.6084813722361"/>
    <line x1="10.295370100176" y1="10.6084813722361" x2="10.2234104835364" y2="10.6040040967334"/>
    <line x1="10.2234104835364" y1="10.6040040967334" x2="10.1948430305498" y2="10.6490191996418"/>
    <line x1="10.1948430305498" y1="10.6490191996418" x2="10.2295331051401" y2="10.7122238762706"/>
    <line x1="10.2295331051401" y1="10.7122238762706" x2="10.267866331876" y2="10.7664201753669"/>
    <line x1="10.267866331876" y1="10.7664201753669" x2="10.3011190676656" y2="10.8030656116766"/>
    <line x1="10.3011190676656" y1="10.8030656116766" x2="10.3257548905805" y2="10.8243924165746"/>
    <line x1="10.3257548905805" y1="10.8243924165746" x2="10.3317865275433" y2="10.8298390808616"/>
    <line x1="10.3317865275433" y1="10.8298390808616" x2="10.3342867462361" y2="10.8375718489815"/>
    <line x1="10.3342867462361" y1="10.8375718489815" x2="10.3325856150791" y2="10.8455187319613"/>
    <line x1="10.3325856150791" y1="10.8455187319613" x2="10.3125147484921" y2="10.8881714945876"/>
    <line x1="10.3125147484921" y1="10.8881714945876" x2="10.3074759117266" y2="10.8945477725268"/>
    <line x1="10.3074759117266" y1="10.8945477725268" x2="10.2999240121125" y2="10.897550372821"/>
    <line x1="10.2999240121125" y1="10.897550372821" x2="10.2918825750528" y2="10.8963747511461"/>
    <line x1="10.2918825750528" y1="10.8963747511461" x2="10.2597465249198" y2="10.8909867404102"/>
    <line x1="10.2597465249198" y1="10.8909867404102" x2="10.2103146394387" y2="10.8887237473444"/>
    <line x1="10.2103146394387" y1="10.8887237473444" x2="10.1441211549497" y2="10.8937335097056"/>
    <line x1="10.1441211549497" y1="10.8937335097056" x2="10.0733088288518" y2="10.9072925249885"/>
    <line x1="10.0733088288518" y1="10.9072925249885" x2="10.0568336757956" y2="10.9579978323218"/>
    <line x1="10.0568336757956" y1="10.9579978323218" x2="10.1061522618012" y2="11.0105897470735"/>
    <line x1="10.1061522618012" y1="11.0105897470735" x2="10.1567592512363" y2="11.0535502839421"/>
    <line x1="10.1567592512363" y1="11.0535502839421" x2="10.1980806406046" y2="11.0807748173724"/>
    <line x1="10.1980806406046" y1="11.0807748173724" x2="10.2272462445441" y2="11.0953049214564"/>
    <line x1="10.2272462445441" y1="11.0953049214564" x2="10.2344429168673" y2="11.0990804616534"/>
    <line x1="10.2344429168673" y1="11.0990804616534" x2="10.2387876478235" y2="11.1059485115387"/>
    <line x1="10.2387876478235" y1="11.1059485115387" x2="10.2391162702615" y2="11.1140687826918"/>
    <line x1="10.2391162702615" y1="11.1140687826918" x2="10.2302832775809" y2="11.160372951894"/>
    <line x1="10.2302832775809" y1="11.160372951894" x2="10.2269884609794" y2="11.1678020150833"/>
    <line x1="10.2269884609794" y1="11.1678020150833" x2="10.220420534507" y2="11.1725883642307"/>
    <line x1="10.220420534507" y1="11.1725883642307" x2="10.212339368758" y2="11.1734495009476"/>
    <line x1="10.212339368758" y1="11.1734495009476" x2="10.179872987952" y2="11.1762226751584"/>
    <line x1="10.179872987952" y1="11.1762226751584" x2="10.131431312562" y2="11.1863239882037"/>
    <line x1="10.131431312562" y1="11.1863239882037" x2="10.0685632953458" y2="11.2076380098567"/>
    <line x1="10.0685632953458" y1="11.2076380098567" x2="10.0033476586678" y2="11.2383813531283"/>
    <line x1="10.0033476586678" y1="11.2383813531283" x2="10.0" y2="11.2915908639458"/>
    <line x1="10.0" y1="11.2915908639458" x2="10.060848229281" y2="11.330265473397"/>
    <line x1="10.060848229281" y1="11.330265473397" x2="10.1205491581497" y2="11.3592908795085"/>
    <line x1="10.1205491581497" y1="11.3592908795085" x2="10.1673428262332" y2="11.3753838924993"/>
    <line x1="10.1673428262332" y1="11.3753838924993" x2="10.1992056290382" y2="11.3822043158916"/>
    <line x1="10.1992056290382" y1="11.3822043158916" x2="10.2071151433323" y2="11.3840715009226"/>
    <line x1="10.2071151433323" y1="11.3840715009226" x2="10.213031391127" y2="11.38964328774"/>
    <line x1="10.213031391127" y1="11.38964328774" x2="10.2153691186037" y2="11.3974267205657"/>
    <line x1="10.2153691186037" y1="11.3974267205657" x2="10.2183290092451" y2="11.4444728350981"/>
    <line x1="10.2183290092451" y1="11.4444728350981" x2="10.2169852382521" y2="11.452487888175"/>
    <line x1="10.2169852382521" y1="11.452487888175" x2="10.2118139718968" y2="11.4587572422559"/>
    <line x1="10.2118139718968" y1="11.4587572422559" x2="10.2042008468231" y2="11.4616010289775"/>
    <line x1="10.2042008468231" y1="11.4616010289775" x2="10.1734441174531" y2="11.4723611394003"/>
    <line x1="10.1734441174531" y1="11.4723611394003" x2="10.129036420775" y2="11.4941920559081"/>
    <line x1="10.129036420775" y1="11.4941920559081" x2="10.0734440995657" y2="11.5304710984848"/>
    <line x1="10.0734440995657" y1="11.5304710984848" x2="10.0179228906064" y2="11.5764670524214"/>
    <line x1="10.0179228906064" y1="11.5764670524214" x2="10.0279130720329" y2="11.6288374174675"/>
    <line x1="10.0279130720329" y1="11.6288374174675" x2="10.0964676265595" y2="11.651164653671"/>
    <line x1="10.0964676265595" y1="11.651164653671" x2="10.1615112659362" y2="11.6644311560116"/>
    <line x1="10.1615112659362" y1="11.6644311560116" x2="10.2108369944741" y2="11.6683814653705"/>
    <line x1="10.2108369944741" y1="11.6683814653705" x2="10.2433949390614" y2="11.6670636557858"/>
    <line x1="10.2433949390614" y1="11.6670636557858" x2="10.2515203114539" y2="11.6669051635482"/>
    <line x1="10.2515203114539" y1="11.6669051635482" x2="10.2586363364799" y2="11.6708305914404"/>
    <line x1="10.2586363364799" y1="11.6708305914404" x2="10.2628362809803" y2="11.6777881242288"/>
    <line x1="10.2628362809803" y1="11.6777881242288" x2="10.2774030741289" y2="11.7226201036917"/>
    <line x1="10.2774030741289" y1="11.7226201036917" x2="10.2780947828181" y2="11.7307175313942"/>
    <line x1="10.2780947828181" y1="11.7307175313942" x2="10.2746451062636" y2="11.7380759638344"/>
    <line x1="10.2746451062636" y1="11.7380759638344" x2="10.2679783825125" y2="11.7427237149825"/>
    <line x1="10.2679783825125" y1="11.7427237149825" x2="10.2408638630003" y2="11.7607946643064"/>
    <line x1="10.2408638630003" y1="11.7607946643064" x2="10.2032804439364" y2="11.792983467504"/>
    <line x1="10.2032804439364" y1="11.792983467504" x2="10.1584568887299" y2="11.8419479853345"/>
    <line x1="10.1584568887299" y1="11.8419479853345" x2="10.1161187092409" y2="11.9003064549888"/>
    <line x1="10.1161187092409" y1="11.9003064549888" x2="10.1388190109213" y2="11.9485470516229"/>
    <line x1="10.1388190109213" y1="11.9485470516229" x2="10.2107723559067" y2="11.9531240122143"/>
    <line x1="10.2107723559067" y1="11.9531240122143" x2="10.2770717747156" y2="11.9497980276511"/>
    <line x1="10.2770717747156" y1="11.9497980276511" x2="10.3258302467766" y2="11.941357420913"/>
    <line x1="10.3258302467766" y1="11.941357420913" x2="10.3570375977478" y2="11.9319841811739"/>
    <line x1="10.3570375977478" y1="11.9319841811739" x2="10.3648682812085" y2="11.9298099703179"/>
    <line x1="10.3648682812085" y1="11.9298099703179" x2="10.3727369574424" y2="11.9318423902138"/>
    <line x1="10.3727369574424" y1="11.9318423902138" x2="10.3785352210072" y2="11.9375368555917"/>
    <line x1="10.3785352210072" y1="11.9375368555917" x2="10.4037936314766" y2="11.9773377418351"/>
    <line x1="10.4037936314766" y1="11.9773377418351" x2="10.406477357247" y2="11.9850087530003"/>
    <line x1="10.406477357247" y1="11.9850087530003" x2="10.4049660263583" y2="11.9929939064273"/>
    <line x1="10.4049660263583" y1="11.9929939064273" x2="10.3996645987016" y2="11.9991535867039"/>
    <line x1="10.3996645987016" y1="11.9991535867039" x2="10.3778959940283" y2="12.0233999107226"/>
    <line x1="10.3778959940283" y1="12.0233999107226" x2="10.3494983570206" y2="12.063924059723"/>
    <line x1="10.3494983570206" y1="12.063924059723" x2="10.31825999664" y2="12.122497432073"/>
    <line x1="10.31825999664" y1="12.122497432073" x2="10.2917651101476" y2="12.1895515401693"/>
    <line x1="10.2917651101476" y1="12.1895515401693" x2="10.3257491886415" y2="12.2306312342884"/>
    <line x1="10.3257491886415" y1="12.2306312342884" x2="10.3965802307942" y2="12.2171703320008"/>
    <line x1="10.3965802307942" y1="12.2171703320008" x2="10.4599695927194" y2="12.197460844376"/>
    <line x1="10.4599695927194" y1="12.197460844376" x2="10.5050971341827" y2="12.1771596759046"/>
    <line x1="10.5050971341827" y1="12.1771596759046" x2="10.5329930189038" y2="12.1603199611364"/>
    <line x1="10.5329930189038" y1="12.1603199611364" x2="10.5400369827915" y2="12.1562666453263"/>
    <line x1="10.5400369827915" y1="12.1562666453263" x2="10.5481638923666" y2="12.156278352809"/>
    <line x1="10.5481638923666" y1="12.156278352809" x2="10.5551961487716" y2="12.160351946574"/>
    <line x1="10.5551961487716" y1="12.160351946574" x2="10.5895590977381" y2="12.1926209035377"/>
    <line x1="10.5895590977381" y1="12.1926209035377" x2="10.5940662122294" y2="12.1993835003222"/>
    <line x1="10.5940662122294" y1="12.1993835003222" x2="10.5945881894845" y2="12.2074936381788"/>
    <line x1="10.5945881894845" y1="12.2074936381788" x2="10.5909851661193" y2="12.2147782122183"/>
    <line x1="10.5909851661193" y1="12.2147782122183" x2="10.5759302777758" y2="12.2436764252221"/>
    <line x1="10.5759302777758" y1="12.2436764252221" x2="10.5585027507966" y2="12.2899896387061"/>
    <line x1="10.5585027507966" y1="12.2899896387061" x2="10.5428124063113" y2="12.3544914851731"/>
    <line x1="10.5428124063113" y1="12.3544914851731" x2="10.5338255839752" y2="12.4260279754919"/>
    <line x1="10.5338255839752" y1="12.4260279754919" x2="10.5769580946461" y2="12.457365578834"/>
    <line x1="10.5769580946461" y1="12.457365578834" x2="10.6422162590893" y2="12.4267126116639"/>
    <line x1="10.6422162590893" y1="12.4267126116639" x2="10.6987125773913" y2="12.3918580405714"/>
    <line x1="10.6987125773913" y1="12.3918580405714" x2="10.7373736588593" y2="12.3609719074442"/>
    <line x1="10.7373736588593" y1="12.3609719074442" x2="10.7602052762993" y2="12.3377238188579"/>
    <line x1="10.7602052762993" y1="12.3377238188579" x2="10.7660199224571" y2="12.332046082833"/>
    <line x1="10.7660199224571" y1="12.332046082833" x2="10.7738944217561" y2="12.3300363422784"/>
    <line x1="10.7738944217561" y1="12.3300363422784" x2="10.7817188084685" y2="12.3322331055526"/>
    <line x1="10.7817188084685" y1="12.3322331055526" x2="10.8230271454704" y2="12.3549425559937"/>
    <line x1="10.8230271454704" y1="12.3549425559937" x2="10.8290744501033" y2="12.3603718195704"/>
    <line x1="10.8290744501033" y1="12.3603718195704" x2="10.8315969377515" y2="12.368097352068"/>
    <line x1="10.8315969377515" y1="12.368097352068" x2="10.8299187098867" y2="12.3760491032929"/>
    <line x1="10.8299187098867" y1="12.3760491032929" x2="10.8225234918758" y2="12.4077834242785"/>
    <line x1="10.8225234918758" y1="12.4077834242785" x2="10.8171611105392" y2="12.4569756727149"/>
    <line x1="10.8171611105392" y1="12.4569756727149" x2="10.8180046639982" y2="12.5233531050641"/>
    <line x1="10.8180046639982" y1="12.5233531050641" x2="10.8270905809169" y2="12.5948770768259"/>
    <line x1="10.8270905809169" y1="12.5948770768259" x2="10.8766613494891" y2="12.6145035325213"/>
    <line x1="10.8766613494891" y1="12.6145035325213" x2="10.9322462257482" y2="12.5685845391297"/>
    <line x1="10.9322462257482" y1="12.5685845391297" x2="10.9782996289691" y2="12.5207749254574"/>
    <line x1="10.9782996289691" y1="12.5207749254574" x2="11.0080650325077" y2="12.4812445170101"/>
    <line x1="11.0080650325077" y1="12.4812445170101" x2="11.0243977881741" y2="12.453048817512"/>
    <line x1="11.0243977881741" y1="12.453048817512" x2="11.028617760999" y2="12.4461034143081"/>
    <line x1="11.028617760999" y1="12.4461034143081" x2="11.0357450662706" y2="12.4421985051065"/>
    <line x1="11.0357450662706" y1="12.4421985051065" x2="11.0438699482972" y2="12.4423804071742"/>
    <line x1="11.0438699482972" y1="12.4423804071742" x2="11.0895281185992" y2="12.4541034328021"/>
    <line x1="11.0895281185992" y1="12.4541034328021" x2="11.0967356389831" y2="12.4578582225729"/>
    <line x1="11.0967356389831" y1="12.4578582225729" x2="11.1011001398484" y2="12.4647137260923"/>
    <line x1="11.1011001398484" y1="12.4647137260923" x2="11.101452156713" y2="12.4728330167285"/>
    <line x1="11.101452156713" y1="12.4728330167285" x2="11.1021812777798" y2="12.5054094615977"/>
    <line x1="11.1021812777798" y1="12.5054094615977" x2="11.1092209802267" y2="12.5543898151008"/>
    <line x1="11.1092209802267" y1="12.5543898151008" x2="11.1265454280639" y2="12.6184720951387"/>
    <line x1="11.1265454280639" y1="12.6184720951387" x2="11.1531331826618" y2="12.6854894341509"/>
    <line x1="11.1531331826618" y1="12.6854894341509" x2="11.2060274954373" y2="12.6921715398071"/>
    <line x1="11.2060274954373" y1="12.6921715398071" x2="11.24844648131" y2="12.6338717794272"/>
    <line x1="11.24844648131" y1="12.6338717794272" x2="11.2811632647529" y2="12.5761111770336"/>
    <line x1="11.2811632647529" y1="12.5761111770336" x2="11.3001627205882" y2="12.5304203342115"/>
    <line x1="11.3001627205882" y1="12.5304203342115" x2="11.3089703673748" y2="12.4990486632976"/>
    <line x1="11.3089703673748" y1="12.4990486632976" x2="11.3113305104544" y2="12.4912719981414"/>
    <line x1="11.3113305104544" y1="12.4912719981414" x2="11.3172627868959" y2="12.4857172800992"/>
    <line x1="11.3172627868959" y1="12.4857172800992" x2="11.3251776480177" y2="12.4838728913846"/>
    <line x1="11.3251776480177" y1="12.4838728913846" x2="11.3723167808608" y2="12.4838728913846"/>
    <line x1="11.3723167808608" y1="12.4838728913846" x2="11.3802316419826" y2="12.4857172800992"/>
    <line x1="11.3802316419826" y1="12.4857172800992" x2="11.3861639184242" y2="12.4912719981414"/>
    <line x1="11.3861639184242" y1="12.4912719981414" x2="11.3885240615037" y2="12.4990486632976"/>
    <line x1="11.3885240615037" y1="12.4990486632976" x2="11.3973317082903" y2="12.5304203342115"/>
    <line x1="11.3973317082903" y1="12.5304203342115" x2="11.4163311641257" y2="12.5761111770336"/>
    <line x1="11.4163311641257" y1="12.5761111770336" x2="11.4490479475685" y2="12.6338717794272"/>
    <line x1="11.4490479475685" y1="12.6338717794272" x2="11.4914669334413" y2="12.6921715398071"/>
    <line x1="11.4914669334413" y1="12.6921715398071" x2="11.5443612462168" y2="12.6854894341509"/>
    <line x1="11.5443612462168" y1="12.6854894341509" x2="11.5709490008147" y2="12.6184720951387"/>
    <line x1="11.5709490008147" y1="12.6184720951387" x2="11.5882734486519" y2="12.5543898151008"/>
    <line x1="11.5882734486519" y1="12.5543898151008" x2="11.5953131510987" y2="12.5054094615977"/>
    <line x1="11.5953131510987" y1="12.5054094615977" x2="11.5960422721656" y2="12.4728330167285"/>
    <line x1="11.5960422721656" y1="12.4728330167285" x2="11.5963942890301" y2="12.4647137260923"/>
    <line x1="11.5963942890301" y1="12.4647137260923" x2="11.6007587898954" y2="12.4578582225729"/>
    <line x1="11.6007587898954" y1="12.4578582225729" x2="11.6079663102793" y2="12.4541034328021"/>
    <line x1="11.6079663102793" y1="12.4541034328021" x2="11.6536244805814" y2="12.4423804071742"/>
    <line x1="11.6536244805814" y1="12.4423804071742" x2="11.6617493626079" y2="12.4421985051065"/>
    <line x1="11.6617493626079" y1="12.4421985051065" x2="11.6688766678795" y2="12.4461034143081"/>
    <line x1="11.6688766678795" y1="12.4461034143081" x2="11.6730966407045" y2="12.453048817512"/>
    <line x1="11.6730966407045" y1="12.453048817512" x2="11.6894293963708" y2="12.4812445170101"/>
    <line x1="11.6894293963708" y1="12.4812445170101" x2="11.7191947999094" y2="12.5207749254574"/>
    <line x1="11.7191947999094" y1="12.5207749254574" x2="11.7652482031303" y2="12.5685845391297"/>
    <line x1="11.7652482031303" y1="12.5685845391297" x2="11.8208330793895" y2="12.6145035325213"/>
    <line x1="11.8208330793895" y1="12.6145035325213" x2="11.8704038479616" y2="12.5948770768259"/>
    <line x1="11.8704038479616" y1="12.5948770768259" x2="11.8794897648803" y2="12.5233531050641"/>
    <line x1="11.8794897648803" y1="12.5233531050641" x2="11.8803333183394" y2="12.4569756727149"/>
    <line x1="11.8803333183394" y1="12.4569756727149" x2="11.8749709370028" y2="12.4077834242785"/>
    <line x1="11.8749709370028" y1="12.4077834242785" x2="11.8675757189918" y2="12.3760491032929"/>
    <line x1="11.8675757189918" y1="12.3760491032929" x2="11.865897491127" y2="12.368097352068"/>
    <line x1="11.865897491127" y1="12.368097352068" x2="11.8684199787752" y2="12.3603718195704"/>
    <line x1="11.8684199787752" y1="12.3603718195704" x2="11.8744672834081" y2="12.3549425559937"/>
    <line x1="11.8744672834081" y1="12.3549425559937" x2="11.91577562041" y2="12.3322331055526"/>
    <line x1="11.91577562041" y1="12.3322331055526" x2="11.9236000071224" y2="12.3300363422784"/>
    <line x1="11.9236000071224" y1="12.3300363422784" x2="11.9314745064215" y2="12.332046082833"/>
    <line x1="11.9314745064215" y1="12.332046082833" x2="11.9372891525792" y2="12.3377238188579"/>
    <line x1="11.9372891525792" y1="12.3377238188579" x2="11.9601207700192" y2="12.3609719074442"/>
    <line x1="11.9601207700192" y1="12.3609719074442" x2="11.9987818514872" y2="12.3918580405714"/>
    <line x1="11.9987818514872" y1="12.3918580405714" x2="12.0552781697892" y2="12.4267126116639"/>
    <line x1="12.0552781697892" y1="12.4267126116639" x2="12.1205363342325" y2="12.457365578834"/>
    <line x1="12.1205363342325" y1="12.457365578834" x2="12.1636688449034" y2="12.4260279754919"/>
    <line x1="12.1636688449034" y1="12.4260279754919" x2="12.1546820225672" y2="12.3544914851731"/>
    <line x1="12.1546820225672" y1="12.3544914851731" x2="12.1389916780819" y2="12.2899896387061"/>
    <line x1="12.1389916780819" y1="12.2899896387061" x2="12.1215641511027" y2="12.2436764252221"/>
    <line x1="12.1215641511027" y1="12.2436764252221" x2="12.1065092627593" y2="12.2147782122183"/>
    <line x1="12.1065092627593" y1="12.2147782122183" x2="12.102906239394" y2="12.2074936381788"/>
    <line x1="12.102906239394" y1="12.2074936381788" x2="12.1034282166491" y2="12.1993835003222"/>
    <line x1="12.1034282166491" y1="12.1993835003222" x2="12.1079353311405" y2="12.1926209035377"/>
    <line x1="12.1079353311405" y1="12.1926209035377" x2="12.142298280107" y2="12.160351946574"/>
    <line x1="12.142298280107" y1="12.160351946574" x2="12.1493305365119" y2="12.156278352809"/>
    <line x1="12.1493305365119" y1="12.156278352809" x2="12.1574574460871" y2="12.1562666453263"/>
    <line x1="12.1574574460871" y1="12.1562666453263" x2="12.1645014099748" y2="12.1603199611364"/>
    <line x1="12.1645014099748" y1="12.1603199611364" x2="12.1923972946958" y2="12.1771596759046"/>
    <line x1="12.1923972946958" y1="12.1771596759046" x2="12.2375248361591" y2="12.197460844376"/>
    <line x1="12.2375248361591" y1="12.197460844376" x2="12.3009141980843" y2="12.2171703320008"/>
    <line x1="12.3009141980843" y1="12.2171703320008" x2="12.3717452402371" y2="12.2306312342884"/>
    <line x1="12.3717452402371" y1="12.2306312342884" x2="12.4057293187309" y2="12.1895515401693"/>
    <line x1="12.4057293187309" y1="12.1895515401693" x2="12.3792344322385" y2="12.122497432073"/>
    <line x1="12.3792344322385" y1="12.122497432073" x2="12.347996071858" y2="12.063924059723"/>
    <line x1="12.347996071858" y1="12.063924059723" x2="12.3195984348502" y2="12.0233999107226"/>
    <line x1="12.3195984348502" y1="12.0233999107226" x2="12.2978298301769" y2="11.9991535867039"/>
    <line x1="12.2978298301769" y1="11.9991535867039" x2="12.2925284025203" y2="11.9929939064273"/>
    <line x1="12.2925284025203" y1="11.9929939064273" x2="12.2910170716315" y2="11.9850087530003"/>
    <line x1="12.2910170716315" y1="11.9850087530003" x2="12.2937007974019" y2="11.9773377418351"/>
    <line x1="12.2937007974019" y1="11.9773377418351" x2="12.3189592078713" y2="11.9375368555917"/>
    <line x1="12.3189592078713" y1="11.9375368555917" x2="12.3247574714361" y2="11.9318423902138"/>
    <line x1="12.3247574714361" y1="11.9318423902138" x2="12.3326261476701" y2="11.9298099703179"/>
    <line x1="12.3326261476701" y1="11.9298099703179" x2="12.3404568311308" y2="11.9319841811739"/>
    <line x1="12.3404568311308" y1="11.9319841811739" x2="12.3716641821019" y2="11.941357420913"/>
    <line x1="12.3716641821019" y1="11.941357420913" x2="12.4204226541629" y2="11.9497980276511"/>
    <line x1="12.4204226541629" y1="11.9497980276511" x2="12.4867220729719" y2="11.9531240122143"/>
    <line x1="12.4867220729719" y1="11.9531240122143" x2="12.5586754179572" y2="11.9485470516229"/>
    <line x1="12.5586754179572" y1="11.9485470516229" x2="12.5813757196376" y2="11.9003064549888"/>
    <line x1="12.5813757196376" y1="11.9003064549888" x2="12.5390375401486" y2="11.8419479853345"/>
    <line x1="12.5390375401486" y1="11.8419479853345" x2="12.4942139849422" y2="11.792983467504"/>
    <line x1="12.4942139849422" y1="11.792983467504" x2="12.4566305658782" y2="11.7607946643064"/>
    <line x1="12.4566305658782" y1="11.7607946643064" x2="12.429516046366" y2="11.7427237149825"/>
    <line x1="12.429516046366" y1="11.7427237149825" x2="12.4228493226149" y2="11.7380759638344"/>
    <line x1="12.4228493226149" y1="11.7380759638344" x2="12.4193996460605" y2="11.7307175313942"/>
    <line x1="12.4193996460605" y1="11.7307175313942" x2="12.4200913547496" y2="11.7226201036917"/>
    <line x1="12.4200913547496" y1="11.7226201036917" x2="12.4346581478982" y2="11.6777881242288"/>
    <line x1="12.4346581478982" y1="11.6777881242288" x2="12.4388580923986" y2="11.6708305914404"/>
    <line x1="12.4388580923986" y1="11.6708305914404" x2="12.4459741174246" y2="11.6669051635482"/>
    <line x1="12.4459741174246" y1="11.6669051635482" x2="12.4540994898172" y2="11.6670636557858"/>
    <line x1="12.4540994898172" y1="11.6670636557858" x2="12.4866574344044" y2="11.6683814653705"/>
    <line x1="12.4866574344044" y1="11.6683814653705" x2="12.5359831629423" y2="11.6644311560116"/>
    <line x1="12.5359831629423" y1="11.6644311560116" x2="12.601026802319" y2="11.651164653671"/>
    <line x1="12.601026802319" y1="11.651164653671" x2="12.6695813568457" y2="11.6288374174675"/>
    <line x1="12.6695813568457" y1="11.6288374174675" x2="12.6795715382721" y2="11.5764670524214"/>
    <line x1="12.6795715382721" y1="11.5764670524214" x2="12.6240503293128" y2="11.5304710984848"/>
    <line x1="12.6240503293128" y1="11.5304710984848" x2="12.5684580081036" y2="11.4941920559081"/>
    <line x1="12.5684580081036" y1="11.4941920559081" x2="12.5240503114254" y2="11.4723611394003"/>
    <line x1="12.5240503114254" y1="11.4723611394003" x2="12.4932935820555" y2="11.4616010289775"/>
    <line x1="12.4932935820555" y1="11.4616010289775" x2="12.4856804569817" y2="11.4587572422559"/>
    <line x1="12.4856804569817" y1="11.4587572422559" x2="12.4805091906264" y2="11.452487888175"/>
    <line x1="12.4805091906264" y1="11.452487888175" x2="12.4791654196335" y2="11.4444728350981"/>
    <line x1="12.4791654196335" y1="11.4444728350981" x2="12.4821253102749" y2="11.3974267205657"/>
    <line x1="12.4821253102749" y1="11.3974267205657" x2="12.4844630377515" y2="11.38964328774"/>
    <line x1="12.4844630377515" y1="11.38964328774" x2="12.4903792855463" y2="11.3840715009226"/>
    <line x1="12.4903792855463" y1="11.3840715009226" x2="12.4982887998403" y2="11.3822043158916"/>
    <line x1="12.4982887998403" y1="11.3822043158916" x2="12.5301516026454" y2="11.3753838924993"/>
    <line x1="12.5301516026454" y1="11.3753838924993" x2="12.5769452707289" y2="11.3592908795085"/>
    <line x1="12.5769452707289" y1="11.3592908795085" x2="12.6366461995975" y2="11.330265473397"/>
    <line x1="12.6366461995975" y1="11.330265473397" x2="12.6974944288785" y2="11.2915908639458"/>
    <line x1="12.6974944288785" y1="11.2915908639458" x2="12.6941467702107" y2="11.2383813531283"/>
    <line x1="12.6941467702107" y1="11.2383813531283" x2="12.6289311335327" y2="11.2076380098567"/>
    <line x1="12.6289311335327" y1="11.2076380098567" x2="12.5660631163165" y2="11.1863239882037"/>
    <line x1="12.5660631163165" y1="11.1863239882037" x2="12.5176214409266" y2="11.1762226751584"/>
    <line x1="12.5176214409266" y1="11.1762226751584" x2="12.4851550601205" y2="11.1734495009476"/>
    <line x1="12.4851550601205" y1="11.1734495009476" x2="12.4770738943715" y2="11.1725883642307"/>
    <line x1="12.4770738943715" y1="11.1725883642307" x2="12.4705059678992" y2="11.1678020150833"/>
    <line x1="12.4705059678992" y1="11.1678020150833" x2="12.4672111512977" y2="11.160372951894"/>
    <line x1="12.4672111512977" y1="11.160372951894" x2="12.4583781586171" y2="11.1140687826918"/>
    <line x1="12.4583781586171" y1="11.1140687826918" x2="12.4587067810551" y2="11.1059485115387"/>
    <line x1="12.4587067810551" y1="11.1059485115387" x2="12.4630515120112" y2="11.0990804616534"/>
    <line x1="12.4630515120112" y1="11.0990804616534" x2="12.4702481843345" y2="11.0953049214564"/>
    <line x1="12.4702481843345" y1="11.0953049214564" x2="12.499413788274" y2="11.0807748173724"/>
    <line x1="12.499413788274" y1="11.0807748173724" x2="12.5407351776423" y2="11.0535502839421"/>
    <line x1="12.5407351776423" y1="11.0535502839421" x2="12.5913421670774" y2="11.0105897470735"/>
    <line x1="12.5913421670774" y1="11.0105897470735" x2="12.6406607530829" y2="10.9579978323218"/>
    <line x1="12.6406607530829" y1="10.9579978323218" x2="12.6241856000268" y2="10.9072925249885"/>
    <line x1="12.6241856000268" y1="10.9072925249885" x2="12.5533732739289" y2="10.8937335097056"/>
    <line x1="12.5533732739289" y1="10.8937335097056" x2="12.4871797894398" y2="10.8887237473444"/>
    <line x1="12.4871797894398" y1="10.8887237473444" x2="12.4377479039588" y2="10.8909867404102"/>
    <line x1="12.4377479039588" y1="10.8909867404102" x2="12.4056118538257" y2="10.8963747511461"/>
    <line x1="12.4056118538257" y1="10.8963747511461" x2="12.397570416766" y2="10.897550372821"/>
    <line x1="12.397570416766" y1="10.897550372821" x2="12.3900185171519" y2="10.8945477725268"/>
    <line x1="12.3900185171519" y1="10.8945477725268" x2="12.3849796803864" y2="10.8881714945876"/>
    <line x1="12.3849796803864" y1="10.8881714945876" x2="12.3649088137995" y2="10.8455187319613"/>
    <line x1="12.3649088137995" y1="10.8455187319613" x2="12.3632076826424" y2="10.8375718489815"/>
    <line x1="12.3632076826424" y1="10.8375718489815" x2="12.3657079013352" y2="10.8298390808616"/>
    <line x1="12.3657079013352" y1="10.8298390808616" x2="12.3717395382981" y2="10.8243924165746"/>
    <line x1="12.3717395382981" y1="10.8243924165746" x2="12.3963753612129" y2="10.8030656116766"/>
    <line x1="12.3963753612129" y1="10.8030656116766" x2="12.4296280970025" y2="10.7664201753669"/>
    <line x1="12.4296280970025" y1="10.7664201753669" x2="12.4679613237384" y2="10.7122238762706"/>
    <line x1="12.4679613237384" y1="10.7122238762706" x2="12.5026513983287" y2="10.6490191996418"/>
    <line x1="12.5026513983287" y1="10.6490191996418" x2="12.4740839453421" y2="10.6040040967334"/>
    <line x1="12.4740839453421" y1="10.6040040967334" x2="12.4021243287026" y2="10.6084813722361"/>
    <line x1="12.4021243287026" y1="10.6084813722361" x2="12.3367645570137" y2="10.6200906509604"/>
    <line x1="12.3367645570137" y1="10.6200906509604" x2="12.2894484486041" y2="10.6345757579603"/>
    <line x1="12.2894484486041" y1="10.6345757579603" x2="12.259661955362" y2="10.6477864051126"/>
    <line x1="12.259661955362" y1="10.6477864051126" x2="12.2521655200563" y2="10.6509249165457"/>
    <line x1="12.2521655200563" y1="10.6509249165457" x2="12.2441041609273" y2="10.6498947295241"/>
    <line x1="12.2441041609273" y1="10.6498947295241" x2="12.2376379126433" y2="10.6449718818281"/>
    <line x1="12.2376379126433" y1="10.6449718818281" x2="12.2075902985131" y2="10.6086505557195"/>
    <line x1="12.2075902985131" y1="10.6086505557195" x2="12.203966302088" y2="10.6013763927974"/>
    <line x1="12.203966302088" y1="10.6013763927974" x2="12.2044649105817" y2="10.5932647847029"/>
    <line x1="12.2044649105817" y1="10.5932647847029" x2="12.208952522251" y2="10.5864892302745"/>
    <line x1="12.208952522251" y1="10.5864892302745" x2="12.2275106047832" y2="10.5597057661487"/>
    <line x1="12.2275106047832" y1="10.5597057661487" x2="12.2506052953096" y2="10.5159419944955"/>
    <line x1="12.2506052953096" y1="10.5159419944955" x2="12.2742561417307" y2="10.4539152859637"/>
    <line x1="12.2742561417307" y1="10.4539152859637" x2="12.292137999938" y2="10.3840692297408"/>
    <line x1="12.292137999938" y1="10.3840692297408" x2="12.2532732451558" y2="10.3475727957271"/>
    <line x1="12.2532732451558" y1="10.3475727957271" x2="12.1846878253371" y2="10.3698050383293"/>
    <line x1="12.1846878253371" y1="10.3698050383293" x2="12.12426856128" y2="10.3973039044609"/>
    <line x1="12.12426856128" y1="10.3973039044609" x2="12.0820412750497" y2="10.4231009728496"/>
    <line x1="12.0820412750497" y1="10.4231009728496" x2="12.056475933616" y2="10.4433041828724"/>
    <line x1="12.056475933616" y1="10.4433041828724" x2="12.0499955286647" y2="10.4482083798478"/>
    <line x1="12.0499955286647" y1="10.4482083798478" x2="12.0419312348622" y2="10.449215336538"/>
    <line x1="12.0419312348622" y1="10.449215336538" x2="12.0344438732207" y2="10.4460552397111"/>
    <line x1="12.0344438732207" y1="10.4460552397111" x2="11.9963075136505" y2="10.41834755262"/>
    <line x1="11.9963075136505" y1="10.41834755262" x2="11.9909883609808" y2="10.4122031721643"/>
    <line x1="11.9909883609808" y1="10.4122031721643" x2="11.9894540298701" y2="10.4042224062644"/>
    <line x1="11.9894540298701" y1="10.4042224062644" x2="11.9921156431004" y2="10.396543694698"/>
    <line x1="11.9921156431004" y1="10.396543694698" x2="12.0034299126726" y2="10.3659864748982"/>
    <line x1="12.0034299126726" y1="10.3659864748982" x2="12.0149154335935" y2="10.3178542066262"/>
    <line x1="12.0149154335935" y1="10.3178542066262" x2="12.0223978300374" y2="10.2518944548743"/>
    <line x1="12.0223978300374" y1="10.2518944548743" x2="12.0223478889457" y2="10.1797957036457"/>
    <line x1="12.0223478889457" y1="10.1797957036457" x2="11.9756278478456" y2="10.1541111437002"/>
    <line x1="11.9756278478456" y1="10.1541111437002" x2="11.9147260990143" y2="10.1927014198347"/>
    <line x1="11.9147260990143" y1="10.1927014198347" x2="11.8630437071563" y2="10.2343620184808"/>
    <line x1="11.8630437071563" y1="10.2343620184808" x2="11.8285585388003" y2="10.2698501235765"/>
    <line x1="11.8285585388003" y1="10.2698501235765" x2="11.8088207136" y2="10.2957764544818"/>
    <line x1="11.8088207136" y1="10.2957764544818" x2="11.8037635266793" y2="10.3021381882672"/>
    <line x1="11.8037635266793" y1="10.3021381882672" x2="11.7962030074416" y2="10.3051190178771"/>
    <line x1="11.7962030074416" y1="10.3051190178771" x2="11.7881649909109" y2="10.3039202324248"/>
    <line x1="11.7881649909109" y1="10.3039202324248" x2="11.7443361336282" y2="10.286567160233"/>
    <line x1="11.7443361336282" y1="10.286567160233" x2="11.7376560466386" y2="10.2819386362653"/>
    <line x1="11.7376560466386" y1="10.2819386362653" x2="11.7341851835901" y2="10.2745901734324"/>
    <line x1="11.7341851835901" y1="10.2745901734324" x2="11.7348535594334" y2="10.2664907864162"/>
    <line x1="11.7348535594334" y1="10.2664907864162" x2="11.7382130988773" y2="10.2340798334439"/>
    <line x1="11.7382130988773" y1="10.2340798334439" x2="11.7373677726726" y2="10.1846033959869"/>
    <line x1="11.7373677726726" y1="10.1846033959869" x2="11.7282115726525" y2="10.1188550948004"/>
    <line x1="11.7282115726525" y1="10.1188550948004" x2="11.7102329702443" y2="10.0490338782664"/>
    <line x1="11.7102329702443" y1="10.0490338782664" x2="11.6585932348327" y2="10.0357750477518"/>
    <line x1="11.6585932348327" y1="10.0357750477518" x2="11.609201837849" y2="10.0882985884439"/>
    <line x1="11.609201837849" y1="10.0882985884439" x2="11.569503712945" y2="10.1415032309747"/>
    <line x1="11.569503712945" y1="10.1415032309747" x2="11.5449274924186" y2="10.1844525246181"/>
    <line x1="11.5449274924186" y1="10.1844525246181" x2="11.5322573835998" y2="10.2144729296847"/>
    <line x1="11.5322573835998" y1="10.2144729296847" x2="11.5289411763629" y2="10.2218924691495"/>
    <line x1="11.5289411763629" y1="10.2218924691495" x2="11.5223594869192" y2="10.226659875192"/>
    <line x1="11.5223594869192" y1="10.226659875192" x2="11.5142758736399" y2="10.2274977252132"/>
    <line x1="11.5142758736399" y1="10.2274977252132" x2="11.467508446939" y2="10.2215896252665"/>
    <line x1="11.467508446939" y1="10.2215896252665" x2="11.4598871600628" y2="10.2187677849702"/>
    <line x1="11.4598871600628" y1="10.2187677849702" x2="11.4546978521666" y2="10.21251335615"/>
    <line x1="11.4546978521666" y1="10.21251335615" x2="11.4533309941106" y2="10.2045022079575"/>
    <line x1="11.4533309941106" y1="10.2045022079575" x2="11.4485247112076" y2="10.1722740211872"/>
    <line x1="11.4485247112076" y1="10.1722740211872" x2="11.4354016528315" y2="10.1245622010722"/>
    <line x1="11.4354016528315" y1="10.1245622010722" x2="11.4101821740688" y2="10.06315655802"/>
    <line x1="11.4101821740688" y1="10.06315655802" x2="11.375404572054" y2="10.0"/>
    <line x1="11.375404572054" y1="10.0" x2="11.3220898568246" y2="10.0"/>
    <line x1="11.3220898568246" y1="10.0" x2="11.2873122548098" y2="10.06315655802"/>
    <line x1="11.2873122548098" y1="10.06315655802" x2="11.262092776047" y2="10.1245622010722"/>
    <line x1="11.262092776047" y1="10.1245622010722" x2="11.248969717671" y2="10.1722740211872"/>
    <line x1="11.248969717671" y1="10.1722740211872" x2="11.244163434768" y2="10.2045022079575"/>
    <line x1="11.244163434768" y1="10.2045022079575" x2="11.2427965767119" y2="10.21251335615"/>
    <line x1="11.2427965767119" y1="10.21251335615" x2="11.2376072688157" y2="10.2187677849702"/>
    <line x1="11.2376072688157" y1="10.2187677849702" x2="11.2299859819395" y2="10.2215896252665"/>
    <line x1="11.2299859819395" y1="10.2215896252665" x2="11.1832185552386" y2="10.2274977252132"/>
    <line x1="11.1832185552386" y1="10.2274977252132" x2="11.1751349419593" y2="10.226659875192"/>
    <line x1="11.1751349419593" y1="10.226659875192" x2="11.1685532525156" y2="10.2218924691495"/>
    <line x1="11.1685532525156" y1="10.2218924691495" x2="11.1652370452788" y2="10.2144729296847"/>
    <line x1="11.1652370452788" y1="10.2144729296847" x2="11.1525669364599" y2="10.1844525246181"/>
    <line x1="11.1525669364599" y1="10.1844525246181" x2="11.1279907159335" y2="10.1415032309747"/>
    <line x1="11.1279907159335" y1="10.1415032309747" x2="11.0882925910295" y2="10.0882985884439"/>
    <line x1="11.3487472144393" y1="11.2247367824547" x2="11.3650629884501" y2="11.2258061747819"/>
    <line x1="11.3650629884501" y1="11.2258061747819" x2="11.3810995950441" y2="11.2289960541643"/>
    <line x1="11.3810995950441" y1="11.2289960541643" x2="11.3965826434361" y2="11.2342518408811"/>
    <line x1="11.3965826434361" y1="11.2342518408811" x2="11.4112472143755" y2="11.2414836069646"/>
    <line x1="11.4112472143755" y1="11.2414836069646" x2="11.4248423929877" y2="11.250567614892"/>
    <line x1="11.4248423929877" y1="11.250567614892" x2="11.4371355619974" y2="11.2613484347691"/>
    <line x1="11.4371355619974" y1="11.2613484347691" x2="11.4479163818745" y2="11.2736416037788"/>
    <line x1="11.4479163818745" y1="11.2736416037788" x2="11.4570003898019" y2="11.287236782391"/>
    <line x1="11.4570003898019" y1="11.287236782391" x2="11.4642321558854" y2="11.3019013533304"/>
    <line x1="11.4642321558854" y1="11.3019013533304" x2="11.4694879426022" y2="11.3173844017224"/>
    <line x1="11.4694879426022" y1="11.3173844017224" x2="11.4726778219846" y2="11.3334210083164"/>
    <line x1="11.4726778219846" y1="11.3334210083164" x2="11.4737472143118" y2="11.3497367823272"/>
    <line x1="11.4737472143118" y1="11.3497367823272" x2="11.4726778219846" y2="11.3660525563381"/>
    <line x1="11.4726778219846" y1="11.3660525563381" x2="11.4694879426022" y2="11.3820891629321"/>
    <line x1="11.4694879426022" y1="11.3820891629321" x2="11.4642321558854" y2="11.3975722113241"/>
    <line x1="11.4642321558854" y1="11.3975722113241" x2="11.4570003898019" y2="11.4122367822635"/>
    <line x1="11.4570003898019" y1="11.4122367822635" x2="11.4479163818745" y2="11.4258319608757"/>
    <line x1="11.4479163818745" y1="11.4258319608757" x2="11.4371355619974" y2="11.4381251298854"/>
    <line x1="11.4371355619974" y1="11.4381251298854" x2="11.4248423929877" y2="11.4489059497625"/>
    <line x1="11.4248423929877" y1="11.4489059497625" x2="11.4112472143755" y2="11.4579899576899"/>
    <line x1="11.4112472143755" y1="11.4579899576899" x2="11.3965826434361" y2="11.4652217237734"/>
    <line x1="11.3965826434361" y1="11.4652217237734" x2="11.3810995950441" y2="11.4704775104902"/>
    <line x1="11.3810995950441" y1="11.4704775104902" x2="11.3650629884501" y2="11.4736673898726"/>
    <line x1="11.3650629884501" y1="11.4736673898726" x2="11.3487472144393" y2="11.4747367821997"/>
    <line x1="11.3487472144393" y1="11.4747367821997" x2="11.3324314404284" y2="11.4736673898726"/>
    <line x1="11.3324314404284" y1="11.4736673898726" x2="11.3163948338345" y2="11.4704775104902"/>
    <line x1="11.3163948338345" y1="11.4704775104902" x2="11.3009117854424" y2="11.4652217237734"/>
    <line x1="11.3009117854424" y1="11.4652217237734" x2="11.286247214503" y2="11.4579899576899"/>
    <line x1="11.286247214503" y1="11.4579899576899" x2="11.2726520358908" y2="11.4489059497625"/>
    <line x1="11.2726520358908" y1="11.4489059497625" x2="11.2603588668811" y2="11.4381251298854"/>
    <line x1="11.2603588668811" y1="11.4381251298854" x2="11.249578047004" y2="11.4258319608757"/>
    <line x1="11.249578047004" y1="11.4258319608757" x2="11.2404940390766" y2="11.4122367822635"/>
    <line x1="11.2404940390766" y1="11.4122367822635" x2="11.2332622729932" y2="11.3975722113241"/>
    <line x1="11.2332622729932" y1="11.3975722113241" x2="11.2280064862763" y2="11.3820891629321"/>
    <line x1="11.2280064862763" y1="11.3820891629321" x2="11.2248166068939" y2="11.3660525563381"/>
    <line x1="11.2248166068939" y1="11.3660525563381" x2="11.2237472145668" y2="11.3497367823272"/>
    <line x1="11.2237472145668" y1="11.3497367823272" x2="11.2248166068939" y2="11.3334210083164"/>
    <line x1="11.2248166068939" y1="11.3334210083164" x2="11.2280064862763" y2="11.3173844017224"/>
    <line x1="11.2280064862763" y1="11.3173844017224" x2="11.2332622729932" y2="11.3019013533304"/>
    <line x1="11.2332622729932" y1="11.3019013533304" x2="11.2404940390766" y2="11.287236782391"/>
    <line x1="11.2404940390766" y1="11.287236782391" x2="11.249578047004" y2="11.2736416037788"/>
    <line x1="11.249578047004" y1="11.2736416037788" x2="11.2603588668811" y2="11.2613484347691"/>
    <line x1="11.2603588668811" y1="11.2613484347691" x2="11.2726520358908" y2="11.250567614892"/>
    <line x1="11.2726520358908" y1="11.250567614892" x2="11.286247214503" y2="11.2414836069646"/>
    <line x1="11.286247214503" y1="11.2414836069646" x2="11.3009117854424" y2="11.2342518408811"/>
    <line x1="11.3009117854424" y1="11.2342518408811" x2="11.3163948338345" y2="11.2289960541643"/>
    <line x1="11.3163948338345" y1="11.2289960541643" x2="11.3324314404284" y2="11.2258061747819"/>
    <line x1="11.3324314404284" y1="11.2258061747819" x2="11.3487472144393" y2="11.2247367824547"/>
  </g>
</svg>
