<?xml version="1.0" standalone="no"?>
<!DOCTYPE svg PUBLIC "-//W3C//DTD SVG 1.1//EN" "http://www.w3.org/Graphics/SVG/1.1/DTD/svg11.dtd">
<svg width="22.1994080849494in" height="22.1994080849494in"
 viewBox="0 0 22.1994080849494 22.1994080849494"
 xmlns="http://www.w3.org/2000/svg" version="1.1"
 xmlns:xlink="http://www.w3.org/1999/xlink">
<desc>Output from Flights of Ideas SVG Sketchup Plugin</desc>

  <g id="face0" fill="none" stroke="rgb(0,0,255)" stroke-width="1" stroke-miterlimit="4" stroke-dasharray="none" stroke-linejoin="round" stroke-linecap="round">
    <line x1="10.8183333013771" y1="10.0756275737063" x2="10.7841430352762" y2="10.0459387705723"/>
    <line x1="10.7841430352762" y1="10.0459387705723" x2="10.7356105738582" y2="10.0617079231937"/>
    <line x1="10.7356105738582" y1="10.0617079231937" x2="10.7254007081807" y2="10.1058232036578"/>
    <line x1="10.7254007081807" y1="10.1058232036578" x2="10.7175522832787" y2="10.1661521418845"/>
    <line x1="10.7175522832787" y1="10.1661521418845" x2="10.7171812744127" y2="10.2134686760168"/>
    <line x1="10.7171812744127" y1="10.2134686760168" x2="10.7209980595075" y2="10.2470511761929"/>
    <line x1="10.7209980595075" y1="10.2470511761929" x2="10.7256731674015" y2="10.2667844546115"/>
    <line x1="10.7256731674015" y1="10.2667844546115" x2="10.7305231595309" y2="10.2789084077297"/>
    <line x1="10.7305231595309" y1="10.2789084077297" x2="10.7318249455757" y2="10.2869303868746"/>
    <line x1="10.7318249455757" y1="10.2869303868746" x2="10.7289413357884" y2="10.2945285176251"/>
    <line x1="10.7289413357884" y1="10.2945285176251" x2="10.7226449910828" y2="10.2996668869827"/>
    <line x1="10.7226449910828" y1="10.2996668869827" x2="10.6740901372019" y2="10.3244068207315"/>
    <line x1="10.6740901372019" y1="10.3244068207315" x2="10.6662322105069" y2="10.3264804128716"/>
    <line x1="10.6662322105069" y1="10.3264804128716" x2="10.6583902502979" y2="10.3243472329945"/>
    <line x1="10.6583902502979" y1="10.3243472329945" x2="10.6526655034799" y2="10.3185788649256"/>
    <line x1="10.6526655034799" y1="10.3185788649256" x2="10.6457077732157" y2="10.3075288580281"/>
    <line x1="10.6457077732157" y1="10.3075288580281" x2="10.6324911750932" y2="10.2921476862574"/>
    <line x1="10.6324911750932" y1="10.2921476862574" x2="10.6075658117271" y2="10.2693205439133"/>
    <line x1="10.6075658117271" y1="10.2693205439133" x2="10.5690678579592" y2="10.2418087354383"/>
    <line x1="10.5690678579592" y1="10.2418087354383" x2="10.5156475332701" y2="10.212697784387"/>
    <line x1="10.5156475332701" y1="10.212697784387" x2="10.4739563131899" y2="10.1950274279728"/>
    <line x1="10.4739563131899" y1="10.1950274279728" x2="10.4326721356534" y2="10.2250221386868"/>
    <line x1="10.4326721356534" y1="10.2250221386868" x2="10.4365943477453" y2="10.270133285645"/>
    <line x1="10.4365943477453" y1="10.270133285645" x2="10.4477727192643" y2="10.3299348121405"/>
    <line x1="10.4477727192643" y1="10.3299348121405" x2="10.4620414820265" y2="10.3750501583002"/>
    <line x1="10.4620414820265" y1="10.3750501583002" x2="10.4760490236302" y2="10.405809562468"/>
    <line x1="10.4760490236302" y1="10.405809562468" x2="10.4865932338433" y2="10.4231323377061"/>
    <line x1="10.4865932338433" y1="10.4231323377061" x2="10.4949523580144" y2="10.4331641723319"/>
    <line x1="10.4949523580144" y1="10.4331641723319" x2="10.4986693579995" y2="10.4403912538603"/>
    <line x1="10.4986693579995" y1="10.4403912538603" x2="10.4982748336482" y2="10.4485085900517"/>
    <line x1="10.4982748336482" y1="10.4485085900517" x2="10.4938744974419" y2="10.4553411472288"/>
    <line x1="10.4938744974419" y1="10.4553411472288" x2="10.4553411472288" y2="10.4938744974419"/>
    <line x1="10.4553411472288" y1="10.4938744974419" x2="10.4485085900517" y2="10.4982748336482"/>
    <line x1="10.4485085900517" y1="10.4982748336482" x2="10.4403912538603" y2="10.4986693579995"/>
    <line x1="10.4403912538603" y1="10.4986693579995" x2="10.4331641723319" y2="10.4949523580144"/>
    <line x1="10.4331641723319" y1="10.4949523580144" x2="10.4231323377061" y2="10.4865932338433"/>
    <line x1="10.4231323377061" y1="10.4865932338433" x2="10.405809562468" y2="10.4760490236302"/>
    <line x1="10.405809562468" y1="10.4760490236302" x2="10.3750501583002" y2="10.4620414820265"/>
    <line x1="10.3750501583002" y1="10.4620414820265" x2="10.3299348121405" y2="10.4477727192643"/>
    <line x1="10.3299348121405" y1="10.4477727192643" x2="10.270133285645" y2="10.4365943477453"/>
    <line x1="10.270133285645" y1="10.4365943477453" x2="10.2250221386868" y2="10.4326721356534"/>
    <line x1="10.2250221386868" y1="10.4326721356534" x2="10.1950274279728" y2="10.4739563131899"/>
    <line x1="10.1950274279728" y1="10.4739563131899" x2="10.212697784387" y2="10.5156475332701"/>
    <line x1="10.212697784387" y1="10.5156475332701" x2="10.2418087354383" y2="10.5690678579592"/>
    <line x1="10.2418087354383" y1="10.5690678579592" x2="10.2693205439133" y2="10.6075658117271"/>
    <line x1="10.2693205439133" y1="10.6075658117271" x2="10.2921476862574" y2="10.6324911750932"/>
    <line x1="10.2921476862574" y1="10.6324911750932" x2="10.3075288580281" y2="10.6457077732157"/>
    <line x1="10.3075288580281" y1="10.6457077732157" x2="10.3185788649256" y2="10.6526655034799"/>
    <line x1="10.3185788649256" y1="10.6526655034799" x2="10.3243472329945" y2="10.6583902502979"/>
    <line x1="10.3243472329945" y1="10.6583902502979" x2="10.3264804128716" y2="10.6662322105069"/>
    <line x1="10.3264804128716" y1="10.6662322105069" x2="10.3244068207315" y2="10.6740901372019"/>
    <line x1="10.3244068207315" y1="10.6740901372019" x2="10.2996668869827" y2="10.7226449910828"/>
    <line x1="10.2996668869827" y1="10.7226449910828" x2="10.2945285176251" y2="10.7289413357884"/>
    <line x1="10.2945285176251" y1="10.7289413357884" x2="10.2869303868746" y2="10.7318249455757"/>
    <line x1="10.2869303868746" y1="10.7318249455757" x2="10.2789084077297" y2="10.7305231595309"/>
    <line x1="10.2789084077297" y1="10.7305231595309" x2="10.2667844546115" y2="10.7256731674015"/>
    <line x1="10.2667844546115" y1="10.7256731674015" x2="10.2470511761929" y2="10.7209980595075"/>
    <line x1="10.2470511761929" y1="10.7209980595075" x2="10.2134686760168" y2="10.7171812744127"/>
    <line x1="10.2134686760168" y1="10.7171812744127" x2="10.1661521418845" y2="10.7175522832787"/>
    <line x1="10.1661521418845" y1="10.7175522832787" x2="10.1058232036578" y2="10.7254007081807"/>
    <line x1="10.1058232036578" y1="10.7254007081807" x2="10.0617079231937" y2="10.7356105738582"/>
    <line x1="10.0617079231937" y1="10.7356105738582" x2="10.0459387705723" y2="10.7841430352762"/>
    <line x1="10.0459387705723" y1="10.7841430352762" x2="10.0756275737063" y2="10.8183333013771"/>
    <line x1="10.0756275737063" y1="10.8183333013771" x2="10.1198215215731" y2="10.860143270678"/>
    <line x1="10.1198215215731" y1="10.860143270678" x2="10.1578833282613" y2="10.8882553841082"/>
    <line x1="10.1578833282613" y1="10.8882553841082" x2="10.1872955916071" y2="10.9049068384413"/>
    <line x1="10.1872955916071" y1="10.9049068384413" x2="10.2060081086756" y2="10.9127235267383"/>
    <line x1="10.2060081086756" y1="10.9127235267383" x2="10.2186673466345" y2="10.9159260815255"/>
    <line x1="10.2186673466345" y1="10.9159260815255" x2="10.2259224347301" y2="10.9195881155277"/>
    <line x1="10.2259224347301" y1="10.9195881155277" x2="10.2303745083264" y2="10.9263870740509"/>
    <line x1="10.2303745083264" y1="10.9263870740509" x2="10.2308306378987" y2="10.9345011816495"/>
    <line x1="10.2308306378987" y1="10.9345011816495" x2="10.2223058377028" y2="10.9883246517987"/>
    <line x1="10.2223058377028" y1="10.9883246517987" x2="10.2193646355586" y2="10.9959006749148"/>
    <line x1="10.2193646355586" y1="10.9959006749148" x2="10.2130294682261" y2="11.0009911023208"/>
    <line x1="10.2130294682261" y1="11.0009911023208" x2="10.2049978386759" y2="11.0022319581043"/>
    <line x1="10.2049978386759" y1="11.0022319581043" x2="10.191968544069" y2="11.0013658490383"/>
    <line x1="10.191968544069" y1="11.0013658490383" x2="10.1717563932513" y2="11.0030174755973"/>
    <line x1="10.1717563932513" y1="11.0030174755973" x2="10.1386380861672" y2="11.0097650605297"/>
    <line x1="10.1386380861672" y1="11.0097650605297" x2="10.0937520360968" y2="11.0247395240911"/>
    <line x1="10.0937520360968" y1="11.0247395240911" x2="10.0388011029489" y2="11.0508464869015"/>
    <line x1="10.0388011029489" y1="11.0508464869015" x2="10.0" y2="11.0741890175595"/>
    <line x1="10.0" y1="11.0741890175595" x2="10.0" y2="11.1252190673899"/>
    <line x1="10.0" y1="11.1252190673899" x2="10.0388011029489" y2="11.1485615980479"/>
    <line x1="10.0388011029489" y1="11.1485615980479" x2="10.0937520360968" y2="11.1746685608583"/>
    <line x1="10.0937520360968" y1="11.1746685608583" x2="10.1386380861672" y2="11.1896430244197"/>
    <line x1="10.1386380861672" y1="11.1896430244197" x2="10.1717563932513" y2="11.196390609352"/>
    <line x1="10.1717563932513" y1="11.196390609352" x2="10.191968544069" y2="11.1980422359111"/>
    <line x1="10.191968544069" y1="11.1980422359111" x2="10.2049978386759" y2="11.1971761268451"/>
    <line x1="10.2049978386759" y1="11.1971761268451" x2="10.2130294682261" y2="11.1984169826286"/>
    <line x1="10.2130294682261" y1="11.1984169826286" x2="10.2193646355586" y2="11.2035074100346"/>
    <line x1="10.2193646355586" y1="11.2035074100346" x2="10.2223058377028" y2="11.2110834331506"/>
    <line x1="10.2223058377028" y1="11.2110834331506" x2="10.2308306378987" y2="11.2649069032999"/>
    <line x1="10.2308306378987" y1="11.2649069032999" x2="10.2303745083264" y2="11.2730210108985"/>
    <line x1="10.2303745083264" y1="11.2730210108985" x2="10.2259224347301" y2="11.2798199694217"/>
    <line x1="10.2259224347301" y1="11.2798199694217" x2="10.2186673466345" y2="11.2834820034239"/>
    <line x1="10.2186673466345" y1="11.2834820034239" x2="10.2060081086756" y2="11.2866845582111"/>
    <line x1="10.2060081086756" y1="11.2866845582111" x2="10.1872955916071" y2="11.2945012465081"/>
    <line x1="10.1872955916071" y1="11.2945012465081" x2="10.1578833282613" y2="11.3111527008412"/>
    <line x1="10.1578833282613" y1="11.3111527008412" x2="10.1198215215731" y2="11.3392648142714"/>
    <line x1="10.1198215215731" y1="11.3392648142714" x2="10.0756275737063" y2="11.3810747835723"/>
    <line x1="10.0756275737063" y1="11.3810747835723" x2="10.0459387705723" y2="11.4152650496732"/>
    <line x1="10.0459387705723" y1="11.4152650496732" x2="10.0617079231937" y2="11.4637975110912"/>
    <line x1="10.0617079231937" y1="11.4637975110912" x2="10.1058232036578" y2="11.4740073767687"/>
    <line x1="10.1058232036578" y1="11.4740073767687" x2="10.1661521418845" y2="11.4818558016707"/>
    <line x1="10.1661521418845" y1="11.4818558016707" x2="10.2134686760168" y2="11.4822268105366"/>
    <line x1="10.2134686760168" y1="11.4822268105366" x2="10.2470511761929" y2="11.4784100254419"/>
    <line x1="10.2470511761929" y1="11.4784100254419" x2="10.2667844546115" y2="11.4737349175479"/>
    <line x1="10.2667844546115" y1="11.4737349175479" x2="10.2789084077297" y2="11.4688849254185"/>
    <line x1="10.2789084077297" y1="11.4688849254185" x2="10.2869303868746" y2="11.4675831393737"/>
    <line x1="10.2869303868746" y1="11.4675831393737" x2="10.2945285176251" y2="11.470466749161"/>
    <line x1="10.2945285176251" y1="11.470466749161" x2="10.2996668869827" y2="11.4767630938666"/>
    <line x1="10.2996668869827" y1="11.4767630938666" x2="10.3244068207315" y2="11.5253179477475"/>
    <line x1="10.3244068207315" y1="11.5253179477475" x2="10.3264804128716" y2="11.5331758744425"/>
    <line x1="10.3264804128716" y1="11.5331758744425" x2="10.3243472329945" y2="11.5410178346515"/>
    <line x1="10.3243472329945" y1="11.5410178346515" x2="10.3185788649256" y2="11.5467425814694"/>
    <line x1="10.3185788649256" y1="11.5467425814694" x2="10.3075288580281" y2="11.5537003117337"/>
    <line x1="10.3075288580281" y1="11.5537003117337" x2="10.2921476862574" y2="11.5669169098561"/>
    <line x1="10.2921476862574" y1="11.5669169098561" x2="10.2693205439133" y2="11.5918422732223"/>
    <line x1="10.2693205439133" y1="11.5918422732223" x2="10.2418087354383" y2="11.6303402269902"/>
    <line x1="10.2418087354383" y1="11.6303402269902" x2="10.212697784387" y2="11.6837605516793"/>
    <line x1="10.212697784387" y1="11.6837605516793" x2="10.1950274279728" y2="11.7254517717595"/>
    <line x1="10.1950274279728" y1="11.7254517717595" x2="10.2250221386868" y2="11.766735949296"/>
    <line x1="10.2250221386868" y1="11.766735949296" x2="10.270133285645" y2="11.762813737204"/>
    <line x1="10.270133285645" y1="11.762813737204" x2="10.3299348121405" y2="11.7516353656851"/>
    <line x1="10.3299348121405" y1="11.7516353656851" x2="10.3750501583002" y2="11.7373666029228"/>
    <line x1="10.3750501583002" y1="11.7373666029228" x2="10.405809562468" y2="11.7233590613192"/>
    <line x1="10.405809562468" y1="11.7233590613192" x2="10.4231323377061" y2="11.7128148511061"/>
    <line x1="10.4231323377061" y1="11.7128148511061" x2="10.4331641723319" y2="11.704455726935"/>
    <line x1="10.4331641723319" y1="11.704455726935" x2="10.4403912538603" y2="11.7007387269499"/>
    <line x1="10.4403912538603" y1="11.7007387269499" x2="10.4485085900517" y2="11.7011332513012"/>
    <line x1="10.4485085900517" y1="11.7011332513012" x2="10.4553411472288" y2="11.7055335875075"/>
    <line x1="10.4553411472288" y1="11.7055335875075" x2="10.4938744974419" y2="11.7440669377206"/>
    <line x1="10.4938744974419" y1="11.7440669377206" x2="10.4982748336482" y2="11.7508994948977"/>
    <line x1="10.4982748336482" y1="11.7508994948977" x2="10.4986693579995" y2="11.7590168310891"/>
    <line x1="10.4986693579995" y1="11.7590168310891" x2="10.4949523580144" y2="11.7662439126175"/>
    <line x1="10.4949523580144" y1="11.7662439126175" x2="10.4865932338433" y2="11.7762757472433"/>
    <line x1="10.4865932338433" y1="11.7762757472433" x2="10.4760490236302" y2="11.7935985224814"/>
    <line x1="10.4760490236302" y1="11.7935985224814" x2="10.4620414820265" y2="11.8243579266492"/>
    <line x1="10.4620414820265" y1="11.8243579266492" x2="10.4477727192643" y2="11.8694732728089"/>
    <line x1="10.4477727192643" y1="11.8694732728089" x2="10.4365943477453" y2="11.9292747993044"/>
    <line x1="10.4365943477453" y1="11.9292747993044" x2="10.4326721356534" y2="11.9743859462625"/>
    <line x1="10.4326721356534" y1="11.9743859462625" x2="10.4739563131899" y2="12.0043806569766"/>
    <line x1="10.4739563131899" y1="12.0043806569766" x2="10.5156475332701" y2="11.9867103005624"/>
    <line x1="10.5156475332701" y1="11.9867103005624" x2="10.5690678579592" y2="11.9575993495111"/>
    <line x1="10.5690678579592" y1="11.9575993495111" x2="10.6075658117271" y2="11.9300875410361"/>
    <line x1="10.6075658117271" y1="11.9300875410361" x2="10.6324911750932" y2="11.907260398692"/>
    <line x1="10.6324911750932" y1="11.907260398692" x2="10.6457077732157" y2="11.8918792269213"/>
    <line x1="10.6457077732157" y1="11.8918792269213" x2="10.6526655034799" y2="11.8808292200237"/>
    <line x1="10.6526655034799" y1="11.8808292200237" x2="10.6583902502979" y2="11.8750608519548"/>
    <line x1="10.6583902502979" y1="11.8750608519548" x2="10.6662322105069" y2="11.8729276720777"/>
    <line x1="10.6662322105069" y1="11.8729276720777" x2="10.6740901372019" y2="11.8750012642179"/>
    <line x1="10.6740901372019" y1="11.8750012642179" x2="10.7226449910828" y2="11.8997411979667"/>
    <line x1="10.7226449910828" y1="11.8997411979667" x2="10.7289413357884" y2="11.9048795673242"/>
    <line x1="10.7289413357884" y1="11.9048795673242" x2="10.7318249455757" y2="11.9124776980748"/>
    <line x1="10.7318249455757" y1="11.9124776980748" x2="10.7305231595309" y2="11.9204996772197"/>
    <line x1="10.7305231595309" y1="11.9204996772197" x2="10.7256731674015" y2="11.9326236303379"/>
    <line x1="10.7256731674015" y1="11.9326236303379" x2="10.7209980595075" y2="11.9523569087565"/>
    <line x1="10.7209980595075" y1="11.9523569087565" x2="10.7171812744127" y2="11.9859394089325"/>
    <line x1="10.7171812744127" y1="11.9859394089325" x2="10.7175522832787" y2="12.0332559430649"/>
    <line x1="10.7175522832787" y1="12.0332559430649" x2="10.7254007081807" y2="12.0935848812916"/>
    <line x1="10.7254007081807" y1="12.0935848812916" x2="10.7356105738582" y2="12.1377001617557"/>
    <line x1="10.7356105738582" y1="12.1377001617557" x2="10.7841430352762" y2="12.1534693143771"/>
    <line x1="10.7841430352762" y1="12.1534693143771" x2="10.8183333013771" y2="12.1237805112431"/>
    <line x1="10.8183333013771" y1="12.1237805112431" x2="10.860143270678" y2="12.0795865633762"/>
    <line x1="10.860143270678" y1="12.0795865633762" x2="10.8882553841082" y2="12.0415247566881"/>
    <line x1="10.8882553841082" y1="12.0415247566881" x2="10.9049068384413" y2="12.0121124933422"/>
    <line x1="10.9049068384413" y1="12.0121124933422" x2="10.9127235267383" y2="11.9933999762738"/>
    <line x1="10.9127235267383" y1="11.9933999762738" x2="10.9159260815255" y2="11.9807407383149"/>
    <line x1="10.9159260815255" y1="11.9807407383149" x2="10.9195881155277" y2="11.9734856502193"/>
    <line x1="10.9195881155277" y1="11.9734856502193" x2="10.9263870740509" y2="11.969033576623"/>
    <line x1="10.9263870740509" y1="11.969033576623" x2="10.9345011816495" y2="11.9685774470506"/>
    <line x1="10.9345011816495" y1="11.9685774470506" x2="10.9883246517987" y2="11.9771022472466"/>
    <line x1="10.9883246517987" y1="11.9771022472466" x2="10.9959006749148" y2="11.9800434493907"/>
    <line x1="10.9959006749148" y1="11.9800434493907" x2="11.0009911023208" y2="11.9863786167233"/>
    <line x1="11.0009911023208" y1="11.9863786167233" x2="11.0022319581043" y2="11.9944102462735"/>
    <line x1="11.0022319581043" y1="11.9944102462735" x2="11.0013658490383" y2="12.0074395408804"/>
    <line x1="11.0013658490383" y1="12.0074395408804" x2="11.0030174755973" y2="12.0276516916981"/>
    <line x1="11.0030174755973" y1="12.0276516916981" x2="11.0097650605297" y2="12.0607699987821"/>
    <line x1="11.0097650605297" y1="12.0607699987821" x2="11.0247395240911" y2="12.1056560488526"/>
    <line x1="11.0247395240911" y1="12.1056560488526" x2="11.0508464869015" y2="12.1606069820005"/>
    <line x1="11.0508464869015" y1="12.1606069820005" x2="11.0741890175595" y2="12.1994080849494"/>
    <line x1="11.0741890175595" y1="12.1994080849494" x2="11.1252190673899" y2="12.1994080849494"/>
    <line x1="11.1252190673899" y1="12.1994080849494" x2="11.1485615980479" y2="12.1606069820005"/>
    <line x1="11.1485615980479" y1="12.1606069820005" x2="11.1746685608583" y2="12.1056560488526"/>
    <line x1="11.1746685608583" y1="12.1056560488526" x2="11.1896430244197" y2="12.0607699987821"/>
    <line x1="11.1896430244197" y1="12.0607699987821" x2="11.196390609352" y2="12.0276516916981"/>
    <line x1="11.196390609352" y1="12.0276516916981" x2="11.1980422359111" y2="12.0074395408804"/>
    <line x1="11.1980422359111" y1="12.0074395408804" x2="11.1971761268451" y2="11.9944102462735"/>
    <line x1="11.1971761268451" y1="11.9944102462735" x2="11.1984169826286" y2="11.9863786167233"/>
    <line x1="11.1984169826286" y1="11.9863786167233" x2="11.2035074100346" y2="11.9800434493907"/>
    <line x1="11.2035074100346" y1="11.9800434493907" x2="11.2110834331506" y2="11.9771022472466"/>
    <line x1="11.2110834331506" y1="11.9771022472466" x2="11.2649069032999" y2="11.9685774470506"/>
    <line x1="11.2649069032999" y1="11.9685774470506" x2="11.2730210108985" y2="11.969033576623"/>
    <line x1="11.2730210108985" y1="11.969033576623" x2="11.2798199694217" y2="11.9734856502193"/>
    <line x1="11.2798199694217" y1="11.9734856502193" x2="11.2834820034239" y2="11.9807407383149"/>
    <line x1="11.2834820034239" y1="11.9807407383149" x2="11.2866845582111" y2="11.9933999762738"/>
    <line x1="11.2866845582111" y1="11.9933999762738" x2="11.2945012465081" y2="12.0121124933422"/>
    <line x1="11.2945012465081" y1="12.0121124933422" x2="11.3111527008412" y2="12.0415247566881"/>
    <line x1="11.3111527008412" y1="12.0415247566881" x2="11.3392648142714" y2="12.0795865633762"/>
    <line x1="11.3392648142714" y1="12.0795865633762" x2="11.3810747835723" y2="12.1237805112431"/>
    <line x1="11.3810747835723" y1="12.1237805112431" x2="11.4152650496732" y2="12.1534693143771"/>
    <line x1="11.4152650496732" y1="12.1534693143771" x2="11.4637975110912" y2="12.1377001617557"/>
    <line x1="11.4637975110912" y1="12.1377001617557" x2="11.4740073767687" y2="12.0935848812916"/>
    <line x1="11.4740073767687" y1="12.0935848812916" x2="11.4818558016707" y2="12.0332559430649"/>
    <line x1="11.4818558016707" y1="12.0332559430649" x2="11.4822268105366" y2="11.9859394089325"/>
    <line x1="11.4822268105366" y1="11.9859394089325" x2="11.4784100254419" y2="11.9523569087565"/>
    <line x1="11.4784100254419" y1="11.9523569087565" x2="11.4737349175479" y2="11.9326236303379"/>
    <line x1="11.4737349175479" y1="11.9326236303379" x2="11.4688849254185" y2="11.9204996772197"/>
    <line x1="11.4688849254185" y1="11.9204996772197" x2="11.4675831393737" y2="11.9124776980748"/>
    <line x1="11.4675831393737" y1="11.9124776980748" x2="11.470466749161" y2="11.9048795673242"/>
    <line x1="11.470466749161" y1="11.9048795673242" x2="11.4767630938666" y2="11.8997411979667"/>
    <line x1="11.4767630938666" y1="11.8997411979667" x2="11.5253179477475" y2="11.8750012642179"/>
    <line x1="11.5253179477475" y1="11.8750012642179" x2="11.5331758744425" y2="11.8729276720777"/>
    <line x1="11.5331758744425" y1="11.8729276720777" x2="11.5410178346515" y2="11.8750608519548"/>
    <line x1="11.5410178346515" y1="11.8750608519548" x2="11.5467425814694" y2="11.8808292200237"/>
    <line x1="11.5467425814694" y1="11.8808292200237" x2="11.5537003117337" y2="11.8918792269213"/>
    <line x1="11.5537003117337" y1="11.8918792269213" x2="11.5669169098561" y2="11.907260398692"/>
    <line x1="11.5669169098561" y1="11.907260398692" x2="11.5918422732223" y2="11.9300875410361"/>
    <line x1="11.5918422732223" y1="11.9300875410361" x2="11.6303402269902" y2="11.9575993495111"/>
    <line x1="11.6303402269902" y1="11.9575993495111" x2="11.6837605516793" y2="11.9867103005624"/>
    <line x1="11.6837605516793" y1="11.9867103005624" x2="11.7254517717595" y2="12.0043806569766"/>
    <line x1="11.7254517717595" y1="12.0043806569766" x2="11.766735949296" y2="11.9743859462625"/>
    <line x1="11.766735949296" y1="11.9743859462625" x2="11.762813737204" y2="11.9292747993044"/>
    <line x1="11.762813737204" y1="11.9292747993044" x2="11.7516353656851" y2="11.8694732728089"/>
    <line x1="11.7516353656851" y1="11.8694732728089" x2="11.7373666029229" y2="11.8243579266492"/>
    <line x1="11.7373666029229" y1="11.8243579266492" x2="11.7233590613192" y2="11.7935985224814"/>
    <line x1="11.7233590613192" y1="11.7935985224814" x2="11.7128148511061" y2="11.7762757472433"/>
    <line x1="11.7128148511061" y1="11.7762757472433" x2="11.704455726935" y2="11.7662439126175"/>
    <line x1="11.704455726935" y1="11.7662439126175" x2="11.7007387269499" y2="11.7590168310891"/>
    <line x1="11.7007387269499" y1="11.7590168310891" x2="11.7011332513012" y2="11.7508994948977"/>
    <line x1="11.7011332513012" y1="11.7508994948977" x2="11.7055335875075" y2="11.7440669377206"/>
    <line x1="11.7055335875075" y1="11.7440669377206" x2="11.7440669377206" y2="11.7055335875075"/>
    <line x1="11.7440669377206" y1="11.7055335875075" x2="11.7508994948977" y2="11.7011332513012"/>
    <line x1="11.7508994948977" y1="11.7011332513012" x2="11.7590168310891" y2="11.7007387269499"/>
    <line x1="11.7590168310891" y1="11.7007387269499" x2="11.7662439126175" y2="11.704455726935"/>
    <line x1="11.7662439126175" y1="11.704455726935" x2="11.7762757472433" y2="11.7128148511061"/>
    <line x1="11.7762757472433" y1="11.7128148511061" x2="11.7935985224814" y2="11.7233590613192"/>
    <line x1="11.7935985224814" y1="11.7233590613192" x2="11.8243579266492" y2="11.7373666029228"/>
    <line x1="11.8243579266492" y1="11.7373666029228" x2="11.8694732728089" y2="11.7516353656851"/>
    <line x1="11.8694732728089" y1="11.7516353656851" x2="11.9292747993044" y2="11.762813737204"/>
    <line x1="11.9292747993044" y1="11.762813737204" x2="11.9743859462625" y2="11.766735949296"/>
    <line x1="11.9743859462625" y1="11.766735949296" x2="12.0043806569766" y2="11.7254517717595"/>
    <line x1="12.0043806569766" y1="11.7254517717595" x2="11.9867103005624" y2="11.6837605516793"/>
    <line x1="11.9867103005624" y1="11.6837605516793" x2="11.9575993495111" y2="11.6303402269902"/>
    <line x1="11.9575993495111" y1="11.6303402269902" x2="11.9300875410361" y2="11.5918422732223"/>
    <line x1="11.9300875410361" y1="11.5918422732223" x2="11.907260398692" y2="11.5669169098561"/>
    <line x1="11.907260398692" y1="11.5669169098561" x2="11.8918792269213" y2="11.5537003117337"/>
    <line x1="11.8918792269213" y1="11.5537003117337" x2="11.8808292200237" y2="11.5467425814694"/>
    <line x1="11.8808292200237" y1="11.5467425814694" x2="11.8750608519548" y2="11.5410178346515"/>
    <line x1="11.8750608519548" y1="11.5410178346515" x2="11.8729276720778" y2="11.5331758744425"/>
    <line x1="11.8729276720778" y1="11.5331758744425" x2="11.8750012642179" y2="11.5253179477475"/>
    <line x1="11.8750012642179" y1="11.5253179477475" x2="11.8997411979667" y2="11.4767630938666"/>
    <line x1="11.8997411979667" y1="11.4767630938666" x2="11.9048795673242" y2="11.470466749161"/>
    <line x1="11.9048795673242" y1="11.470466749161" x2="11.9124776980748" y2="11.4675831393737"/>
    <line x1="11.9124776980748" y1="11.4675831393737" x2="11.9204996772197" y2="11.4688849254185"/>
    <line x1="11.9204996772197" y1="11.4688849254185" x2="11.9326236303379" y2="11.4737349175479"/>
    <line x1="11.9326236303379" y1="11.4737349175479" x2="11.9523569087565" y2="11.4784100254419"/>
    <line x1="11.9523569087565" y1="11.4784100254419" x2="11.9859394089325" y2="11.4822268105366"/>
    <line x1="11.9859394089325" y1="11.4822268105366" x2="12.0332559430649" y2="11.4818558016707"/>
    <line x1="12.0332559430649" y1="11.4818558016707" x2="12.0935848812916" y2="11.4740073767687"/>
    <line x1="12.0935848812916" y1="11.4740073767687" x2="12.1377001617557" y2="11.4637975110912"/>
    <line x1="12.1377001617557" y1="11.4637975110912" x2="12.1534693143771" y2="11.4152650496732"/>
    <line x1="12.1534693143771" y1="11.4152650496732" x2="12.1237805112431" y2="11.3810747835723"/>
    <line x1="12.1237805112431" y1="11.3810747835723" x2="12.0795865633762" y2="11.3392648142714"/>
    <line x1="12.0795865633762" y1="11.3392648142714" x2="12.0415247566881" y2="11.3111527008412"/>
    <line x1="12.0415247566881" y1="11.3111527008412" x2="12.0121124933422" y2="11.2945012465081"/>
    <line x1="12.0121124933422" y1="11.2945012465081" x2="11.9933999762738" y2="11.2866845582111"/>
    <line x1="11.9933999762738" y1="11.2866845582111" x2="11.9807407383149" y2="11.2834820034239"/>
    <line x1="11.9807407383149" y1="11.2834820034239" x2="11.9734856502193" y2="11.2798199694217"/>
    <line x1="11.9734856502193" y1="11.2798199694217" x2="11.969033576623" y2="11.2730210108985"/>
    <line x1="11.969033576623" y1="11.2730210108985" x2="11.9685774470506" y2="11.2649069032999"/>
    <line x1="11.9685774470506" y1="11.2649069032999" x2="11.9771022472466" y2="11.2110834331506"/>
    <line x1="11.9771022472466" y1="11.2110834331506" x2="11.9800434493907" y2="11.2035074100346"/>
    <line x1="11.9800434493907" y1="11.2035074100346" x2="11.9863786167233" y2="11.1984169826286"/>
    <line x1="11.9863786167233" y1="11.1984169826286" x2="11.9944102462735" y2="11.1971761268451"/>
    <line x1="11.9944102462735" y1="11.1971761268451" x2="12.0074395408804" y2="11.1980422359111"/>
    <line x1="12.0074395408804" y1="11.1980422359111" x2="12.0276516916981" y2="11.196390609352"/>
    <line x1="12.0276516916981" y1="11.196390609352" x2="12.0607699987821" y2="11.1896430244197"/>
    <line x1="12.0607699987821" y1="11.1896430244197" x2="12.1056560488526" y2="11.1746685608583"/>
    <line x1="12.1056560488526" y1="11.1746685608583" x2="12.1606069820005" y2="11.1485615980479"/>
    <line x1="12.1606069820005" y1="11.1485615980479" x2="12.1994080849494" y2="11.1252190673899"/>
    <line x1="12.1994080849494" y1="11.1252190673899" x2="12.1994080849494" y2="11.0741890175595"/>
    <line x1="12.1994080849494" y1="11.0741890175595" x2="12.1606069820005" y2="11.0508464869015"/>
    <line x1="12.1606069820005" y1="11.0508464869015" x2="12.1056560488526" y2="11.0247395240911"/>
    <line x1="12.1056560488526" y1="11.0247395240911" x2="12.0607699987821" y2="11.0097650605297"/>
    <line x1="12.0607699987821" y1="11.0097650605297" x2="12.0276516916981" y2="11.0030174755973"/>
    <line x1="12.0276516916981" y1="11.0030174755973" x2="12.0074395408804" y2="11.0013658490383"/>
    <line x1="12.0074395408804" y1="11.0013658490383" x2="11.9944102462735" y2="11.0022319581043"/>
    <line x1="11.9944102462735" y1="11.0022319581043" x2="11.9863786167233" y2="11.0009911023208"/>
    <line x1="11.9863786167233" y1="11.0009911023208" x2="11.9800434493907" y2="10.9959006749148"/>
    <line x1="11.9800434493907" y1="10.9959006749148" x2="11.9771022472466" y2="10.9883246517987"/>
    <line x1="11.9771022472466" y1="10.9883246517987" x2="11.9685774470506" y2="10.9345011816495"/>
    <line x1="11.9685774470506" y1="10.9345011816495" x2="11.969033576623" y2="10.9263870740509"/>
    <line x1="11.969033576623" y1="10.9263870740509" x2="11.9734856502193" y2="10.9195881155277"/>
    <line x1="11.9734856502193" y1="10.9195881155277" x2="11.9807407383149" y2="10.9159260815255"/>
    <line x1="11.9807407383149" y1="10.9159260815255" x2="11.9933999762738" y2="10.9127235267383"/>
    <line x1="11.9933999762738" y1="10.9127235267383" x2="12.0121124933422" y2="10.9049068384413"/>
    <line x1="12.0121124933422" y1="10.9049068384413" x2="12.0415247566881" y2="10.8882553841082"/>
    <line x1="12.0415247566881" y1="10.8882553841082" x2="12.0795865633762" y2="10.860143270678"/>
    <line x1="12.0795865633762" y1="10.860143270678" x2="12.1237805112431" y2="10.8183333013771"/>
    <line x1="12.1237805112431" y1="10.8183333013771" x2="12.1534693143771" y2="10.7841430352762"/>
    <line x1="12.1534693143771" y1="10.7841430352762" x2="12.1377001617557" y2="10.7356105738582"/>
    <line x1="12.1377001617557" y1="10.7356105738582" x2="12.0935848812916" y2="10.7254007081807"/>
    <line x1="12.0935848812916" y1="10.7254007081807" x2="12.0332559430649" y2="10.7175522832787"/>
    <line x1="12.0332559430649" y1="10.7175522832787" x2="11.9859394089325" y2="10.7171812744127"/>
    <line x1="11.9859394089325" y1="10.7171812744127" x2="11.9523569087565" y2="10.7209980595075"/>
    <line x1="11.9523569087565" y1="10.7209980595075" x2="11.9326236303379" y2="10.7256731674015"/>
    <line x1="11.9326236303379" y1="10.7256731674015" x2="11.9204996772197" y2="10.7305231595309"/>
    <line x1="11.9204996772197" y1="10.7305231595309" x2="11.9124776980748" y2="10.7318249455757"/>
    <line x1="11.9124776980748" y1="10.7318249455757" x2="11.9048795673242" y2="10.7289413357884"/>
    <line x1="11.9048795673242" y1="10.7289413357884" x2="11.8997411979667" y2="10.7226449910828"/>
    <line x1="11.8997411979667" y1="10.7226449910828" x2="11.8750012642179" y2="10.6740901372019"/>
    <line x1="11.8750012642179" y1="10.6740901372019" x2="11.8729276720778" y2="10.6662322105069"/>
    <line x1="11.8729276720778" y1="10.6662322105069" x2="11.8750608519548" y2="10.6583902502979"/>
    <line x1="11.8750608519548" y1="10.6583902502979" x2="11.8808292200237" y2="10.6526655034799"/>
    <line x1="11.8808292200237" y1="10.6526655034799" x2="11.8918792269213" y2="10.6457077732157"/>
    <line x1="11.8918792269213" y1="10.6457077732157" x2="11.907260398692" y2="10.6324911750932"/>
    <line x1="11.907260398692" y1="10.6324911750932" x2="11.9300875410361" y2="10.6075658117271"/>
    <line x1="11.9300875410361" y1="10.6075658117271" x2="11.9575993495111" y2="10.5690678579592"/>
    <line x1="11.9575993495111" y1="10.5690678579592" x2="11.9867103005624" y2="10.5156475332701"/>
    <line x1="11.9867103005624" y1="10.5156475332701" x2="12.0043806569766" y2="10.4739563131899"/>
    <line x1="12.0043806569766" y1="10.4739563131899" x2="11.9743859462625" y2="10.4326721356534"/>
    <line x1="11.9743859462625" y1="10.4326721356534" x2="11.9292747993044" y2="10.4365943477453"/>
    <line x1="11.9292747993044" y1="10.4365943477453" x2="11.8694732728089" y2="10.4477727192643"/>
    <line x1="11.8694732728089" y1="10.4477727192643" x2="11.8243579266492" y2="10.4620414820265"/>
    <line x1="11.8243579266492" y1="10.4620414820265" x2="11.7935985224814" y2="10.4760490236302"/>
    <line x1="11.7935985224814" y1="10.4760490236302" x2="11.7762757472433" y2="10.4865932338433"/>
    <line x1="11.7762757472433" y1="10.4865932338433" x2="11.7662439126175" y2="10.4949523580144"/>
    <line x1="11.7662439126175" y1="10.4949523580144" x2="11.7590168310891" y2="10.4986693579995"/>
    <line x1="11.7590168310891" y1="10.4986693579995" x2="11.7508994948977" y2="10.4982748336482"/>
    <line x1="11.7508994948977" y1="10.4982748336482" x2="11.7440669377206" y2="10.4938744974419"/>
    <line x1="11.7440669377206" y1="10.4938744974419" x2="11.7055335875075" y2="10.4553411472288"/>
    <line x1="11.7055335875075" y1="10.4553411472288" x2="11.7011332513012" y2="10.4485085900517"/>
    <line x1="11.7011332513012" y1="10.4485085900517" x2="11.7007387269499" y2="10.4403912538603"/>
    <line x1="11.7007387269499" y1="10.4403912538603" x2="11.704455726935" y2="10.4331641723319"/>
    <line x1="11.704455726935" y1="10.4331641723319" x2="11.7128148511061" y2="10.4231323377061"/>
    <line x1="11.7128148511061" y1="10.4231323377061" x2="11.7233590613192" y2="10.405809562468"/>
    <line x1="11.7233590613192" y1="10.405809562468" x2="11.7373666029229" y2="10.3750501583002"/>
    <line x1="11.7373666029229" y1="10.3750501583002" x2="11.7516353656851" y2="10.3299348121405"/>
    <line x1="11.7516353656851" y1="10.3299348121405" x2="11.762813737204" y2="10.270133285645"/>
    <line x1="11.762813737204" y1="10.270133285645" x2="11.766735949296" y2="10.2250221386868"/>
    <line x1="11.766735949296" y1="10.2250221386868" x2="11.7254517717595" y2="10.1950274279728"/>
    <line x1="11.7254517717595" y1="10.1950274279728" x2="11.6837605516793" y2="10.212697784387"/>
    <line x1="11.6837605516793" y1="10.212697784387" x2="11.6303402269902" y2="10.2418087354383"/>
    <line x1="11.6303402269902" y1="10.2418087354383" x2="11.5918422732223" y2="10.2693205439133"/>
    <line x1="11.5918422732223" y1="10.2693205439133" x2="11.5669169098561" y2="10.2921476862574"/>
    <line x1="11.5669169098561" y1="10.2921476862574" x2="11.5537003117337" y2="10.3075288580281"/>
    <line x1="11.5537003117337" y1="10.3075288580281" x2="11.5467425814694" y2="10.3185788649256"/>
    <line x1="11.5467425814694" y1="10.3185788649256" x2="11.5410178346515" y2="10.3243472329945"/>
    <line x1="11.5410178346515" y1="10.3243472329945" x2="11.5331758744425" y2="10.3264804128716"/>
    <line x1="11.5331758744425" y1="10.3264804128716" x2="11.5253179477475" y2="10.3244068207315"/>
    <line x1="11.5253179477475" y1="10.3244068207315" x2="11.4767630938666" y2="10.2996668869827"/>
    <line x1="11.4767630938666" y1="10.2996668869827" x2="11.470466749161" y2="10.2945285176251"/>
    <line x1="11.470466749161" y1="10.2945285176251" x2="11.4675831393737" y2="10.2869303868746"/>
    <line x1="11.4675831393737" y1="10.2869303868746" x2="11.4688849254185" y2="10.2789084077297"/>
    <line x1="11.4688849254185" y1="10.2789084077297" x2="11.4737349175479" y2="10.2667844546115"/>
    <line x1="11.4737349175479" y1="10.2667844546115" x2="11.4784100254419" y2="10.2470511761929"/>
    <line x1="11.4784100254419" y1="10.2470511761929" x2="11.4822268105366" y2="10.2134686760168"/>
    <line x1="11.4822268105366" y1="10.2134686760168" x2="11.4818558016707" y2="10.1661521418845"/>
    <line x1="11.4818558016707" y1="10.1661521418845" x2="11.4740073767687" y2="10.1058232036578"/>
    <line x1="11.4740073767687" y1="10.1058232036578" x2="11.4637975110912" y2="10.0617079231937"/>
    <line x1="11.4637975110912" y1="10.0617079231937" x2="11.4152650496732" y2="10.0459387705723"/>
    <line x1="11.4152650496732" y1="10.0459387705723" x2="11.3810747835723" y2="10.0756275737063"/>
    <line x1="11.3810747835723" y1="10.0756275737063" x2="11.3392648142714" y2="10.1198215215731"/>
    <line x1="11.3392648142714" y1="10.1198215215731" x2="11.3111527008412" y2="10.1578833282613"/>
    <line x1="11.3111527008412" y1="10.1578833282613" x2="11.2945012465081" y2="10.1872955916071"/>
    <line x1="11.2945012465081" y1="10.1872955916071" x2="11.2866845582111" y2="10.2060081086756"/>
    <line x1="11.2866845582111" y1="10.2060081086756" x2="11.2834820034239" y2="10.2186673466345"/>
    <line x1="11.2834820034239" y1="10.2186673466345" x2="11.2798199694217" y2="10.2259224347301"/>
    <line x1="11.2798199694217" y1="10.2259224347301" x2="11.2730210108985" y2="10.2303745083264"/>
    <line x1="11.2730210108985" y1="10.2303745083264" x2="11.2649069032999" y2="10.2308306378987"/>
    <line x1="11.2649069032999" y1="10.2308306378987" x2="11.2110834331506" y2="10.2223058377028"/>
    <line x1="11.2110834331506" y1="10.2223058377028" x2="11.2035074100346" y2="10.2193646355586"/>
    <line x1="11.2035074100346" y1="10.2193646355586" x2="11.1984169826286" y2="10.2130294682261"/>
    <line x1="11.1984169826286" y1="10.2130294682261" x2="11.1971761268451" y2="10.2049978386759"/>
    <line x1="11.1971761268451" y1="10.2049978386759" x2="11.1980422359111" y2="10.191968544069"/>
    <line x1="11.1980422359111" y1="10.191968544069" x2="11.196390609352" y2="10.1717563932513"/>
    <line x1="11.196390609352" y1="10.1717563932513" x2="11.1896430244197" y2="10.1386380861672"/>
    <line x1="11.1896430244197" y1="10.1386380861672" x2="11.1746685608583" y2="10.0937520360968"/>
    <line x1="11.1746685608583" y1="10.0937520360968" x2="11.1485615980479" y2="10.0388011029489"/>
    <line x1="11.1485615980479" y1="10.0388011029489" x2="11.1252190673899" y2="10.0"/>
    <line x1="11.1252190673899" y1="10.0" x2="11.0741890175595" y2="10.0"/>
    <line x1="11.0741890175595" y1="10.0" x2="11.0508464869015" y2="10.0388011029489"/>
    <line x1="11.0508464869015" y1="10.0388011029489" x2="11.0247395240911" y2="10.0937520360968"/>
    <line x1="11.0247395240911" y1="10.0937520360968" x2="11.0097650605297" y2="10.1386380861672"/>
    <line x1="11.0097650605297" y1="10.1386380861672" x2="11.0030174755973" y2="10.1717563932513"/>
    <line x1="11.0030174755973" y1="10.1717563932513" x2="11.0013658490383" y2="10.191968544069"/>
    <line x1="11.0013658490383" y1="10.191968544069" x2="11.0022319581043" y2="10.2049978386759"/>
    <line x1="11.0022319581043" y1="10.2049978386759" x2="11.0009911023208" y2="10.2130294682261"/>
    <line x1="11.0009911023208" y1="10.2130294682261" x2="10.9959006749148" y2="10.2193646355586"/>
    <line x1="10.9959006749148" y1="10.2193646355586" x2="10.9883246517987" y2="10.2223058377028"/>
    <line x1="10.9883246517987" y1="10.2223058377028" x2="10.9345011816495" y2="10.2308306378987"/>
    <line x1="10.9345011816495" y1="10.2308306378987" x2="10.9263870740509" y2="10.2303745083264"/>
    <line x1="10.9263870740509" y1="10.2303745083264" x2="10.9195881155277" y2="10.2259224347301"/>
    <line x1="10.9195881155277" y1="10.2259224347301" x2="10.9159260815255" y2="10.2186673466345"/>
    <line x1="10.9159260815255" y1="10.2186673466345" x2="10.9127235267383" y2="10.2060081086756"/>
    <line x1="10.9127235267383" y1="10.2060081086756" x2="10.9049068384413" y2="10.1872955916071"/>
    <line x1="10.9049068384413" y1="10.1872955916071" x2="10.8882553841082" y2="10.1578833282613"/>
    <line x1="10.8882553841082" y1="10.1578833282613" x2="10.860143270678" y2="10.1198215215731"/>
    <line x1="10.860143270678" y1="10.1198215215731" x2="10.8183333013771" y2="10.0756275737063"/>
    <line x1="11.0997040424747" y1="10.9747040426022" x2="11.1160198164856" y2="10.9757734349294"/>
    <line x1="11.1160198164856" y1="10.9757734349294" x2="11.1320564230795" y2="10.9789633143117"/>
    <line x1="11.1320564230795" y1="10.9789633143117" x2="11.1475394714715" y2="10.9842191010286"/>
    <line x1="11.1475394714715" y1="10.9842191010286" x2="11.1622040424109" y2="10.9914508671121"/>
    <line x1="11.1622040424109" y1="10.9914508671121" x2="11.1757992210232" y2="11.0005348750394"/>
    <line x1="11.1757992210232" y1="11.0005348750394" x2="11.1880923900329" y2="11.0113156949165"/>
    <line x1="11.1880923900329" y1="11.0113156949165" x2="11.1988732099099" y2="11.0236088639262"/>
    <line x1="11.1988732099099" y1="11.0236088639262" x2="11.2079572178373" y2="11.0372040425384"/>
    <line x1="11.2079572178373" y1="11.0372040425384" x2="11.2151889839208" y2="11.0518686134778"/>
    <line x1="11.2151889839208" y1="11.0518686134778" x2="11.2204447706377" y2="11.0673516618699"/>
    <line x1="11.2204447706377" y1="11.0673516618699" x2="11.22363465002" y2="11.0833882684638"/>
    <line x1="11.22363465002" y1="11.0833882684638" x2="11.2247040423472" y2="11.0997040424747"/>
    <line x1="11.2247040423472" y1="11.0997040424747" x2="11.22363465002" y2="11.1160198164856"/>
    <line x1="11.22363465002" y1="11.1160198164856" x2="11.2204447706377" y2="11.1320564230795"/>
    <line x1="11.2204447706377" y1="11.1320564230795" x2="11.2151889839208" y2="11.1475394714715"/>
    <line x1="11.2151889839208" y1="11.1475394714715" x2="11.2079572178373" y2="11.1622040424109"/>
    <line x1="11.2079572178373" y1="11.1622040424109" x2="11.1988732099099" y2="11.1757992210232"/>
    <line x1="11.1988732099099" y1="11.1757992210232" x2="11.1880923900329" y2="11.1880923900329"/>
    <line x1="11.1880923900329" y1="11.1880923900329" x2="11.1757992210232" y2="11.1988732099099"/>
    <line x1="11.1757992210232" y1="11.1988732099099" x2="11.1622040424109" y2="11.2079572178373"/>
    <line x1="11.1622040424109" y1="11.2079572178373" x2="11.1475394714715" y2="11.2151889839208"/>
    <line x1="11.1475394714715" y1="11.2151889839208" x2="11.1320564230795" y2="11.2204447706377"/>
    <line x1="11.1320564230795" y1="11.2204447706377" x2="11.1160198164856" y2="11.22363465002"/>
    <line x1="11.1160198164856" y1="11.22363465002" x2="11.0997040424747" y2="11.2247040423472"/>
    <line x1="11.0997040424747" y1="11.2247040423472" x2="11.0833882684638" y2="11.22363465002"/>
    <line x1="11.0833882684638" y1="11.22363465002" x2="11.0673516618699" y2="11.2204447706377"/>
    <line x1="11.0673516618699" y1="11.2204447706377" x2="11.0518686134779" y2="11.2151889839208"/>
    <line x1="11.0518686134779" y1="11.2151889839208" x2="11.0372040425384" y2="11.2079572178373"/>
    <line x1="11.0372040425384" y1="11.2079572178373" x2="11.0236088639262" y2="11.1988732099099"/>
    <line x1="11.0236088639262" y1="11.1988732099099" x2="11.0113156949165" y2="11.1880923900329"/>
    <line x1="11.0113156949165" y1="11.1880923900329" x2="11.0005348750394" y2="11.1757992210232"/>
    <line x1="11.0005348750394" y1="11.1757992210232" x2="10.9914508671121" y2="11.1622040424109"/>
    <line x1="10.9914508671121" y1="11.1622040424109" x2="10.9842191010286" y2="11.1475394714715"/>
    <line x1="10.9842191010286" y1="11.1475394714715" x2="10.9789633143117" y2="11.1320564230795"/>
    <line x1="10.9789633143117" y1="11.1320564230795" x2="10.9757734349294" y2="11.1160198164856"/>
    <line x1="10.9757734349294" y1="11.1160198164856" x2="10.9747040426022" y2="11.0997040424747"/>
    <line x1="10.9747040426022" y1="11.0997040424747" x2="10.9757734349294" y2="11.0833882684638"/>
    <line x1="10.9757734349294" y1="11.0833882684638" x2="10.9789633143117" y2="11.0673516618699"/>
    <line x1="10.9789633143117" y1="11.0673516618699" x2="10.9842191010286" y2="11.0518686134778"/>
    <line x1="10.9842191010286" y1="11.0518686134778" x2="10.9914508671121" y2="11.0372040425384"/>
    <line x1="10.9914508671121" y1="11.0372040425384" x2="11.0005348750394" y2="11.0236088639262"/>
    <line x1="11.0005348750394" y1="11.0236088639262" x2="11.0113156949165" y2="11.0113156949165"/>
    <line x1="11.0113156949165" y1="11.0113156949165" x2="11.0236088639262" y2="11.0005348750394"/>
    <line x1="11.0236088639262" y1="11.0005348750394" x2="11.0372040425384" y2="10.9914508671121"/>
    <line x1="11.0372040425384" y1="10.9914508671121" x2="11.0518686134779" y2="10.9842191010286"/>
    <line x1="11.0518686134779" y1="10.9842191010286" x2="11.0673516618699" y2="10.9789633143117"/>
    <line x1="11.0673516618699" y1="10.9789633143117" x2="11.0833882684638" y2="10.9757734349294"/>
    <line x1="11.0833882684638" y1="10.9757734349294" x2="11.0997040424747" y2="10.9747040426022"/>
  </g>
</svg>
